<svg width="40" height="40" viewBox="0 0 40 40" fill="none" xmlns="http://www.w3.org/2000/svg">
<circle cx="20" cy="20" r="19.5" stroke="white"/>
<path d="M15.4324 15.105H11.6097C11.44 15.105 11.3025 15.2425 11.3025 15.4121V27.6928C11.3025 27.8624 11.44 27.9999 11.6097 27.9999H15.4324C15.602 27.9999 15.7395 27.8624 15.7395 27.6928V15.4121C15.7395 15.2425 15.602 15.105 15.4324 15.105Z" fill="white"/>
<path d="M13.5225 9C12.1316 9 11 10.1304 11 11.5197C11 12.9097 12.1316 14.0405 13.5225 14.0405C14.9123 14.0405 16.043 12.9097 16.043 11.5197C16.043 10.1304 14.9123 9 13.5225 9Z" fill="white"/>
<path d="M25.1551 14.7996C23.6198 14.7996 22.4848 15.4596 21.7964 16.2095V15.4119C21.7964 15.2423 21.659 15.1048 21.4893 15.1048H17.8284C17.6588 15.1048 17.5213 15.2423 17.5213 15.4119V27.6926C17.5213 27.8622 17.6588 27.9997 17.8284 27.9997H21.6428C21.8124 27.9997 21.9499 27.8622 21.9499 27.6926V21.6165C21.9499 19.569 22.506 18.7713 23.9333 18.7713C25.4877 18.7713 25.6113 20.0501 25.6113 21.7218V27.6926C25.6113 27.8623 25.7487 27.9998 25.9184 27.9998H29.7341C29.9038 27.9998 30.0413 27.8623 30.0413 27.6926V20.9565C30.0413 17.9119 29.4607 14.7996 25.1551 14.7996Z" fill="white"/>
</svg>
