<svg width="35" height="36" viewBox="0 0 35 36" fill="none" xmlns="http://www.w3.org/2000/svg">
<path d="M18.9924 19.3987V20.9888C18.9924 21.226 19.1875 21.4192 19.4271 21.4192H22.805C23.0445 21.4192 23.2396 21.226 23.2396 20.9888V15.0255C23.2396 14.8288 23.103 14.6706 22.9221 14.6179C23.3443 13.5163 23.559 12.3567 23.559 11.162C23.559 10.8387 23.5377 10.5172 23.5057 10.1957H24.2225C24.462 10.1957 24.6571 10.0024 24.6571 9.76522C24.6571 4.37998 20.2342 0 14.7965 0C14.557 0 14.3619 0.193267 14.3619 0.430455V1.42137C14.1401 1.40731 13.9201 1.39677 13.6984 1.39677C8.26053 1.39677 3.83778 5.77689 3.83778 11.162C3.83778 12.0651 3.96906 12.9541 4.21389 13.815C3.31617 14.5072 2.55333 15.3998 2.01931 16.4786C0.358759 19.8326 1.39305 23.877 4.40373 26.0576L3.87149 27.1311C3.3907 27.2874 2.96845 27.6265 2.72896 28.1115L0.199071 33.2187C-0.274633 34.1745 0.126331 35.3341 1.09143 35.8032C1.36642 35.9368 1.65915 36 1.94656 36C2.66683 36 3.36231 35.6029 3.6994 34.9195L6.22929 29.8122C6.47057 29.3273 6.48299 28.7897 6.31267 28.317L6.84315 27.2453C7.54925 27.4474 8.26599 27.551 8.97564 27.551C11.8639 27.551 14.6174 25.9417 15.9513 23.2482C16.3931 22.3574 16.6467 21.4105 16.7213 20.4494C17.5214 20.1946 18.2825 19.8467 18.9886 19.3987L18.9924 19.3987ZM22.3686 20.5583H19.86V15.4559H22.3668V20.5583H22.3686ZM23.7648 9.33666H15.2295V0.883903C19.8403 1.10352 23.5431 4.77029 23.7648 9.33666ZM4.70532 11.1621C4.70532 6.25142 8.73967 2.25781 13.6966 2.25781C13.9184 2.25781 14.1402 2.26835 14.3601 2.28416V9.76539C14.3601 10.0026 14.5553 10.1958 14.7948 10.1958H22.6293C22.6648 10.5156 22.6879 10.8389 22.6879 11.1622C22.6879 12.3551 22.4448 13.5077 21.9853 14.5953H19.4252C19.1857 14.5953 18.9906 14.7885 18.9906 15.0257V18.3516C18.2969 18.8541 17.5411 19.2494 16.7392 19.5358C16.7073 18.8102 16.5725 18.0845 16.3276 17.3765C15.657 15.4333 14.2626 13.8661 12.4015 12.9613C9.94257 11.7665 7.15353 11.9879 4.96804 13.2951C4.79595 12.5993 4.7037 11.8842 4.7037 11.1604L4.70532 11.1621ZM5.44867 29.4327L2.91878 34.54C2.65621 35.0706 2.00688 35.2903 1.47286 35.0302C0.937074 34.7702 0.7153 34.1271 0.977904 33.5983L3.5078 28.491C3.69585 28.1115 4.08083 27.8919 4.48 27.8919C4.63967 27.8919 4.80112 27.927 4.95371 28.0008C5.21096 28.1256 5.40434 28.3452 5.49835 28.6158C5.59238 28.8881 5.57464 29.178 5.44691 29.4327L5.44867 29.4327ZM15.1726 22.8686C13.6468 25.9504 10.0277 27.4348 6.75624 26.3228C6.73672 26.3158 6.71721 26.3193 6.69769 26.3158C6.6693 26.3105 6.64092 26.3035 6.61253 26.3053C6.58415 26.3053 6.55754 26.3105 6.53092 26.3158C6.50431 26.3211 6.4777 26.3263 6.45286 26.3369C6.42625 26.3474 6.40496 26.3632 6.38012 26.3773C6.35705 26.3931 6.33576 26.4072 6.31448 26.4265C6.29319 26.4458 6.27899 26.4704 6.26125 26.495C6.25061 26.5108 6.23464 26.5231 6.22577 26.5407L5.74852 27.5052C5.62433 27.3998 5.49127 27.3032 5.3387 27.2276C5.18612 27.1538 5.02645 27.1082 4.86677 27.0765L5.34401 26.112C5.35288 26.0944 5.35288 26.0733 5.35821 26.0558C5.36708 26.0276 5.37595 26.0013 5.3795 25.9732C5.38304 25.9451 5.38127 25.9187 5.37772 25.8924C5.37595 25.8643 5.37417 25.8379 5.36708 25.8115C5.35998 25.7852 5.34756 25.7606 5.33514 25.736C5.32272 25.7114 5.31208 25.6886 5.29434 25.6657C5.2766 25.6429 5.25531 25.6253 5.23224 25.606C5.21805 25.5937 5.20741 25.5761 5.18966 25.5638C2.29961 23.6821 1.26886 19.9397 2.79639 16.8583C4.46939 13.4796 8.60665 12.0793 12.0184 13.7362C13.6719 14.5391 14.9085 15.9306 15.5046 17.6559C16.1007 19.3812 15.9818 21.2331 15.171 22.8689L15.1726 22.8686ZM25.292 21.4191H28.6859C28.9254 21.4191 29.1206 21.2258 29.1206 20.9887V11.4204C29.1206 11.1833 28.9254 10.99 28.6859 10.99H25.292C25.0525 10.99 24.8574 11.1833 24.8574 11.4204V20.9887C24.8574 21.2258 25.0525 21.4191 25.292 21.4191ZM25.7267 11.8509H28.2513V20.5582H25.7267V11.8509ZM31.1573 21.4191H34.5228C34.7623 21.4191 34.9574 21.2258 34.9574 20.9887V8.53374C34.9574 8.29655 34.7623 8.10328 34.5228 8.10328H31.1573C30.9178 8.10328 30.7226 8.29655 30.7226 8.53374V20.9887C30.7226 21.2258 30.9178 21.4191 31.1573 21.4191ZM31.5919 8.9624H34.0881V20.5582H31.5919V8.9624ZM35 22.9038C35 23.141 34.8048 23.3343 34.5653 23.3343H19.0648C18.8253 23.3343 18.6301 23.141 18.6301 22.9038C18.6301 22.6667 18.8253 22.4734 19.0648 22.4734H34.5653C34.8048 22.4734 35 22.6667 35 22.9038ZM18.6815 25.5498H16.4692C16.2297 25.5498 16.0345 25.7431 16.0345 25.9803V28.1712C16.0345 28.4084 16.2297 28.6017 16.4692 28.6017H18.6815C18.921 28.6017 19.1162 28.4084 19.1162 28.1712V25.9803C19.1162 25.7431 18.921 25.5498 18.6815 25.5498ZM18.2468 27.7408H16.9038V26.4108H18.2468V27.7408ZM30.4065 26.2983C30.4065 26.5355 30.2113 26.7288 29.9718 26.7288H20.5831C20.3436 26.7288 20.1484 26.5355 20.1484 26.2983C20.1484 26.0611 20.3436 25.8678 20.5831 25.8678H29.9718C30.2113 25.8678 30.4065 26.0611 30.4065 26.2983ZM30.4065 28.1115C30.4065 28.3487 30.2113 28.5419 29.9718 28.5419H20.5831C20.3436 28.5419 20.1484 28.3487 20.1484 28.1115C20.1484 27.8743 20.3436 27.681 20.5831 27.681H29.9718C30.2113 27.681 30.4065 27.8743 30.4065 28.1115ZM18.6815 29.9317H16.4691C16.2296 29.9317 16.0345 30.125 16.0345 30.3621V32.5531C16.0345 32.7903 16.2296 32.9835 16.4691 32.9835H18.6815C18.921 32.9835 19.1161 32.7903 19.1161 32.5531V30.3621C19.1161 30.125 18.921 29.9317 18.6815 29.9317ZM18.2468 32.1226H16.9038V30.7926H18.2468V32.1226ZM30.4064 30.6802C30.4064 30.9174 30.2113 31.1106 29.9718 31.1106H20.5831C20.3436 31.1106 20.1484 30.9174 20.1484 30.6802C20.1484 30.443 20.3436 30.2497 20.5831 30.2497H29.9718C30.2113 30.2497 30.4064 30.443 30.4064 30.6802ZM30.4064 32.4933C30.4064 32.7305 30.2113 32.9238 29.9718 32.9238H20.5831C20.3436 32.9238 20.1484 32.7305 20.1484 32.4933C20.1484 32.2561 20.3436 32.0629 20.5831 32.0629H29.9718C30.2113 32.0629 30.4064 32.2561 30.4064 32.4933ZM11.5991 14.5866C10.1833 13.8979 8.57952 13.7977 7.08747 14.3037C5.59364 14.8097 4.38903 15.8604 3.69532 17.2624C2.99989 18.6645 2.89875 20.2528 3.40969 21.7304C3.92064 23.2098 4.98154 24.4027 6.3973 25.0897C7.21872 25.4886 8.104 25.6906 8.99282 25.6906C9.63684 25.6906 10.2826 25.5852 10.9089 25.3726C12.4027 24.8666 13.6073 23.8159 14.301 22.4139C15.7363 19.5184 14.5228 16.0061 11.5991 14.5866ZM13.5204 22.0359C12.9279 23.2324 11.9007 24.1284 10.6269 24.5589C9.35303 24.9894 7.98696 24.9033 6.77876 24.3165C5.57057 23.7296 4.66581 22.7123 4.23112 21.4508C3.79646 20.1893 3.88339 18.8365 4.47594 17.64C5.0685 16.4435 6.09571 15.5475 7.36954 15.117C7.90356 14.936 8.45529 14.8464 9.00352 14.8464C9.76286 14.8464 10.5168 15.0186 11.2176 15.3594C13.712 16.5717 14.7446 19.5656 13.5222 22.036L13.5204 22.0359ZM13.0219 20.8517C12.9705 21.045 12.7948 21.1732 12.6014 21.1732C12.5642 21.1732 12.5287 21.168 12.4914 21.1592C12.259 21.0994 12.1206 20.864 12.181 20.6338C12.5784 19.1334 11.8208 17.5679 10.4193 16.9916C10.1975 16.9003 10.0928 16.649 10.1851 16.4294C10.2773 16.2098 10.531 16.1061 10.7528 16.1957C12.5535 16.9354 13.5293 18.9348 13.0219 20.8501L13.0219 20.8517Z" fill="black"/>
</svg>
