<svg width="23" height="22" viewBox="0 0 23 22" fill="none" xmlns="http://www.w3.org/2000/svg">
<path d="M22.0961 13.9592L22.0948 8.2779C22.0948 7.99075 21.9726 7.71675 21.7571 7.52707C21.5482 7.34134 21.2697 7.25441 20.9925 7.28865C19.7836 7.44277 19.5787 9.05111 19.379 10.6067C19.3198 11.0678 19.2568 11.5564 19.17 11.9977C18.7207 11.7619 18.1754 11.8054 17.7707 12.1123C17.4803 12.3362 17.2136 12.5351 16.9653 12.7182C15.6382 13.7035 14.7605 14.3542 14.7185 15.9876C14.6988 16.7463 14.6948 17.6723 14.6948 18.3309H14.1706C13.892 18.3309 13.666 18.5575 13.666 18.8367V21.2762C13.666 21.5555 13.892 21.7821 14.1706 21.7821H19.4V21.7807C19.6786 21.7807 19.9046 21.5542 19.9046 21.2749V18.8354C19.9046 18.5562 19.6786 18.3296 19.4 18.3296H19.2739C19.6076 17.7382 20.0228 17.1955 20.509 16.7213C21.2894 15.8691 22.0974 14.9893 22.0961 13.9592ZM18.8954 20.7691H14.6751V19.3426L18.8954 19.3413V20.7691ZM18.1977 18.3296H15.7039C15.7039 17.6908 15.7079 16.7687 15.7276 16.0126C15.7565 14.8732 16.2873 14.4794 17.5671 13.5297C17.818 13.3426 18.0926 13.1398 18.3883 12.9106L18.387 12.9119C18.5039 12.8263 18.6629 12.8289 18.7772 12.9185C18.8521 12.9764 18.8482 13.0199 18.8376 13.0528C18.8153 13.0924 18.7956 13.1358 18.7719 13.1701L17.1453 15.2289C17.0586 15.3343 17.0166 15.47 17.031 15.6056C17.0455 15.7413 17.1125 15.8651 17.2202 15.9494C17.3266 16.035 17.462 16.0719 17.5973 16.0548C17.7326 16.0377 17.8548 15.9665 17.9363 15.8572L19.58 13.7747V13.7734C19.6273 13.7035 19.6707 13.6311 19.7101 13.556L19.7127 13.5573C19.7206 13.5442 19.7259 13.5297 19.7337 13.5165H19.7324C20.099 12.6313 20.3171 11.6921 20.3789 10.7358C20.509 9.72816 20.685 8.34773 21.0858 8.27789L21.0871 13.9592C21.0884 14.5941 20.4157 15.3265 19.7653 16.0351V16.0364C19.0768 16.6726 18.5407 17.4563 18.1977 18.3296Z" fill="black"/>
<path d="M8.82984 18.3311H8.30558C8.30558 17.6725 8.30164 16.7465 8.28193 15.9878C8.23857 14.3544 7.36218 13.7038 6.03513 12.7185C5.78811 12.5354 5.52009 12.3365 5.2297 12.1125C4.82502 11.8069 4.28106 11.7621 3.83302 11.9979C3.74499 11.5553 3.68061 11.068 3.62279 10.6083C3.42308 9.05261 3.21811 7.4443 2.00929 7.29019H2.00798C1.73074 7.25594 1.4522 7.34156 1.24329 7.52729C1.02912 7.71697 0.905612 7.99095 0.905612 8.27812L0.904298 13.9594C0.902985 14.9895 1.71103 15.8694 2.49153 16.7216C2.97768 17.1958 3.39288 17.7385 3.72662 18.33H3.60049C3.32194 18.33 3.09594 18.5565 3.09594 18.8358V21.2753C3.09594 21.5545 3.32194 21.7811 3.60049 21.7811H8.82993V21.7824C9.10848 21.7824 9.33448 21.5558 9.33448 21.2766V18.8371C9.33448 18.5578 9.10839 18.3311 8.82984 18.3311ZM3.23376 16.0365C2.58337 15.3279 1.91195 14.5955 1.91195 13.9606L1.8791 8.29381C2.31271 8.34913 2.49007 9.72826 2.61883 10.7373L2.62146 10.7359C2.68716 11.6659 2.89476 12.5801 3.23768 13.4468C3.24031 13.4547 3.24031 13.4626 3.24294 13.4705L3.24688 13.4692C3.25739 13.4916 3.27053 13.5127 3.28104 13.5351L3.28761 13.5574L3.29286 13.5548V13.5535C3.33754 13.6378 3.38615 13.7195 3.43871 13.7985L5.06402 15.856V15.8573C5.14548 15.9653 5.26768 16.0378 5.403 16.0549C5.53834 16.072 5.67367 16.0338 5.78141 15.9495C5.88784 15.8652 5.95616 15.7414 5.9693 15.6058C5.98376 15.4701 5.94171 15.3344 5.85499 15.229L4.24808 13.1966H4.2494C4.21655 13.1465 4.18633 13.0938 4.16005 13.0398C4.15348 13.0082 4.15874 12.9687 4.22444 12.9186C4.33743 12.8291 4.49773 12.8264 4.61334 12.912C4.90766 13.1412 5.18226 13.3441 5.43454 13.5311C6.7143 14.4808 7.2438 14.8734 7.27404 16.0128C7.29375 16.7702 7.29769 17.6909 7.29769 18.3298H4.80386C4.46094 17.4565 3.92353 16.6714 3.23503 16.0365L3.23376 16.0365ZM8.3253 20.7706H4.10494V19.3414L8.3253 19.3427V20.7706Z" fill="black"/>
<path d="M18.6623 6.91087C19.6373 4.86917 18.937 2.4179 17.0318 1.20462C15.6692 0.328649 13.4579 0.0704818 11.5003 2.03712C9.54252 0.0692004 7.33103 0.329998 5.96876 1.2033V1.20462C4.06356 2.4178 3.36325 4.86907 4.33817 6.91088C5.7664 9.9721 8.77413 12.1285 11.2336 13.6655C11.3966 13.7683 11.6042 13.7683 11.7671 13.6655C14.2267 12.1283 17.2341 9.97071 18.6623 6.91087ZM11.5002 12.6394C9.2113 11.1891 6.51794 9.19614 5.25254 6.48127V6.48259C4.49441 4.89929 5.03706 2.99854 6.51521 2.05537C7.01714 1.73001 7.60184 1.55481 8.20097 1.55218C9.35722 1.60487 10.4281 2.17787 11.1153 3.11177C11.2138 3.21979 11.3544 3.2817 11.5002 3.2817C11.6461 3.2817 11.7867 3.21979 11.8852 3.11177C13.5066 1.1939 15.3238 1.30848 16.4853 2.05537C17.9635 2.99851 18.5061 4.89925 17.748 6.48259C16.4827 9.19608 13.7888 11.189 11.5002 12.6394Z" fill="black"/>
</svg>
