<svg width="168" height="249" viewBox="0 0 168 249" fill="none" xmlns="http://www.w3.org/2000/svg">
<path fill-rule="evenodd" clip-rule="evenodd" d="M123.999 0.678894C158.127 0.678894 189.023 14.5401 211.382 36.9563C233.75 59.3635 247.579 90.3262 247.579 124.532C247.579 158.738 233.748 189.699 211.382 212.108C189.024 234.525 158.13 248.385 123.999 248.385C89.8691 248.385 58.9762 234.524 36.6172 212.108C14.2492 189.701 0.419922 158.738 0.419922 124.532C0.419922 90.3262 14.2505 59.3648 36.6172 36.9563C58.9749 14.5388 89.8691 0.678894 123.999 0.678894ZM149.704 133.418L149.673 133.356L149.663 133.346C149.642 133.315 149.632 133.273 149.611 133.242C149.539 133.129 149.467 133.005 149.374 132.902L149.333 132.86H163.947C165.244 132.86 166.295 131.808 166.295 130.507C166.295 130.404 166.284 130.301 166.274 130.198C166.047 127.37 165.028 124.738 163.442 122.539C161.815 120.279 159.58 118.463 156.975 117.348C153.226 115.655 148.994 113.984 144.648 112.652C141.702 111.754 138.736 111.021 135.884 110.557V105.685C138.458 104.044 140.621 101.825 142.186 99.2242C143.947 96.3033 144.957 92.8872 144.957 89.2645V82.5556C144.957 77.1991 142.753 72.3171 139.19 68.7874C135.637 65.2577 130.735 63.0591 125.349 63.0591H122.62C117.233 63.0591 112.342 65.2575 108.779 68.7874C105.226 72.3171 103.012 77.1991 103.012 82.5556V89.2645C103.012 92.8975 104.021 96.3036 105.782 99.2242C107.347 101.825 109.52 104.044 112.084 105.685V110.557C109.222 111.021 106.256 111.744 103.321 112.652C98.9851 113.984 94.7421 115.655 90.9935 117.348L90.8905 117.4C88.3365 118.525 86.1326 120.31 84.526 122.54C82.9195 124.779 81.9 127.452 81.694 130.332C81.6014 131.622 82.5797 132.747 83.867 132.84C83.9185 132.84 83.9803 132.85 84.0318 132.85H98.6451C98.2847 133.263 98.0684 133.81 98.0684 134.398V161.233H98.0787C98.0787 162.048 98.5112 162.843 99.263 163.276L122.795 176.673C123.495 177.086 124.381 177.117 125.143 176.694L148.561 163.369C149.354 162.997 149.91 162.182 149.91 161.243V134.409H149.9V134.316C149.9 134.006 149.828 133.707 149.704 133.418ZM145.224 138.423L125.153 149.849C124.401 150.282 123.505 150.241 122.805 149.828L102.775 138.423V159.86L123.999 171.936L145.224 159.85L145.224 138.423ZM105.165 134.388L124 145.101L142.836 134.378L139.592 132.53L139.571 132.52L124 123.664L108.594 132.437C108.491 132.509 108.388 132.571 108.275 132.623L105.165 134.388ZM161.116 128.133C160.776 127.091 160.282 126.131 159.654 125.264C158.511 123.675 156.935 122.405 155.112 121.631L155.061 121.611V121.621C151.425 119.98 147.368 118.37 143.311 117.131C139.922 116.089 136.514 115.304 133.301 114.933C132.096 114.799 131.21 113.787 131.22 112.6V104.343C131.22 103.394 131.776 102.579 132.59 102.207C134.907 100.927 136.853 99.0591 138.213 96.7987C139.541 94.5899 140.303 92.0097 140.303 89.2642V82.5553C140.303 78.4887 138.625 74.7939 135.926 72.1105C133.228 69.427 129.49 67.7654 125.391 67.7654H122.662C118.553 67.7654 114.825 69.4271 112.127 72.1105C109.429 74.7939 107.75 78.489 107.75 82.5553V89.2642C107.75 92.0097 108.512 94.5898 109.841 96.7987C111.221 99.1003 113.208 100.999 115.587 102.279C116.37 102.702 116.823 103.507 116.823 104.343V112.6C116.823 113.859 115.845 114.881 114.609 114.943C111.437 115.315 108.069 116.109 104.722 117.121C100.665 118.37 96.5971 119.98 92.9721 121.61C92.9103 121.641 92.8588 121.662 92.797 121.683C91.0257 122.467 89.4913 123.706 88.379 125.264C87.7508 126.131 87.2565 127.101 86.9166 128.133H106.7L122.868 118.927C123.62 118.493 124.516 118.535 125.216 118.948L141.353 128.133L161.116 128.144L161.116 128.133ZM124.002 21.7848L93.425 82.0085C93.044 82.7619 92.3025 83.2264 91.5198 83.2883L38.6186 89.4603H38.6083L24.8602 91.06L34.7157 101.536C34.7363 101.556 34.7672 101.587 34.7878 101.608L74.3543 143.677C74.8795 144.235 75.0752 144.978 74.9516 145.68L63.8913 209.465L122.941 179.389C123.631 179.038 124.413 179.069 125.052 179.389L184.101 209.465L181.877 196.656L173.04 145.68C172.907 144.886 173.185 144.122 173.72 143.595L223.141 91.0605L209.393 89.4608L156.397 83.2888C155.584 83.196 154.924 82.7005 154.574 82.0193L129.22 32.0765L129.21 32.0558L125.513 24.7795L124.002 21.7848ZM89.8211 78.756L112.663 33.746C97.339 35.6555 83.1988 41.3939 71.2113 49.9811C58.9253 58.7849 48.9053 70.582 42.2113 84.298L89.8211 78.756ZM123.074 14.4342L123.053 14.4445L122.991 14.4652L122.971 14.4755L122.94 14.4961H122.929L122.909 14.5064L122.898 14.5168H122.888L122.878 14.5374L122.857 14.5581L122.775 14.5993H122.765L122.754 14.6097L122.734 14.62L122.723 14.6303H122.713L122.693 14.6406H122.682L122.651 14.6716L122.631 14.6819L122.61 14.7025L122.487 14.7645V14.7954L122.466 14.8161L122.445 14.8264L122.394 14.878H122.404L122.26 15.0225L122.27 15.0122L122.239 15.0431L122.209 15.1051L122.095 15.2186L122.085 15.2392L122.064 15.2702V15.2805L122.044 15.3218V15.3321L122.033 15.3425L121.992 15.425H121.972V15.4353L121.961 15.456L121.941 15.4663V15.4766L121.91 15.5282L115.195 28.7495C97.8839 30.339 81.9007 36.5522 68.4921 46.1611C54.7851 55.9869 43.7557 69.3525 36.7424 84.9381L19.678 86.9301C18.3907 87.0746 17.4742 88.2408 17.6184 89.531C17.6801 90.0883 17.9376 90.5838 18.3186 90.9553L30.481 103.888C29.791 107.046 29.2555 110.245 28.895 113.496C28.4831 117.14 28.2668 120.824 28.2668 124.53C28.2668 138.99 31.4489 152.706 37.144 165.019C42.8699 177.394 51.1394 188.334 61.2728 197.18L58.4819 213.301C58.2657 214.581 59.1204 215.789 60.3974 216.016C60.9535 216.109 61.489 216.005 61.9524 215.747L76.7614 208.203C83.6716 212.156 91.1069 215.262 98.9232 217.388C106.915 219.566 115.329 220.722 124 220.722C132.671 220.722 141.084 219.556 149.076 217.388C156.892 215.262 164.328 212.156 171.248 208.203L186.057 215.747C186.51 216.005 187.056 216.109 187.612 216.016C188.889 215.799 189.744 214.581 189.528 213.301L186.737 197.18C196.87 188.334 205.14 177.394 210.866 165.019C216.561 152.706 219.743 138.989 219.743 124.53C219.743 120.825 219.526 117.14 219.115 113.496C218.744 110.245 218.208 107.035 217.529 103.877L227.333 93.453L229.691 90.9449C230.072 90.5837 230.33 90.0883 230.391 89.5206C230.535 88.2305 229.619 87.0642 228.332 86.9197L211.267 84.9277C204.254 69.343 193.225 55.9665 179.518 46.1508C166.109 36.5419 150.127 30.3285 132.814 28.7392L126.1 15.5179L126.069 15.4663H126.059L126.038 15.425H126.028L126.017 15.4147L125.976 15.3321L125.966 15.3218V15.3115L125.945 15.2702V15.2598L125.925 15.2289L125.914 15.2082L125.801 15.0947L125.781 15.0534L125.76 15.0431L125.544 14.8264L125.523 14.816L125.503 14.7954H125.513L125.503 14.7851L125.379 14.7231L125.369 14.7128V14.6819L125.348 14.6715L125.317 14.6509H125.307L125.266 14.6096L125.245 14.5993H125.224L125.204 14.5787L125.142 14.5477L125.132 14.5374H125.121L125.101 14.5271V14.5167L125.06 14.4961H125.049L125.018 14.4754L124.998 14.4651L124.936 14.4445L124.916 14.4342C124.885 14.4238 124.854 14.4135 124.823 14.4032C124.576 14.3103 124.308 14.2587 124.05 14.2484H123.937C123.68 14.2587 123.422 14.3 123.165 14.4032C123.134 14.4135 123.104 14.4239 123.074 14.4342ZM135.339 33.745L158.191 78.7549L205.801 84.3077C199.107 70.5807 189.087 58.7941 176.801 49.9908C164.803 41.4037 150.664 35.6646 135.339 33.745ZM213.565 108.078L177.861 146.039L185.78 191.72C194.451 183.669 201.557 173.936 206.603 163.046C212.02 151.342 215.037 138.296 215.037 124.528C215.037 120.957 214.842 117.458 214.45 114.032C214.213 112.019 213.925 110.039 213.565 108.078ZM166.203 205.612L124 184.113L81.7968 205.612C87.5639 208.647 93.7016 211.082 100.138 212.837C107.738 214.912 115.74 216.006 123.989 216.006C132.248 216.006 140.24 214.901 147.84 212.837C154.287 211.083 160.436 208.647 166.203 205.612ZM62.2218 191.72L70.1412 146.039L34.4264 108.079C34.0762 110.04 33.7776 112.021 33.551 114.034C33.1597 117.461 32.964 120.97 32.964 124.541C32.964 138.309 35.9916 151.354 41.3983 163.059C46.4445 173.937 53.5508 183.658 62.2218 191.72ZM208.065 40.2797C186.552 18.7188 156.83 5.38413 124 5.38413C91.1691 5.38413 61.4467 18.7191 39.934 40.2797C18.4207 61.8406 5.11555 91.6282 5.11555 124.532C5.11555 157.435 18.421 187.223 39.934 208.783C61.4473 230.344 91.1691 243.679 124 243.679C156.83 243.679 186.553 230.344 208.065 208.783C229.579 187.223 242.884 157.435 242.884 124.532C242.894 91.6282 229.578 61.84 208.065 40.2797Z" fill="url(#paint0_linear_633_10329)"/>
<defs>
<linearGradient id="paint0_linear_633_10329" x1="-122" y1="147.5" x2="213.5" y2="110.5" gradientUnits="userSpaceOnUse">
<stop stop-color="#B2B2B2"/>
<stop offset="1" stop-color="white"/>
</linearGradient>
</defs>
</svg>
