<svg width="45" height="18" viewBox="0 0 45 18" fill="none" xmlns="http://www.w3.org/2000/svg">
<path d="M40.9841 14.7407H38.6411V13.8035H40.9841C41.8006 13.8035 42.5837 13.4791 43.161 12.9018C43.7384 12.3244 44.0628 11.5414 44.0628 10.7248V6.09514C44.0627 5.90004 43.9927 5.71144 43.8655 5.56355C43.7382 5.41567 43.5622 5.31831 43.3692 5.28916L40.5577 4.82057L32.1089 1.11399C31.8586 1.00056 31.5871 0.941469 31.3123 0.94061H23.7539C23.6836 0.94061 18.7587 0.753172 15.3802 3.33981L15.3333 3.37261L11.3315 5.76712L3.73091 7.73522C2.88316 7.94955 2.13882 8.45742 1.63008 9.16862C1.12134 9.87982 0.881148 10.7483 0.952154 11.6199C1.00871 12.3119 1.10415 13.0003 1.238 13.6817C1.24561 13.7168 1.2652 13.7481 1.29342 13.7704C1.32164 13.7926 1.35672 13.8043 1.39263 13.8035H6.07857V14.7407H1.42075C1.16506 14.7444 0.91618 14.6583 0.717506 14.4973C0.518833 14.3363 0.382971 14.1106 0.333611 13.8597C0.190134 13.152 0.0837745 12.4372 0.0149669 11.7183C-0.0727313 10.6284 0.226975 9.54247 0.861298 8.65185C1.49562 7.76122 2.42387 7.123 3.48256 6.84958L11.0316 4.8768L14.8272 2.58537C18.4588 -0.202758 23.5618 0.00342273 23.7774 0.00342273H31.3123C31.7159 0.00354437 32.1149 0.0881436 32.4838 0.251777L40.8951 3.93961L43.5192 4.35197C43.9339 4.41706 44.3114 4.6288 44.5831 4.9487C44.8549 5.2686 45.0028 5.67541 45 6.09514V10.7342C44.9975 11.7977 44.5733 12.8167 43.8204 13.5678C43.0676 14.3189 42.0476 14.7407 40.9841 14.7407Z" fill="black"/>
<path d="M31.3595 13.8035H13.3421V14.7407H31.3595V13.8035Z" fill="black"/>
<path d="M24.3618 0.418089L23.6859 5.82104L24.6159 5.93737L25.2917 0.534414L24.3618 0.418089Z" fill="black"/>
<path d="M14.7713 6.71365C13.8341 6.71365 11.8098 6.5965 10.882 5.64057L11.5521 4.98922C12.2831 5.73897 14.4105 5.80926 15.1649 5.76709L32.7653 4.95174C32.8909 4.94405 33.0108 4.89643 33.1074 4.81584L36.2282 2.18235L36.8327 2.8993L33.7119 5.53279C33.4569 5.74621 33.1395 5.87117 32.8075 5.88892L15.2118 6.70428L14.7713 6.71365Z" fill="black"/>
<path d="M34.9908 17.8474C34.1716 17.8474 33.3707 17.6045 32.6895 17.1493C32.0083 16.6942 31.4773 16.0472 31.1638 15.2903C30.8503 14.5334 30.7682 13.7005 30.9281 12.8969C31.0879 12.0934 31.4824 11.3553 32.0617 10.776C32.6411 10.1966 33.3792 9.80213 34.1827 9.64229C34.9862 9.48246 35.8191 9.56449 36.5761 9.87802C37.333 10.1915 37.9799 10.7225 38.4351 11.4037C38.8903 12.0849 39.1332 12.8858 39.1332 13.7051C39.1307 14.8029 38.6935 15.8551 37.9172 16.6314C37.1409 17.4077 36.0887 17.845 34.9908 17.8474ZM34.9908 10.4999C34.3569 10.4999 33.7372 10.6879 33.2101 11.0401C32.6831 11.3922 32.2722 11.8928 32.0296 12.4785C31.787 13.0642 31.7236 13.7086 31.8472 14.3304C31.9709 14.9521 32.2762 15.5232 32.7244 15.9715C33.1727 16.4197 33.7438 16.725 34.3655 16.8487C34.9873 16.9723 35.6317 16.9089 36.2174 16.6663C36.8031 16.4237 37.3037 16.0129 37.6559 15.4858C38.008 14.9587 38.196 14.339 38.196 13.7051C38.1948 12.8554 37.8567 12.0409 37.2559 11.44C36.6551 10.8392 35.8405 10.5011 34.9908 10.4999Z" fill="black"/>
<path d="M34.9899 16.1278C34.5107 16.1278 34.0423 15.9857 33.6439 15.7195C33.2455 15.4533 32.935 15.0749 32.7517 14.6322C32.5683 14.1896 32.5203 13.7025 32.6138 13.2325C32.7073 12.7626 32.938 12.3309 33.2768 11.9921C33.6156 11.6533 34.0473 11.4225 34.5173 11.3291C34.9872 11.2356 35.4743 11.2836 35.917 11.4669C36.3597 11.6503 36.738 11.9608 37.0042 12.3592C37.2704 12.7576 37.4125 13.226 37.4125 13.7051C37.4125 14.3477 37.1573 14.9639 36.7029 15.4182C36.2486 15.8725 35.6324 16.1278 34.9899 16.1278ZM34.9899 12.2197C34.6961 12.2197 34.4089 12.3068 34.1646 12.47C33.9203 12.6333 33.73 12.8653 33.6175 13.1367C33.5051 13.4081 33.4757 13.7068 33.533 13.9949C33.5903 14.2831 33.7318 14.5478 33.9395 14.7555C34.1473 14.9633 34.4119 15.1047 34.7001 15.162C34.9882 15.2194 35.2869 15.1899 35.5583 15.0775C35.8298 14.9651 36.0618 14.7747 36.225 14.5304C36.3882 14.2861 36.4753 13.9989 36.4753 13.7051C36.4753 13.3112 36.3188 12.9334 36.0403 12.6548C35.7617 12.3762 35.3839 12.2197 34.9899 12.2197Z" fill="black"/>
<path d="M9.70963 16.1278C9.23048 16.1278 8.76209 15.9857 8.36369 15.7195C7.96529 15.4533 7.65477 15.0749 7.47141 14.6322C7.28805 14.1896 7.24007 13.7025 7.33355 13.2325C7.42703 12.7626 7.65776 12.3309 7.99657 11.9921C8.33538 11.6533 8.76705 11.4225 9.237 11.3291C9.70694 11.2356 10.1941 11.2836 10.6367 11.4669C11.0794 11.6503 11.4578 11.9608 11.724 12.3592C11.9902 12.7576 12.1323 13.226 12.1323 13.7051C12.1323 14.3477 11.877 14.9639 11.4227 15.4182C10.9684 15.8725 10.3521 16.1278 9.70963 16.1278ZM9.70963 12.2197C9.41584 12.2197 9.12864 12.3068 8.88436 12.47C8.64008 12.6333 8.44969 12.8653 8.33726 13.1367C8.22483 13.4081 8.19541 13.7068 8.25273 13.9949C8.31004 14.2831 8.45152 14.5478 8.65926 14.7555C8.867 14.9633 9.13169 15.1047 9.41983 15.162C9.70798 15.2194 10.0067 15.1899 10.2781 15.0775C10.5495 14.9651 10.7815 14.7747 10.9447 14.5304C11.108 14.2861 11.1951 13.9989 11.1951 13.7051C11.1951 13.3112 11.0386 12.9334 10.76 12.6548C10.4814 12.3762 10.1036 12.2197 9.70963 12.2197Z" fill="black"/>
<path d="M9.71058 17.8474C8.8913 17.8474 8.09041 17.6045 7.4092 17.1493C6.728 16.6942 6.19706 16.0472 5.88353 15.2903C5.57001 14.5334 5.48797 13.7005 5.64781 12.8969C5.80764 12.0934 6.20216 11.3553 6.78148 10.776C7.3608 10.1966 8.0989 9.80213 8.90244 9.64229C9.70598 9.48246 10.5389 9.56449 11.2958 9.87802C12.0527 10.1915 12.6997 10.7225 13.1548 11.4037C13.61 12.0849 13.8529 12.8858 13.8529 13.7051C13.8517 14.8033 13.4149 15.8562 12.6383 16.6328C11.8617 17.4094 10.8088 17.8462 9.71058 17.8474ZM9.71058 10.4999C9.07666 10.4999 8.45697 10.6879 7.92988 11.0401C7.40279 11.3922 6.99197 11.8928 6.74938 12.4785C6.50679 13.0642 6.44331 13.7086 6.56699 14.3304C6.69066 14.9521 6.99592 15.5232 7.44418 15.9715C7.89243 16.4197 8.46354 16.725 9.08528 16.8487C9.70702 16.9723 10.3515 16.9089 10.9372 16.6663C11.5228 16.4237 12.0234 16.0129 12.3756 15.4858C12.7278 14.9587 12.9158 14.339 12.9158 13.7051C12.9158 12.855 12.5781 12.0397 11.977 11.4387C11.3759 10.8376 10.5606 10.4999 9.71058 10.4999Z" fill="black"/>
<path d="M19.9816 9.67046H18.2056C18.0813 9.67046 17.9621 9.6211 17.8743 9.53322C17.7864 9.44534 17.737 9.32615 17.737 9.20187C17.737 9.07759 17.7864 8.9584 17.8743 8.87053C17.9621 8.78265 18.0813 8.73328 18.2056 8.73328H19.9816C20.1058 8.73328 20.225 8.78265 20.3129 8.87053C20.4008 8.9584 20.4502 9.07759 20.4502 9.20187C20.4502 9.32615 20.4008 9.44534 20.3129 9.53322C20.225 9.6211 20.1058 9.67046 19.9816 9.67046Z" fill="black"/>
<path d="M27.7272 9.67046H25.9465C25.8223 9.67046 25.7031 9.6211 25.6152 9.53322C25.5273 9.44534 25.4779 9.32615 25.4779 9.20187C25.4779 9.07759 25.5273 8.9584 25.6152 8.87053C25.7031 8.78265 25.8223 8.73328 25.9465 8.73328H27.7272C27.8515 8.73328 27.9707 8.78265 28.0585 8.87053C28.1464 8.9584 28.1958 9.07759 28.1958 9.20187C28.1958 9.32615 28.1464 9.44534 28.0585 9.53322C27.9707 9.6211 27.8515 9.67046 27.7272 9.67046Z" fill="black"/>
<path d="M0.562825 11.7605L0.408189 10.8233L1.78117 10.589C1.9239 10.5661 2.0531 10.4912 2.14394 10.3787C2.23477 10.2662 2.2808 10.1242 2.27319 9.97981L2.14667 7.69308L3.08386 7.64153L3.20569 9.92827C3.23044 10.3048 3.11409 10.677 2.87932 10.9725C2.64455 11.2679 2.30819 11.4653 1.9358 11.5262L0.562825 11.7605Z" fill="black"/>
<path d="M45.0005 10.7061H42.9434C42.6712 10.7061 42.4102 10.598 42.2177 10.4055C42.0253 10.2131 41.9172 9.95204 41.9172 9.67987V7.3369C41.9172 7.06473 42.0253 6.80371 42.2177 6.61126C42.4102 6.4188 42.6712 6.31068 42.9434 6.31068H45.0005V10.7061ZM42.9434 7.24787C42.9201 7.24901 42.8982 7.25875 42.8817 7.27521C42.8652 7.29167 42.8555 7.31366 42.8544 7.3369V9.67987C42.8555 9.70312 42.8652 9.72511 42.8817 9.74157C42.8982 9.75803 42.9201 9.76777 42.9434 9.76891H44.0633V7.24787H42.9434Z" fill="black"/>
</svg>
