<svg width="33" height="25" viewBox="0 0 33 25" fill="none" xmlns="http://www.w3.org/2000/svg">
<path d="M14.3411 7.17056C14.3411 3.22763 11.1119 0 7.17056 0C3.22763 0 0 3.22921 0 7.17056C0 11.1135 3.22921 14.3411 7.17056 14.3411C11.1135 14.3424 14.3411 11.1132 14.3411 7.17056ZM7.17056 12.9822C3.97554 12.9822 1.35895 10.3655 1.35895 7.17056C1.35895 3.97567 3.97567 1.35895 7.17056 1.35895C10.3656 1.35895 12.9822 3.97567 12.9822 7.17056C12.9822 10.3655 10.3655 12.9822 7.17056 12.9822Z" fill="black"/>
<path d="M25.8286 10.3999C21.8857 10.3999 18.6581 13.6291 18.6581 17.5704C18.6581 21.5134 21.8873 24.741 25.8286 24.741C29.7702 24.741 32.9992 21.5131 32.9992 17.5704C32.9992 13.6288 29.77 10.3999 25.8286 10.3999ZM23.4156 22.8383L31.0962 15.1577C31.2658 15.531 31.4024 15.9739 31.5036 16.3813L24.6379 23.247C24.1963 23.1787 23.7889 23.042 23.4156 22.8383ZM21.9883 21.9209L30.179 13.7303C30.451 14.0023 30.6548 14.3414 30.8584 14.6476L22.9056 22.6005C22.5652 22.3967 22.259 22.1588 21.9883 21.9209ZM20.9 20.629L28.8868 12.6422C29.2272 12.8459 29.5322 13.0838 29.8042 13.3559L21.5795 21.5479C21.3075 21.2417 21.1037 20.9353 20.9 20.629ZM20.1864 18.931L27.1877 11.9296C27.5951 12.0322 28.0039 12.1675 28.3771 12.3712L20.6282 20.1202C20.4245 19.7456 20.2889 19.3384 20.1864 18.931ZM26.5424 11.793L20.0511 18.2843C20.017 18.0464 20.017 17.8085 20.017 17.5706C20.017 17.2644 20.0511 16.9595 20.0853 16.6532L24.9454 11.8271C25.2175 11.7929 25.5237 11.7588 25.8286 11.7588C26.0665 11.7588 26.3045 11.793 26.5424 11.793ZM23.9243 12.0993L20.3562 15.6334C20.9345 13.9682 22.2593 12.6776 23.9243 12.0993ZM25.2846 23.3483L31.6063 17.0607C31.6063 17.2302 31.6405 17.401 31.6405 17.5706C31.6405 17.978 31.6063 18.3526 31.538 18.7258L26.9157 23.2798C26.5753 23.3481 26.2021 23.3823 25.8288 23.3823C25.658 23.3823 25.4542 23.3825 25.2846 23.3483ZM28.0368 22.9409L31.1976 19.8142C30.5865 21.2416 29.4312 22.3626 28.0368 22.9409Z" fill="black"/>
<path d="M21.5465 7.47704C21.3086 7.51121 21.1391 7.64658 21.0366 7.88446C20.9012 8.22485 21.0366 8.6323 21.4099 8.76765L22.7688 9.34595C22.8714 9.38013 22.9384 9.4143 23.0409 9.4143C23.313 9.4143 23.5508 9.27893 23.652 9.00688L24.2632 7.68208C24.4327 7.34169 24.2632 6.93424 23.9228 6.7647C23.5824 6.59516 23.1749 6.7647 23.0054 7.10509V7.13927C22.4955 6.39142 21.816 5.74613 21.034 5.27035C19.5383 4.35297 17.7719 4.08091 16.0043 4.48836C15.631 4.5567 15.3931 4.92996 15.4943 5.30453C15.5627 5.6778 15.9359 5.91567 16.3105 5.81447C17.7037 5.50824 19.131 5.71195 20.3204 6.42561C20.7659 6.7292 21.1733 7.06963 21.5465 7.47704Z" fill="black"/>
<path d="M16.2116 18.8967C14.8185 19.203 13.3912 18.9992 12.2018 18.2856C11.726 17.9794 11.3186 17.6403 10.944 17.2315C11.1477 17.1974 11.3514 17.062 11.4198 16.8241C11.5551 16.4837 11.4198 16.0763 11.0465 15.9409L9.68752 15.3626C9.51798 15.2943 9.31425 15.2943 9.1434 15.3626C8.97386 15.431 8.83717 15.5663 8.77014 15.7359L8.25889 17.0949C8.12352 17.4353 8.29306 17.8427 8.63216 17.9781C8.7005 18.0122 8.8017 18.0122 8.87004 18.0122C9.1421 18.0122 9.37997 17.8427 9.48118 17.6048C9.99111 18.3527 10.6364 18.9638 11.4184 19.4396C12.4725 20.0849 13.6619 20.4253 14.8856 20.4253C15.3955 20.4253 15.9055 20.3569 16.4483 20.2557C16.8216 20.1874 17.0594 19.8141 16.9582 19.4395C16.857 19.0663 16.5508 18.8284 16.2116 18.8967Z" fill="black"/>
</svg>
