<svg width="32" height="39" viewBox="0 0 32 39" fill="none" xmlns="http://www.w3.org/2000/svg">
<path d="M4.11529 9.6534C4.11529 9.37381 4.33973 9.14521 4.61042 9.14521H20.1751C20.4475 9.14521 20.6702 9.37557 20.6702 9.6534C20.6702 9.93298 20.4458 10.1616 20.1751 10.1616L4.60691 10.1633C4.33451 10.1633 4.11529 9.93298 4.11529 9.6534ZM12.9608 6.34051H20.1752C20.4476 6.34051 20.6703 6.11016 20.6703 5.83233C20.6703 5.55274 20.4459 5.32414 20.1752 5.32414H12.9608C12.6884 5.32414 12.4657 5.5545 12.4657 5.83233C12.4657 6.11192 12.6901 6.34051 12.9608 6.34051ZM4.60695 13.9792H20.1717C20.4441 13.9792 20.6668 13.7489 20.6668 13.471C20.6668 13.1915 20.4423 12.9629 20.1717 12.9629H4.60695C4.33455 12.9629 4.11183 13.1932 4.11183 13.471C4.11526 13.7542 4.33455 13.9792 4.60695 13.9792ZM4.60695 17.8021H20.1717C20.4441 17.8021 20.6668 17.5717 20.6668 17.2939C20.6668 17.0143 20.4423 16.7857 20.1717 16.7857L4.60695 16.7839C4.33455 16.7839 4.11183 17.0143 4.11183 17.2921C4.11012 17.5717 4.33455 17.8021 4.60695 17.8021ZM4.60695 21.6196H20.1717C20.4441 21.6196 20.6668 21.3893 20.6668 21.1114C20.6668 20.8318 20.4423 20.6032 20.1717 20.6032L4.60695 20.6015C4.33455 20.6015 4.11183 20.8318 4.11183 21.1097C4.11012 21.3893 4.33455 21.6196 4.60695 21.6196ZM4.60695 25.4407H20.1717C20.4441 25.4407 20.6668 25.2103 20.6668 24.9325C20.6668 24.6529 20.4423 24.4243 20.1717 24.4243H4.60695C4.33455 24.4243 4.11183 24.6547 4.11183 24.9325C4.11012 25.2121 4.33455 25.4407 4.60695 25.4407ZM15.2204 28.2419H4.60695C4.33455 28.2419 4.11183 28.4722 4.11183 28.7501C4.11183 29.0296 4.33627 29.2582 4.60695 29.2582H15.2204C15.4928 29.2582 15.7155 29.0279 15.7155 28.7501C15.7155 28.4705 15.4962 28.2419 15.2204 28.2419ZM32 32.6204C32 36.1407 29.2108 39 25.7843 39C24.4291 39 23.1836 38.5498 22.1608 37.7937H5.47549C4.26424 37.7937 3.27741 36.7809 3.27741 35.5377V34.5881H2.19808C0.986829 34.5881 0 33.5752 0 32.332L0.00171283 5.9857C0.00171283 5.8503 0.0548219 5.72018 0.145623 5.62522L5.47888 0.147705C5.5714 0.0527493 5.69818 0 5.8301 0H22.5926C23.8038 0 24.7907 1.01285 24.7907 2.25605V3.2021H25.87C27.0813 3.2021 28.0681 4.21496 28.0681 5.45816V26.693C30.369 27.6337 32 29.9335 32 32.6204ZM24.7905 4.21635V26.3285C25.1143 26.274 25.4432 26.2388 25.7858 26.2388C26.2296 26.2388 26.663 26.2881 27.0793 26.3778V5.4576C27.0793 4.77359 26.5362 4.2144 25.8681 4.2144L24.7905 4.21635ZM1.6855 5.47715H4.12345C4.78989 5.47715 5.33471 4.91972 5.33471 4.23395V1.73171L1.6855 5.47715ZM2.19436 33.5715H19.6454C19.6009 33.2602 19.5666 32.9455 19.5666 32.6219C19.5666 29.8172 21.3433 27.4311 23.7983 26.5799V2.25385C23.7983 1.56983 23.2552 1.01065 22.5871 1.01065H6.32501V4.23386C6.32501 5.47706 5.33818 6.48992 4.12692 6.48992H0.986526V32.328C0.983099 33.0173 1.52792 33.5715 2.19436 33.5715ZM5.47523 36.7753H21.0794C20.5483 36.1405 20.132 35.402 19.8784 34.5878H4.26371V35.5374C4.26371 36.2214 4.80708 36.7753 5.47523 36.7753ZM31.0095 32.6201C31.0095 29.6625 28.6675 27.2588 25.7859 27.2588C22.9042 27.2588 20.5623 29.6625 20.5623 32.6201C20.5623 35.5778 22.9043 37.9815 25.7859 37.9815C28.6625 37.9868 31.0095 35.5778 31.0095 32.6201ZM29.627 30.0423C29.4471 29.8313 29.1318 29.8119 28.9297 29.9966L24.3298 34.1517L22.6765 32.2702C22.4915 32.0627 22.1814 32.0451 21.9792 32.235C21.7771 32.425 21.7599 32.7432 21.945 32.9507L23.9237 35.2015C24.0197 35.314 24.1567 35.3685 24.2921 35.3685C24.4103 35.3685 24.5251 35.3281 24.621 35.2419L29.5859 30.7544C29.7897 30.5733 29.8069 30.248 29.627 30.0423Z" fill="black"/>
</svg>
