<svg width="41" height="36" viewBox="0 0 41 36" fill="none" xmlns="http://www.w3.org/2000/svg">
<path d="M18.4601 7.0289H13.1608C12.9348 7.0289 12.7515 7.21117 12.7515 7.43592V10.7558C12.7515 10.9805 12.9348 11.1628 13.1608 11.1628H18.4601C18.6861 11.1628 18.8693 10.9805 18.8693 10.7558V7.43592C18.8693 7.21118 18.6861 7.0289 18.4601 7.0289ZM18.0508 10.3488H13.5719V7.84472H18.0508V10.3488ZM18.4601 14.1163H13.1608C12.9348 14.1163 12.7515 14.2986 12.7515 14.5234V17.8432C12.7515 18.068 12.9348 18.2502 13.1608 18.2502H18.4601C18.6861 18.2502 18.8693 18.068 18.8693 17.8432V14.5234C18.8693 14.2986 18.6861 14.1163 18.4601 14.1163ZM18.0508 17.4362H13.5719V14.9322H18.0508V17.4362ZM18.4601 21.2038H13.1608C12.9348 21.2038 12.7515 21.3861 12.7515 21.6108V24.9307C12.7515 25.1554 12.9348 25.3377 13.1608 25.3377H18.4601C18.6861 25.3377 18.8693 25.1554 18.8693 24.9307V21.6108C18.8693 21.3861 18.6861 21.2038 18.4601 21.2038ZM18.0508 24.5237H13.5719V22.0196H18.0508V24.5237ZM18.4601 28.2912H13.1608C12.9348 28.2912 12.7515 28.4735 12.7515 28.6983V32.0181C12.7515 32.2429 12.9348 32.4251 13.1608 32.4251H18.4601C18.6861 32.4251 18.8693 32.2429 18.8693 32.0181V28.6983C18.8693 28.4735 18.6861 28.2912 18.4601 28.2912ZM18.0508 31.6111H13.5719V29.1071H18.0508V31.6111ZM22.2432 9.0959C22.2432 8.87116 22.4265 8.68888 22.6524 8.68888H29.0746C29.3006 8.68888 29.4839 8.87115 29.4839 9.0959C29.4839 9.32065 29.3006 9.50292 29.0746 9.50292H22.6524C22.4265 9.50292 22.2432 9.32065 22.2432 9.0959ZM22.2432 10.7559C22.2432 10.5311 22.4265 10.3488 22.6524 10.3488H29.0746C29.3006 10.3488 29.4839 10.5311 29.4839 10.7559C29.4839 10.9806 29.3006 11.1629 29.0746 11.1629H22.6524C22.4265 11.1629 22.2432 10.9806 22.2432 10.7559ZM29.4853 30.3599C29.4853 30.5846 29.3021 30.7669 29.0761 30.7669H22.6539C22.4279 30.7669 22.2446 30.5846 22.2446 30.3599C22.2446 30.1351 22.4279 29.9529 22.6539 29.9529H29.0761C29.302 29.9529 29.4853 30.1351 29.4853 30.3599ZM29.4853 32.0198C29.4853 32.2446 29.3021 32.4269 29.0761 32.4269H22.6539C22.4279 32.4269 22.2446 32.2446 22.2446 32.0198C22.2446 31.7951 22.4279 31.6128 22.6539 31.6128H29.0761C29.302 31.6128 29.4853 31.7951 29.4853 32.0198ZM14.6038 9.51142C14.4436 9.35215 14.4436 9.09379 14.6038 8.93453C14.7639 8.77526 15.0237 8.77526 15.1839 8.93453L15.4205 9.16989L16.4366 8.15941C16.5968 8.00014 16.8566 8.00014 17.0167 8.15941C17.1768 8.31868 17.1768 8.57704 17.0167 8.7363L15.7106 10.0352C15.6305 10.1149 15.5255 10.1556 15.4205 10.1556C15.3155 10.1556 15.2105 10.1149 15.1305 10.0352L14.6038 9.51142ZM14.6038 16.5991C14.4436 16.4398 14.4436 16.1815 14.6038 16.0222C14.7639 15.8629 15.0237 15.8629 15.1839 16.0222L15.4205 16.2576L16.4366 15.2471C16.5968 15.0878 16.8566 15.0878 17.0167 15.2471C17.1768 15.4064 17.1768 15.6647 17.0167 15.824L15.7106 17.1229C15.6305 17.2025 15.5255 17.2432 15.4205 17.2432C15.3155 17.2432 15.2105 17.2025 15.1305 17.1229L14.6038 16.5991ZM14.6038 23.6868C14.4436 23.5275 14.4436 23.2691 14.6038 23.1099C14.7639 22.9506 15.0237 22.9506 15.1839 23.1099L15.4205 23.3452L16.4366 22.3348C16.5968 22.1755 16.8566 22.1755 17.0167 22.3348C17.1768 22.494 17.1768 22.7524 17.0167 22.9116L15.7106 24.2106C15.6341 24.2867 15.5291 24.3309 15.4205 24.3309C15.312 24.3309 15.207 24.2884 15.1305 24.2106L14.6038 23.6868ZM14.6038 30.7744C14.4436 30.6152 14.4436 30.3568 14.6038 30.1976C14.7639 30.0383 15.0237 30.0383 15.1839 30.1976L15.4205 30.4329L16.4366 29.4224C16.5968 29.2632 16.8566 29.2632 17.0167 29.4224C17.1768 29.5817 17.1768 29.8401 17.0167 29.9993L15.7106 31.2983C15.6305 31.3779 15.5255 31.4186 15.4205 31.4186C15.3155 31.4186 15.2105 31.3779 15.1305 31.2983L14.6038 30.7744ZM41 19.7282C41 15.5323 37.676 12.0937 33.5087 11.8817V5.51251C33.5087 4.3764 32.5798 3.45262 31.4374 3.45262H26.8305V3.03853C26.8305 2.38906 26.3002 1.86169 25.6471 1.86169H24.4923V0.881282C24.4923 0.394636 24.0937 0 23.6061 0H18.6271C18.1377 0 17.7409 0.396403 17.7409 0.881282V1.86169H16.586C15.9329 1.86169 15.4027 2.38906 15.4027 3.03853V3.45262H10.7958C9.65338 3.45262 8.72449 4.3764 8.72449 5.51251V10.4374H7.1568C6.96462 10.4374 6.79735 10.5701 6.75642 10.756L6.32935 12.6778C5.63539 12.9521 4.98765 13.3237 4.40042 13.7874L2.51066 13.1945C2.32738 13.1361 2.12808 13.214 2.03198 13.3786L0.0550291 16.7834C-0.0410624 16.9497 -0.0090333 17.1585 0.133323 17.2877L1.59424 18.6185C1.54085 18.9848 1.51238 19.3565 1.51238 19.7263C1.51238 20.0979 1.53907 20.4696 1.59424 20.8341L0.133323 22.1649C-0.0090333 22.2941 -0.0410624 22.5029 0.0550291 22.6693L2.03198 26.0741C2.12807 26.2404 2.32737 26.3165 2.51066 26.2581L4.40042 25.6653C4.98765 26.1289 5.63534 26.5023 6.32935 26.7748L6.75642 28.6967C6.79735 28.8825 6.96462 29.0152 7.1568 29.0152H8.72449V33.9401C8.72449 35.0762 9.65338 36 10.7958 36H31.4372C32.5796 36 33.5085 35.0762 33.5085 33.9401V27.5709C37.6759 27.3586 40.9998 23.9201 40.9998 19.7244L41 19.7282ZM16.2228 3.04032C16.2228 2.84212 16.3847 2.67931 16.5858 2.67931H18.1499C18.3759 2.67931 18.5592 2.49704 18.5592 2.27229V0.883112C18.5592 0.847719 18.5912 0.815864 18.6268 0.815864H23.6059C23.6414 0.815864 23.6735 0.847718 23.6735 0.883112V2.27229C23.6735 2.49703 23.8568 2.67931 24.0827 2.67931H25.6469C25.8462 2.67931 26.0099 2.84035 26.0099 3.04032V4.68433C26.0099 4.88253 25.848 5.04534 25.6469 5.04534H16.5839C16.3846 5.04534 16.2209 4.8843 16.2209 4.68433V3.04032H16.2228ZM8.72595 23.9985C6.539 23.7932 4.82362 21.9563 4.82362 19.73C4.82362 17.5038 6.539 15.6669 8.72595 15.4616V23.9985ZM7.48743 28.2049L7.0835 26.3875C7.05325 26.2513 6.95538 26.1398 6.82192 26.092C6.06745 25.8212 5.36988 25.4195 4.7524 24.901C4.64563 24.8108 4.49794 24.7824 4.36448 24.8232L2.5779 25.3841L0.930125 22.5456L2.31096 21.2874C2.41416 21.1936 2.46221 21.0521 2.43729 20.9158C2.3679 20.5265 2.33231 20.1265 2.33231 19.7266C2.33231 19.3266 2.3679 18.9267 2.43729 18.5374C2.46221 18.3993 2.41416 18.2595 2.31096 18.1658L0.930125 16.9076L2.5779 14.069L4.36448 14.63C4.49794 14.6725 4.64385 14.6424 4.7524 14.5522C5.36988 14.0337 6.06563 13.6337 6.82192 13.3612C6.95359 13.3134 7.05324 13.2019 7.0835 13.0657L7.48743 11.2482H8.72595V14.6389C6.08701 14.8477 4.00338 17.0474 4.00338 19.7251C4.00338 22.4026 6.0871 24.6024 8.72595 24.8113V28.2019H7.48743V28.2049ZM31.437 35.188H10.7969C10.1065 35.188 9.54597 34.6305 9.54597 33.9439V5.51437C9.54597 4.82776 10.1065 4.2703 10.7969 4.2703H15.4038V4.6844C15.4038 5.33386 15.9341 5.86124 16.5872 5.86124H25.6501C26.3032 5.86124 26.8335 5.33386 26.8335 4.6844V4.2703H31.4403C32.1307 4.2703 32.6913 4.82776 32.6913 5.51437V11.8835C29.9545 12.0233 27.5806 13.5559 26.2746 15.7786H22.6552C22.4292 15.7786 22.2459 15.9608 22.2459 16.1856C22.2459 16.4103 22.4292 16.5926 22.6552 16.5926H25.8582C25.7372 16.8669 25.6322 17.1483 25.5432 17.4367H22.6533C22.4273 17.4367 22.2441 17.619 22.2441 17.8438C22.2441 18.0685 22.4273 18.2508 22.6533 18.2508H25.3403C25.2495 18.7286 25.1997 19.2223 25.1997 19.7267C25.1997 20.8415 25.4346 21.9016 25.8563 22.8625H22.6533C22.4274 22.8625 22.2441 23.0448 22.2441 23.2695C22.2441 23.4943 22.4273 23.6765 22.6533 23.6765H26.2727C26.4453 23.9703 26.6375 24.2534 26.8457 24.5207H22.6533C22.4274 24.5207 22.2441 24.703 22.2441 24.9277C22.2441 25.1525 22.4273 25.3347 22.6533 25.3347H27.5773C28.9119 26.6337 30.7055 27.4689 32.6916 27.5698V33.939C32.6916 34.6256 32.1311 35.183 31.4406 35.183L31.437 35.188ZM33.0972 26.7716C29.1931 26.7716 26.0167 23.6127 26.0167 19.7283C26.0167 15.8457 29.1931 12.685 33.099 12.685C37.0031 12.685 40.1813 15.8438 40.1813 19.7283C40.1813 23.6109 37.0049 26.7697 33.1008 26.7716H33.0972ZM35.713 17.8949C35.713 19.1903 34.7556 20.268 33.5064 20.4644V22.2093C33.5064 22.434 33.3231 22.6163 33.0972 22.6163C32.8712 22.6163 32.6879 22.434 32.6879 22.2093V20.0893C32.6879 19.8645 32.8712 19.6822 33.0972 19.6822C34.0883 19.6822 34.8944 18.8806 34.8944 17.8949C34.8944 16.9092 34.0883 16.1075 33.0972 16.1075C32.106 16.1075 31.2999 16.9092 31.2999 17.8949C31.2999 18.1196 31.1166 18.3019 30.8906 18.3019C30.6646 18.3019 30.4814 18.1196 30.4814 17.8949C30.4814 16.4597 31.6558 15.2935 33.0972 15.2935C34.5403 15.2935 35.713 16.4614 35.713 17.8949ZM33.5064 23.1912V23.7575C33.5064 23.9823 33.3231 24.1646 33.0972 24.1646C32.8712 24.1646 32.6879 23.9823 32.6879 23.7575V23.1912C32.6879 22.9665 32.8712 22.7842 33.0972 22.7842C33.3231 22.7842 33.5064 22.9665 33.5064 23.1912ZM33.0972 13.543C29.6682 13.543 26.8781 16.3179 26.8781 19.7278C26.8781 23.1378 29.6683 25.9126 33.0972 25.9126C36.526 25.9126 39.3162 23.1378 39.3162 19.7278C39.3162 16.3179 36.526 13.543 33.0972 13.543ZM33.0972 25.099C30.1201 25.099 27.6981 22.6905 27.6981 19.7296C27.6981 16.7688 30.1199 14.3603 33.0972 14.3603C36.0744 14.3603 38.4962 16.7688 38.4962 19.7296C38.4962 22.6905 36.0744 25.099 33.0972 25.099Z" fill="black"/>
</svg>
