<svg width="33" height="33" viewBox="0 0 33 33" fill="none" xmlns="http://www.w3.org/2000/svg">
<path fill-rule="evenodd" clip-rule="evenodd" d="M7.50874 7.59656C5.7817 7.59656 4.38146 9.00964 4.38146 10.7525V25.7433C4.38146 27.4862 5.7817 28.8993 7.50874 28.8993H25.4906C27.2176 28.8993 28.6178 27.4862 28.6178 25.7433V10.7525C28.6178 9.00964 27.2176 7.59656 25.4906 7.59656H25.2646C24.5911 5.3159 22.4977 3.6516 20.0178 3.6516H12.9814C10.5016 3.6516 8.40817 5.3159 7.73463 7.59656H7.50874ZM20.0178 15.4865C23.0397 15.4865 25.4906 13.0132 25.4906 9.96353V9.17454C26.3548 9.17454 27.0542 9.88033 27.0542 10.7525V25.7433C27.0542 26.6155 26.3548 27.3213 25.4906 27.3213H7.50874C6.64447 27.3213 5.9451 26.6155 5.9451 25.7433V10.7525C5.9451 9.88033 6.64447 9.17454 7.50874 9.17454V9.96353C7.50874 13.0132 9.95954 15.4865 12.9815 15.4865H20.0178ZM18.8451 13.9085H20.0178C22.177 13.9085 23.9269 12.1425 23.9269 9.96353V9.17454C23.9269 6.99558 22.177 5.22959 20.0178 5.22959H12.9815C10.8223 5.22959 9.07237 6.99558 9.07237 9.17454V9.96353C9.07237 12.1425 10.8223 13.9085 12.9815 13.9085H14.1542V10.358C14.1542 9.05126 15.2048 7.99105 16.4996 7.99105C17.7945 7.99105 18.8451 9.05126 18.8451 10.358V13.9085ZM17.2815 13.9085V10.358C17.2815 9.92191 16.9318 9.56904 16.4996 9.56904C16.0675 9.56904 15.7178 9.92192 15.7178 10.358V13.9085H17.2815Z" fill="black"/>
<path fill-rule="evenodd" clip-rule="evenodd" d="M4.77237 0.890137C2.61322 0.890137 0.863281 2.65614 0.863281 4.83509V28.5048C0.863281 30.6838 2.61322 32.4498 4.77237 32.4498H28.2269C30.3861 32.4498 32.136 30.6838 32.136 28.5048V4.83509C32.136 2.65614 30.3861 0.890137 28.2269 0.890137H4.77237ZM2.42692 4.83509C2.42692 3.52832 3.47749 2.46812 4.77237 2.46812H28.2269C29.5218 2.46812 30.5724 3.52832 30.5724 4.83509V28.5048C30.5724 29.8116 29.5218 30.8718 28.2269 30.8718H4.77237C3.47749 30.8718 2.42692 29.8116 2.42692 28.5048V4.83509Z" fill="black"/>
</svg>
