<svg width="33" height="33" viewBox="0 0 33 33" fill="none" xmlns="http://www.w3.org/2000/svg">
<path d="M0.336999 33H21.5278C21.616 33 21.7028 32.9638 21.7651 32.9002C21.8287 32.838 21.8634 32.7526 21.8634 32.6629V28.4437C21.8605 26.6265 21.1386 24.8844 19.8523 23.6012C18.5675 22.3178 16.8254 21.5958 15.0082 21.5944H14.4801V19.5311C14.7058 19.3242 14.9142 19.0985 15.1023 18.8569L15.1225 18.8294C15.6564 18.1769 15.9849 17.3797 16.0659 16.5405H16.5C17.1048 16.5419 17.5967 16.0543 17.6011 15.4496V13.4052C17.5996 13.2012 17.5417 13 17.4332 12.8264C18.3086 9.82563 17.2205 6.07523 13.8667 4.62994C14.0707 4.20169 14.1763 3.73144 14.1763 3.25689C14.1763 1.45843 12.7193 0 10.9209 0C9.12242 0 7.66398 1.45843 7.66398 3.25689C7.66543 3.73144 7.77105 4.20169 7.97361 4.62994C4.62411 6.06089 3.53626 9.82548 4.41143 12.8264C4.30292 13 4.2436 13.2012 4.2436 13.4052V15.4525C4.24649 16.0572 4.73986 16.5463 5.34468 16.5434H5.7686C5.85251 17.3941 6.18963 18.2 6.73511 18.8569C6.92609 19.0985 7.13588 19.3242 7.36449 19.5311L7.38764 19.5514V21.5958L6.85664 21.5943C5.0394 21.5958 3.29735 22.3178 2.01259 23.6011C0.726311 24.8845 0.00288909 26.6265 0 28.4437V32.6629C0 32.7526 0.0361716 32.8379 0.0998332 32.9002C0.162049 32.9638 0.247296 33 0.336999 33ZM16.9311 15.4525C16.9297 15.5654 16.8834 15.6739 16.8024 15.752C16.7213 15.8301 16.6128 15.8735 16.5 15.8707H16.0963V12.9784H16.5173C16.5636 12.9813 16.6085 12.9914 16.6519 13.0088H16.6794H16.678C16.7257 13.0305 16.7691 13.0623 16.8024 13.1028C16.814 13.1173 16.8284 13.1303 16.8429 13.139C16.8964 13.2113 16.9239 13.2967 16.9239 13.385L16.9311 15.4525ZM10.9237 0.674479C11.812 0.674479 12.6368 1.13169 13.1084 1.88404C13.5801 2.63639 13.6308 3.5783 13.2444 4.37843L13.052 4.3249C12.9739 4.30175 12.9001 4.27715 12.8191 4.26124C12.738 4.24387 12.5702 4.20047 12.4458 4.17732L12.2128 4.12957C12.071 4.10642 11.9235 4.08617 11.7788 4.0688L11.5805 4.04131C11.3621 4.02106 11.1421 4.0037 10.9077 4.0008C10.6719 3.99791 10.4693 4.02106 10.2552 4.04131L10.057 4.06446C9.91231 4.08183 9.76762 4.10208 9.62582 4.12523L9.39721 4.17298C9.26989 4.19758 9.14401 4.22506 9.02393 4.254L8.79098 4.322L8.59855 4.37554L8.5971 4.37409C8.21078 3.57544 8.26288 2.63208 8.736 1.88114C9.20911 1.1288 10.0353 0.673034 10.9237 0.674479ZM5.74813 15.8707H5.34447C5.23161 15.8721 5.1231 15.8287 5.04352 15.7506C4.9625 15.6725 4.91764 15.5654 4.9162 15.4525V13.4053C4.9162 13.317 4.94513 13.2316 4.99722 13.1593L5.05075 13.1333C5.08693 13.0913 5.13033 13.058 5.17953 13.0349H5.20702H5.20557C5.24898 13.019 5.29528 13.0088 5.34013 13.0045H5.75827L5.74813 15.8707ZM5.74813 11.7386V12.3043H5.26053C5.22436 12.3028 5.18819 12.3028 5.15202 12.3043L5.04785 12.3318C5.0247 12.3361 5.00155 12.3433 4.97985 12.352C4.30706 9.59431 5.40376 6.24345 8.56229 5.09152H8.56373C9.32045 4.82241 10.1162 4.67916 10.9207 4.6676C11.1681 4.6676 11.4068 4.68496 11.6383 4.71824H11.6369C12.0116 4.75586 12.382 4.82387 12.7452 4.92081C12.9304 4.97145 13.1156 5.02787 13.2907 5.09298C16.4419 6.2635 17.5428 9.6144 16.8673 12.372C16.8441 12.3633 16.8224 12.3561 16.7993 12.3517L16.6951 12.3242H16.5837H16.0961C16.0961 12.207 16.0961 12.0913 16.0686 11.9871V11.815V11.8164C16.0469 11.65 16.0165 11.4851 15.9775 11.3216V11.2406C15.937 11.0756 15.8849 10.9136 15.8227 10.7559C15.8227 10.7327 15.8227 10.7081 15.7995 10.685C15.7301 10.5099 15.6476 10.3392 15.5535 10.1757C15.1658 9.44792 14.5263 8.88362 13.7551 8.58701C13.5033 8.49296 13.2212 8.53348 13.0042 8.69118C12.9014 8.76787 12.8175 8.86625 12.7582 8.98055C12.7582 9.00805 12.7582 9.03409 12.7307 9.06447H12.7322C12.7191 9.0963 12.7076 9.12669 12.6989 9.15996C12.6902 9.22363 12.6902 9.29018 12.6989 9.35529V9.45657V9.45512C12.7061 9.69096 12.615 9.91812 12.4457 10.0816C12.1462 10.3449 11.5631 10.4187 10.7615 10.2871C8.98333 9.67795 7.54949 9.25981 6.64383 9.86892C6.07812 10.1757 5.80168 10.7923 5.74813 11.7386ZM7.25286 18.4361L7.22971 18.4057C6.71175 17.7734 6.42669 16.9819 6.42525 16.163V11.7587C6.46576 11.0584 6.64372 10.6098 6.9678 10.3943L7.0387 10.3567L7.03726 10.3581C7.05751 10.3436 7.07921 10.3321 7.10236 10.3205L7.1993 10.2829H7.26007L7.37148 10.2554H7.87933L8.11806 10.2785H8.21211L8.38718 10.306H8.45085L8.45229 10.3075C9.15257 10.4652 9.84272 10.6692 10.5155 10.9166H10.5734C11.6166 11.0844 12.382 10.9643 12.8464 10.5534C13.1647 10.2539 13.3383 9.83 13.321 9.3916V9.29466C13.3195 9.28308 13.3195 9.27151 13.321 9.25993V9.23678C13.3296 9.22376 13.3412 9.21219 13.3542 9.20351C13.3673 9.19917 13.3817 9.19917 13.3947 9.20351C13.415 9.19772 13.4353 9.19772 13.4555 9.20351C14.0791 9.44513 14.5927 9.90378 14.9038 10.4956C14.9342 10.5534 14.9617 10.6128 14.9878 10.6735V10.675C15.254 11.2219 15.39 11.8238 15.3856 12.4329V16.1628C15.3842 16.9802 15.1006 17.7702 14.5841 18.4025L14.5537 18.4401C14.3945 18.6442 14.2195 18.8337 14.0285 19.0088C13.9677 19.0189 13.9127 19.0464 13.8664 19.0855C12.1794 20.6278 9.59388 20.6278 7.90672 19.0855C7.86042 19.0464 7.804 19.0189 7.74467 19.0088C7.56671 18.8308 7.40188 18.6401 7.25286 18.4361ZM13.2937 21.962L13.1519 22.0228L12.7815 22.1617L12.5283 22.2398L12.4111 22.2731C12.3199 22.3006 12.2288 22.3209 12.1376 22.3411L12.0407 22.3614C11.9394 22.3845 11.8381 22.399 11.7412 22.4149H11.6703C11.5487 22.4149 11.4272 22.4453 11.3071 22.4525H10.7544L10.7559 22.4496C9.8125 22.4033 8.89232 22.1458 8.06182 21.6958V20.0594C8.68686 20.466 9.39147 20.7336 10.1294 20.8479L10.2943 20.8711L10.5171 20.8942H10.8846H10.9816H11.352L11.5676 20.8711L11.7426 20.8479L12.0523 20.79C12.6759 20.6555 13.2705 20.4081 13.8059 20.0594V21.7435L13.6843 21.8043L13.5324 21.8781L13.2937 21.962ZM13.2937 22.6898L11.3882 26.0002V25.9987C11.2912 26.1666 11.1133 26.2708 10.9208 26.2722C10.7269 26.2736 10.549 26.1695 10.4521 26.0031L8.53206 22.6869L8.60296 22.7101H8.63624L8.82867 22.7809L9.05439 22.8489L9.15856 22.8822L9.24248 22.9054L9.47542 22.9589L9.66062 23.0023H9.76624L9.90369 23.0226C9.96157 23.0226 10.018 23.0457 10.0788 23.053H10.4955H10.9093H10.9295C11.1147 23.053 11.2999 23.053 11.4851 23.0255H11.5401C12.1406 22.9922 12.7338 22.8793 13.3038 22.6898L13.2937 22.6898ZM0.674245 28.4439C0.675692 26.8046 1.32822 25.2347 2.48715 24.0758C3.64609 22.9183 5.21738 22.2687 6.85672 22.2687H7.52951L9.88646 26.3401V26.3386C10.1035 26.7105 10.5014 26.9391 10.9311 26.9391C11.3652 26.9391 11.7659 26.7061 11.9815 26.3285L14.3384 22.2616H15.0112C16.6505 22.263 18.2218 22.9155 19.3808 24.0745C20.5383 25.2334 21.1894 26.8047 21.1908 28.444V32.3258H18.342V27.8273C18.342 27.6407 18.1915 27.4902 18.0048 27.4902C17.8196 27.4902 17.6692 27.6407 17.6692 27.8273V32.3258H4.20042L4.19897 27.8273C4.19897 27.6407 4.0485 27.4902 3.8633 27.4902C3.67665 27.4902 3.52618 27.6407 3.52618 27.8273V32.3258H0.67442L0.674245 28.4439ZM31.5387 9.96127e-05H20.9142C20.1083 0.00299351 19.4558 0.655514 19.4558 1.46142V8.95045C19.4558 9.33821 19.6091 9.71005 19.8826 9.98352C20.156 10.2584 20.5264 10.4118 20.9142 10.4118H21.6984V12.4591C21.6984 12.5488 21.7346 12.6341 21.7968 12.6978C21.8605 12.76 21.9458 12.7962 22.0355 12.7962C22.1064 12.7962 22.1759 12.7745 22.2337 12.7325L25.3893 10.4132L31.5387 10.4118C31.925 10.4118 32.2968 10.2584 32.5717 9.9835C32.8452 9.71005 33 9.3382 33 8.95043V1.46141C32.9971 0.655501 32.3446 0.0029887 31.5387 9.96127e-05ZM32.3258 8.95034C32.3258 9.38585 31.9727 9.73887 31.5387 9.73887H25.2823C25.2085 9.73887 25.1376 9.76202 25.0797 9.80543L22.3857 11.792V10.0746V10.076C22.3857 9.9863 22.351 9.90093 22.2873 9.83727C22.2236 9.77361 22.1383 9.73889 22.0486 9.73889H20.9142C20.7059 9.73889 20.5062 9.65497 20.3586 9.50739C20.2111 9.35981 20.1286 9.1587 20.13 8.95035V1.46133C20.1286 1.25298 20.2111 1.0533 20.3586 0.904289C20.5062 0.756709 20.7059 0.67424 20.9142 0.67424H31.5387C31.747 0.67424 31.9482 0.756712 32.0957 0.904289C32.2433 1.05187 32.3258 1.25298 32.3258 1.46133L32.3258 8.95034ZM27.5236 1.77244C27.5814 1.83176 27.6133 1.91134 27.6118 1.99381C27.6089 2.03143 27.6017 2.06905 27.5887 2.10522L25.3692 8.47861C25.3489 8.53794 25.3128 8.59147 25.265 8.63054C25.2071 8.67105 25.1391 8.6913 25.0697 8.6913C24.9843 8.6942 24.9004 8.66092 24.8411 8.60015C24.7847 8.53938 24.7543 8.45981 24.7528 8.37878C24.7543 8.33972 24.7615 8.30065 24.7731 8.26303L26.9955 1.88816V1.8896C27.0143 1.83028 27.0504 1.77675 27.0996 1.73768C27.1546 1.69572 27.2226 1.67257 27.2921 1.67402C27.3803 1.67257 27.4642 1.70878 27.5236 1.77244ZM30.643 4.86584C30.6893 4.93239 30.7139 5.01052 30.7125 5.09155V5.1393C30.7139 5.21887 30.6893 5.297 30.643 5.36067C30.5938 5.42577 30.5302 5.47786 30.4578 5.51259L28.0575 6.59051H28.056C27.9403 6.63247 27.8115 6.60787 27.7189 6.52685C27.6625 6.46608 27.6306 6.3865 27.6292 6.30403C27.6292 6.23893 27.6509 6.17671 27.69 6.12607C27.7261 6.07398 27.7768 6.03492 27.8346 6.01177L29.8544 5.11326L27.8346 4.21765V4.2162C27.7753 4.1916 27.7261 4.15109 27.69 4.099C27.6494 4.04836 27.6277 3.9876 27.6292 3.92393C27.6277 3.84146 27.661 3.76189 27.7189 3.70401C27.8115 3.62154 27.9403 3.59694 28.056 3.63745L30.4477 4.71538C30.5258 4.74576 30.5924 4.79783 30.643 4.86584ZM24.8367 6.30401C24.8396 6.38648 24.8077 6.4675 24.7499 6.52682C24.6905 6.58325 24.6095 6.61508 24.527 6.61364C24.4865 6.61508 24.446 6.6064 24.4098 6.59049L22.0124 5.51693V5.51549C21.9386 5.48076 21.8749 5.42723 21.8272 5.36067C21.7794 5.29701 21.7548 5.21888 21.7563 5.1393V5.09155C21.7548 5.01053 21.7794 4.9324 21.8272 4.86584C21.8735 4.79929 21.9371 4.7472 22.0124 4.71537L24.4098 3.63744C24.5256 3.59114 24.6573 3.61719 24.7455 3.704C24.8048 3.76187 24.8367 3.84145 24.8338 3.92392C24.8352 3.98614 24.815 4.04835 24.7759 4.09899C24.7397 4.15253 24.6891 4.19449 24.6283 4.21908L22.6085 5.11181L24.6283 6.01032V6.01176C24.6876 6.03491 24.7397 6.07687 24.7759 6.12896C24.815 6.1796 24.8367 6.24034 24.8367 6.30401Z" fill="black"/>
</svg>
