<svg width="28" height="32" viewBox="0 0 28 32" fill="none" xmlns="http://www.w3.org/2000/svg">
<path d="M26.4155 28.162H25.7408V17.2692C25.7408 16.7502 25.3171 16.3279 24.7962 16.3279H18.3189C18.273 16.3279 18.2285 16.3346 18.184 16.3413V10.8142C18.184 10.2951 17.7602 9.87285 17.2394 9.87285H10.7621C10.2412 9.87285 9.81748 10.2951 9.81748 10.8142V13.1138C9.77295 13.107 9.72842 13.1003 9.68254 13.1003H3.20526C2.68439 13.1003 2.26065 13.5226 2.26065 14.0417V28.1619H1.58595C0.766839 28.1619 0.101562 28.8249 0.101562 29.6412V30.717C0.101562 30.9403 0.282387 31.1205 0.506401 31.1205H27.495C27.719 31.1205 27.8999 30.9403 27.8999 30.717V29.6412C27.8999 28.8249 27.2346 28.162 26.4155 28.162ZM18.3187 17.135H24.796C24.8702 17.135 24.931 17.1955 24.931 17.2695V28.1623H18.1839V17.2695C18.1839 17.1955 18.2445 17.135 18.3187 17.135ZM10.6269 10.8147C10.6269 10.7407 10.6876 10.6802 10.7618 10.6802H17.2391C17.3133 10.6802 17.374 10.7407 17.374 10.8147V28.1624H10.6269L10.6269 10.8147ZM3.07003 14.0421C3.07003 13.9682 3.13076 13.9076 3.20497 13.9076H9.68225C9.75646 13.9076 9.81719 13.9682 9.81719 14.0421V28.1624H3.07012L3.07003 14.0421ZM27.0898 30.314H0.910942V29.6416C0.910942 29.2705 1.21321 28.9693 1.58565 28.9693H26.4152C26.7876 28.9693 27.0899 29.2705 27.0899 29.6416L27.0898 30.314Z" fill="black"/>
<path d="M14.0007 5.30096C14.2247 5.30096 14.4055 5.12076 14.4055 4.89752V0.594237C14.4055 0.371004 14.2247 0.190796 14.0007 0.190796C13.7767 0.190796 13.5959 0.370997 13.5959 0.594237V4.89752C13.5959 5.12075 13.7767 5.30096 14.0007 5.30096Z" fill="black"/>
<path d="M18.2405 6.67112C18.339 6.67112 18.4375 6.63481 18.5158 6.56354L21.6761 3.63194C21.8394 3.47998 21.8488 3.22447 21.6964 3.06177C21.5452 2.89771 21.2875 2.88964 21.1242 3.0416L17.9639 5.9732C17.8006 6.12516 17.7911 6.38067 17.9436 6.54337C18.0232 6.62809 18.1312 6.67247 18.2405 6.67247L18.2405 6.67112Z" fill="black"/>
<path d="M9.48541 6.56372C9.56367 6.63634 9.66218 6.67131 9.76069 6.67131C9.86864 6.67131 9.97795 6.62827 10.0576 6.54221C10.2101 6.37949 10.2006 6.124 10.0373 5.97204L6.87697 3.04044C6.71368 2.88848 6.45731 2.89789 6.30483 3.06061C6.15234 3.22333 6.16179 3.47882 6.32507 3.63078L9.48542 6.56238L9.48541 6.56372Z" fill="black"/>
</svg>
