<svg width="90" height="90" viewBox="0 0 90 90" fill="none" xmlns="http://www.w3.org/2000/svg">
<path fill-rule="evenodd" clip-rule="evenodd" d="M69.55 7.28C75.82 11.37 81.01 16.98 84.59 23.58C88.04 29.95 90 37.24 90 45C90 57.43 84.96 68.68 76.82 76.82C68.68 84.96 57.43 90 45 90C41.4 90 37.88 89.57 34.5 88.76C31.02 87.93 27.7 86.7 24.61 85.12C24.09 84.86 23.88 84.22 24.15 83.7C24.17 83.66 24.2 83.61 24.22 83.58L68.06 7.64C68.35 7.14 68.99 6.96 69.49 7.25C69.51 7.25 69.52 7.27 69.54 7.28H69.55ZM77.3 36.14C75.49 36.14 73.86 36.87 72.67 38.06C71.49 39.24 70.75 40.88 70.75 42.69C70.75 44.5 71.48 46.13 72.67 47.32C73.85 48.5 75.49 49.24 77.3 49.24C79.11 49.24 80.74 48.51 81.93 47.32C83.11 46.13 83.85 44.5 83.85 42.69C83.85 40.88 83.12 39.25 81.93 38.06C80.74 36.87 79.11 36.14 77.3 36.14ZM80.44 39.55C79.64 38.75 78.53 38.25 77.3 38.25C76.07 38.25 74.96 38.75 74.16 39.55C73.36 40.35 72.86 41.46 72.86 42.69C72.86 43.92 73.36 45.03 74.16 45.83C74.96 46.63 76.07 47.13 77.3 47.13C78.53 47.13 79.64 46.63 80.44 45.83C81.24 45.03 81.74 43.92 81.74 42.69C81.74 41.46 81.24 40.35 80.44 39.55ZM66.05 82.38C64.3 80.91 62.84 79.11 61.77 77.07C60.49 74.64 59.77 71.87 59.77 68.94C59.77 64.1 61.73 59.71 64.91 56.54C68.09 53.37 72.47 51.4 77.31 51.4C79.33 51.4 81.27 51.74 83.08 52.38C84.44 52.85 85.71 53.49 86.89 54.26C87.55 51.28 87.89 48.18 87.89 45C87.89 37.61 86.02 30.66 82.73 24.59C79.49 18.62 74.88 13.5 69.32 9.67L26.56 83.74C29.24 85.02 32.06 86.02 34.99 86.73C38.19 87.5 41.54 87.9 45 87.9C52.65 87.9 59.83 85.9 66.05 82.39V82.38ZM86.35 56.44C85.15 55.57 83.81 54.86 82.39 54.37C80.81 53.82 79.1 53.52 77.31 53.52C73.05 53.52 69.19 55.25 66.4 58.04C63.61 60.83 61.88 64.69 61.88 68.95C61.88 71.54 62.51 73.97 63.63 76.11C64.69 78.12 66.17 79.88 67.97 81.24C70.64 79.55 73.1 77.57 75.33 75.34C80.5 70.17 84.35 63.7 86.35 56.45V56.44ZM40.62 14.43C38.81 14.43 37.18 15.16 35.99 16.35C34.81 17.53 34.07 19.17 34.07 20.98C34.07 22.79 34.8 24.42 35.99 25.61C37.18 26.8 38.81 27.53 40.62 27.53C42.43 27.53 44.06 26.8 45.25 25.61C46.43 24.43 47.17 22.79 47.17 20.98C47.17 19.17 46.44 17.54 45.25 16.35C44.07 15.16 42.43 14.43 40.62 14.43ZM43.76 17.84C42.96 17.04 41.85 16.54 40.62 16.54C39.39 16.54 38.28 17.04 37.48 17.84C36.68 18.64 36.18 19.75 36.18 20.98C36.18 22.21 36.68 23.32 37.48 24.12C38.28 24.92 39.39 25.42 40.62 25.42C41.85 25.42 42.96 24.92 43.76 24.12C44.56 23.32 45.06 22.21 45.06 20.98C45.06 19.75 44.56 18.64 43.76 17.84ZM31.24 62.04C28.93 60.58 26.99 58.59 25.58 56.24C24 53.6 23.09 50.52 23.09 47.23C23.09 42.39 25.05 38 28.23 34.83C31.41 31.66 35.79 29.69 40.63 29.69C42.3 29.69 43.93 29.93 45.46 30.37C46.61 30.7 47.71 31.15 48.76 31.7L63.44 6.27C60.76 4.99 57.94 3.99 55.01 3.29C51.81 2.53 48.46 2.12 45 2.12C33.16 2.12 22.43 6.92 14.67 14.68C6.91 22.44 2.11 33.16 2.11 45.01C2.11 52.4 3.98 59.35 7.27 65.42C10.51 71.39 15.12 76.51 20.68 80.34L31.25 62.04H31.24ZM47.71 33.52C46.82 33.06 45.87 32.68 44.88 32.4C43.53 32.01 42.1 31.81 40.62 31.81C36.36 31.81 32.5 33.54 29.71 36.33C26.92 39.12 25.19 42.98 25.19 47.24C25.19 50.14 25.99 52.86 27.38 55.17C28.6 57.21 30.29 58.94 32.29 60.23L47.7 33.53L47.71 33.52ZM65.8 6.4C65.8 6.4 65.84 6.33 65.86 6.3C66.12 5.78 65.92 5.15 65.4 4.88C62.3 3.3 58.99 2.07 55.51 1.24C52.13 0.43 48.61 0 45.01 0C32.58 0 21.33 5.04 13.19 13.18C5.04 21.32 0 32.57 0 45C0 52.75 1.96 60.05 5.41 66.42C8.98 73.01 14.15 78.6 20.41 82.69C20.44 82.71 20.47 82.73 20.5 82.75C21 83.04 21.65 82.87 21.94 82.37L65.8 6.39V6.4Z" fill="url(#paint0_linear_644_11078)"/>
<defs>
<linearGradient id="paint0_linear_644_11078" x1="-15" y1="18.5" x2="57.5" y2="117" gradientUnits="userSpaceOnUse">
<stop stop-color="#8ABD40"/>
<stop offset="1" stop-color="white"/>
</linearGradient>
</defs>
</svg>
