<svg width="40" height="40" viewBox="0 0 40 40" fill="none" xmlns="http://www.w3.org/2000/svg">
<path d="M39.7752 37.7529H39.101V0.224809C39.101 0.0984044 39.0027 8.97954e-05 38.8763 8.97954e-05H37.0786C36.9522 8.97954e-05 36.8538 0.0984044 36.8538 0.224809V8.98885H32.3595V1.39739C32.3595 1.27099 32.2611 1.17267 32.1347 1.17267H23.0143C22.8879 1.17267 22.7896 1.27099 22.7896 1.39739V4.00449L22.7913 8.98876H21.6993V1.3973C21.6993 1.2709 21.601 1.17258 21.4746 1.17258H12.3596C12.2331 1.17258 12.1348 1.2709 12.1348 1.3973V8.98876H3.14607V0.224719C3.14607 0.0983146 3.04775 0 2.92135 0H1.1236C0.997191 0 0.898876 0.0983146 0.898876 0.224719V37.7528H0.224719C0.0983146 37.7528 0 37.8511 0 37.9775V39.7753C0 39.9017 0.0983146 40 0.224719 40H39.7753C39.9017 40 40 39.9017 40 39.7753V37.9775C40 37.8511 39.9016 37.7529 39.7752 37.7529ZM37.3033 34.8316V0.449528H38.6516V37.7529H37.3033V34.8316ZM29.7523 2.70211V1.62418H31.9099V3.78184H29.1009V2.92863H29.5276C29.654 2.92687 29.7523 2.82676 29.7523 2.70211ZM25.8478 1.62243H29.3046V2.47564H25.8443L25.8425 1.62243H25.8478ZM28.6515 2.92683V6.24845L27.6754 5.75865C27.6438 5.7411 27.6087 5.73583 27.5771 5.73583C27.5455 5.73583 27.5103 5.74461 27.4787 5.75865L26.5026 6.24845V2.92683H28.6515ZM23.2407 1.62243H25.3984V2.70036C25.3984 2.82676 25.4967 2.92508 25.6231 2.92508H26.0497V3.77829H23.246L23.2442 1.62238L23.2407 1.62243ZM23.2407 4.22953H26.0444V6.61191C26.0444 6.68916 26.0848 6.75938 26.1515 6.80503C26.2183 6.84541 26.299 6.85067 26.371 6.81381L27.5718 6.21165L28.7727 6.81381C28.8043 6.83136 28.8394 6.83663 28.871 6.83663C28.9114 6.83663 28.9518 6.82259 28.9886 6.80503C29.0554 6.76465 29.0957 6.69267 29.0957 6.61191V4.22953H31.9047V8.98908H23.2409L23.2407 4.22953ZM19.0957 2.70216V1.62422H21.2533V3.78189H18.4496V2.92867H18.8762C18.9974 2.92692 19.0957 2.82681 19.0957 2.70216ZM15.1912 1.62247H18.648V2.47569H15.6143L15.1912 2.47744L15.1912 1.62247ZM17.9949 2.92688V6.24849L17.0188 5.7587C16.9872 5.74114 16.9521 5.73587 16.9205 5.73587C16.8889 5.73587 16.8538 5.74465 16.8222 5.7587L15.846 6.24849V2.92688H17.9949ZM12.5841 1.62247H14.7418V2.7004C14.7418 2.82681 14.8401 2.92512 14.9665 2.92512H15.3931V3.77834L12.5841 3.78009L12.5841 1.62247ZM12.5841 4.22957H15.3931V6.61196C15.3931 6.6892 15.4335 6.75943 15.5002 6.80507C15.5669 6.84545 15.6477 6.85072 15.7197 6.81385L16.9205 6.2117L18.1214 6.81385C18.153 6.83141 18.1881 6.83668 18.2197 6.83668C18.2601 6.83668 18.3004 6.82263 18.3373 6.80507C18.404 6.7647 18.4444 6.69271 18.4444 6.61196V4.22957H21.2481L21.2499 8.98912H12.5843L12.5841 4.22957ZM3.14593 9.43856H36.8538V10.3374H3.14593V9.43856ZM3.14593 10.7869H36.8538V21.124H26.6466V13.5325C26.6466 13.4061 26.5483 13.3078 26.4219 13.3078H17.3032C17.1768 13.3078 17.0785 13.4061 17.0785 13.5325V21.124H15.7302V13.5325C15.7302 13.4061 15.6319 13.3078 15.5055 13.3078H6.38503C6.25863 13.3078 6.16031 13.4061 6.16031 13.5325V16.1396L6.16207 21.1239H3.14593L3.14593 10.7869ZM19.9104 15.0618H20.337V15.915H17.5281V13.7573H19.6857V14.8353C19.6857 14.9617 19.784 15.0618 19.9104 15.0618ZM20.5618 14.6124H20.1351V13.7591H23.5919V14.6124H20.5618ZM22.9389 15.0618V18.3834L21.9627 17.8936C21.9311 17.8761 21.896 17.8708 21.8644 17.8708C21.8328 17.8708 21.7977 17.8796 21.7661 17.8936L20.79 18.3834V15.0618H22.9389ZM20.337 16.3645V18.7468C20.337 18.8241 20.3774 18.8943 20.4441 18.94C20.5108 18.9803 20.5916 18.9856 20.6636 18.9487L21.8644 18.3466L23.0653 18.9487C23.0969 18.9663 23.132 18.9716 23.1636 18.9716C23.204 18.9716 23.2444 18.9575 23.2812 18.94C23.3479 18.8996 23.3883 18.8276 23.3883 18.7468V16.3645H26.192L26.1938 21.124H17.5282V16.3645H20.337ZM23.3883 15.915V15.0618H23.8149C23.9413 15.0618 24.0396 14.9635 24.0396 14.8371V13.7591H26.1973V15.9168L23.3883 15.915ZM8.99415 15.0618H9.42077V15.915H6.61704V13.7573H8.7747V14.8353C8.76943 14.9617 8.86775 15.0618 8.99415 15.0618ZM9.64548 14.6124H9.21887V13.7591H12.6757V14.6124H9.64548ZM12.0226 15.0618V18.3834L11.0465 17.8936C11.0149 17.8761 10.9798 17.8708 10.9482 17.8708C10.9166 17.8708 10.8814 17.8796 10.8498 17.8936L9.87371 18.3834V15.0618H12.0226ZM9.42076 16.3645V18.7468C9.42076 18.8241 9.46114 18.8943 9.52785 18.94C9.59457 18.9803 9.67532 18.9856 9.7473 18.9487L10.9482 18.3466L12.149 18.9487C12.1806 18.9663 12.2157 18.9716 12.2473 18.9716C12.2877 18.9716 12.3281 18.9575 12.365 18.94C12.4317 18.8996 12.472 18.8276 12.472 18.7468V16.3645H15.281V21.124H6.61182V16.3645H9.42076ZM12.472 15.915V15.0618H12.8987C13.0251 15.0618 13.1234 14.9635 13.1234 14.8371V13.7591H15.281V15.9168L12.472 15.915ZM3.1462 21.5734H36.8541V22.4723H3.1462V21.5734ZM3.1462 22.9218H36.8541V33.2588H35.1774V25.6674C35.1774 25.541 35.0791 25.4427 34.9527 25.4427H25.8323C25.7059 25.4427 25.6075 25.541 25.6075 25.6674V28.2745L25.6093 33.2587H24.728V25.6673C24.728 25.5409 24.6297 25.4426 24.5033 25.4426H15.3828C15.2564 25.4426 15.1581 25.5409 15.1581 25.6673V28.2744L15.1599 33.2587H14.3909V25.6672C14.3909 25.5408 14.2926 25.4425 14.1662 25.4425H5.04576C4.91935 25.4425 4.82104 25.5408 4.82104 25.6672V28.2743L4.82279 33.2586H3.14616L3.1462 22.9218ZM28.441 27.1967H28.8676V28.0499H26.0587V25.8922H28.2163V26.9702C28.2163 27.0966 28.3146 27.1967 28.441 27.1967ZM29.0871 26.7472H28.6605V25.894H32.1173V26.7472H29.0871ZM31.4695 27.1967V30.5183L30.4933 30.0285C30.4617 30.0109 30.4266 30.0057 30.395 30.0057C30.3634 30.0057 30.3283 30.0145 30.2967 30.0285L29.3206 30.5183V27.1967H31.4695ZM28.8624 28.4993V30.8817C28.8624 30.959 28.9028 31.0292 28.9695 31.0748C29.0362 31.1152 29.1169 31.1205 29.1889 31.0836L30.3898 30.4814L31.5906 31.0836C31.6222 31.1012 31.6573 31.1064 31.6889 31.1064C31.7293 31.1064 31.7697 31.0924 31.8066 31.0748C31.8733 31.0344 31.9137 30.9625 31.9137 30.8817V28.4993H34.7174L34.7192 33.2589H26.0585V28.4993H28.8624ZM31.9189 28.0499V27.1967H32.3455C32.4719 27.1967 32.5703 27.0984 32.5703 26.972V25.894H34.7279V28.0517L31.9189 28.0499ZM17.9917 27.1967H18.4183V28.0499H15.6146V25.8922H17.7723V26.9702C17.767 27.0966 17.8653 27.1967 17.9917 27.1967ZM18.6431 26.7472H18.2164V25.894H21.6732V26.7472H18.6431ZM21.0254 27.1967V30.5183L20.0493 30.0285C20.0177 30.0109 19.9826 30.0057 19.951 30.0057C19.9194 30.0057 19.8843 30.0145 19.8527 30.0285L18.8765 30.5183V27.1967H21.0254ZM18.4183 28.4993V30.8817C18.4183 30.959 18.4587 31.0292 18.5254 31.0748C18.5921 31.1152 18.6729 31.1205 18.7449 31.0836L19.9457 30.4814L21.1466 31.0836C21.1782 31.1012 21.2133 31.1064 21.2449 31.1064C21.2853 31.1064 21.3257 31.0924 21.3625 31.0748C21.4292 31.0344 21.4696 30.9625 21.4696 30.8817V28.4993H24.2786V33.2589H15.6094V28.4993H18.4183ZM21.4749 28.0499V27.1967H21.9015C22.0279 27.1967 22.1262 27.0984 22.1262 26.972V25.894H24.2839V28.0517L21.4749 28.0499ZM7.65465 27.1967H8.08126V28.0499H5.27753V25.8922H7.4352V26.9702C7.42993 27.0966 7.52824 27.1967 7.65465 27.1967ZM8.30597 26.7472H7.87936V25.894H11.3362V26.7472H8.30597ZM10.6884 27.1967V30.5183L9.71222 30.0285C9.68062 30.0109 9.64551 30.0057 9.61391 30.0057C9.58231 30.0057 9.54719 30.0145 9.51559 30.0285L8.53946 30.5183V27.1967H10.6884ZM8.08126 28.4993V30.8817C8.08126 30.959 8.12163 31.0292 8.18835 31.0748C8.25506 31.1152 8.33582 31.1205 8.4078 31.0836L9.60865 30.4814L10.8095 31.0836C10.8411 31.1012 10.8762 31.1064 10.9078 31.1064C10.9482 31.1064 10.9886 31.0924 11.0254 31.0748C11.0922 31.0344 11.1325 30.9625 11.1325 30.8817V28.4993H13.9415V33.2589H5.27232V28.4993H8.08126ZM11.1378 28.0499V27.1967H11.5644C11.6908 27.1967 11.7891 27.0984 11.7891 26.972V25.894H13.9468V28.0517L11.1378 28.0499ZM3.14633 33.7083H36.8542V34.6072H3.14633V33.7083ZM3.14633 35.0566H36.8542V37.7533H3.14633V35.0566ZM1.34858 0.449888H2.6969V37.7533H1.34858V0.449888ZM39.5508 39.551H0.449705V38.2027H39.5508V39.551Z" fill="black"/>
</svg>
