<svg width="30" height="30" viewBox="0 0 30 30" fill="none" xmlns="http://www.w3.org/2000/svg">
<path d="M16.8367 16.5366C16.8367 17.6483 16.0087 18.5702 14.9387 18.7204V19.389C14.9387 19.5583 14.8012 19.6959 14.6318 19.6959C14.4623 19.6959 14.3248 19.5583 14.3248 19.389L14.3261 18.7204C13.6115 18.6224 12.9886 18.1831 12.6599 17.5235C12.5848 17.3732 12.6472 17.1873 12.7975 17.1122C12.9478 17.037 13.1338 17.0994 13.2089 17.2497C13.479 17.7947 14.028 18.1296 14.6343 18.1296C15.5119 18.1296 16.2252 17.4152 16.2252 16.5391C16.2252 15.6592 15.4432 15.1015 14.67 14.9423C13.6522 14.731 12.6281 13.9682 12.6281 12.7457C12.6281 11.6341 13.4561 10.7122 14.526 10.5619V9.89337C14.526 9.72401 14.6636 9.58649 14.833 9.58649C15.0024 9.58649 15.14 9.72401 15.14 9.89337V10.5619C15.8546 10.66 16.4775 11.0993 16.8061 11.7589C16.8813 11.9092 16.8188 12.095 16.6685 12.1702C16.5182 12.2453 16.3323 12.1829 16.2571 12.0327C15.9871 11.4876 15.4381 11.1528 14.8318 11.1528C13.9541 11.1528 13.2408 11.8671 13.2408 12.7432C13.2408 13.6231 14.0229 14.1809 14.7961 14.34C15.81 14.5514 16.8367 15.3142 16.8367 16.5366ZM29.8381 23.3135L24.9367 29.6549C24.7647 29.8727 24.5099 30 24.2322 30C23.9546 30 23.7011 29.8727 23.5317 29.6549L20.3523 25.5446C19.9485 25.4924 19.5664 25.5344 19.2174 25.6783C18.4315 26.0043 17.8799 26.8065 17.6647 27.9347C17.5347 28.6058 17.0125 29.0922 16.331 29.1737C15.7706 29.2387 15.2025 29.2718 14.6356 29.2718C14.0688 29.2718 13.5045 29.2387 12.9403 29.1737C12.2588 29.096 11.7365 28.6096 11.6066 27.9347C11.3875 26.8039 10.8373 26.0043 10.0539 25.6783C9.27182 25.3523 8.31648 25.528 7.36369 26.1736C6.79685 26.5582 6.08227 26.5327 5.54474 26.1048C4.65818 25.4006 3.8519 24.5921 3.14749 23.702C2.72331 23.1672 2.69785 22.4541 3.0787 21.8861C3.7207 20.9336 3.89773 19.9824 3.57165 19.1968C3.24938 18.4149 2.44945 17.8635 1.32853 17.6445C0.657248 17.5146 0.170662 16.9887 0.0955319 16.3113C-0.031844 15.1996 -0.031844 14.0714 0.0955319 12.9598C0.173232 12.2786 0.656009 11.7565 1.32853 11.6266C2.45072 11.4076 3.24938 10.8575 3.57165 10.0744C3.89391 9.29253 3.72195 8.33749 3.0787 7.38499C2.69656 6.81833 2.72333 6.10651 3.14749 5.56916C3.8519 4.67905 4.65691 3.87048 5.54474 3.16629C6.08227 2.7397 6.79304 2.71297 7.36369 3.09752C8.31648 3.73932 9.27182 3.9163 10.0539 3.59286C10.8398 3.26687 11.3914 2.46465 11.6066 1.33642C11.7366 0.665346 12.2588 0.178911 12.9403 0.0974142C14.065 -0.0324714 15.2063 -0.0324714 16.3286 0.0974142C17.0101 0.17509 17.5323 0.661532 17.6623 1.33642C17.8813 2.4672 18.4316 3.26687 19.215 3.59286C19.9971 3.91884 20.9524 3.74312 21.9052 3.09752C22.472 2.71296 23.1866 2.74226 23.7241 3.16629C24.6107 3.87048 25.4195 4.67905 26.1214 5.56916C26.5456 6.10397 26.571 6.81706 26.1902 7.38499C25.5482 8.33749 25.3711 9.28868 25.6972 10.0744C26.0195 10.8562 26.8194 11.4076 27.9403 11.6266C28.6116 11.7565 29.0982 12.2824 29.1733 12.9598C29.3007 14.0715 29.3007 15.1997 29.1733 16.3113C29.0956 16.9925 28.6129 17.5146 27.9403 17.6445C27.7022 17.6903 27.4767 17.7591 27.2691 17.8368V22.0681H29.2294C29.5262 22.0681 29.7899 22.2349 29.9211 22.4985C30.0497 22.7697 30.0202 23.0792 29.8381 23.3135ZM19.8696 24.918L18.6302 23.3135C18.4481 23.0792 18.4188 22.7685 18.5487 22.5024C18.6786 22.235 18.9435 22.072 19.2403 22.072H21.1969V19.0757C20.5969 19.962 19.8212 20.7247 18.9079 21.3092C17.6328 22.128 16.1553 22.5571 14.6355 22.5571C10.2666 22.5571 6.71129 19.0045 6.71129 14.6354C6.71129 10.2678 10.265 6.71359 14.6355 6.71359C18.5613 6.71359 21.8743 9.58506 22.4577 13.4318L26.3808 13.4331C26.87 13.4331 27.2674 13.8304 27.2674 14.3194V17.1845C27.447 17.1285 27.6291 17.0801 27.8253 17.0406C28.2291 16.9629 28.5195 16.6459 28.5692 16.2384C28.6902 15.1726 28.6902 14.094 28.5692 13.0244C28.5233 12.6131 28.2303 12.3011 27.8253 12.2222C26.4955 11.9649 25.5389 11.2837 25.1313 10.3057C24.7275 9.32776 24.9224 8.16771 25.6828 7.03934C25.9146 6.6968 25.8981 6.27021 25.6433 5.94677C24.972 5.09614 24.1989 4.32066 23.348 3.64577C23.0257 3.38855 22.5952 3.372 22.2525 3.60375C21.124 4.36649 19.9635 4.5626 18.9851 4.15766C18.003 3.75018 17.3216 2.78878 17.0643 1.45172C16.9866 1.04806 16.6732 0.753919 16.2618 0.70551C15.1855 0.581991 14.09 0.581991 13.0137 0.70551C12.6023 0.753899 12.2902 1.04424 12.2112 1.44915C11.9539 2.78875 11.2725 3.75015 10.2904 4.15509C9.30831 4.55876 8.1479 4.36392 7.023 3.60117C6.68034 3.36942 6.24981 3.38597 5.92754 3.6432C5.07665 4.31808 4.30347 5.09357 3.63218 5.9442C3.37743 6.26636 3.36215 6.69422 3.5927 7.03677C4.35568 8.16497 4.55185 9.32248 4.14424 10.3031C3.74045 11.2811 2.78384 11.9623 1.45021 12.2196C1.04642 12.2973 0.756007 12.6143 0.706344 13.0218C0.585337 14.0876 0.585337 15.1662 0.706344 16.2358C0.752202 16.6471 1.04518 16.9591 1.45021 17.038C2.78003 17.2953 3.73663 17.9765 4.14424 18.9545C4.54803 19.9324 4.35314 21.0925 3.5927 22.2208C3.36087 22.5634 3.37743 22.99 3.63218 23.3134C4.30728 24.164 5.08047 24.9395 5.92754 25.6144C6.24981 25.8716 6.68034 25.8882 7.023 25.6564C8.15155 24.8937 9.31196 24.6976 10.2904 25.1025C11.2725 25.51 11.9539 26.4714 12.2112 27.8085C12.2889 28.2121 12.6023 28.5063 13.0137 28.5547C14.0926 28.6782 15.1855 28.6782 16.2618 28.5547C16.6732 28.5063 16.9853 28.216 17.0643 27.8085C17.3216 26.4689 18.003 25.5075 18.9851 25.1025C19.2654 24.9956 19.5596 24.9344 19.8691 24.9179L19.8696 24.918ZM21.8452 13.4752C21.2822 9.95167 18.2429 7.33107 14.6358 7.33107C10.6057 7.33107 7.32426 10.6102 7.32426 14.6403C7.32426 18.6692 10.6044 21.9496 14.6358 21.9496C17.4075 21.9496 19.9741 20.3451 21.197 17.862V14.327C21.197 13.9196 21.4745 13.5797 21.8452 13.4752ZM29.372 22.7724C29.3592 22.7469 29.3197 22.6845 29.228 22.6845H26.962C26.7926 22.6845 26.655 22.547 26.655 22.3776V14.3261C26.655 14.1733 26.5314 14.0523 26.3811 14.0523H22.0872C21.9344 14.0523 21.8134 14.1758 21.8134 14.3261V22.3776C21.8134 22.547 21.6758 22.6845 21.5064 22.6845H19.2403C19.1486 22.6845 19.1104 22.7469 19.0964 22.7724C19.0837 22.7978 19.0569 22.8704 19.113 22.9392L24.0144 29.2793C24.0666 29.348 24.1481 29.3862 24.2335 29.3862C24.3188 29.3862 24.4003 29.3467 24.4526 29.2793L29.354 22.9392C29.4075 22.8679 29.3847 22.7991 29.372 22.7724Z" fill="black"/>
</svg>
