<svg width="81" height="80" viewBox="0 0 81 80" fill="none" xmlns="http://www.w3.org/2000/svg">
<path d="M49.9219 2.94396H68.0203C73.2393 2.94396 77.4951 7.19096 77.4951 12.3993V30.4605C77.4951 31.1624 78.071 31.7473 78.7845 31.7473C79.5032 31.7473 80.074 31.1726 80.074 30.4605V12.3993C80.074 5.77195 74.6715 0.380417 68.0304 0.380417H49.932C49.2287 0.380417 48.6426 0.955169 48.6426 1.66724C48.6426 2.3844 49.2185 2.95406 49.932 2.95406L49.9219 2.94396Z" fill="url(#paint0_linear_633_11068)"/>
<path d="M1.70708 31.7317C2.41042 31.7317 2.99655 31.157 2.99655 30.4449V12.3837C2.99655 7.17536 7.25229 2.92835 12.4713 2.92835H30.5697C31.273 2.92835 31.8592 2.3536 31.8592 1.64153C31.8592 0.924366 31.2832 0.354706 30.5697 0.354706H12.4713C5.83036 0.354706 0.427734 5.74611 0.427734 12.3736V30.4348C0.427734 31.1367 1.00367 31.7216 1.71721 31.7216L1.70708 31.7317Z" fill="url(#paint1_linear_633_11068)"/>
<path d="M78.7673 48.4765C78.064 48.4765 77.4778 49.0513 77.4778 49.7633V67.8245C77.4778 73.0329 73.2221 77.2799 68.0031 77.2799H49.9047C49.2014 77.2799 48.6152 77.8546 48.6152 78.5667C48.6152 79.2838 49.1912 79.8535 49.9047 79.8535H68.0031C74.644 79.8535 80.0467 74.4621 80.0467 67.8346V49.7734C80.0467 49.0715 79.4707 48.4866 78.7572 48.4866L78.7673 48.4765Z" fill="url(#paint2_linear_633_11068)"/>
<path d="M12.46 79.8437H30.5583C31.2617 79.8437 31.8478 79.2689 31.8478 78.5569C31.8478 77.8397 31.2719 77.27 30.5583 77.27H12.46C7.24093 77.27 2.98519 73.023 2.98519 67.8147V49.7535C2.98519 49.0516 2.40925 48.4667 1.69572 48.4667C0.977082 48.4667 0.40625 49.0414 0.40625 49.7535V67.8147C0.40625 74.442 5.80875 79.8336 12.4499 79.8336L12.46 79.8437Z" fill="url(#paint3_linear_633_11068)"/>
<path d="M41.5918 43.0742C41.5918 43.0742 41.5765 42.9724 41.5663 42.9165V42.8758C41.5663 42.8758 41.5256 42.7995 41.5154 42.7588V42.7181C41.5154 42.7181 41.4644 42.6266 41.4389 42.5757C41.4134 42.535 41.3879 42.4842 41.3472 42.4435L41.3217 42.418C41.3217 42.418 41.2707 42.3519 41.2452 42.3265L41.2198 42.3011C41.2198 42.3011 41.1535 42.2349 41.1178 42.2095C41.1178 42.2095 41.0261 42.1434 40.9853 42.1179L32.4891 37.2097C32.0966 36.9758 31.6023 36.9758 31.1996 37.2097L22.7034 42.1078C22.7034 42.1078 22.6117 42.1739 22.5709 42.1993C22.5709 42.1993 22.5046 42.2655 22.469 42.3011L22.4435 42.3265C22.4435 42.3265 22.3925 42.3774 22.367 42.4181L22.3415 42.4435C22.3415 42.4435 22.2753 42.5198 22.2498 42.5757C22.2243 42.6164 22.1988 42.6673 22.1835 42.7181V42.7588C22.1835 42.7588 22.1428 42.8351 22.1326 42.8758V42.9165C22.1326 42.9165 22.1071 43.0081 22.0918 43.0589V43.2268V53.033C22.0918 53.4908 22.3415 53.918 22.7289 54.1418L31.2251 59.0399C31.2251 59.0399 31.3168 59.0907 31.3678 59.1162C31.3678 59.1162 31.4596 59.1569 31.5003 59.167H31.5411C31.5411 59.167 31.6176 59.1925 31.6583 59.2077H31.6991C31.6991 59.2077 31.801 59.223 31.8571 59.223H32.0151H32.0559C32.0559 59.223 32.1323 59.1975 32.1731 59.1975H32.2139C32.2139 59.1975 32.3056 59.1569 32.3464 59.1467C32.3464 59.1467 32.4381 59.0958 32.4891 59.0704L40.9853 54.1723C41.3879 53.9384 41.6224 53.5213 41.6224 53.0635V43.2725V43.1047L41.5918 43.0742ZM30.5268 55.7033L24.6043 52.2904V45.4697L30.5268 48.8826V55.7033ZM31.8163 46.6549L25.8938 43.242L31.8163 39.8291L37.7387 43.242L31.8163 46.6549ZM39.0332 52.2904L33.1107 55.7033V48.8826L39.0332 45.4697V52.2904Z" fill="url(#paint4_linear_633_11068)"/>
<path d="M30.5274 22.3841H27.0412C24.0138 22.3841 21.547 24.8458 21.547 27.867V30.0541H19.172C16.1445 30.0541 13.6777 32.5158 13.6777 35.5371V60.7441C13.6777 63.7653 16.1445 66.227 19.172 66.227H44.4308C47.4583 66.227 49.9251 63.7653 49.9251 60.7441V58.557H52.3001C55.3276 58.557 57.7943 56.0953 57.7943 53.0741V50.1596H61.2805C64.308 50.1596 66.7748 47.6979 66.7748 44.6767V19.4696C66.7748 16.4484 64.308 13.9867 61.2805 13.9867H36.0217C32.9942 13.9867 30.5274 16.4484 30.5274 19.4696V22.3841ZM47.3719 57.2656V60.7446C47.3719 62.3468 46.0671 63.6591 44.4515 63.6591H19.1926C17.5871 63.6591 16.2721 62.357 16.2721 60.7446V35.5376C16.2721 33.9354 17.5769 32.6231 19.1926 32.6231H44.4515C46.057 32.6231 47.3719 33.9252 47.3719 35.5376V57.2707V57.2656ZM33.1109 19.4544C33.1109 17.8522 34.4156 16.5399 36.0313 16.5399H61.2902C62.8957 16.5399 64.2106 17.842 64.2106 19.4544V44.6614C64.2106 46.2636 62.9059 47.5759 61.2902 47.5759H57.804V27.8519C57.804 24.8307 55.3372 22.369 52.3098 22.369H33.105V19.4545L33.1109 19.4544ZM52.3156 24.9373C53.9212 24.9373 55.2361 26.2394 55.2361 27.8518V53.0588C55.2361 54.661 53.9313 55.9733 52.3156 55.9733H49.9406V35.5162C49.9406 32.495 47.4738 30.0333 44.4464 30.0333H24.1312V27.8462C24.1312 26.244 25.436 24.9317 27.0517 24.9317H52.3106L52.3156 24.9373Z" fill="url(#paint5_linear_633_11068)"/>
<defs>
<linearGradient id="paint0_linear_633_11068" x1="77.4807" y1="3.00237" x2="60.7114" y2="38.5119" gradientUnits="userSpaceOnUse">
<stop stop-color="#6C9530"/>
<stop offset="1" stop-color="white"/>
</linearGradient>
<linearGradient id="paint1_linear_633_11068" x1="29.2658" y1="2.97751" x2="12.4877" y2="38.4943" gradientUnits="userSpaceOnUse">
<stop stop-color="#6C9530"/>
<stop offset="1" stop-color="white"/>
</linearGradient>
<linearGradient id="paint2_linear_633_11068" x1="77.4533" y1="51.0993" x2="60.6752" y2="86.6161" gradientUnits="userSpaceOnUse">
<stop stop-color="#6C9530"/>
<stop offset="1" stop-color="white"/>
</linearGradient>
<linearGradient id="paint3_linear_633_11068" x1="29.2537" y1="51.0895" x2="12.4789" y2="86.6104" gradientUnits="userSpaceOnUse">
<stop stop-color="#6C9530"/>
<stop offset="1" stop-color="white"/>
</linearGradient>
<linearGradient id="paint4_linear_633_11068" x1="40.011" y1="38.889" x2="27.198" y2="62.7216" gradientUnits="userSpaceOnUse">
<stop stop-color="#6C9530"/>
<stop offset="1" stop-color="white"/>
</linearGradient>
<linearGradient id="paint5_linear_633_11068" x1="62.3939" y1="18.3534" x2="34.7179" y2="77.7969" gradientUnits="userSpaceOnUse">
<stop stop-color="#6C9530"/>
<stop offset="1" stop-color="white"/>
</linearGradient>
</defs>
</svg>
