<svg width="199" height="245" viewBox="0 0 199 245" fill="none" xmlns="http://www.w3.org/2000/svg">
<path d="M27.2284 167.227C27.7113 167.895 27.9024 168.725 27.7515 169.525C27.6107 170.334 27.1479 171.043 26.474 171.498C25.7901 171.943 24.9652 172.105 24.1706 171.923C23.376 171.741 22.692 171.245 22.2695 170.547C17.6425 163.483 14.1423 155.72 11.8992 147.564C9.55549 139.012 8.41877 130.167 8.51946 121.29C8.55969 117.87 8.74075 114.51 9.08274 111.231C9.35433 108.539 9.75668 105.887 10.2596 103.307L5.69307 104.774L5.55225 95.2308L0 88.1466L9.50541 85.0498L14.907 77.8444L20.932 85.4851L29.8138 88.1365L24.0501 95.9291L24.1205 104.774L16.4861 102.528C16.4861 102.659 16.466 102.791 16.4258 102.912C15.782 105.877 15.3093 108.873 14.9974 111.889C14.6555 115.026 14.4744 118.183 14.4543 121.341C14.3637 129.66 15.43 137.948 17.6429 145.953C19.715 153.513 22.9539 160.688 27.239 167.226L27.2284 167.227ZM184.093 77.8452L190.118 85.486L199 88.1374L193.216 95.9299L193.307 104.775L190.058 103.814C190.551 106.415 190.933 109.046 191.215 111.718L191.205 111.728C192.452 123.437 191.436 135.277 188.227 146.613C185.894 154.81 182.444 162.653 177.967 169.899C177.062 171.215 175.292 171.59 173.944 170.739C172.586 169.889 172.133 168.128 172.908 166.732C181.327 153.1 185.773 137.373 185.753 121.333C185.763 118.328 185.602 115.322 185.29 112.326C184.988 109.361 184.526 106.406 183.922 103.481C183.832 103.005 183.842 102.52 183.973 102.044L183.701 101.953L174.879 104.776L174.719 95.233L169.186 88.1488L178.672 85.0722L184.093 77.8452ZM42.4674 34.4393L51.4799 45.8752L64.8077 49.8423L56.1672 61.5109L56.2779 74.7583L41.9142 70.5584L28.6871 74.7583L28.4457 60.4989L20.1472 49.8423L34.3801 45.2071L42.4674 34.4393ZM157.589 34.4393L166.621 45.8752L179.939 49.8526L171.299 61.5212L171.409 74.7687L157.045 70.5688L143.818 74.7687L143.587 60.5093L135.278 49.8425L149.511 45.2073L157.589 34.4393ZM100.125 0L113.13 16.4758L132.322 22.2242L119.849 39.0643L120.01 58.1714L99.2794 52.1094L80.178 58.1714L79.846 37.5666L67.8663 22.2141L88.3961 15.545L100.125 0ZM112.819 109.116C106.552 102.821 96.7348 101.85 89.3718 106.798C82.0088 111.747 79.142 121.24 82.5321 129.478C85.9218 137.716 94.6225 142.391 103.313 140.651C111.994 138.91 118.25 131.239 118.25 122.333C118.26 117.374 116.309 112.618 112.819 109.116ZM131.005 199.135H133.731C135.259 199.135 136.527 200.299 136.678 201.827L139.826 232.21H150.106L154.462 201.869C154.592 200.31 155.89 199.116 157.449 199.116H166.723V150.083H131.005L131.005 199.135ZM68.3494 199.135V150.081H33.5171V199.135H42.6C44.1289 199.135 45.4062 200.299 45.5672 201.827L48.7157 232.21H58.9856L63.351 201.869C63.4918 200.32 64.7794 199.136 66.3182 199.136L68.3494 199.135ZM125.031 147.027H74.326V205.957H85.5716V205.977H85.5616C87.0905 205.967 88.3781 207.121 88.5491 208.649L92.321 245H105.377L110.597 208.698C110.728 207.16 112.006 205.965 113.545 205.955H125.031L125.031 147.027ZM61.7625 117.821C56.5924 112.599 48.4952 111.779 42.3997 115.868C36.3141 119.946 33.9402 127.79 36.7367 134.59C39.5332 141.391 46.7149 145.257 53.8868 143.82C61.0587 142.383 66.2289 136.048 66.2289 128.69C66.2289 124.612 64.6192 120.705 61.7625 117.821ZM159.672 117.821H159.662C154.502 112.639 146.425 111.84 140.37 115.918C134.314 120.007 131.961 127.82 134.757 134.59C137.553 141.361 144.715 145.206 151.857 143.769C159.008 142.342 164.158 136.027 164.148 128.69C164.148 124.612 162.539 120.695 159.672 117.821Z" fill="url(#paint0_linear_673_11285)"/>
<defs>
<linearGradient id="paint0_linear_673_11285" x1="43.3306" y1="17.193" x2="99.9627" y2="244.885" gradientUnits="userSpaceOnUse">
<stop stop-color="#9747FF"/>
<stop offset="1" stop-color="white"/>
</linearGradient>
</defs>
</svg>
