<svg width="62" height="65" viewBox="0 0 62 65" fill="none" xmlns="http://www.w3.org/2000/svg">
<path d="M24.1872 40.9347V42.0696C24.1872 45.8507 27.2433 48.9267 31.0005 48.9267C34.7577 48.9267 37.8137 45.851 37.8137 42.0696V40.9347C37.8137 37.1536 34.7577 34.0775 31.0005 34.0775C27.2433 34.0775 24.1872 37.1532 24.1872 40.9347ZM36.2004 40.9347V42.0696C36.2004 44.9544 33.8663 47.3037 30.9999 47.3037C28.1335 47.3037 25.7993 44.9544 25.7993 42.0696V40.9347C25.7993 38.0498 28.1335 35.7006 30.9999 35.7006C33.8663 35.7006 36.2004 38.0498 36.2004 40.9347ZM61.998 57.7878C61.4711 50.4989 55.3695 44.7902 48.1031 44.7902C43.4215 44.7902 39.019 47.2137 36.448 51.1566C34.754 50.4857 32.915 50.1172 30.9997 50.1172C29.0844 50.1172 27.2429 50.4831 25.5515 51.1566C22.9828 47.2137 18.5777 44.7902 13.8964 44.7902C6.63264 44.7902 0.528915 50.499 0.00149917 57.7878C-0.0116734 58.0105 0.0620941 58.2359 0.217531 58.3977C0.37297 58.5594 0.581097 58.6549 0.805033 58.6549H17.4841C16.6753 60.3307 16.1562 62.1788 16.014 64.1329C16.0008 64.3557 16.0746 64.5811 16.23 64.7428C16.3854 64.9045 16.5936 65 16.8175 65H45.184C45.4053 65 45.6213 64.9046 45.7715 64.7428C45.9269 64.5811 46.0007 64.3557 45.9875 64.1329C45.8453 62.1788 45.3342 60.3306 44.5174 58.6549H61.1965C61.4178 58.6549 61.6338 58.5594 61.784 58.3977C61.9368 58.2359 62.0164 58.0105 61.998 57.7878ZM1.69584 57.04C2.55994 51.0131 7.75795 46.4101 13.8966 46.4101C17.9564 46.4101 21.7741 48.4677 24.0658 51.8405C21.7658 53.0549 19.8031 54.8553 18.3857 57.0402L1.69584 57.04ZM17.7058 63.3879C18.6174 56.7908 24.2948 51.7397 30.9998 51.7397C37.7048 51.7397 43.3819 56.7909 44.2938 63.3879H17.7058ZM43.6059 57.04C42.1884 54.8472 40.2257 53.0495 37.9257 51.8324C40.2178 48.465 44.0432 46.402 48.095 46.402C54.2256 46.402 59.4264 51.0051 60.2957 57.032L43.6059 57.0346L43.6059 57.04ZM41.7564 36.3789V37.4236C41.7564 40.9475 44.6017 43.8112 48.1031 43.8112C51.6044 43.8112 54.4497 40.9475 54.4497 37.4236V36.3789C54.4497 32.855 51.6044 29.9913 48.1031 29.9913C44.6044 29.9913 41.7564 32.855 41.7564 36.3789ZM48.1031 31.6061C50.7192 31.6061 52.8452 33.7432 52.8452 36.3789V37.4236C52.8452 40.0566 50.7218 42.1964 48.1031 42.1964C45.4869 42.1964 43.3609 40.0592 43.3609 37.4236V36.3789C43.3609 33.7432 45.4869 31.6061 48.1031 31.6061ZM13.8959 43.8109C17.3972 43.8109 20.2425 40.9472 20.2425 37.4233V36.3785C20.2425 32.8546 17.3972 29.9909 13.8959 29.9909C10.3946 29.9909 7.54921 32.8546 7.54921 36.3785V37.4233C7.54921 40.9392 10.3946 43.8109 13.8959 43.8109ZM9.15372 36.3787C9.15372 33.7458 11.2771 31.606 13.8959 31.606C16.512 31.606 18.638 33.7431 18.638 36.3787V37.4235C18.638 40.0564 16.5146 42.1962 13.8959 42.1962C11.2798 42.1962 9.15372 40.0591 9.15372 37.4235V36.3787ZM30.9997 25.5316C36.4295 25.5316 41.6141 22.5725 45.2446 17.4071C45.4396 17.1287 45.4396 16.7548 45.2446 16.4711C41.6142 11.3032 36.4296 8.34389 30.9997 8.34389C25.5697 8.34389 20.3853 11.303 16.7547 16.4684C16.5598 16.7468 16.5598 17.1207 16.7547 17.4044C20.3851 22.5643 25.5697 25.5316 30.9997 25.5316ZM30.9997 10.0014C34.7961 10.0014 37.8918 13.109 37.8918 16.938C37.8918 20.7589 34.8041 23.8747 30.9997 23.8747C27.1952 23.8747 24.1075 20.7591 24.1075 16.938C24.1075 13.1092 27.2031 10.0014 30.9997 10.0014ZM43.5929 16.938C41.9199 19.1918 39.9177 20.9578 37.731 22.1457C38.8375 20.7006 39.4909 18.8949 39.4909 16.938C39.4909 14.9759 38.8297 13.1781 37.731 11.7304C39.9151 12.9183 41.9199 14.6762 43.5929 16.938ZM24.2633 11.7251C23.1568 13.1702 22.5034 14.9759 22.5034 16.9328C22.5034 18.8949 23.1647 20.7006 24.2633 22.1404C22.0793 20.9525 20.0744 19.1866 18.4014 16.9328C20.0797 14.6763 22.0845 12.9183 24.2633 11.7251ZM30.1963 5.17317V0.808717C30.1963 0.360603 30.5546 0 30.9999 0C31.4451 0 31.8034 0.36061 31.8034 0.808717V5.16787C31.8034 5.61599 31.4451 5.97659 30.9999 5.97659C30.5546 5.98189 30.1963 5.62128 30.1963 5.17317ZM40.0176 7.38719L42.1832 3.61404C42.4045 3.22692 42.8972 3.09699 43.2818 3.31441C43.6664 3.53714 43.8008 4.03299 43.5795 4.4201L41.4139 8.19326C41.2664 8.45046 40.995 8.60159 40.7184 8.60159C40.5841 8.60159 40.4418 8.56712 40.3206 8.49288C39.9228 8.27015 39.7937 7.77431 40.0176 7.38719ZM18.4273 4.42011C18.206 4.03299 18.3403 3.53713 18.725 3.31442C19.1096 3.0917 19.6023 3.22692 19.8236 3.61405L21.9813 7.3872C22.2026 7.77432 22.0682 8.27018 21.6836 8.49289C21.5545 8.56714 21.4201 8.6016 21.2857 8.6016C21.0091 8.6016 20.7404 8.45842 20.5903 8.19327L18.4273 4.42011ZM30.9996 20.7112C33.0704 20.7112 34.7486 19.0142 34.7486 16.938C34.7486 14.8619 33.0704 13.157 30.9996 13.157C28.9289 13.157 27.2506 14.8539 27.2506 16.9301C27.2506 19.0089 28.9289 20.7112 30.9996 20.7112ZM30.9996 14.7797C32.1799 14.7797 33.1441 15.7502 33.1441 16.938C33.1441 18.1259 32.1799 19.0964 30.9996 19.0964C29.8193 19.0964 28.8551 18.1259 28.8551 16.938C28.8551 15.7502 29.8193 14.7797 30.9996 14.7797Z" fill="black"/>
</svg>
