<svg width="37" height="42" viewBox="0 0 37 42" fill="none" xmlns="http://www.w3.org/2000/svg">
<path d="M2.85901 31.5285H15.3837C15.6009 31.5285 15.7786 31.3499 15.7786 31.1315C15.7786 30.9132 15.6009 30.7345 15.3837 30.7345H7.16465L9.18631 7.23711H13.2395V10.6733V10.6713C13.2395 10.8917 13.4172 11.0683 13.6343 11.0683C13.8535 11.0683 14.0292 10.8917 14.0292 10.6713V7.23711H21.3992V10.6733L21.4011 10.6713C21.4011 10.8916 21.5769 11.0683 21.796 11.0683C22.0132 11.0683 22.1909 10.8916 22.1909 10.6713V7.2371H24.329H24.327C25.403 7.22122 26.3092 8.04303 26.402 9.12094L26.9292 15.4951C26.9351 15.6003 26.9845 15.6976 27.0654 15.7651C23.6005 15.7988 20.8109 18.6335 20.8109 22.1174V24.4141C20.2028 24.7575 19.8257 25.4027 19.8218 26.1034V26.6334V26.6314C19.8238 27.7093 20.6925 28.5808 21.7645 28.5808H22.497H22.495C22.8069 29.611 23.4525 30.5083 24.3271 31.1316L24.0428 33.1385L20.4161 33.8055C18.5819 34.1529 17.2552 35.7668 17.2572 37.6427V41.603C17.2552 41.7082 17.2967 41.8094 17.3717 41.8849C17.4448 41.9603 17.5474 42 17.6521 42H36.6051C36.8223 42 37 41.8213 37 41.603V37.6427C36.998 35.7589 35.6575 34.145 33.8155 33.8055L30.1887 33.1385L29.9103 31.1316H29.9084C30.783 30.5083 31.4266 29.611 31.7405 28.5808H32.4729C33.543 28.5808 34.4097 27.7073 34.4097 26.6314V26.1014V26.1034C34.4077 25.4007 34.0287 24.7555 33.4206 24.4141V22.1014C33.4088 18.7764 30.8521 16.0231 27.5553 15.7847C27.6717 15.7033 27.7369 15.5683 27.729 15.4254L27.2018 9.07313C27.0893 7.57638 25.8475 6.42102 24.3549 6.42702H22.1912V4.50944C22.1912 2.85388 21.2889 1.33131 19.8398 0.543217C18.3907 -0.242892 16.6276 -0.167427 15.2516 0.741723C13.8735 -0.16945 12.1105 -0.246846 10.6575 0.54123C9.20637 1.32734 8.30213 2.85189 8.30213 4.50943V6.42503L4.52137 6.42702C3.02883 6.42106 1.78697 7.57637 1.67447 9.07313L0.0101325 28.41C-0.0569917 29.212 0.21151 30.006 0.752487 30.5996C1.2954 31.1912 2.05743 31.5285 2.85901 31.5285ZM22.3018 27.7866H21.7747C21.4687 27.7886 21.1725 27.6695 20.9554 27.4511C20.7362 27.2348 20.6118 26.941 20.6118 26.6313V26.1013V26.1032C20.6158 25.5434 21.0166 25.067 21.5634 24.9697H21.601C21.6562 24.9678 21.7095 24.9678 21.7648 24.9697H22.292V27.8223L22.3018 27.7866ZM36.2205 37.6428V41.2061H32.2305V38.3892C32.2305 38.1709 32.0528 37.9922 31.8356 37.9922C31.6185 37.9922 31.4408 38.1709 31.4408 38.3892V41.2061H22.8174V38.3892C22.8174 38.1709 22.6397 37.9922 22.4225 37.9922C22.2053 37.9922 22.0277 38.1709 22.0277 38.3892V41.2061H18.0416V37.6428C18.0396 36.1421 19.1058 34.8558 20.5746 34.5878L24.3238 33.895L26.9298 35.7054C27.064 35.8047 27.2476 35.8047 27.3819 35.7054L29.9662 33.895L33.7094 34.5878C35.1684 34.8657 36.2244 36.1501 36.2205 37.6428ZM29.4252 33.2915L27.1291 34.8796L24.8389 33.2915L25.0818 31.5863C26.3769 32.2136 27.8853 32.2136 29.1824 31.5863L29.4252 33.2915ZM27.1291 31.2369C24.9001 31.235 23.0936 29.4186 23.0917 27.1774V23.3085L28.7993 21.4405L28.7973 21.4385C29.3185 22.3159 30.1754 22.9392 31.1665 23.1596V27.1774C31.1645 29.4186 29.3581 31.235 27.1291 31.2369ZM33.6302 26.6315C33.6283 27.2687 33.115 27.7829 32.4832 27.7868H31.956V24.9323H32.4832C33.115 24.9362 33.6283 25.4504 33.6302 26.0876V26.6315ZM32.6411 22.0995V24.1759H31.956V22.8042C31.9541 22.5958 31.7942 22.4251 31.5888 22.4072C30.0824 22.3219 29.352 20.8192 29.346 20.7874C29.2572 20.6067 29.0519 20.5194 28.8604 20.5809L22.574 22.6454C22.4121 22.697 22.2996 22.8499 22.3016 23.0226V24.1402H21.7744H21.6105V22.1015C21.6105 19.0405 24.0784 16.5593 27.1226 16.5593C30.1669 16.5593 32.6347 19.0406 32.6347 22.1015L32.6411 22.0995ZM21.4057 4.50979V6.42539H14.0358V4.50979C14.0358 2.46318 15.6863 0.805589 17.7218 0.805589C19.7572 0.805589 21.4057 2.46313 21.4057 4.50979ZM12.7879 0.803607V0.805592C13.4197 0.805592 14.0396 0.972338 14.5884 1.28598C13.7257 2.13562 13.24 3.29687 13.24 4.5098V6.4254L9.09205 6.42738V4.5098C9.09008 3.52321 9.47704 2.57632 10.172 1.87955C10.8649 1.18278 11.8067 0.791728 12.7879 0.79371V0.803607ZM2.46428 9.12105C2.55905 8.05107 3.45338 7.23121 4.52148 7.23721H8.397L6.39708 30.7346H2.85917C2.27875 30.7366 1.72395 30.4924 1.33109 30.0617C0.940184 29.6329 0.746732 29.0552 0.800002 28.4736L2.46428 9.12105Z" fill="black"/>
</svg>
