<svg width="37" height="33" viewBox="0 0 37 33" fill="none" xmlns="http://www.w3.org/2000/svg">
<path d="M31.9727 27.1898C32.961 27.1898 33.8009 26.6247 34.1621 25.7158L36.869 18.8983C37.0963 18.3268 37.0254 17.7076 36.6755 17.2014C36.3257 16.6936 35.7678 16.4023 35.1455 16.4023H19.9536L19.5505 14.5765C19.4925 14.3139 19.2555 14.126 18.983 14.126H17.7013C17.6707 12.929 16.676 11.9627 15.4555 11.9627H11.791C11.7168 9.90135 9.99822 8.24745 7.89271 8.24745H3.50091C2.49329 8.24745 1.67267 9.05769 1.67267 10.0526V22.1375C1.67267 22.5896 1.98383 22.9716 2.4062 23.0862V26.8285L0.379649 29.7018C-0.289418 30.6521 -0.0508219 31.9637 0.911691 32.6243C1.28088 32.8774 1.7033 33 2.12246 33C2.79635 33 3.45898 32.6864 3.8717 32.099L6.23521 28.7483C6.51412 28.3822 6.66246 27.946 6.66246 27.486V23.1228H7.22674L9.41772 31.1934C9.56443 31.733 9.91749 32.1867 10.4108 32.4684C10.7397 32.6563 11.1041 32.7518 11.4732 32.7518C11.657 32.7518 11.8424 32.7279 12.0246 32.6802C12.5711 32.5353 13.0306 32.1867 13.316 31.6996C13.6013 31.2125 13.6771 30.6459 13.5304 30.1062L11.5442 22.7887C11.6989 22.6152 11.7941 22.3875 11.7941 22.1376V16.3992H15.4554C16.2937 16.3992 17.0241 15.9439 17.411 15.2706H18.5153L21.0288 26.6774V27.8681C21.0288 28.7515 21.6817 29.4854 22.5345 29.6286C22.3717 29.9263 22.2798 30.2685 22.2798 30.6298C22.2798 31.7998 23.2439 32.7517 24.4289 32.7517C25.6138 32.7517 26.5779 31.7998 26.5779 30.6298C26.5779 30.2781 26.4908 29.947 26.3361 29.6541H30.373C30.2199 29.947 30.1312 30.278 30.1312 30.6298C30.1312 31.7998 31.0953 32.7517 32.2802 32.7517C33.4652 32.7517 34.4293 31.7998 34.4293 30.6298C34.4293 30.2765 34.3406 29.9438 34.1858 29.6509C34.4825 29.6254 34.7146 29.3803 34.7146 29.0811C34.7146 28.7643 34.4551 28.508 34.1343 28.508H32.2818H32.2802H32.2786H24.4286H24.427H24.4254H22.8341C22.4778 28.508 22.186 28.2215 22.186 27.8681V27.19L31.9727 27.1898ZM5.50349 27.4891C5.50349 27.7008 5.43578 27.8998 5.30681 28.0669C5.30197 28.0733 5.29713 28.0797 5.2923 28.0876L2.92235 31.4479C2.61765 31.8793 2.01469 31.986 1.57778 31.6867C1.14087 31.3859 1.03286 30.7905 1.33595 30.3591L3.46569 27.3395C3.5334 27.2439 3.57048 27.1293 3.57048 27.0115V23.1259H5.50513V27.4891L5.50349 27.4891ZM12.3118 31.128C12.1828 31.3508 11.9748 31.5084 11.7265 31.5737C11.4783 31.639 11.2187 31.6039 10.993 31.4766C10.7673 31.3493 10.6077 31.1439 10.5416 30.8988L8.43119 23.1244H10.4336L12.4085 30.4036C12.4746 30.6488 12.4392 30.9051 12.3102 31.1279L12.3118 31.128ZM10.6335 21.9783H2.83507V10.0523C2.83507 9.68939 3.13494 9.3933 3.50253 9.3933H7.89432C9.35821 9.3933 10.5577 10.533 10.6318 11.9625H8.11356C6.87378 11.9625 5.86615 12.9574 5.86615 14.1815C5.86615 15.4056 6.87378 16.4004 8.11356 16.4004H10.6351V21.9783L10.6335 21.9783ZM15.4557 15.2545H8.11215C7.51404 15.2545 7.02554 14.7738 7.02554 14.1816C7.02554 13.5911 7.51243 13.1088 8.11215 13.1088H15.4557C16.0539 13.1088 16.5424 13.5895 16.5424 14.1816C16.5424 14.7722 16.0555 15.2545 15.4557 15.2545ZM25.4193 30.6312C25.4193 31.1692 24.976 31.607 24.431 31.607C23.8861 31.607 23.4428 31.1692 23.4428 30.6312C23.4428 30.0932 23.8861 29.6555 24.431 29.6555H24.4327C24.9776 29.6555 25.4209 30.0932 25.4209 30.6312H25.4193ZM32.2825 31.6054C31.7376 31.6054 31.2942 31.1677 31.2942 30.6296C31.2942 30.0916 31.7376 29.6539 32.2825 29.6539H32.2841C32.829 29.6539 33.2724 30.0916 33.2724 30.6296C33.2724 31.1677 32.829 31.6054 32.2841 31.6054H32.2825ZM35.1458 17.5498C35.3876 17.5498 35.5795 17.6501 35.7165 17.8475C35.8535 18.0449 35.8777 18.2582 35.789 18.481L33.0821 25.2985C32.9 25.7586 32.4743 26.0451 31.9745 26.0451H22.0787L20.2069 17.5511H35.1454L35.1458 17.5498ZM30.4415 23.6033L31.5024 19.6922C31.5846 19.3865 31.9038 19.2051 32.2134 19.2878C32.5229 19.369 32.7067 19.6842 32.6229 19.9899L31.562 23.9009C31.4927 24.1572 31.2573 24.326 31.0026 24.326C30.9526 24.326 30.9026 24.3196 30.8527 24.3069C30.5431 24.2257 30.3593 23.9105 30.4432 23.6049L30.4415 23.6033ZM22.6563 19.9899C22.5741 19.6842 22.7563 19.3706 23.0658 19.2878C23.3754 19.2067 23.693 19.3865 23.7768 19.6922L24.8377 23.6033C24.9199 23.9089 24.7377 24.2225 24.4282 24.3053C24.3782 24.318 24.3282 24.3244 24.2782 24.3244C24.0219 24.3244 23.7881 24.1556 23.7188 23.8993L22.6579 19.9882L22.6563 19.9899ZM25.5889 19.8928C25.5599 19.5776 25.7969 19.299 26.1161 19.2704C26.4353 19.2417 26.7174 19.4757 26.7465 19.7909L27.0995 23.702C27.1286 24.0171 26.8916 24.2957 26.5724 24.3243C26.5546 24.3259 26.5369 24.3275 26.5192 24.3275C26.2225 24.3275 25.9678 24.1031 25.942 23.8054L25.5889 19.8943L25.5889 19.8928ZM28.183 23.7004L28.5361 19.7893C28.5651 19.4741 28.8472 19.2417 29.1664 19.2688C29.4856 19.2974 29.721 19.576 29.6936 19.8912L29.3405 23.8023C29.3131 24.0999 29.06 24.3243 28.7634 24.3243C28.7456 24.3243 28.7279 24.3228 28.7102 24.3212C28.3909 24.2925 28.1555 24.0139 28.183 23.6988L28.183 23.7004ZM6.7358 7.30001C8.77363 7.30001 10.4326 5.66205 10.4326 3.65001C10.4326 1.63796 8.77363 0 6.7358 0C4.69798 0 3.03904 1.63796 3.03904 3.65001C3.03904 5.66205 4.69798 7.30001 6.7358 7.30001ZM6.7358 1.1459C8.13358 1.1459 9.27178 2.26971 9.27178 3.6498C9.27178 5.02989 8.13358 6.1537 6.7358 6.1537C5.33803 6.1537 4.19982 5.02989 4.19982 3.6498C4.19982 2.26971 5.33803 1.1459 6.7358 1.1459Z" fill="black"/>
</svg>
