<svg width="27" height="29" viewBox="0 0 27 29" fill="none" xmlns="http://www.w3.org/2000/svg">
<path d="M13.3001 0C5.95811 0 0 5.90016 0 13.1687C0 18.2978 3.01033 22.9607 7.71025 25.1162C7.77844 25.1477 7.85685 25.1511 7.92844 25.1252C7.99889 25.0993 8.05685 25.0464 8.08753 24.9778C8.11935 24.9102 8.12276 24.8326 8.09662 24.7628C8.07048 24.693 8.01707 24.6356 7.94889 24.6041C6.35797 23.8748 4.97057 22.8449 3.84097 21.6023C4.97391 17.503 8.76373 14.5024 13.3002 14.5024C17.8378 14.5024 21.6274 17.503 22.7605 21.6023C21.6299 22.8449 20.2435 23.8736 18.6526 24.603V24.6041C18.5106 24.6705 18.4492 24.8371 18.5151 24.9778C18.5458 25.0464 18.6037 25.0993 18.6742 25.1252C18.7458 25.1511 18.8242 25.1477 18.8924 25.1162C23.5935 22.9608 26.6026 18.2978 26.6026 13.1687C26.6026 5.89985 20.6435 0 13.3001 0ZM13.3001 0.563882C20.3354 0.563882 26.034 6.205 26.034 13.1687C26.034 16.112 24.9988 18.8919 23.2011 21.0924C22.0772 17.548 19.0545 14.8456 15.2988 14.1287C17.3329 13.3375 18.7749 11.3757 18.7749 9.08406C18.7749 6.09465 16.3203 3.66566 13.3011 3.66566C10.2819 3.66566 7.82857 6.09456 7.82857 9.08406C7.82857 11.3756 9.2706 13.3375 11.3035 14.1287C7.54784 14.8457 4.525 17.5469 3.40122 21.0913C1.60463 18.8908 0.569396 16.1108 0.569396 13.1675C0.569396 6.2027 6.26598 0.562729 13.3013 0.562729L13.3001 0.563882ZM13.3001 4.22983C16.0126 4.22983 18.2057 6.39984 18.2057 9.0855C18.2057 11.7712 16.0125 13.9432 13.3001 13.9432C10.5876 13.9432 8.39447 11.7709 8.39447 9.0855C8.39447 6.4001 10.5877 4.22983 13.3001 4.22983ZM13.3058 17.2129C12.9024 17.2129 12.4967 17.4155 12.2989 17.8264L11.0444 20.4252L8.1603 20.7989C7.25007 20.9171 6.87053 22.0651 7.53645 22.692L9.64554 24.6774L9.11372 27.5093C8.94555 28.403 9.93191 29.1132 10.7387 28.681L13.2978 27.3078L15.8523 28.6843C16.6592 29.1188 17.6478 28.4097 17.4819 27.516L16.9535 24.6831L19.066 22.7021C19.7319 22.0775 19.3546 20.9272 18.4455 20.8079L15.5614 20.4286L14.3114 17.8286C14.1137 17.4178 13.7103 17.2141 13.3069 17.2141L13.3058 17.2129ZM13.3058 17.7498C13.5012 17.7498 13.6944 17.8568 13.7967 18.0706L15.1137 20.809V20.8079C15.1557 20.8946 15.2376 20.9531 15.333 20.9655L18.3695 21.3639C18.8445 21.4258 19.0207 21.9649 18.6729 22.2914L16.4502 24.3781L16.4514 24.3792C16.382 24.4445 16.3502 24.5402 16.3673 24.6325L16.9207 27.6152C17.007 28.0812 16.5445 28.4155 16.1241 28.1881L13.4332 26.7396C13.3479 26.6946 13.2457 26.6946 13.1604 26.7396L10.4684 28.1837C10.0479 28.4099 9.58429 28.0745 9.67179 27.6085L10.232 24.628C10.2491 24.5346 10.2173 24.4389 10.1479 24.3737L7.92635 22.2836C7.57976 21.9572 7.7593 21.418 8.23317 21.3561L11.2697 20.9622H11.2708C11.3663 20.9498 11.4492 20.8901 11.4901 20.8046L12.8117 18.0695C12.9151 17.8557 13.1095 17.7488 13.3049 17.7488L13.3058 17.7498Z" fill="black"/>
</svg>
