<svg width="31" height="28" viewBox="0 0 31 28" fill="none" xmlns="http://www.w3.org/2000/svg">
<path d="M24.7203 18.5938C22.9115 18.5938 21.2232 19.3703 20.0293 20.734C18.8143 19.6659 17.2348 19.0139 15.4994 19.0139C13.7679 19.0139 12.1845 19.6659 10.9695 20.734C9.77538 19.3703 8.08716 18.5938 6.27848 18.5938C2.8156 18.5938 0 21.4403 0 24.9415V26.3899C0 26.6006 0.167775 26.7729 0.378803 26.7729H8.57998V27.617C8.57998 27.8277 8.74776 28 8.95879 28H22.0412C22.2496 28 22.42 27.8304 22.42 27.617V26.7729H30.6212C30.8296 26.7729 31 26.6032 31 26.3899V24.9415C30.9987 21.4404 28.1794 18.5938 24.7203 18.5938ZM8.57968 26.0094H3.18739V23.9156C3.18739 23.7049 3.01962 23.5326 2.80859 23.5326C2.60018 23.5326 2.42979 23.7023 2.42979 23.9156V26.0094H0.758578V24.9413C0.758578 21.8642 3.23457 19.3569 6.28207 19.3569C7.88247 19.3569 9.37279 20.0553 10.4268 21.2732C9.28514 22.5228 8.57968 24.182 8.57968 26.0094ZM21.6635 27.2379H19.7236V24.8737C19.7236 24.663 19.5558 24.4907 19.3448 24.4907C19.1337 24.4907 18.966 24.6604 18.966 24.8737V27.2379H12.0295V24.8737C12.0295 24.663 11.8617 24.4907 11.6507 24.4907C11.4396 24.4907 11.2719 24.6604 11.2719 24.8737V27.2379H9.33198V26.0134C9.33198 22.5771 12.0963 19.781 15.4964 19.781C18.8952 19.781 21.6608 22.5759 21.6608 26.0134L21.6595 27.2379H21.6635ZM30.2398 26.0094H28.566V23.9156C28.566 23.7049 28.3982 23.5326 28.1871 23.5326C27.9787 23.5326 27.8083 23.7023 27.8083 23.9156V26.0094H22.4187C22.4187 24.1807 21.7135 22.5216 20.5771 21.2732C21.631 20.0553 23.12 19.3569 24.7219 19.3569C27.7654 19.3569 30.2453 21.8602 30.2453 24.9413L30.244 26.0094H30.2398ZM21.4957 14.5981C21.4957 16.3964 22.9414 17.8581 24.7201 17.8581C26.4988 17.8581 27.9445 16.3964 27.9445 14.5981C27.9445 12.7998 26.4988 11.3381 24.7201 11.3381C22.9414 11.3368 21.4957 12.7998 21.4957 14.5981ZM27.1856 14.5981C27.1856 15.975 26.078 17.0921 24.7188 17.0921C23.3569 17.0921 22.2519 15.9723 22.2519 14.5981C22.2519 13.2239 23.3595 12.1041 24.7188 12.1041C26.0793 12.1041 27.1856 13.2239 27.1856 14.5981ZM6.27781 11.3368C4.49912 11.3368 3.05337 12.7985 3.05337 14.5968C3.05337 16.3951 4.49912 17.8568 6.27781 17.8568C8.05649 17.8568 9.50224 16.3951 9.50224 14.5968C9.50224 12.7998 8.05649 11.3368 6.27781 11.3368ZM6.27781 17.0949C4.91594 17.0949 3.81098 15.9751 3.81098 14.6008C3.81098 13.2266 4.91856 12.1068 6.27781 12.1068C7.63705 12.1068 8.74464 13.2266 8.74464 14.6008C8.74464 15.9751 7.63967 17.0949 6.27781 17.0949ZM15.4987 11.0016C13.5496 11.0016 11.965 12.6025 11.965 14.5742C11.965 16.5448 13.5497 18.1455 15.4987 18.1455C17.4477 18.1455 19.0324 16.5447 19.0324 14.5729C19.0324 12.6023 17.4477 11.0016 15.4987 11.0016ZM15.4987 17.3826C13.9691 17.3826 12.72 16.1236 12.72 14.5732C12.72 13.0227 13.9652 11.7638 15.4987 11.7638C17.0323 11.7638 18.2775 13.0227 18.2775 14.5732C18.2775 16.125 17.0283 17.3826 15.4987 17.3826ZM13.0856 5.26898L12.6492 7.20908C12.5823 7.50725 12.6924 7.80938 12.9349 7.99227C13.0686 8.09431 13.2272 8.14467 13.3805 8.14467C13.5077 8.14467 13.6388 8.11021 13.7567 8.04263L15.5525 7.005L17.2433 8.02672C17.5055 8.18309 17.8201 8.16984 18.0691 7.99226C18.3168 7.81204 18.4308 7.51786 18.3706 7.21569L17.9511 5.16693L19.4349 3.85366C19.663 3.64958 19.7469 3.34479 19.6564 3.04927C19.566 2.75772 19.3209 2.55366 19.0194 2.52051L16.9628 2.29258L16.1882 0.463821C16.0663 0.180229 15.8042 0.00264614 15.4987 0H15.4922C15.1907 0 14.9286 0.173601 14.804 0.447911L13.9547 2.35486L11.9912 2.53509C11.6897 2.56159 11.4407 2.76303 11.3437 3.05058C11.2467 3.34212 11.3266 3.65088 11.5521 3.85762L13.0856 5.26898ZM19.2567 3.07975L18.9382 3.27985C18.9382 3.27985 18.9343 3.27985 18.9343 3.27588V3.2719L19.2567 3.07975ZM15.4949 0.759355H15.4883V0.763331H15.4844L15.4005 0.389614L15.4949 0.759355ZM14.2444 3.09699C14.3781 3.08373 14.5 2.99892 14.5538 2.87303L15.4936 0.765984L16.356 2.79751C16.4098 2.9234 16.5277 3.01087 16.6614 3.02809L18.9329 3.28253L17.2893 4.7376C17.1857 4.82904 17.1412 4.96819 17.1687 5.10335L17.6314 7.36679L15.7518 6.23376C15.6338 6.1622 15.4896 6.1622 15.369 6.22979L13.3819 7.37608L13.8656 5.2213C13.8957 5.08613 13.8525 4.94699 13.7516 4.85556L12.0607 3.30244L14.2444 3.09699ZM12.0594 3.29444C12.0633 3.29444 12.0633 3.29444 12.0594 3.29444V3.29841V3.30239L11.6832 3.26528L12.0594 3.29444ZM22.5886 6.5955L21.7839 8.13936C21.6502 8.39777 21.6764 8.69593 21.8573 8.92255C22.0355 9.15048 22.3199 9.24457 22.5952 9.17036L24.3503 8.70522L25.5548 9.95752C25.6925 10.1006 25.8734 10.1775 26.0621 10.1775C26.146 10.1775 26.2338 10.1603 26.3138 10.1298C26.5825 10.0278 26.7594 9.78658 26.7765 9.49503L26.88 7.66363L28.4267 6.8937C28.6849 6.76515 28.8357 6.50675 28.8225 6.2152C28.8094 5.92631 28.6377 5.67983 28.369 5.57382L26.6781 4.90858L26.433 3.18187C26.3924 2.89298 26.1945 2.66903 25.9192 2.59216C25.644 2.51397 25.3582 2.60541 25.1774 2.82937L24.0291 4.24732L22.3278 3.95181C22.046 3.90145 21.7707 4.02337 21.6135 4.26456C21.4562 4.50574 21.4522 4.8079 21.6069 5.05172L22.5886 6.5955ZM24.1196 5.04106C24.2533 5.06492 24.3909 5.01456 24.4748 4.90589L25.699 3.39254L25.9638 5.24117C25.9834 5.37634 26.0739 5.49163 26.2023 5.54331L28.0046 6.25228L26.3465 7.07655C26.2259 7.13751 26.1447 7.25943 26.1355 7.39857L26.0254 9.35323L24.737 8.01346C24.6662 7.93528 24.5692 7.8942 24.4683 7.8942C24.4342 7.8942 24.404 7.89817 24.3713 7.90745L22.4995 8.40574L23.362 6.75322C23.4262 6.6313 23.4197 6.48553 23.3449 6.37024L22.2977 4.72434L24.1196 5.04106ZM2.56955 6.89367L4.11623 7.6636L4.21978 9.495C4.23682 9.78389 4.41377 10.0277 4.68247 10.1298C4.76636 10.1602 4.85025 10.1775 4.93413 10.1775C5.12157 10.1775 5.30378 10.1033 5.44138 9.95749L6.64594 8.70518L8.40104 9.17033C8.67891 9.24454 8.96204 9.15045 9.13898 8.92252C9.31724 8.69458 9.34346 8.39641 9.21238 8.13933L8.4076 6.59547L9.38804 5.05162C9.54271 4.80778 9.54271 4.50563 9.38149 4.26446C9.2242 4.02327 8.94893 3.90136 8.66714 3.95171L6.9658 4.24723L5.81758 2.82927C5.63669 2.60531 5.35096 2.51387 5.07571 2.59206C4.80045 2.67024 4.60252 2.89685 4.56191 3.18177L4.31681 4.90848L2.62593 5.57372C2.35723 5.67841 2.18683 5.92355 2.17241 6.2151C2.16061 6.50267 2.31133 6.76513 2.56955 6.89367ZM4.79519 5.53935C4.92233 5.48899 5.01277 5.3737 5.03374 5.23721L5.29851 3.38857L6.52273 4.90193C6.61055 5.00662 6.74425 5.06095 6.87794 5.0371L8.69726 4.71773L7.64998 6.36363C7.57658 6.47892 7.57002 6.62867 7.63294 6.74661L8.4954 8.39913L6.62367 7.90084C6.4926 7.86638 6.35235 7.90481 6.25799 8.00287L4.96954 9.34264L4.85944 7.38799C4.85289 7.24884 4.77162 7.12692 4.64841 7.06596L2.99033 6.24169L4.79519 5.53935Z" fill="black"/>
</svg>
