<svg width="31" height="22" viewBox="0 0 31 22" fill="none" xmlns="http://www.w3.org/2000/svg">
<path fill-rule="evenodd" clip-rule="evenodd" d="M25.6323 17.1743H16.3813V18.4752L21.0049 18.9573C21.1721 18.9743 21.2959 19.1197 21.288 19.2861V20.9394C21.288 21.1123 21.1471 21.2524 20.9733 21.2524V21.2538L5.93354 21.2524C5.75844 21.2524 5.61758 21.111 5.61758 20.938C5.61758 20.9289 5.61758 20.9197 5.61889 20.9105V19.2691C5.61889 19.1066 5.74265 18.973 5.90194 18.9573L10.5256 18.4752V17.1744H0.816222C0.591099 17.1744 0.388368 17.084 0.239605 16.9359C0.0921563 16.7892 0 16.5862 0 16.3622V14.5465L0.00131667 0.810892C0.00131667 0.586878 0.0921553 0.385145 0.240922 0.237115C0.248821 0.229255 0.255403 0.222705 0.263302 0.217464C0.409433 0.0825333 0.604271 0 0.816227 0H26.0891C26.3142 0 26.517 0.0917021 26.6657 0.238425C26.8132 0.385147 26.9053 0.588211 26.9053 0.812202V3.06411C27.3358 3.33267 27.7347 3.64839 28.0915 4.00341C29.3013 5.20599 30.0491 6.86843 30.0491 8.70523C30.0491 10.5419 29.3013 12.2031 28.0915 13.4071C27.8756 13.6219 27.6452 13.821 27.4029 14.0057L27.6939 14.5795L28.027 14.4171C28.1836 14.3411 28.3719 14.4053 28.4483 14.5612L29.0249 15.7337V15.735L30.8153 19.378C31.0352 19.8247 31.0523 20.3199 30.9009 20.7562C30.7508 21.1924 30.4322 21.5723 29.9833 21.7911L29.9319 21.816C29.483 22.0348 28.9854 22.0518 28.547 21.9024C28.1086 21.7531 27.7268 21.4361 27.5069 20.9893L25.7165 17.3463L25.6323 17.1743ZM2.91977 12.1177H14.3985C14.5736 12.1177 14.7145 11.9775 14.7145 11.8033C14.7145 11.6291 14.5736 11.4889 14.3985 11.4889L2.91977 11.4876C2.74467 11.4876 2.60381 11.6291 2.60381 11.802C2.60249 11.9762 2.74467 12.1177 2.91977 12.1177ZM12.2368 10.2627C12.2368 10.4291 12.3079 10.5798 12.4225 10.6885C12.5317 10.7933 12.6831 10.8588 12.8477 10.8588H14.1313C14.288 10.8588 14.4315 10.7972 14.5368 10.6976L14.5355 10.6963L14.5368 10.695C14.646 10.5915 14.7132 10.4474 14.7132 10.2902L14.7145 4.94418C14.7145 4.78567 14.6474 4.64287 14.5381 4.53939C14.4328 4.43852 14.2893 4.37695 14.1326 4.37695H12.8201C12.6634 4.37695 12.5186 4.43852 12.4146 4.53808L12.4159 4.53939H12.4146C12.3053 4.64288 12.2382 4.78699 12.2382 4.94418L12.2368 10.2627ZM12.8701 5.00554V10.2285H14.0826V5.00554H12.8701ZM3.18599 5.71165C3.02932 5.71165 2.88582 5.77322 2.78051 5.8741C2.67124 5.97759 2.6041 6.12169 2.6041 6.27888V10.2889C2.6041 10.4343 2.66203 10.5679 2.75681 10.6701C2.76471 10.6792 2.77261 10.6871 2.78051 10.6963C2.88451 10.7958 3.02933 10.8574 3.18598 10.8574H4.49853C4.65519 10.8574 4.80001 10.7958 4.90401 10.6963L4.90269 10.695L4.90401 10.6936C5.01328 10.5901 5.08042 10.446 5.08042 10.2889V6.27889C5.08042 6.12038 5.01328 5.97758 4.90401 5.8741C4.79869 5.77323 4.65519 5.71166 4.49853 5.71166L3.18599 5.71165ZM4.44852 6.34177H3.236V10.23H4.44852V6.34177ZM5.81506 8.34873V10.2902C5.81506 10.4487 5.8822 10.5915 5.99147 10.695C6.09679 10.7959 6.24029 10.8574 6.39694 10.8574H7.68054C7.8451 10.8574 7.9965 10.7919 8.10577 10.6871C8.2203 10.5784 8.29139 10.4277 8.29139 10.2614L8.29271 3.94175C8.29271 3.78324 8.22557 3.64045 8.1163 3.53697C8.01098 3.4361 7.86748 3.37452 7.71082 3.37452L6.39696 3.37321C6.2403 3.37321 6.0968 3.43609 5.99148 3.53566C5.88221 3.63915 5.81507 3.78325 5.81507 3.94044L5.81506 8.34873ZM6.44698 4.0034V10.2285H7.6595V4.0034H6.44698ZM9.65792 8.34873V10.1893L10.8704 10.188V6.3417H9.65792V8.34873ZM9.026 10.2221H9.02732C9.02732 10.3884 9.09841 10.5391 9.21163 10.6478C9.32222 10.7526 9.4723 10.8181 9.63817 10.8181V10.8168L10.8928 10.8155C11.0587 10.8155 11.2101 10.75 11.3207 10.6452C11.4339 10.5364 11.505 10.3871 11.505 10.2207L11.5037 6.2802C11.5037 6.12168 11.4365 5.97758 11.3273 5.8741C11.3194 5.86624 11.3101 5.85838 11.3009 5.85183C11.1982 5.76537 11.0653 5.71166 10.9218 5.71166H9.60922C9.45256 5.71166 9.30906 5.77323 9.20375 5.8741C9.09448 5.97759 9.02733 6.1217 9.02733 6.27889L9.026 10.2221ZM9.63818 10.1893L9.63686 10.188V10.1893H9.63818ZM21.2076 11.1509H25.0571C25.2322 11.1509 25.3731 11.0107 25.3731 10.8365C25.3731 10.6622 25.2322 10.5221 25.0571 10.5221L21.2076 10.5207C21.0325 10.5207 20.8916 10.6609 20.8916 10.8351C20.8916 11.0094 21.0325 11.1509 21.2076 11.1509ZM21.2076 9.72948H23.5786C23.7537 9.72948 23.8946 9.588 23.8946 9.41508C23.8946 9.24085 23.7537 9.10067 23.5786 9.10067H21.2076C21.0325 9.10067 20.8916 9.24085 20.8916 9.41508C20.8916 9.588 21.0325 9.72948 21.2076 9.72948ZM21.2076 8.30941H25.9391C26.1142 8.30941 26.2551 8.16924 26.2551 7.99501C26.2551 7.82077 26.1142 7.6806 25.9391 7.6806L21.2076 7.67929C21.0325 7.67929 20.8916 7.81946 20.8916 7.9937C20.8916 8.16793 21.0325 8.30941 21.2076 8.30941ZM21.2076 6.88803H23.5786C23.7537 6.88803 23.8946 6.74655 23.8946 6.57363C23.8946 6.39939 23.7537 6.25922 23.5786 6.25922H21.2076C21.0325 6.25922 20.8916 6.39939 20.8916 6.57363C20.8916 6.74786 21.0325 6.88803 21.2076 6.88803ZM26.1433 16.7853L28.3195 15.7255L28.0193 15.1151L27.706 15.267C27.7021 15.2696 27.6981 15.2709 27.6929 15.2736C27.6863 15.2775 27.6797 15.2801 27.6731 15.2827L26.1723 16.0137L26.171 16.015L25.8432 16.1749L26.1433 16.7853ZM28.596 16.2888L26.4198 17.3487L28.072 20.71C28.2142 20.9995 28.4643 21.2052 28.7513 21.3034C29.0383 21.4017 29.3622 21.3912 29.6544 21.2497L29.7058 21.2248C29.9967 21.0834 30.2034 20.8344 30.3021 20.5489C30.4009 20.2633 30.3903 19.941 30.2482 19.6502L28.596 16.2888ZM23.3667 3.67204C21.9699 3.67204 20.706 4.23536 19.7912 5.14581C18.8749 6.0576 18.3088 7.31522 18.3088 8.70504C18.3088 10.095 18.8749 11.3526 19.7899 12.2629C20.7048 13.1734 21.9687 13.7367 23.3654 13.7367C24.7622 13.7367 26.026 13.1734 26.9409 12.2629C27.8558 11.3525 28.4219 10.0949 28.4219 8.70504C28.4219 7.31512 27.8558 6.0575 26.9409 5.14715C26.0259 4.2367 24.762 3.67204 23.3667 3.67204ZM26.4947 5.59124C25.6942 4.79475 24.5884 4.30216 23.3667 4.30216C22.145 4.30216 21.0391 4.79475 20.2387 5.59124C19.4382 6.38773 18.9432 7.48813 18.9432 8.70383C18.9432 9.91953 19.4382 11.0199 20.2387 11.8164C21.0391 12.6129 22.145 13.1055 23.3667 13.1055C24.5884 13.1055 25.6942 12.6129 26.4947 11.8164C27.2951 11.0199 27.7901 9.91953 27.7901 8.70383C27.7901 7.48944 27.2951 6.38904 26.4947 5.59124ZM25.6126 15.5905L25.3506 15.056C24.724 15.2499 24.0578 15.3534 23.3667 15.3534C22.4728 15.3534 21.6183 15.1778 20.839 14.8608L0.63462 14.8621V16.3634C0.63462 16.4132 0.655684 16.459 0.688598 16.4918C0.721511 16.5245 0.767591 16.5455 0.817615 16.5455H25.3231L25.1388 16.1708C25.0624 16.0149 25.1269 15.8276 25.2836 15.7516L25.6126 15.5905ZM26.1787 15.3154L27.1266 14.8543L26.8778 14.363C26.5816 14.5451 26.2709 14.7049 25.9457 14.8399L26.1787 15.3154ZM26.2722 2.71571V0.812245C26.2722 0.762463 26.2524 0.716612 26.2182 0.683864C26.1853 0.651113 26.1392 0.630152 26.0892 0.630152H0.816314C0.770236 0.630152 0.729426 0.645872 0.69783 0.673384L0.687297 0.683864C0.654385 0.716614 0.633319 0.762463 0.633319 0.812245V14.2322H19.6503C19.287 13.9899 18.9486 13.7135 18.6406 13.4069C17.4307 12.2043 16.6829 10.5419 16.6829 8.7051C16.6829 6.86844 17.4307 5.2059 18.6406 4.00328C19.8491 2.80069 21.5198 2.05528 23.3657 2.05528C24.4084 2.05528 25.3928 2.29256 26.2722 2.71571ZM27.644 4.44757C26.55 3.35894 25.0373 2.68429 23.3668 2.68429C21.6962 2.68429 20.1835 3.35764 19.0896 4.44757C17.9956 5.5362 17.3176 7.04142 17.3176 8.7037C17.3176 10.366 17.9943 11.8713 19.0896 12.9598C20.1836 14.0484 21.6963 14.7231 23.3668 14.7231C25.0374 14.7231 26.5501 14.0498 27.644 12.9598C28.738 11.8712 29.416 10.366 29.416 8.7037C29.416 7.0426 28.738 5.53738 27.644 4.44757ZM16.0547 19.0712C16.0389 19.0699 16.0244 19.0686 16.0086 19.0659L13.4533 18.8L10.8979 19.0659C10.8835 19.0686 10.8677 19.0699 10.8519 19.0712L6.24945 19.552V20.6236H20.6586V19.552L16.0547 19.0712ZM15.7479 18.4083V17.1743H11.1573V18.4083L13.4204 18.1725C13.4441 18.1699 13.4691 18.1699 13.4915 18.1738L15.7479 18.4083Z" fill="black"/>
</svg>
