<svg width="26" height="30" viewBox="0 0 26 30" fill="none" xmlns="http://www.w3.org/2000/svg">
<path fill-rule="evenodd" clip-rule="evenodd" d="M7.79523 21.729V15.9191C7.79523 13.5203 9.27004 11.3925 11.4355 10.5272L10.5335 8.94857C10.3637 8.65061 10.5804 8.28174 10.9152 8.28204V8.28019H16.1439C16.467 8.28019 16.7236 8.64058 16.5044 8.98555L15.6236 10.5272C17.789 11.3925 19.2639 13.5203 19.2639 15.9191V23.5893L22.2289 21.8765C23.1063 21.3698 24.2437 21.6936 24.7251 22.5651C25.2224 23.4656 24.9121 24.5852 24.0445 25.0864L18.1471 28.4932C16.691 29.3343 16.0248 29.4014 14.3943 29.5085C11.2785 29.7132 8.94277 29.2936 5.89313 29.4904C5.77797 29.7539 5.51831 29.932 5.22366 29.932H1.56149C1.1583 29.932 0.830078 29.6003 0.830078 29.1929V23.4117C0.830078 23.0042 1.1583 22.6726 1.56149 22.6726H5.22366C5.39223 22.6726 5.54778 22.7306 5.67158 22.8278H5.89739C6.51864 22.2976 7.15192 21.9409 7.79523 21.729ZM15.777 0.542435L13.1974 2.59007C13.0057 2.74234 12.9725 3.02285 13.1232 3.21657L15.1495 5.82331C15.3002 6.01704 15.5777 6.05062 15.7694 5.89835C15.9611 5.74608 15.9944 5.46557 15.8437 5.27184L14.3662 3.37119C17.0328 3.52061 19.4342 4.67442 21.2058 6.46467C24.6347 9.92971 25.2713 15.3248 22.7546 19.4944C22.6277 19.7045 22.6934 19.9787 22.9014 20.1069C23.1093 20.2351 23.3807 20.1687 23.5075 19.9586C24.5901 18.165 25.1678 16.104 25.1678 13.9734C25.1678 7.96621 20.6024 2.99778 14.7382 2.50176L16.3227 1.24398C16.5144 1.09171 16.5477 0.811195 16.397 0.617472C16.2463 0.423749 15.9687 0.390165 15.777 0.542435ZM3.61341 19.1807L1.51151 18.5115C1.2788 18.4382 1.03137 18.5695 0.958887 18.8046C0.886401 19.0398 1.0163 19.2898 1.24901 19.3631L4.37767 20.3592C4.61038 20.4325 4.85781 20.3012 4.93029 20.066L5.91604 16.9044C5.98852 16.6693 5.85862 16.4193 5.62591 16.346C5.39321 16.2728 5.14577 16.404 5.07329 16.6392L4.4041 18.7855C3.65732 17.3033 3.26684 15.6678 3.26684 13.9734C3.26684 9.5321 5.98802 5.60554 10.0272 4.04919C10.2551 3.96149 10.3696 3.70364 10.2828 3.47331C10.196 3.24299 9.94083 3.12734 9.7129 3.21504C7.5401 4.05342 5.68623 5.54533 4.38654 7.45307C2.02863 10.9141 1.72477 15.4253 3.61341 19.1807ZM3.35198 27.7067C3.35198 27.9848 3.54149 28.1814 3.79407 28.1814C4.03823 28.1814 4.23616 27.9813 4.23616 27.7346C4.23616 27.4565 4.04664 27.2599 3.79407 27.2599C3.54991 27.2599 3.35198 27.4599 3.35198 27.7067ZM17.4927 25.6406C17.4245 25.684 17.3439 25.7091 17.2574 25.7091H12.1546C11.9105 25.7091 11.7125 25.5091 11.7125 25.2624C11.7125 25.0156 11.9105 24.8156 12.1546 24.8156H17.0931C17.6793 24.21 17.2447 23.1929 16.417 23.1929H12.3845V23.1919C12.3202 23.1919 12.2547 23.1777 12.1929 23.1475C11.1637 22.643 10.1541 22.341 9.17714 22.3778C8.22964 22.4136 7.29513 22.7726 6.37873 23.5835C6.23324 23.7241 6.13407 23.7213 5.95507 23.7213V28.5924C8.97472 28.4123 11.2975 28.8183 14.339 28.6185C15.8352 28.5202 16.3923 28.4787 17.7085 27.7184L23.6057 24.3117C24.3336 23.8912 24.1976 22.7834 23.3851 22.5596C23.1516 22.4953 22.8935 22.5208 22.6671 22.6516L17.4927 25.6406ZM5.07088 23.566H1.71426V29.0385H5.07088V23.566ZM18.3797 24.1V15.9191C18.3797 13.7193 16.9148 11.7993 14.8529 11.2042L14.8533 11.2028C14.5791 11.1237 14.4491 10.8043 14.5922 10.5533L15.3804 9.17368H11.6787L12.4477 10.5197C12.6276 10.8057 12.4786 11.1257 12.2061 11.2042C10.1453 11.7979 8.67942 13.7196 8.67942 15.9191V21.5271C8.83444 21.5067 8.99001 21.4937 9.14606 21.4878C10.2519 21.4461 11.365 21.7636 12.4826 22.2994H16.417C17.4309 22.2994 18.2545 23.1341 18.2466 24.1769L18.3797 24.1ZM13.0875 12.5938V13.0788C12.4209 13.1933 11.7372 13.5786 11.3875 14.1587C11.2195 14.4373 11.0937 14.8507 11.1095 15.2063L11.109 15.2063C11.1467 15.9558 11.5853 16.5444 12.2562 16.8827L12.2559 16.8834C12.6515 17.0742 13.1063 17.1693 13.552 17.143C14.041 17.1167 14.6093 17.3007 14.8931 17.7128C14.9932 17.8581 15.0512 18.0302 15.0681 18.2281C15.0575 18.4313 15.0065 18.6107 14.9137 18.7655C14.8142 18.9316 14.6605 19.0791 14.4511 19.2071C13.6943 19.6757 12.5837 19.4562 11.8291 19.0599C11.6126 18.9462 11.3459 19.0314 11.2334 19.2502C11.1208 19.469 11.2051 19.7385 11.4216 19.8522C11.9465 20.1279 12.509 20.2946 13.0875 20.3438V20.8052C13.0875 21.0519 13.2854 21.2519 13.5295 21.2519C13.7737 21.2519 13.9716 21.0519 13.9716 20.8052V20.3176C14.6506 20.2003 15.3107 19.8203 15.6667 19.2262C15.8393 18.938 15.9326 18.6153 15.9488 18.2593C15.9516 18.2327 15.9521 18.2055 15.9501 18.1779C15.875 17.1597 15.1248 16.4976 14.1765 16.3029C13.5483 16.174 13.246 16.3715 12.6358 16.0772C12.4211 15.9601 12.2609 15.8256 12.1555 15.6734C11.8079 15.1712 12.0371 14.5115 12.5847 14.2026C12.891 14.0298 13.1116 13.952 13.4763 13.9303C14.0899 13.9261 14.6688 14.0494 15.1842 14.3332C15.3979 14.4508 15.6654 14.3711 15.7817 14.1552C15.8981 13.9393 15.8192 13.669 15.6056 13.5514C15.1031 13.2746 14.5622 13.1142 13.9716 13.0603V12.5938C13.9716 12.3471 13.7737 12.1471 13.5295 12.1471C13.2854 12.1471 13.0875 12.3471 13.0875 12.5938ZM16.5044 8.98555L16.1439 9.17368C16.2927 9.17368 16.4243 9.0994 16.5044 8.98555Z" fill="black"/>
</svg>
