<svg width="323" height="373" viewBox="0 0 323 373" fill="none" xmlns="http://www.w3.org/2000/svg">
<g clip-path="url(#clip0_633_10308)">
<path d="M314.661 164.908C312.137 161.933 244.553 89.0873 160.628 89.8244C76.704 90.5616 10.4093 164.583 7.93791 167.603C6.45681 169.614 6.48314 172.611 7.99495 174.097C10.0151 176.577 49.8569 219.192 105.986 239.182L79.9139 285.373C77.9464 288.887 77.482 292.888 78.5162 296.876C79.5504 300.863 82.0745 303.839 85.5889 305.806C88.0998 307.283 90.6019 307.76 93.0996 307.738C94.5983 307.725 95.5974 307.717 97.0916 307.204C101.079 306.17 104.055 303.646 106.022 300.131L136.03 246.911C144.535 248.335 153.536 249.255 162.528 249.176C246.452 248.439 312.747 174.417 315.218 171.398C316.704 169.886 316.677 166.889 314.661 164.908ZM143.224 212.876C141.721 212.39 140.714 211.399 139.21 210.913C137.703 209.927 136.7 209.436 135.192 208.45C116.091 195.129 110.372 169.7 122.186 149.613C128.088 139.07 137.514 131.493 149.477 128.391C160.94 125.292 172.942 126.686 183.485 132.588C194.029 138.491 201.605 147.916 204.708 159.879C207.806 171.342 206.413 183.345 200.51 193.888C189.196 213.971 164.289 222.183 143.224 212.876ZM96.9907 295.714C96.5 296.718 95.5096 297.726 94.0154 298.238C92.5211 298.751 91.5176 298.26 90.0146 297.774C89.0111 297.283 88.0032 296.293 87.4905 294.798C86.9778 293.304 87.4686 292.301 87.955 290.798L115.009 242.6C117.012 243.082 118.515 243.568 120.517 244.05L124.536 246.513L96.9907 295.714ZM161.945 239.689C152.953 239.768 143.952 238.848 135.447 237.424L143.317 223.367C149.329 225.312 155.836 226.754 161.831 226.701C180.813 226.534 199.209 216.381 209.046 198.809C216.43 186.254 218.297 171.25 214.177 157.298C210.058 143.346 200.961 131.436 188.406 124.052C175.852 116.668 160.848 114.802 146.895 118.921C132.943 123.04 121.033 132.138 113.649 144.692C100.368 168.289 106.113 196.716 126.248 214.024L116.906 231.092C115.903 230.602 114.4 230.115 112.905 230.628C112.406 230.632 111.911 231.136 111.416 231.64C65.3122 215.559 29.5502 182.4 18.9675 172.002C32.8276 157.392 91.787 101.42 161.224 100.81C230.662 100.2 290.595 155.128 304.71 169.492C290.341 183.107 231.882 239.075 161.945 239.689Z" fill="url(#paint0_linear_633_10308)"/>
<path d="M191.973 188.468C201.32 171.899 195.636 150.467 178.563 140.625C170.531 136.199 161.026 134.784 152.057 137.361C143.087 139.937 135.642 145.498 130.721 154.034C126.295 162.067 124.88 171.571 127.456 180.541C130.033 189.511 135.594 196.956 144.13 201.877C149.652 204.826 155.659 206.272 161.654 206.219C173.643 206.114 185.58 200.014 191.973 188.468ZM149.051 193.341C137.001 186.453 132.872 171.501 139.761 159.45C144.187 151.418 152.639 146.848 161.132 146.773C165.128 146.738 169.633 147.698 173.651 150.16C185.702 157.049 189.83 172 182.942 184.051C176.548 195.597 161.102 200.229 149.051 193.341Z" fill="url(#paint1_linear_633_10308)"/>
<path d="M160.501 74.8379C163.498 74.8116 165.479 72.7958 165.452 69.7985L165.013 19.8436C164.987 16.8463 162.971 14.8656 159.974 14.892C156.977 14.9183 154.996 16.934 155.022 19.9313L155.461 69.8863C155.488 72.8836 157.503 74.8642 160.501 74.8379Z" fill="url(#paint2_linear_633_10308)"/>
<path d="M208.075 87.4093C209.078 87.9001 209.578 87.8957 210.577 87.8869C212.075 87.8738 214.065 86.8571 215.051 85.3497L239.646 41.6695C241.123 39.1586 240.098 36.17 237.587 34.6933C235.076 33.2166 232.087 34.2421 230.611 36.753L206.015 80.4332C205.038 82.9397 205.564 85.9326 208.075 87.4093Z" fill="url(#paint3_linear_633_10308)"/>
<path d="M106.15 86.3062C107.162 87.7961 108.669 88.7821 110.667 88.7645C111.667 88.7557 112.166 88.7513 113.161 88.243C115.645 86.7224 116.119 83.7207 115.098 81.2318L89.7383 37.9903C88.2177 35.5058 85.216 35.0325 82.7271 36.0536C80.2425 37.5742 79.7693 40.5758 80.7903 43.0648L106.15 86.3062Z" fill="url(#paint4_linear_633_10308)"/>
</g>
<defs>
<linearGradient id="paint0_linear_633_10308" x1="160.85" y1="89.8225" x2="162.759" y2="307.127" gradientUnits="userSpaceOnUse">
<stop stop-color="#9747FF"/>
<stop offset="1" stop-color="white"/>
</linearGradient>
<linearGradient id="paint1_linear_633_10308" x1="161.001" y1="136.079" x2="161.617" y2="206.22" gradientUnits="userSpaceOnUse">
<stop stop-color="#9747FF"/>
<stop offset="1" stop-color="white"/>
</linearGradient>
<linearGradient id="paint2_linear_633_10308" x1="159.974" y1="14.892" x2="160.501" y2="74.8379" gradientUnits="userSpaceOnUse">
<stop stop-color="#9747FF"/>
<stop offset="1" stop-color="white"/>
</linearGradient>
<linearGradient id="paint3_linear_633_10308" x1="222.705" y1="34.1199" x2="223.176" y2="87.7763" gradientUnits="userSpaceOnUse">
<stop stop-color="#9747FF"/>
<stop offset="1" stop-color="white"/>
</linearGradient>
<linearGradient id="paint4_linear_633_10308" x1="97.7093" y1="35.4395" x2="98.1787" y2="88.8742" gradientUnits="userSpaceOnUse">
<stop stop-color="#9747FF"/>
<stop offset="1" stop-color="white"/>
</linearGradient>
<clipPath id="clip0_633_10308">
<rect width="319.724" height="369.681" fill="white" transform="translate(0 2.80824) rotate(-0.503255)"/>
</clipPath>
</defs>
</svg>
