<svg width="44" height="36" viewBox="0 0 44 36" fill="none" xmlns="http://www.w3.org/2000/svg">
<path d="M30.2167 6.23948L30.2235 6.23038L30.2315 6.22127L30.2389 6.21274L30.2469 6.20421L30.2548 6.19568L30.2628 6.18771L30.2713 6.17975L30.2827 6.16894L30.2884 6.16439L30.3345 6.13026L30.3396 6.12628L30.3601 6.11434L30.3703 6.10865L30.4016 6.09329L30.4232 6.08419L30.434 6.0802L30.4448 6.07622L30.4556 6.07281L30.467 6.0694L30.4778 6.06655L30.4892 6.06371L30.5119 6.05916C30.5512 6.05233 30.5967 6.04949 30.6365 6.0529L30.6485 6.05404L30.6729 6.05688L30.6997 6.062C34.3055 6.64391 37.4846 8.50796 39.7514 11.1701C41.9926 13.8015 43.3458 17.211 43.3458 20.9329C43.3458 25.0933 41.6587 28.8612 38.9329 31.587C36.2071 34.3129 32.4391 36 28.2787 36C24.1183 36 20.3504 34.3129 17.6246 31.587C14.8987 28.8612 13.2116 25.0933 13.2116 20.9329C13.2116 17.1172 14.6314 13.6314 16.9704 10.9767C19.3367 8.2901 22.649 6.45279 26.3851 5.98407L26.3976 5.98293L26.4096 5.98237L26.4209 5.9818L26.4329 5.98123L26.479 5.98237L26.4903 5.9835L26.5023 5.98464L26.525 5.98805L26.5364 5.99033L26.5478 5.99261L26.5592 5.99488L26.57 5.99773L26.5757 5.99886L26.5813 6.00114L26.5921 6.00455L26.5978 6.00626L26.6086 6.01024L26.6143 6.01195L26.62 6.01422L26.6308 6.01877L26.6411 6.02332L26.6519 6.02787L26.6621 6.03356L26.6724 6.03868L26.6826 6.04437L26.6923 6.05006L26.6974 6.0529L26.7025 6.05631L26.7122 6.06257L26.7213 6.0694L26.7309 6.07622L26.7355 6.07964L26.74 6.08305L26.7491 6.09044L26.7537 6.09386L26.7582 6.09784L26.7628 6.10182L26.7713 6.10978L26.7799 6.11775L26.7884 6.12628L26.7969 6.13481L26.8049 6.14391L26.8123 6.15302L26.8202 6.16212L26.8276 6.17179L26.8345 6.18146L26.8419 6.19169L26.8487 6.20193L26.8549 6.21217L26.8612 6.22241L26.8669 6.23265L26.8726 6.24289C27.0125 6.4818 27.1809 6.67634 27.3601 6.82082C27.6536 7.05688 27.9983 7.17804 28.351 7.19056C28.7144 7.20364 29.0961 7.10296 29.4522 6.89932C29.7287 6.74061 29.9909 6.5182 30.2167 6.23948ZM15.1377 30.4932C15.4033 30.4932 15.6195 30.7093 15.6195 30.975C15.6195 31.2406 15.4033 31.4568 15.1377 31.4568H7.0347C6.76906 31.4568 6.5529 31.2406 6.5529 30.975C6.5529 30.7093 6.76906 30.4932 7.0347 30.4932H15.1377ZM11.6849 25.1382C11.9505 25.1382 12.1667 25.3544 12.1667 25.62C12.1667 25.8857 11.9505 26.1018 11.6849 26.1018H3.58191C3.31627 26.1018 3.10011 25.8857 3.10011 25.62C3.10011 25.3544 3.31627 25.1382 3.58191 25.1382H11.6849ZM11.4033 19.8532C11.6689 19.8532 11.8851 20.0694 11.8851 20.335C11.8851 20.6007 11.6689 20.8168 11.4033 20.8168H0.481797C0.216155 20.8168 0 20.6007 0 20.335C0 20.0694 0.216155 19.8532 0.481797 19.8532H11.4033ZM12.3902 14.3578C12.6559 14.3578 12.872 14.5739 12.872 14.8396C12.872 15.1052 12.6559 15.3214 12.3902 15.3214H2.8777C2.61206 15.3214 2.3959 15.1052 2.3959 14.8396C2.3959 14.5739 2.61206 14.3578 2.8777 14.3578H12.3902ZM15.1377 9.00284C15.4033 9.00284 15.6195 9.219 15.6195 9.48464C15.6195 9.75029 15.4033 9.96644 15.1377 9.96644H7.0347C6.76906 9.96644 6.5529 9.75029 6.5529 9.48464C6.5529 9.219 6.76906 9.00284 7.0347 9.00284H15.1377ZM25.9039 0.963595C25.7036 1.39875 25.7048 1.84187 25.9078 2.2901H30.8982C31.1013 1.84187 31.1024 1.39875 30.9022 0.963595H25.9039ZM25.1906 2.99147C24.6428 2.06655 24.6439 1.15358 25.194 0.255972C25.2088 0.227531 25.2275 0.200796 25.248 0.175768L25.2543 0.168942C25.2725 0.147896 25.2924 0.127986 25.3134 0.110353C25.3965 0.0415245 25.5034 0 25.6195 0H31.1866C31.3026 0 31.4084 0.0420933 31.492 0.110353C31.5136 0.127986 31.5341 0.147896 31.5518 0.168942L31.558 0.175768C31.5785 0.200796 31.5967 0.227531 31.6121 0.255972C32.1621 1.15358 32.1633 2.06655 31.6155 2.99147L31.5921 3.03072L31.5859 3.04096C31.4983 3.16951 31.3527 3.2537 31.1866 3.2537H25.6195C25.4534 3.2537 25.3077 3.16894 25.2207 3.04096L25.2139 3.03129L25.1906 2.99147ZM28.0034 5.67122C28.0495 5.72298 28.095 5.76849 28.1394 5.80717C28.2526 5.90501 28.3578 5.95563 28.4516 5.95734C28.5501 5.95791 28.6667 5.90842 28.7969 5.81058L28.8202 5.79409C28.8714 5.7537 28.9243 5.70648 28.9778 5.65245V4.69909H28.0034V5.67122ZM29.7929 6.18544C29.6638 6.33106 29.5324 6.4562 29.4022 6.55745L29.376 6.5785C29.0711 6.80887 28.756 6.9215 28.4374 6.91638C28.1069 6.90956 27.7992 6.78157 27.5114 6.53299C27.3942 6.43117 27.2787 6.30774 27.1667 6.16325C27.0882 6.07736 27.0398 5.96303 27.0398 5.83788V4.22981V4.21729C27.0398 3.95165 27.256 3.7355 27.5216 3.7355H27.5341H29.4471H29.4596C29.7253 3.7355 29.9414 3.95165 29.9414 4.21729V4.22981V5.83788C29.9414 5.9744 29.8845 6.09784 29.7929 6.18544ZM26.2059 6.98009C22.8328 7.47668 19.8447 9.16951 17.6928 11.6126C15.504 14.0973 14.1752 17.3601 14.1752 20.9329C14.1752 24.8271 15.7543 28.3538 18.306 30.9056C20.8578 33.4573 24.3845 35.0364 28.2787 35.0364C32.1729 35.0364 35.6997 33.4573 38.2514 30.9056C40.8032 28.3538 42.3823 24.8271 42.3823 20.9329C42.3823 17.4437 41.1172 14.2514 39.0222 11.7912C36.9505 9.35836 34.0626 7.63652 30.7844 7.04949C30.5239 7.32992 30.2338 7.5603 29.93 7.73436C29.4204 8.02617 28.8623 8.16894 28.3168 8.1496C27.7605 8.12969 27.2196 7.9397 26.7582 7.5694C26.5569 7.40728 26.3709 7.21047 26.2059 6.98009ZM30.6678 19.4363C30.4738 19.6166 30.1695 19.6058 29.9892 19.4118C29.8089 19.2179 29.8197 18.9135 30.0137 18.7332C30.3322 18.4369 30.7019 18.0779 31.1189 17.661C31.5427 17.2372 31.9664 16.8026 32.3885 16.3584C32.5711 16.1667 32.876 16.1587 33.0677 16.3413C33.2594 16.5239 33.2673 16.8288 33.0848 17.0205C32.6041 17.5262 32.1746 17.9681 31.8003 18.3424C31.4198 18.723 31.0415 19.0887 30.6678 19.4363ZM27.8049 19.4534C27.8464 16.2947 27.8447 13.7025 27.7992 11.678C27.7941 11.4135 28.0045 11.194 28.2691 11.1889C28.5336 11.1837 28.7531 11.3942 28.7582 11.6587C28.8043 13.6894 28.806 16.2895 28.7639 19.4568C28.9983 19.5341 29.2076 19.665 29.3771 19.8345C29.6576 20.1149 29.8322 20.504 29.8322 20.9329C29.8322 21.3618 29.6576 21.7509 29.3771 22.0313C29.0967 22.3117 28.7076 22.4863 28.2787 22.4863C27.8493 22.4863 27.4602 22.3117 27.1797 22.0313C26.8993 21.7509 26.7247 21.3618 26.7247 20.9329C26.7247 20.504 26.8993 20.1149 27.1797 19.8345C27.3521 19.6621 27.566 19.5296 27.8049 19.4534ZM27.8612 21.3498C27.9676 21.4562 28.116 21.5228 28.2787 21.5228C28.4414 21.5228 28.5893 21.4562 28.6957 21.3498C28.802 21.2435 28.8686 21.0956 28.8686 20.9329C28.8686 20.7702 28.802 20.6223 28.6957 20.5159C28.5893 20.4096 28.4414 20.343 28.2787 20.343C28.116 20.343 27.9676 20.4096 27.8612 20.5159C27.7548 20.6223 27.6883 20.7702 27.6883 20.9329C27.6883 21.0956 27.7548 21.2435 27.8612 21.3498ZM28.2787 32.9699C24.9545 32.9699 21.9443 31.6217 19.7668 29.4443C17.5893 27.2668 16.2412 24.2571 16.2412 20.9329C16.2412 17.6086 17.5893 14.599 19.7668 12.4215C21.9443 10.244 24.9545 8.89591 28.2787 8.89591C31.603 8.89591 34.6126 10.244 36.7901 12.4215C38.9676 14.599 40.3157 17.6086 40.3157 20.9329C40.3157 24.2571 38.9676 27.2668 36.7901 29.4443C34.6126 31.6217 31.603 32.9699 28.2787 32.9699ZM20.4482 28.7628C22.4516 30.7662 25.2207 32.0063 28.2787 32.0063C31.3362 32.0063 34.1052 30.7662 36.1086 28.7628C38.1121 26.7594 39.3521 23.9903 39.3521 20.9329C39.3521 17.8754 38.1121 15.1064 36.1086 13.103C34.1052 11.0995 31.3362 9.8595 28.2787 9.8595C25.2207 9.8595 22.4516 11.0995 20.4482 13.103C18.4448 15.1064 17.2048 17.8754 17.2048 20.9329C17.2048 23.9903 18.4448 26.7594 20.4482 28.7628Z" fill="black"/>
</svg>
