<svg width="86" height="86" viewBox="0 0 86 86" fill="none" xmlns="http://www.w3.org/2000/svg">
<path d="M61.9401 63.504C59.9831 65.8165 58.7995 68.8009 58.7995 72.0587C58.7995 79.3712 64.7487 85.3167 72.0575 85.3167C79.3663 85.3167 85.3155 79.3675 85.3155 72.0587C85.3155 64.7499 79.3663 58.8007 72.0575 58.8007C68.7997 58.8007 65.8114 59.9843 63.5028 61.9413L56.7684 55.207C59.7684 51.8437 61.409 47.5508 61.409 42.992C61.409 38.4334 59.7684 34.1521 56.7723 30.7809L63.4989 24.0543C65.8114 26.0113 68.7958 27.195 72.0536 27.195C79.3661 27.195 85.3116 21.2457 85.3116 13.9369C85.3116 6.62815 79.3624 0.678948 72.0536 0.678948C64.745 0.678948 58.7956 6.62815 58.7956 13.9369C58.7956 17.1947 59.9792 20.183 61.9362 22.4916L55.2096 29.2183C51.8385 26.2222 47.5455 24.5815 42.9986 24.5815C38.4517 24.5815 34.147 26.226 30.7836 29.2221L24.0492 22.4877C26.0062 20.1752 27.1898 17.1908 27.1898 13.933C27.1898 6.62055 21.2406 0.675049 13.9318 0.675049C6.62303 0.675049 0.673828 6.62425 0.673828 13.933C0.673828 21.2418 6.62303 27.1911 13.9318 27.1911C17.1896 27.1911 20.1779 26.0074 22.4865 24.0504L29.2209 30.7849C26.2248 34.156 24.5842 38.4451 24.5842 42.9879C24.5842 47.5307 26.2248 51.8276 29.2209 55.1988L22.4865 61.9332C20.174 59.9762 17.1896 58.7927 13.9318 58.7927C6.61933 58.7927 0.673828 64.7418 0.673828 72.0506C0.673828 79.3592 6.62303 85.3086 13.9318 85.3086C21.2406 85.3086 27.1898 79.3594 27.1898 72.0506C27.1898 68.7928 26.0062 65.8046 24.0492 63.496L30.7836 56.7616C34.1547 59.7577 38.4477 61.3983 42.9946 61.3983C47.5415 61.3983 51.8305 59.7577 55.1976 56.7616L61.9401 63.504ZM83.1081 72.0626C83.1081 78.1564 78.1511 83.1136 72.0571 83.1136C65.9631 83.1136 61.0061 78.1566 61.0061 72.0626C61.0061 65.9686 65.9631 61.0116 72.0571 61.0116C78.1511 61.0116 83.1081 65.9686 83.1081 72.0626ZM72.0611 2.89065C78.1549 2.89065 83.1121 7.84765 83.1121 13.9416C83.1121 20.0356 78.1551 24.9926 72.0611 24.9926C65.9671 24.9926 61.0101 20.0356 61.0101 13.9416C61.0101 7.84765 65.9671 2.89065 72.0611 2.89065ZM2.88913 13.9376C2.88913 7.84385 7.84613 2.88665 13.9401 2.88665C20.0341 2.88665 24.9911 7.84365 24.9911 13.9376C24.9911 20.0316 20.0341 24.9886 13.9401 24.9886C7.84613 24.9886 2.88913 20.0316 2.88913 13.9376ZM13.9361 83.1096C7.84233 83.1096 2.88513 78.1526 2.88513 72.0586C2.88513 65.9646 7.84213 61.0076 13.9361 61.0076C20.0301 61.0076 24.9871 65.9646 24.9871 72.0586C24.9871 78.1526 20.0301 83.1096 13.9361 83.1096ZM31.5451 54.4537C28.4865 51.3951 26.799 47.3248 26.799 42.9967C26.799 38.6686 28.4826 34.6099 31.5451 31.5476C34.5959 28.4851 38.6623 26.7976 42.9981 26.7976C47.3339 26.7976 51.3926 28.4812 54.4511 31.5398C57.5097 34.5984 59.1933 38.6688 59.1933 42.9929C59.1933 47.3171 57.5058 51.3952 54.4433 54.4459C51.3847 57.5045 47.3183 59.1881 42.9983 59.1881C38.6783 59.1881 34.6038 57.5044 31.5413 54.4419L31.5451 54.4537Z" fill="url(#paint0_linear_2082_8390)"/>
<path d="M47.503 34.703C46.4522 33.2303 44.7296 32.1874 42.8741 32.3358C40.6866 32.5077 38.9249 33.992 37.835 35.8124C37.1007 37.0351 39.0108 38.1483 39.7452 36.9296C40.4406 35.7655 41.5929 34.6093 43.0225 34.5351C44.2881 34.4726 45.4795 35.332 46.0147 36.5351C46.5733 37.7968 46.2062 39.3124 45.4366 40.4374C44.4991 41.8007 42.8272 42.371 41.6944 43.5351C40.3858 44.8828 39.8506 47.1953 41.2921 48.6484C42.2921 49.6601 43.8585 48.0977 42.8546 47.0859C42.6905 46.9219 42.6358 46.7265 42.6319 46.5664C42.6241 46.2578 42.6905 45.9844 42.8272 45.7109C43.171 45.0117 43.8741 44.5429 44.5342 44.0976C45.2999 43.582 46.0928 43.0664 46.71 42.3671C47.3546 41.6406 47.8428 40.8085 48.1592 39.8905C48.7452 38.1835 48.5616 36.1874 47.503 34.703Z" fill="url(#paint1_linear_2082_8390)"/>
<path d="M43.148 51.484C41.7261 51.484 41.7222 53.6949 43.148 53.6949C44.5738 53.6949 44.5738 51.484 43.148 51.484Z" fill="url(#paint2_linear_2082_8390)"/>
<path d="M18.5312 9.34799C18.0976 8.9183 17.3984 8.9183 16.9687 9.34799L13.9414 12.3753L10.9141 9.34799C10.4805 8.9183 9.78126 8.9183 9.35156 9.34799C8.92187 9.77768 8.92187 10.4808 9.35156 10.9105L12.3789 13.9378L9.35156 16.9651C8.92187 17.3948 8.92187 18.0979 9.35156 18.5276C9.5664 18.7424 9.85156 18.8518 10.1328 18.8518C10.4141 18.8518 10.6992 18.7424 10.9141 18.5276L13.9414 15.5003L16.9687 18.5276C17.1835 18.7424 17.4687 18.8518 17.7499 18.8518C18.0312 18.8518 18.3163 18.7424 18.5312 18.5276C18.9609 18.0979 18.9609 17.3948 18.5312 16.9651L15.5039 13.9378L18.5312 10.9105C18.9609 10.4808 18.9609 9.77769 18.5312 9.34799Z" fill="url(#paint3_linear_2082_8390)"/>
<path d="M67.4688 76.652C67.6836 76.8669 67.9688 76.9762 68.25 76.9762C68.5313 76.9762 68.8164 76.8669 69.0313 76.652L72.0585 73.6247L75.0858 76.652C75.3007 76.8669 75.5858 76.9762 75.8671 76.9762C76.1483 76.9762 76.4335 76.8669 76.6483 76.652C77.078 76.2223 77.078 75.5192 76.6483 75.0895L73.621 72.0622L76.6483 69.0349C77.078 68.6052 77.078 67.9021 76.6483 67.4724C76.2148 67.0427 75.5155 67.0427 75.0858 67.4724L72.0585 70.4997L69.0313 67.4724C68.5977 67.0427 67.8985 67.0427 67.4688 67.4724C67.0391 67.9021 67.0391 68.6052 67.4688 69.0349L70.496 72.0622L67.4688 75.0895C67.0391 75.5192 67.0391 76.2223 67.4688 76.652Z" fill="url(#paint4_linear_2082_8390)"/>
<path d="M19.8242 66.941L11.9297 74.8355L8.05469 70.9605C7.625 70.5308 6.92189 70.5308 6.49219 70.9605C6.0625 71.3902 6.0625 72.0933 6.49219 72.523L11.1484 77.1792C11.3632 77.3941 11.6484 77.5034 11.9296 77.5034C12.2109 77.5034 12.496 77.3941 12.7109 77.1792L21.3867 68.5034C21.8164 68.0737 21.8164 67.3706 21.3867 66.9409C20.9531 66.5112 20.2539 66.5113 19.8242 66.941Z" fill="url(#paint5_linear_2082_8390)"/>
<path d="M69.2695 19.059C69.4843 19.2738 69.7695 19.3832 70.0507 19.3832C70.332 19.3832 70.6171 19.2738 70.832 19.059L79.5078 10.3832C79.9375 9.95349 79.9375 9.25038 79.5078 8.82068C79.0742 8.39099 78.375 8.39099 77.9453 8.82068L70.0508 16.7152L66.1758 12.8402C65.7461 12.4105 65.043 12.4105 64.6133 12.8402C64.1836 13.2699 64.1836 13.973 64.6133 14.4027L69.2695 19.059Z" fill="url(#paint6_linear_2082_8390)"/>
<defs>
<linearGradient id="paint0_linear_2082_8390" x1="-30.5" y1="65" x2="169.5" y2="28.5" gradientUnits="userSpaceOnUse">
<stop stop-color="#E8505E"/>
<stop offset="1" stop-color="white"/>
</linearGradient>
<linearGradient id="paint1_linear_2082_8390" x1="43.0791" y1="32.3218" x2="43.0791" y2="48.976" gradientUnits="userSpaceOnUse">
<stop stop-color="#E8505E"/>
<stop offset="1" stop-color="white"/>
</linearGradient>
<linearGradient id="paint2_linear_2082_8390" x1="43.1487" y1="51.484" x2="43.1487" y2="53.6949" gradientUnits="userSpaceOnUse">
<stop stop-color="#E8505E"/>
<stop offset="1" stop-color="white"/>
</linearGradient>
<linearGradient id="paint3_linear_2082_8390" x1="13.9414" y1="9.02573" x2="13.9414" y2="18.8518" gradientUnits="userSpaceOnUse">
<stop stop-color="#E8505E"/>
<stop offset="1" stop-color="white"/>
</linearGradient>
<linearGradient id="paint4_linear_2082_8390" x1="72.0585" y1="67.1501" x2="72.0585" y2="76.9762" gradientUnits="userSpaceOnUse">
<stop stop-color="#E8505E"/>
<stop offset="1" stop-color="white"/>
</linearGradient>
<linearGradient id="paint5_linear_2082_8390" x1="13.9394" y1="66.6187" x2="13.9394" y2="77.5034" gradientUnits="userSpaceOnUse">
<stop stop-color="#E8505E"/>
<stop offset="1" stop-color="white"/>
</linearGradient>
<linearGradient id="paint6_linear_2082_8390" x1="72.0605" y1="8.49841" x2="72.0605" y2="19.3832" gradientUnits="userSpaceOnUse">
<stop stop-color="#E8505E"/>
<stop offset="1" stop-color="white"/>
</linearGradient>
</defs>
</svg>
