<svg width="37" height="28" viewBox="0 0 37 28" fill="none" xmlns="http://www.w3.org/2000/svg">
<path d="M22.5435 18.3864C23.6627 18.8919 24.8349 19.1302 25.991 19.1302C29.1817 19.1302 32.2357 17.3067 33.6362 14.229C34.5611 12.1975 34.635 9.92923 33.8466 7.84324C33.0581 5.75574 31.5022 4.10018 29.4629 3.17865C28.9972 2.9675 28.5171 2.80754 28.0305 2.68598C28.0225 2.68438 28.0145 2.67958 28.0064 2.67958C27.788 2.6252 27.5681 2.5852 27.3481 2.54842C27.332 2.54362 27.3159 2.54362 27.2999 2.54042C25.8852 2.31807 24.4304 2.45404 23.0527 2.97072C20.9571 3.75614 19.2952 5.30613 18.3701 7.33761C16.4625 11.5301 18.3348 16.4874 22.5433 18.3875L22.5435 18.3864ZM32.8878 13.8914C31.8296 16.2172 29.7212 17.7448 27.3736 18.18C27.5583 17.8201 27.7076 17.4538 27.8538 17.0939C27.9148 16.9436 27.9742 16.7932 28.04 16.638C28.1059 16.4749 28.2199 16.3037 28.3419 16.123C28.6036 15.7343 28.9296 15.2496 28.8028 14.6546C28.7931 14.6146 28.7803 14.5762 28.7594 14.5394C28.4302 13.9523 27.8008 14.1251 27.425 14.2291C26.9417 14.3618 26.9304 14.3282 26.8855 14.2067C26.765 13.8564 27.1296 13.5028 27.6578 13.0357C28.3178 12.5191 29.3953 12.7958 29.9637 13.3797C30.3395 13.7316 30.9882 14.0755 31.5293 13.9987C31.9372 13.9427 32.1556 13.6628 32.3146 13.458C32.3515 13.4116 32.3884 13.3637 32.4463 13.2981C32.488 13.2421 32.5346 13.1877 32.5811 13.1333C32.7449 12.9382 32.9296 12.7174 33.0291 12.4103C33.1415 12.0296 33.0998 11.6377 32.9135 11.361C32.7674 11.1434 32.5426 11.0059 32.2391 10.9755H32.0641C31.6819 10.9771 31.3511 10.9755 31.0781 10.7995C30.7185 10.582 30.2528 10.4764 29.8417 10.5116H29.7036C29.5768 10.5132 29.3263 10.5148 29.2556 10.4892C29.2958 10.4668 29.3456 10.4428 29.3825 10.4236C29.5158 10.358 29.6667 10.2844 29.7903 10.1645C29.8016 10.1533 29.8128 10.1421 29.8225 10.1293C29.9509 9.97091 30.0103 9.79176 30.0489 9.6158C30.081 9.66219 30.1179 9.70538 30.1613 9.74377C30.431 10.0109 30.908 10.0477 31.6161 9.85894C32.0272 9.75337 32.7129 9.57581 32.9971 8.97434C33.1978 8.51206 33.0244 8.25932 32.9039 8.15055C32.7048 7.9714 32.3965 7.9506 32.0593 8.07697C32.2183 7.949 32.4656 7.83543 32.7755 7.70267L32.8092 7.68827C32.8317 7.67867 32.8477 7.66108 32.867 7.64828C32.9409 7.80824 33.0147 7.9682 33.079 8.13456C33.7903 10.0173 33.7229 12.0632 32.8895 13.8929L32.8878 13.8914ZM32.4976 6.93809C32.4815 6.94289 32.4638 6.94129 32.4478 6.94929C31.8906 7.19082 31.1953 7.49154 31.0524 8.24174C31.0235 8.52647 31.1263 8.77123 31.335 8.91197C31.4121 8.96316 31.4988 8.99835 31.5951 9.01435C31.5341 9.03194 31.4715 9.04794 31.4089 9.06393C30.9657 9.1823 30.7602 9.15991 30.7329 9.15031C30.704 9.11672 30.6654 8.98555 30.6429 8.90717C30.6124 8.8048 30.5819 8.70562 30.5482 8.63204C30.4727 8.45928 30.3443 8.33291 30.1885 8.28012C30.044 8.23054 29.8882 8.24493 29.7517 8.32011C29.7325 8.32971 29.7164 8.34091 29.6988 8.3537C29.3824 8.59524 29.3262 8.95837 29.2813 9.24948C29.262 9.37745 29.2395 9.51982 29.201 9.5902C29.1592 9.61899 29.0822 9.65738 29.0227 9.68618C28.8172 9.78695 28.5346 9.92612 28.435 10.2332C28.3708 10.4268 28.3981 10.6363 28.533 10.8891C28.822 11.3338 29.3551 11.3306 29.7132 11.3274L29.8722 11.3258C30.1436 11.3034 30.4454 11.3706 30.6446 11.4889C31.1118 11.7912 31.6257 11.7912 32.0688 11.7897L32.1941 11.7881C32.2166 11.7913 32.223 11.7945 32.2326 11.8104C32.2744 11.8712 32.2904 12.0168 32.2471 12.164C32.1989 12.3111 32.0801 12.4535 31.9516 12.6054C31.8986 12.6694 31.8457 12.7334 31.8135 12.7766C31.7621 12.8342 31.7156 12.895 31.669 12.9526C31.547 13.1093 31.4892 13.1749 31.4185 13.1845C31.2033 13.2181 30.7955 13.0309 30.5434 12.7942C29.7308 11.9592 28.2054 11.5657 27.152 12.3895C27.1456 12.3943 27.1183 12.4183 27.1119 12.4247C26.5595 12.911 25.8016 13.5764 26.1131 14.4818C26.4374 15.3488 27.2532 15.1248 27.645 15.0176C27.7558 14.9872 27.9292 14.9392 28.0095 14.9361C28.0031 15.1408 27.8666 15.3583 27.6594 15.6655C27.5197 15.8734 27.3736 16.0894 27.2789 16.3261C27.2146 16.4797 27.152 16.6332 27.0894 16.7868C26.8871 17.2907 26.6944 17.7657 26.4182 18.2024C26.4005 18.2312 26.3941 18.2632 26.3829 18.2936C25.2155 18.3544 24.0176 18.1512 22.8823 17.6377C22.2512 17.353 21.6764 16.9851 21.1577 16.5548C21.4243 16.3997 21.7615 16.2493 22.1148 16.0925C23.3528 15.5439 25.0469 14.7937 24.4094 13.0773C24.0497 12.1895 23.2147 11.009 22.065 10.6171C21.5222 10.3916 21.1096 10.014 20.8719 9.52456C20.7595 9.29741 20.7499 9.15185 20.7483 9.13585C20.7483 9.13585 20.7595 9.12945 20.7547 9.12785C21.0277 9.08306 21.3022 9.05907 21.5929 9.03348C22.2609 8.97589 22.9498 8.91511 23.6451 8.5888C23.8025 8.50882 23.9759 8.44004 24.1509 8.36806C24.7868 8.11052 25.5769 7.78899 25.8145 6.92204C25.8851 6.58932 25.8289 6.279 25.6491 6.02147C25.4163 5.68555 24.9859 5.45202 24.3918 5.33044C24.5781 5.23766 24.8221 5.17688 25.0196 5.18488C25.1256 5.18648 25.2589 5.23126 25.3889 5.27445C25.633 5.35603 26.1404 5.52719 26.3733 5.06331C26.5033 4.81697 26.5146 4.56102 26.5258 4.33551C26.529 4.26512 26.5322 4.19474 26.5419 4.09557C26.5483 3.9404 26.8261 3.63648 27.2837 3.36617C27.3223 3.37257 27.3624 3.37736 27.401 3.38536C27.3159 3.69249 27.2709 4.06521 27.4315 4.31791C27.4764 4.3883 27.531 4.45388 27.5856 4.51786C27.6226 4.56105 27.6691 4.61384 27.6788 4.63943C27.6916 4.67463 27.6579 4.7898 27.5407 4.92736C27.5021 4.97215 27.462 5.01534 27.4218 5.05853C27.2725 5.22009 27.1039 5.40244 27.0092 5.65676C26.9128 5.9159 26.9401 6.22302 27.0782 6.45655C27.1954 6.65491 27.3801 6.78288 27.5969 6.81806C27.637 6.82446 27.6755 6.82766 27.7141 6.82766C28.0224 6.82766 28.252 6.63251 28.4078 6.49974C28.4415 6.47095 28.4752 6.44216 28.5073 6.41657C28.6904 6.279 28.9586 6.22301 29.2428 6.16383C29.6057 6.08865 30.0184 6.00387 30.3556 5.72075C30.5948 5.5208 30.7458 5.26326 30.8598 5.01691C31.5085 5.55757 32.0577 6.2038 32.4913 6.93324L32.4976 6.93809ZM30.1901 4.5227C30.0953 4.74665 29.991 4.96738 29.8336 5.09854C29.6538 5.2489 29.376 5.30649 29.0821 5.36727C28.7369 5.43926 28.3467 5.51923 28.0159 5.77038C27.9709 5.80557 27.926 5.84236 27.881 5.88075C27.8521 5.90474 27.8136 5.93833 27.7814 5.96553C27.7814 5.95753 27.7846 5.95113 27.7863 5.94473C27.8248 5.84236 27.9243 5.73359 28.0319 5.61841C28.0801 5.56562 28.1283 5.51284 28.1732 5.46005C28.4815 5.09534 28.5827 4.69224 28.4494 4.34994C28.3884 4.19318 28.2921 4.08121 28.2134 3.99003C28.1909 3.96443 28.1684 3.93884 28.1492 3.91325C28.1443 3.84446 28.1668 3.71489 28.2021 3.58693C28.5137 3.6829 28.8236 3.79167 29.1255 3.92764C29.5012 4.0972 29.8545 4.30195 30.1917 4.52428L30.1901 4.5227ZM23.3432 3.73569C24.2087 3.41097 25.1096 3.24941 26.0088 3.24941C26.0441 3.24941 26.0778 3.25421 26.1132 3.25421C25.9028 3.47975 25.739 3.74368 25.7278 4.03479C25.7182 4.12117 25.7133 4.21235 25.7085 4.30353C25.7053 4.37871 25.7021 4.45069 25.6941 4.51627C25.6812 4.51148 25.6684 4.50668 25.6555 4.50348C25.4837 4.44589 25.2701 4.37391 25.0405 4.37071C24.4127 4.35311 23.6082 4.66344 23.3191 5.26968C23.3063 5.29528 23.2967 5.32247 23.2902 5.35126C23.2581 5.48883 23.2806 5.62959 23.3545 5.74796C23.4829 5.95431 23.7222 6.03429 23.9952 6.09668C24.4945 6.17026 24.8526 6.31582 24.9763 6.49338C25.01 6.54137 25.0437 6.61495 25.018 6.73332C24.9008 7.15723 24.4962 7.34916 23.8426 7.61468C23.6467 7.69466 23.454 7.77304 23.287 7.85782C22.7346 8.11536 22.1453 8.16814 21.5223 8.22253C21.23 8.24812 20.9281 8.27532 20.5909 8.3313C20.2505 8.41608 20.0916 8.62083 20.0177 8.77757C19.8443 9.14708 19.9856 9.58699 20.1349 9.88768C20.4625 10.5595 21.0213 11.073 21.776 11.3865C22.6286 11.6793 23.3304 12.6022 23.6451 13.378C23.9855 14.2962 23.1698 14.7345 21.7824 15.3488C21.3184 15.5551 20.8816 15.7519 20.538 15.9854C20.1928 15.6255 19.8828 15.232 19.6147 14.8081C19.6645 14.7057 19.7175 14.6033 19.7737 14.501C19.9872 14.1075 20.2297 13.6628 20.2168 13.1381C20.2136 12.9398 20.1622 12.7542 20.1125 12.5767C20.0643 12.4039 20.0193 12.2407 20.0386 12.1192C20.0514 12.028 20.0787 11.94 20.1044 11.852C20.1783 11.5977 20.2698 11.281 20.1558 10.9515C20.0547 10.55 19.8042 10.2684 19.5842 10.0205C19.43 9.84775 19.2855 9.68459 19.2277 9.52624C19.1843 9.39508 19.1474 9.26071 19.1105 9.12634C19.043 8.87681 18.9724 8.61926 18.86 8.36332C18.8584 8.35852 18.8536 8.35532 18.8519 8.35053C18.9306 8.12338 19.0189 7.89623 19.1201 7.67551C19.9535 5.84395 21.4533 4.44432 23.3431 3.73728L23.3432 3.73569ZM18.4987 9.89741C18.6191 10.1629 18.8022 10.3757 18.9692 10.5612C19.1506 10.766 19.3064 10.942 19.369 11.1819C19.4076 11.2955 19.3754 11.4186 19.316 11.6234C19.2807 11.7465 19.2454 11.8713 19.2277 11.9913C19.1795 12.284 19.255 12.5543 19.3208 12.7943C19.3594 12.9286 19.3947 13.0566 19.3963 13.1542C19.4027 13.4069 19.2871 13.6644 19.1474 13.9316C19.072 13.7668 18.9949 13.6036 18.9306 13.4325C18.4971 12.2855 18.3574 11.0779 18.5003 9.89575L18.4987 9.89741ZM36.2843 6.93015C35.2518 4.19482 33.2108 2.02435 30.5387 0.816333C29.7021 0.438825 28.8221 0.165313 27.9245 0.00691896C27.6965 -0.0346697 27.4877 0.11569 27.4476 0.338036C27.4074 0.560381 27.5567 0.773128 27.78 0.813136C28.4752 0.936305 29.1593 1.13786 29.8193 1.40498L29.3327 2.47513C29.2396 2.68148 29.3311 2.92303 29.5382 3.01738C29.5928 3.04298 29.6506 3.05417 29.7084 3.05417C29.8658 3.05417 30.0135 2.9646 30.0842 2.81423L30.5675 1.75048C32.8573 2.89581 34.6108 4.81693 35.5181 7.21933C36.4751 9.74991 36.3836 12.4998 35.2628 14.9629C34.142 17.4263 32.1251 19.3073 29.585 20.2594C27.1732 21.1632 24.5621 21.1264 22.1906 20.165L22.6451 19.1653C22.7382 18.9589 22.6467 18.7174 22.4395 18.623C22.2324 18.5302 21.9899 18.6214 21.8952 18.8278L21.4407 19.8259C20.8418 19.5268 20.2734 19.1733 19.7483 18.7654C19.5684 18.6278 19.3115 18.6582 19.1718 18.8374C19.0321 19.0165 19.0642 19.2725 19.2441 19.4116C19.9281 19.9427 20.6764 20.3938 21.4729 20.7521C22.9213 21.4047 24.4596 21.7342 26.0029 21.7342H26.0061C26.149 22.3804 26.0302 23.1339 25.9002 23.9289C25.7974 24.5623 25.6946 25.2118 25.7267 25.8356H23.3807C22.7818 25.8356 22.2952 26.3219 22.2952 26.9185V27.5903C22.2952 27.8175 22.4783 27.9998 22.7063 27.9998H31.7417C31.9698 27.9998 32.1528 27.8175 32.1528 27.5903V26.9185C32.1528 26.3219 31.6647 25.8356 31.0673 25.8356H28.7213C28.7518 25.2181 28.6507 24.5799 28.5495 23.9593C28.4002 23.0459 28.2605 22.1837 28.5254 21.4415C28.527 21.4367 28.5254 21.4319 28.527 21.4255C28.9815 21.3183 29.4343 21.192 29.8775 21.0256C32.6234 19.9955 34.8022 17.9639 36.0148 15.302C37.2256 12.6403 37.3235 9.66817 36.291 6.93149L36.2843 6.93015ZM31.3259 26.9157V27.178H23.1126V26.9157C23.1126 26.7702 23.2314 26.6518 23.376 26.6518H31.061C31.2071 26.6518 31.3243 26.7702 31.3243 26.9157H31.3259ZM27.7322 24.0892C27.8333 24.7083 27.9217 25.2953 27.8863 25.8344H26.5519C26.5166 25.2889 26.6065 24.6891 26.7093 24.0573C26.8378 23.267 26.9694 22.4544 26.8362 21.6947C27.1011 21.6739 27.3645 21.6403 27.6262 21.6003C27.4608 22.4129 27.5957 23.2639 27.7306 24.0892L27.7322 24.0892ZM16.9111 14.837C16.8436 14.6931 16.6991 14.6019 16.5385 14.6019H11.9559C12.2176 14.4611 12.4681 14.3076 12.7009 14.1332C14.1606 13.0391 14.9972 10.9532 14.782 8.94077C14.6616 7.81625 14.0225 6.73173 13.0542 6.02789C12.2144 5.42322 11.1257 5.25689 10.143 5.57679C9.94868 5.64077 9.73511 5.67596 9.51835 5.69836C9.66126 5.31605 9.85556 4.95295 10.1045 4.62342C10.2409 4.44267 10.204 4.18514 10.0226 4.05078C9.84111 3.91482 9.5842 3.9516 9.44772 4.13236C9.09445 4.60103 8.8279 5.12732 8.65447 5.68239C8.48586 5.6552 8.32368 5.61681 8.17113 5.56402C7.24621 5.2441 6.17515 5.35608 5.30322 5.86475C4.42969 6.37663 3.74562 7.10602 3.32653 7.97621C2.44337 9.80937 2.79661 12.124 4.18884 13.6035C4.5694 14.0082 4.96602 14.3378 5.3803 14.6017H0.763929C0.604958 14.6017 0.460441 14.6929 0.391392 14.8368C-0.107981 15.8894 -0.12726 17.0875 0.320737 18.156C-0.103163 19.1653 -0.103163 20.2899 0.320737 21.3008C-0.103163 22.3102 -0.103163 23.4347 0.320737 24.4457C-0.127252 25.5142 -0.106411 26.7123 0.391392 27.7649C0.458833 27.9088 0.603351 28 0.763929 28H16.5389C16.6979 28 16.8424 27.9088 16.9115 27.7649C17.4108 26.7123 17.4301 25.5142 16.9821 24.4457C17.406 23.4363 17.406 22.3118 16.9821 21.3008C17.406 20.2915 17.406 19.167 16.9821 18.1576C17.4301 17.0891 17.4093 15.8926 16.9115 14.8384L16.9111 14.837ZM4.786 13.0439C3.63947 11.825 3.33761 9.84307 4.06501 8.33137C4.40864 7.61954 4.99474 6.99411 5.71572 6.57179C6.13321 6.32865 6.60854 6.20388 7.07901 6.20388C7.35842 6.20388 7.63783 6.24867 7.89795 6.33825C8.07941 6.40063 8.2721 6.44862 8.46799 6.48221C8.44712 6.62938 8.43266 6.77814 8.42464 6.92689C8.26245 6.8741 8.10991 6.79572 7.97985 6.69015C7.80483 6.54618 7.54469 6.57178 7.4018 6.74613C7.25728 6.92049 7.28297 7.17803 7.458 7.32197C7.86426 7.65469 8.38933 7.82745 8.91284 7.82745C9.27895 7.82745 9.64344 7.74427 9.96622 7.57152C10.1669 7.46594 10.2424 7.2164 10.1348 7.01804C10.0288 6.81809 9.77834 6.74291 9.57921 6.85008C9.47484 6.90446 9.36244 6.94286 9.24682 6.96845C9.25485 6.82449 9.27091 6.68052 9.29339 6.53975C9.67556 6.53015 10.0545 6.47096 10.3998 6.35739C11.1304 6.11585 11.9445 6.24222 12.5868 6.70291C13.3544 7.25958 13.8682 8.12976 13.9646 9.02873C14.1508 10.7643 13.4443 12.5527 12.2079 13.4804C10.9746 14.405 9.2372 14.7841 7.44187 14.5233C6.44308 14.3778 5.60005 13.9091 4.78756 13.0453L4.786 13.0439ZM16.2673 20.8899H4.97879V18.564H16.2673C16.5596 19.3223 16.5596 20.1316 16.2673 20.8899ZM3.72624 24.0347V21.7089H4.1566V24.0347H3.72624ZM4.1566 18.5658V20.8917H3.72624V18.5658H4.1566ZM3.72624 17.7468V15.421H4.1566V17.7468H3.72624ZM2.90409 20.8901H1.03498C0.74273 20.1318 0.74273 19.3225 1.03498 18.5642H2.90409V20.8901ZM1.03498 21.7091H2.90409V24.0349H1.03498C0.74273 23.2767 0.74273 22.4673 1.03498 21.7091ZM4.1566 24.8539V27.1797H3.72624V24.8539H4.1566ZM4.97875 21.7091H16.2673C16.5595 22.4673 16.5595 23.2767 16.2673 24.0349H4.97875V21.7091ZM16.2673 15.4212C16.5595 16.1794 16.5595 16.9888 16.2673 17.747H4.97875V15.4212H8.52908H8.54032H8.55156H16.2673ZM1.0349 15.4212H2.90401V17.747H1.0349C0.742648 16.9888 0.742648 16.1794 1.0349 15.4212ZM1.0349 24.854H2.90401V27.1798H1.0349C0.742648 26.4216 0.742648 25.6122 1.0349 24.854ZM16.2673 27.1782H4.97875V24.8524H16.2673C16.5595 25.6106 16.5595 26.42 16.2673 27.1782Z" fill="black"/>
</svg>
