<svg width="211" height="244" viewBox="0 0 211 244" fill="none" xmlns="http://www.w3.org/2000/svg">
<path d="M210.201 121.727C210.201 119.353 208.282 117.435 205.916 117.435H69.9489L111.535 75.7744C113.206 74.1023 113.206 71.3825 111.535 69.705C109.86 68.031 107.147 68.031 105.476 69.705L62.0864 113.172C59.8089 115.456 58.5547 118.49 58.5547 121.729C58.5547 124.964 59.807 128.001 62.0864 130.279L105.476 173.751C107.147 175.425 109.86 175.425 111.535 173.751C113.206 172.073 113.206 169.353 111.535 167.679L69.9528 126.019H205.915C208.281 126.019 210.198 124.095 210.198 121.727L210.201 121.727Z" fill="url(#paint0_linear_2082_8389)"/>
<path d="M134.905 0.386368H31.0502C14.372 0.386368 0.800781 13.9813 0.800781 30.6897V212.763C0.800781 229.473 14.3715 243.068 31.0502 243.068H134.905C151.583 243.068 165.154 229.473 165.154 212.765V178.044C165.154 175.67 163.237 173.751 160.87 173.751C158.5 173.751 156.581 175.672 156.581 178.044V212.765C156.581 224.74 146.859 234.485 134.903 234.485H31.0483C19.0978 234.485 9.36649 224.742 9.36649 212.765V30.6916C9.36649 18.716 19.0939 8.9712 31.0483 8.9712H134.903C146.857 8.9712 156.581 18.7141 156.581 30.6916V65.4128C156.581 67.7865 158.5 69.705 160.87 69.705C163.239 69.705 165.154 67.7846 165.154 65.4128V30.6916C165.152 13.9837 151.582 0.388293 134.903 0.388293L134.905 0.386368Z" fill="url(#paint1_linear_2082_8389)"/>
<defs>
<linearGradient id="paint0_linear_2082_8389" x1="134.378" y1="68.4495" x2="134.378" y2="175.006" gradientUnits="userSpaceOnUse">
<stop stop-color="#9747FF"/>
<stop offset="1" stop-color="white"/>
</linearGradient>
<linearGradient id="paint1_linear_2082_8389" x1="-43.9424" y1="44.3903" x2="142.786" y2="272.096" gradientUnits="userSpaceOnUse">
<stop stop-color="#9747FF"/>
<stop offset="1" stop-color="white"/>
</linearGradient>
</defs>
</svg>
