<svg width="39" height="45" viewBox="0 0 39 45" fill="none" xmlns="http://www.w3.org/2000/svg">
<path d="M33.7522 36.0338L33.4205 36.0895C32.9927 34.2042 33.9136 33.0116 34.5466 31.099C35.3237 29.0215 35.3271 26.1705 34.559 21.5667L34.0347 18.4569C33.9973 18.2278 33.9151 18.0083 33.7926 17.8111C33.6702 17.6139 33.51 17.4429 33.3212 17.3078C33.1324 17.1728 32.9187 17.0764 32.6926 17.0242C32.4664 16.972 32.2321 16.965 32.0032 17.0037C31.5192 17.0285 31.0483 17.1698 30.6306 17.4157C30.4861 17.0287 30.2117 16.7037 29.8543 16.4964C29.4969 16.2892 29.0787 16.2123 28.6709 16.2791C28.1914 16.3095 27.7256 16.4516 27.3107 16.6941C27.1671 16.3075 26.8935 15.9829 26.537 15.7758C26.1804 15.5686 25.7629 15.4918 25.356 15.5584C24.8846 15.5846 24.4256 15.7196 24.015 15.9526L23.6261 13.6348C24.9343 13.7745 26.1025 12.9888 26.1245 11.6088V2.02597C26.1239 1.48882 25.9103 0.973814 25.5305 0.593986C25.1507 0.214159 24.6356 0.000536353 24.0985 0H14.5156C13.9784 0.000522968 13.4634 0.214141 13.0836 0.593972C12.7038 0.973802 12.4901 1.48881 12.4896 2.02597V11.6088C12.4901 12.146 12.7038 12.661 13.0836 13.0408C13.4634 13.4207 13.9784 13.6343 14.5156 13.6348H19.2929C19.3278 14.2256 20.2428 22.1858 20.1469 22.4984L20.0203 26.2576C20.0205 26.2783 20.0149 26.2988 20.0041 26.3164C19.9932 26.3341 19.9776 26.3484 19.9589 26.3575C19.9391 26.3688 19.9165 26.3742 19.8936 26.3733C19.8708 26.3724 19.8487 26.3652 19.8298 26.3525L16.3645 24.1816C15.9164 23.9035 15.404 23.7462 14.8771 23.7249C14.3502 23.7036 13.8268 23.8191 13.3577 24.06C12.8899 24.2855 12.2986 24.5577 12.2265 25.1439C12.1947 25.3128 12.2019 25.4867 12.2475 25.6525C12.2932 25.8182 12.3761 25.9712 12.4899 26.1L20.733 35.4981C21.3589 36.2095 21.7707 37.0835 21.9208 38.0191L21.5873 38.0748C21.3228 38.1203 21.087 38.2683 20.9311 38.4867C20.7752 38.7052 20.7119 38.9763 20.7548 39.2412L21.5769 44.1404C21.5993 44.2728 21.6733 44.3908 21.7826 44.4688C21.8919 44.5468 22.0276 44.5783 22.16 44.5564L35.3244 42.3481C35.4565 42.3251 35.5742 42.251 35.6521 42.1419C35.73 42.0327 35.7617 41.8973 35.7404 41.7649L34.9184 36.8647C34.8735 36.6 34.7256 36.364 34.507 36.2082C34.2884 36.0525 34.017 35.9897 33.7522 36.0338ZM14.5156 12.6218C14.247 12.6215 13.9896 12.5147 13.7997 12.3248C13.6098 12.1349 13.5029 11.8774 13.5026 11.6088V2.02597C13.5029 1.75742 13.6098 1.49997 13.7997 1.31007C13.9896 1.12017 14.247 1.01334 14.5156 1.01299H24.0984C24.367 1.01335 24.6244 1.12019 24.8143 1.31008C25.0042 1.49998 25.1111 1.75742 25.1114 2.02597V11.6088C25.1111 11.8774 25.0042 12.1348 24.8143 12.3247C24.6244 12.5146 24.367 12.6215 24.0984 12.6218H23.4562C23.3013 11.8397 23.2966 10.6223 22.5186 10.1572C21.9708 9.72103 21.216 9.81949 20.5767 9.9603C20.1209 10.0388 19.7137 10.292 19.4417 10.6661C19.1697 11.0401 19.0543 11.5056 19.1201 11.9634L19.1882 12.6218H14.5156ZM21.4951 34.8303L13.2509 25.4315C13.2379 25.4175 13.2284 25.4006 13.223 25.3823C13.2177 25.3639 13.2167 25.3446 13.2201 25.3258C13.2235 25.307 13.2312 25.2892 13.2427 25.2739C13.2541 25.2586 13.2689 25.2462 13.286 25.2376C13.7237 24.9454 14.2299 24.772 14.7549 24.7346C15.1339 24.7339 15.5055 24.8398 15.8271 25.0403L19.2935 27.2122C19.463 27.3166 19.657 27.3748 19.856 27.3812C20.055 27.3875 20.2522 27.3416 20.4281 27.2482C20.6039 27.1547 20.7522 27.0169 20.8584 26.8484C20.9645 26.6799 21.0247 26.4866 21.033 26.2877C21.036 25.4128 21.2437 22.1887 21.1132 21.384C21.1117 21.3704 20.2587 13.1296 20.2572 13.118L20.1238 11.8289C20.1072 11.7308 20.1102 11.6304 20.1326 11.5335C20.1549 11.4365 20.1961 11.345 20.2539 11.264C20.4464 10.9163 21.0339 10.9301 21.3668 10.8524C21.4645 10.8358 21.5646 10.8386 21.6612 10.8608C21.7579 10.8829 21.8492 10.9239 21.93 10.9813C22.0108 11.0388 22.0794 11.1117 22.132 11.1958C22.1845 11.2798 22.22 11.3734 22.2363 11.4712L23.2716 17.6441L23.9092 21.432C23.9202 21.4976 23.9441 21.5604 23.9794 21.6167C24.0147 21.6731 24.0608 21.722 24.115 21.7606C24.1691 21.7992 24.2304 21.8267 24.2952 21.8416C24.3601 21.8565 24.4272 21.8585 24.4928 21.8474C24.5584 21.8364 24.6212 21.8125 24.6776 21.7772C24.734 21.7419 24.7828 21.6958 24.8214 21.6416C24.86 21.5874 24.8875 21.5262 24.9024 21.4613C24.9173 21.3965 24.9193 21.3294 24.9083 21.2638L24.2736 17.4935C24.2534 17.301 24.3068 17.108 24.4231 16.9533C24.5394 16.7985 24.7099 16.6935 24.9004 16.6593L25.5246 16.5574C25.7221 16.5256 25.9242 16.5728 26.0872 16.6888C26.2502 16.8047 26.361 16.9802 26.3957 17.1772L26.601 18.4029C26.6046 18.4232 27.1182 21.5099 27.1219 21.5319C27.1455 21.663 27.2198 21.7794 27.3286 21.8561C27.4374 21.9328 27.5721 21.9635 27.7034 21.9417C27.8348 21.9198 27.9522 21.8471 28.0304 21.7393C28.1085 21.6316 28.1411 21.4973 28.121 21.3657L27.6029 18.254C27.5861 18.156 27.5889 18.0556 27.6111 17.9587C27.6334 17.8618 27.6746 17.7703 27.7325 17.6894C27.7904 17.6085 27.8637 17.54 27.9483 17.4876C28.0328 17.4353 28.1269 17.4003 28.2251 17.3845L28.8399 17.2777C29.0379 17.2457 29.2405 17.2926 29.4042 17.4084C29.5679 17.5242 29.6797 17.6996 29.7155 17.8969L29.9237 19.1399L30.3407 21.6333C30.3628 21.7658 30.4367 21.884 30.5461 21.9621C30.6554 22.0401 30.7913 22.0714 30.9238 22.0493C31.0563 22.0271 31.1745 21.9532 31.2526 21.8439C31.3306 21.7345 31.3619 21.5986 31.3398 21.4662L30.9228 18.9728C30.8915 18.7762 30.9386 18.5752 31.0538 18.4129C31.169 18.2506 31.3432 18.14 31.5391 18.1047C31.8668 18.0704 32.4395 17.8703 32.7282 18.1295C32.8098 18.187 32.879 18.2604 32.9318 18.3452C32.9846 18.4299 33.0198 18.5245 33.0354 18.6231L33.5597 21.7342C34.2967 26.1508 34.3081 28.8454 33.5973 30.7447C32.8832 32.8038 31.9468 34.187 32.4211 36.2568L22.9193 37.8494C22.7378 36.7292 22.2442 35.6828 21.4951 34.8303ZM22.4919 43.4739L21.754 39.0742L33.9193 37.0324L34.6578 41.433L22.4919 43.4739Z" fill="black"/>
<path d="M8.32994 8.83643H1.51948C1.11663 8.83687 0.730396 8.9971 0.445534 9.28196C0.160672 9.56682 0.000442411 9.95305 0 10.3559V17.1664C0.000442411 17.5692 0.160672 17.9555 0.445534 18.2403C0.730396 18.5252 1.11663 18.6854 1.51948 18.6859H8.32994C8.7328 18.6854 9.11903 18.5252 9.40389 18.2403C9.68875 17.9555 9.84898 17.5692 9.84943 17.1664V10.3559C9.84898 9.95305 9.68875 9.56682 9.40389 9.28196C9.11903 8.9971 8.7328 8.83687 8.32994 8.83643ZM8.83644 17.1664C8.83634 17.3007 8.78295 17.4294 8.68799 17.5244C8.59302 17.6194 8.46425 17.6728 8.32994 17.6729H1.51948C1.38518 17.6728 1.25641 17.6194 1.16144 17.5244C1.06647 17.4294 1.01308 17.3007 1.01299 17.1664V10.3559C1.01307 10.2216 1.06646 10.0928 1.16142 9.99785C1.25639 9.90288 1.38517 9.84949 1.51948 9.84941H8.32994C8.46425 9.84951 8.59302 9.9029 8.68799 9.99786C8.78295 10.0928 8.83634 10.2216 8.83644 10.3559V17.1664Z" fill="black"/>
<path d="M37.4803 3.78662H30.6699C30.267 3.78706 29.8808 3.94729 29.5959 4.23216C29.3111 4.51702 29.1508 4.90325 29.1504 5.3061V12.1166C29.1508 12.5194 29.3111 12.9056 29.5959 13.1905C29.8808 13.4754 30.267 13.6356 30.6699 13.636H37.4803C37.8832 13.6356 38.2694 13.4754 38.5543 13.1905C38.8391 12.9056 38.9994 12.5194 38.9998 12.1166V5.3061C38.9994 4.90325 38.8391 4.51702 38.5543 4.23216C38.2694 3.94729 37.8832 3.78706 37.4803 3.78662ZM37.9868 12.1166C37.9867 12.2509 37.9333 12.3796 37.8384 12.4746C37.7434 12.5696 37.6146 12.623 37.4803 12.6231H30.6699C30.5356 12.623 30.4068 12.5696 30.3118 12.4746C30.2169 12.3796 30.1635 12.2509 30.1634 12.1166V5.3061C30.1635 5.1718 30.2169 5.04303 30.3118 4.94806C30.4068 4.85309 30.5356 4.7997 30.6699 4.79961H37.4803C37.6146 4.79969 37.7434 4.85308 37.8384 4.94805C37.9334 5.04301 37.9867 5.1718 37.9868 5.3061V12.1166Z" fill="black"/>
<path d="M23.053 3.70591C22.958 3.61096 22.8292 3.55762 22.6949 3.55762C22.5606 3.55762 22.4318 3.61096 22.3368 3.70591L18.6781 7.36462L16.8044 5.491C16.709 5.3984 16.5809 5.34707 16.4479 5.34808C16.3149 5.3491 16.1877 5.40238 16.0936 5.49643C15.9996 5.59047 15.9463 5.71773 15.9453 5.85073C15.9443 5.98372 15.9957 6.11177 16.0883 6.20723L18.32 8.43894C18.415 8.53391 18.5438 8.58726 18.6781 8.58726C18.8125 8.58726 18.9413 8.53391 19.0363 8.43894L23.0531 4.42214C23.148 4.32715 23.2014 4.19833 23.2014 4.06402C23.2013 3.9297 23.148 3.80089 23.053 3.70591Z" fill="black"/>
<path d="M4.92431 11.9922C4.45805 11.9965 4.01235 12.1848 3.68417 12.516C3.35599 12.8472 3.17188 13.2947 3.17188 13.7609C3.17188 14.2272 3.35599 14.6746 3.68417 15.0059C4.01235 15.3371 4.45805 15.5254 4.92431 15.5297C5.39057 15.5254 5.83627 15.3371 6.16445 15.0059C6.49263 14.6746 6.67674 14.2272 6.67674 13.7609C6.67674 13.2947 6.49263 12.8472 6.16445 12.516C5.83627 12.1848 5.39057 11.9965 4.92431 11.9922ZM4.92431 14.5167C4.72572 14.5139 4.53623 14.433 4.39679 14.2916C4.25735 14.1502 4.17918 13.9595 4.17918 13.7609C4.17918 13.5623 4.25735 13.3717 4.39679 13.2303C4.53623 13.0889 4.72572 13.008 4.92431 13.0052C5.12289 13.008 5.31239 13.0889 5.45183 13.2303C5.59126 13.3717 5.66943 13.5623 5.66943 13.7609C5.66943 13.9595 5.59126 14.1502 5.45183 14.2916C5.31239 14.433 5.12289 14.5139 4.92431 14.5167Z" fill="black"/>
<path d="M34.0758 6.94287C33.609 6.9464 33.1625 7.13431 32.8337 7.46564C32.5048 7.79697 32.3203 8.24484 32.3203 8.71165C32.3203 9.17845 32.5048 9.62633 32.8337 9.95766C33.1625 10.289 33.609 10.4769 34.0758 10.4804C34.5425 10.4769 34.989 10.289 35.3178 9.95766C35.6467 9.62633 35.8312 9.17845 35.8312 8.71165C35.8312 8.24484 35.6467 7.79697 35.3178 7.46564C34.989 7.13431 34.5425 6.9464 34.0758 6.94287ZM34.0758 9.46744C33.8768 9.46513 33.6868 9.38449 33.547 9.24301C33.4071 9.10152 33.3287 8.91059 33.3287 8.71165C33.3287 8.5127 33.4071 8.32178 33.547 8.18029C33.6868 8.0388 33.8768 7.95816 34.0758 7.95586C34.2747 7.95816 34.4647 8.0388 34.6045 8.18029C34.7444 8.32178 34.8228 8.5127 34.8228 8.71165C34.8228 8.91059 34.7444 9.10152 34.6045 9.24301C34.4647 9.38449 34.2747 9.46513 34.0758 9.46744Z" fill="black"/>
</svg>
