<svg width="29" height="29" viewBox="0 0 29 29" fill="none" xmlns="http://www.w3.org/2000/svg">
<path d="M17.1992 12.2321L14.6873 10.9615C14.5692 10.9024 14.43 10.9024 14.3132 10.9615L11.8013 12.2321C11.6596 12.3037 11.5701 12.4508 11.5701 12.6104V15.9973C11.5701 16.1582 11.6596 16.304 11.8013 16.3756L14.3132 17.6462C14.3716 17.6764 14.4362 17.6915 14.5009 17.6915C14.5655 17.6915 14.6289 17.6764 14.6885 17.6462L17.2004 16.3756C17.3421 16.304 17.4316 16.1569 17.4316 15.9973V12.6104C17.4316 12.4495 17.3421 12.3037 17.2004 12.2321H17.1992ZM14.4996 11.8148L16.0756 12.6116L14.4996 13.4085L12.9236 12.6116L14.4996 11.8148ZM14.4996 16.7944L12.4066 15.7361V13.2967L14.3132 14.2607C14.3716 14.2908 14.4362 14.3059 14.5009 14.3059C14.5655 14.3059 14.6289 14.2908 14.6885 14.2607L16.5951 13.2967V15.7361L14.5021 16.7944H14.4996Z" fill="black"/>
<path d="M24.4204 18.9609C24.147 18.9609 23.881 19.0426 23.6535 19.1959L20.2344 21.5009H19.1046C18.4123 21.5009 17.848 22.0702 17.848 22.7715V24.4644C17.848 25.1645 18.411 25.735 19.1046 25.735H20.2344L23.6535 28.04C23.881 28.1933 24.147 28.275 24.4204 28.275C25.1823 28.275 25.8038 27.6479 25.8038 26.8762V20.3584C25.8038 19.588 25.1836 18.9596 24.4204 18.9596V18.9609ZM24.966 26.8764C24.966 27.1805 24.7212 27.4281 24.4204 27.4281C24.3123 27.4281 24.2079 27.3966 24.1184 27.3351L20.5936 24.9585C20.5252 24.912 20.4444 24.8868 20.3611 24.8868H19.1046C18.8734 24.8868 18.6857 24.6971 18.6857 24.4633V22.7704C18.6857 22.5366 18.8734 22.3469 19.1046 22.3469H20.3611C20.4432 22.3469 20.5252 22.3217 20.5936 22.2752L24.1184 19.8986C24.2091 19.8383 24.3135 19.8056 24.4217 19.8056C24.7224 19.8056 24.9673 20.0532 24.9673 20.3574V26.8751L24.966 26.8764Z" fill="black"/>
<path d="M27.8968 22.7713H26.6402C26.4091 22.7713 26.2214 22.9611 26.2214 23.1948C26.2214 23.4286 26.4091 23.6184 26.6402 23.6184H27.8968C28.128 23.6184 28.3157 23.4286 28.3157 23.1948C28.3157 22.9611 28.128 22.7713 27.8968 22.7713Z" fill="black"/>
<path d="M27.1821 20.3547L26.3444 21.2018C26.1804 21.3677 26.1804 21.6354 26.3444 21.8C26.4265 21.883 26.5334 21.9244 26.6402 21.9244C26.7471 21.9244 26.854 21.883 26.9361 21.8L27.7738 20.9529C27.9378 20.7871 27.9378 20.5193 27.7738 20.3547C27.6097 20.1888 27.345 20.1888 27.1821 20.3547Z" fill="black"/>
<path d="M26.9373 24.5888C26.7733 24.4229 26.5085 24.4229 26.3457 24.5888C26.1817 24.7547 26.1817 25.0224 26.3457 25.187L27.1834 26.0341C27.2655 26.117 27.3724 26.1585 27.4792 26.1585C27.5861 26.1585 27.693 26.117 27.775 26.0341C27.9391 25.8682 27.9391 25.6005 27.775 25.4359L26.9373 24.5888Z" fill="black"/>
<path d="M24.9662 12.6114C24.1882 12.6114 23.5381 13.1531 23.3505 13.882H21.5955C21.4985 12.2167 20.8435 10.7048 19.8119 9.53209L21.4811 7.84422C22.2032 8.44246 23.1255 8.80191 24.1285 8.80191C26.4366 8.80191 28.3145 6.9029 28.3145 4.56911C28.3145 2.23524 26.4365 0.336306 24.1285 0.336306C21.8204 0.336306 19.9425 2.23531 19.9425 4.56911C19.9425 5.58458 20.298 6.51589 20.8896 7.24607L19.2204 8.93395C18.0608 7.89081 16.5655 7.22722 14.9186 7.13044V5.35585C15.6382 5.16608 16.1751 4.50878 16.1751 3.72203C16.1751 2.78825 15.4244 2.02914 14.501 2.02914C13.5775 2.02914 12.8268 2.78825 12.8268 3.72203C12.8268 4.50878 13.3625 5.16609 14.0833 5.35585V7.13044C12.4365 7.22847 10.9413 7.89081 9.78153 8.93395L8.11231 7.24607C8.70394 6.51589 9.05941 5.58332 9.05941 4.56911C9.05941 2.23524 7.18141 0.336306 4.87341 0.336306C2.56163 0.333792 0.683594 2.2328 0.683594 4.56782C0.683594 6.90168 2.5616 8.80062 4.86959 8.80062C5.87384 8.80062 6.79485 8.44117 7.51696 7.84293L9.18618 9.53081C8.15457 10.7034 7.49832 12.2153 7.40261 13.8807H5.64764C5.45997 13.153 4.80994 12.6101 4.03188 12.6101C3.10843 12.6101 2.35771 13.3692 2.35771 14.303C2.35771 15.2368 3.10843 15.9959 4.03188 15.9959C4.80994 15.9959 5.45998 15.4542 5.64764 14.7253H7.40261C7.49955 16.3905 8.15457 17.9025 9.18618 19.0752L7.51696 20.7631C6.79485 20.1648 5.8726 19.8054 4.86959 19.8054C2.56153 19.8054 0.683594 21.7044 0.683594 24.0382C0.683594 26.372 2.5616 28.271 4.86959 28.271C7.17759 28.271 9.05559 26.372 9.05559 24.0382C9.05559 23.0227 8.70012 22.0914 8.10849 21.3612L9.77771 19.6733C10.9373 20.7165 12.4326 21.3801 14.0795 21.4769V23.2514C13.3599 23.4412 12.823 24.0985 12.823 24.8853C12.823 25.819 13.5737 26.5782 14.4971 26.5782C15.4206 26.5782 16.1713 25.819 16.1713 24.8853C16.1713 24.0985 15.6356 23.4412 14.9148 23.2514V21.4769C18.5042 21.2645 21.3815 18.355 21.5915 14.7255H23.3464C23.5341 15.4532 24.1842 15.9961 24.9622 15.9961C25.8857 15.9961 26.6364 15.237 26.6364 14.3032C26.6364 13.3694 25.8857 12.6103 24.9622 12.6103L24.9662 12.6114ZM24.1285 1.18097C25.9755 1.18097 27.478 2.70045 27.478 4.56792C27.478 6.43551 25.9753 7.95486 24.1285 7.95486C22.2816 7.95486 20.779 6.43539 20.779 4.56792C20.779 2.70032 22.2817 1.18097 24.1285 1.18097ZM13.6619 3.72094C13.6619 3.25342 14.0373 2.87386 14.4996 2.87386C14.962 2.87386 15.3373 3.25342 15.3373 3.72094C15.3373 4.18846 14.962 4.56801 14.4996 4.56801C14.0373 4.56801 13.6619 4.18846 13.6619 3.72094ZM1.52137 4.56801C1.52137 2.70041 3.02404 1.18106 4.87087 1.18106C6.71782 1.18106 8.22037 2.70054 8.22037 4.56801C8.22037 6.43561 6.71769 7.95496 4.87087 7.95496C3.02392 7.95496 1.52137 6.43548 1.52137 4.56801ZM4.03325 15.1516C3.5709 15.1516 3.19554 14.7721 3.19554 14.3045C3.19554 13.837 3.5709 13.4575 4.03325 13.4575C4.4956 13.4575 4.87096 13.837 4.87096 14.3045C4.87096 14.7721 4.4956 15.1516 4.03325 15.1516ZM4.87096 27.4279C3.02401 27.4279 1.52146 25.9084 1.52146 24.0409C1.52146 22.1733 3.02414 20.654 4.87096 20.654C6.71791 20.654 8.22046 22.1735 8.22046 24.0409C8.22046 25.9085 6.71778 27.4279 4.87096 27.4279ZM15.3376 24.8879C15.3376 25.3554 14.9622 25.735 14.4998 25.735C14.0375 25.735 13.6621 25.3554 13.6621 24.8879C13.6621 24.4204 14.0375 24.0409 14.4998 24.0409C14.9622 24.0409 15.3376 24.4204 15.3376 24.8879ZM14.4998 20.6551C11.0371 20.6551 8.21957 17.806 8.21957 14.3046C8.21957 10.8033 11.0372 7.95416 14.4998 7.95416C17.9625 7.95416 20.7801 10.8033 20.7801 14.3046C20.7801 17.806 17.9625 20.6551 14.4998 20.6551ZM24.9664 15.1518C24.5041 15.1518 24.1287 14.7722 24.1287 14.3047C24.1287 13.8372 24.5041 13.4576 24.9664 13.4576C25.4288 13.4576 25.8041 13.8372 25.8041 14.3047C25.8041 14.7722 25.4288 15.1518 24.9664 15.1518Z" fill="black"/>
</svg>
