<svg width="40" height="38" viewBox="0 0 40 38" fill="none" xmlns="http://www.w3.org/2000/svg">
<g clip-path="url(#clip0_533_3633)">
<path d="M24.5047 12.3849L24.0625 12.2188V5.54805C24.0675 5.22009 23.9398 4.90354 23.7072 4.66782C23.4746 4.43209 23.1562 4.29641 22.8218 4.29053H17.1782C16.8438 4.29642 16.5254 4.4321 16.2928 4.66782C16.0602 4.90355 15.9325 5.22009 15.9375 5.54805V12.2179L15.508 12.3801C14.8956 12.5955 13.8367 13.2473 13.7518 14.3238C13.7506 14.3397 13.75 14.3553 13.75 14.3711V22.9841C13.7505 23.4716 13.9483 23.9389 14.2998 24.2837C14.6513 24.6284 15.1279 24.8223 15.625 24.8228H16.25V33.097C16.2505 33.5845 16.4483 34.0518 16.7998 34.3966C17.1513 34.7413 17.6279 34.9352 18.125 34.9357H21.875C22.3721 34.9352 22.8487 34.7413 23.2002 34.3966C23.5517 34.0518 23.7495 33.5845 23.75 33.097V24.8228H24.375C24.8721 24.8223 25.3487 24.6284 25.7002 24.2837C26.0517 23.9389 26.2495 23.4716 26.25 22.9841V14.3663C26.25 14.3508 26.2494 14.3352 26.2482 14.3193C26.1639 13.2414 25.1033 12.5929 24.5047 12.3849ZM25 22.9841C24.9998 23.1466 24.9339 23.3024 24.8167 23.4173C24.6996 23.5322 24.5407 23.5968 24.375 23.597H23.75V21.4518C23.75 21.2893 23.6842 21.1334 23.5669 21.0184C23.4497 20.9035 23.2908 20.8389 23.125 20.8389C22.9592 20.8389 22.8003 20.9035 22.6831 21.0184C22.5658 21.1334 22.5 21.2893 22.5 21.4518V33.097C22.4998 33.2595 22.4339 33.4153 22.3167 33.5302C22.1996 33.6451 22.0407 33.7097 21.875 33.7099H20.625V26.0486C20.625 25.886 20.5592 25.7301 20.4419 25.6152C20.3247 25.5003 20.1658 25.4357 20 25.4357C19.8342 25.4357 19.6753 25.5003 19.5581 25.6152C19.4408 25.7301 19.375 25.886 19.375 26.0486V33.7099H18.125C17.9593 33.7097 17.8004 33.6451 17.6833 33.5302C17.5661 33.4153 17.5002 33.2595 17.5 33.097V21.4518C17.5 21.2893 17.4342 21.1334 17.3169 21.0184C17.1997 20.9035 17.0408 20.8389 16.875 20.8389C16.7092 20.8389 16.5503 20.9035 16.4331 21.0184C16.3158 21.1334 16.25 21.2893 16.25 21.4518V23.597H15.625C15.4593 23.5968 15.3004 23.5322 15.1833 23.4173C15.0661 23.3024 15.0002 23.1466 15 22.9841V14.3992C15.0527 13.9495 15.7051 13.6155 15.9438 13.529L16.1092 13.4664C16.2139 13.6554 16.3682 13.8135 16.5561 13.9244C16.7441 14.0353 16.9589 14.0948 17.1782 14.097H18.2754C18.114 13.7084 18.0943 13.2771 18.2196 12.876L17.1997 12.8771C17.1952 12.872 17.1918 12.866 17.1897 12.8595C17.1876 12.853 17.1869 12.8462 17.1875 12.8395V5.54805C17.1875 5.53071 17.1925 5.51992 17.1904 5.51633L22.8003 5.51036C22.8048 5.51553 22.8082 5.52153 22.8103 5.528C22.8123 5.53447 22.8131 5.54129 22.8125 5.54805V12.8395C22.8129 12.8505 22.8102 12.8614 22.8049 12.8712L21.7793 12.8724C21.9059 13.2745 21.8865 13.7073 21.7244 14.097H22.8218C23.0411 14.0948 23.2558 14.0353 23.4437 13.9245C23.6316 13.8137 23.7859 13.6556 23.8907 13.4667L24.0694 13.5338C24.2967 13.6151 24.9478 13.9461 25 14.3945V22.9841Z" fill="black"/>
<path d="M19.9871 6.43536C19.5613 6.43076 19.1465 6.56815 18.8108 6.82502C18.475 7.08188 18.2382 7.44297 18.1391 7.84912C18.1041 8.00791 18.1348 8.17385 18.2245 8.31046C18.3141 8.44708 18.4554 8.5432 18.6173 8.5777C18.7792 8.61221 18.9485 8.58227 19.0879 8.49448C19.2273 8.40668 19.3254 8.26821 19.3608 8.10948C19.3982 7.97635 19.4805 7.85957 19.5942 7.77817C19.7079 7.69676 19.8464 7.65552 19.9871 7.66117C20.1464 7.65236 20.3027 7.70555 20.4221 7.80917C20.5416 7.9128 20.6145 8.05848 20.6249 8.21453C20.6234 8.30574 20.598 8.39504 20.5512 8.47389C20.5045 8.55274 20.4378 8.61851 20.3578 8.66492C20.1115 8.81815 19.3621 9.2853 19.3621 10.0733V10.7257C19.3621 10.8882 19.428 11.0441 19.5452 11.1591C19.6624 11.274 19.8214 11.3386 19.9871 11.3386C20.1529 11.3386 20.3119 11.274 20.4291 11.1591C20.5463 11.0441 20.6121 10.8882 20.6121 10.7257V10.0733C20.6123 10.0721 20.6384 9.94221 21.0288 9.69889C21.2863 9.54172 21.4989 9.32315 21.6469 9.06358C21.7948 8.80401 21.8733 8.5119 21.8749 8.21453C21.8644 7.73335 21.6598 7.27587 21.306 6.94237C20.9521 6.60887 20.4778 6.42655 19.9871 6.43536Z" fill="black"/>
<path d="M20 14.0969C20.3452 14.0969 20.625 13.8225 20.625 13.484C20.625 13.1455 20.3452 12.8711 20 12.8711C19.6548 12.8711 19.375 13.1455 19.375 13.484C19.375 13.8225 19.6548 14.0969 20 14.0969Z" fill="black"/>
<path d="M10.7547 12.3849L10.3125 12.2188V5.54805C10.3175 5.22009 10.1898 4.90355 9.9572 4.66782C9.72463 4.43209 9.40623 4.29641 9.07181 4.29053H3.42819C3.09377 4.29642 2.77537 4.43209 2.5428 4.66782C2.31023 4.90355 2.18246 5.22009 2.1875 5.54805V12.2179L1.75797 12.3801C1.14563 12.5955 0.0866563 13.2473 0.00184375 14.3238C0.000625 14.3397 0 14.3553 0 14.3711V22.9841C0.000541797 23.4716 0.19826 23.9389 0.549773 24.2837C0.901287 24.6284 1.37789 24.8223 1.875 24.8228H2.5V33.097C2.50054 33.5845 2.69826 34.0518 3.04977 34.3966C3.40129 34.7413 3.87789 34.9352 4.375 34.9357H8.125C8.62211 34.9352 9.09871 34.7413 9.45023 34.3966C9.80174 34.0518 9.99946 33.5845 10 33.097V24.8228H10.625C11.1221 24.8223 11.5987 24.6284 11.9502 24.2837C12.3017 23.9389 12.4995 23.4716 12.5 22.9841V14.3663C12.5 14.3508 12.4994 14.3352 12.4982 14.3193C12.4139 13.2414 11.3533 12.5929 10.7547 12.3849ZM11.25 22.9841C11.2498 23.1466 11.1839 23.3024 11.0667 23.4173C10.9496 23.5322 10.7907 23.5968 10.625 23.597H10V21.4518C10 21.2893 9.93415 21.1334 9.81694 21.0184C9.69973 20.9035 9.54076 20.8389 9.375 20.8389C9.20924 20.8389 9.05027 20.9035 8.93306 21.0184C8.81585 21.1334 8.75 21.2893 8.75 21.4518V33.097C8.74981 33.2595 8.6839 33.4153 8.56673 33.5302C8.44956 33.6451 8.2907 33.7097 8.125 33.7099H6.875V26.0486C6.875 25.886 6.80915 25.7301 6.69194 25.6152C6.57473 25.5003 6.41576 25.4357 6.25 25.4357C6.08424 25.4357 5.92527 25.5003 5.80806 25.6152C5.69085 25.7301 5.625 25.886 5.625 26.0486V33.7099H4.375C4.2093 33.7097 4.05044 33.6451 3.93327 33.5302C3.8161 33.4153 3.75019 33.2595 3.75 33.097V21.4518C3.75 21.2893 3.68415 21.1334 3.56694 21.0184C3.44973 20.9035 3.29076 20.8389 3.125 20.8389C2.95924 20.8389 2.80027 20.9035 2.68306 21.0184C2.56585 21.1334 2.5 21.2893 2.5 21.4518V23.597H1.875C1.7093 23.5968 1.55044 23.5322 1.43327 23.4173C1.3161 23.3024 1.25019 23.1466 1.25 22.9841V14.3992C1.30266 13.9495 1.95509 13.6155 2.19375 13.529L2.35916 13.4664C2.46387 13.6554 2.61819 13.8135 2.80615 13.9244C2.99411 14.0353 3.20886 14.0948 3.42819 14.097H4.52544C4.36401 13.7084 4.34429 13.2771 4.46959 12.876L3.44972 12.8771C3.44524 12.872 3.44185 12.866 3.43975 12.8595C3.43765 12.853 3.43689 12.8462 3.4375 12.8395V5.54805C3.4375 5.53071 3.44253 5.51992 3.44041 5.51633L9.05028 5.51036C9.05476 5.51553 9.05815 5.52153 9.06025 5.528C9.06235 5.53447 9.06311 5.54129 9.0625 5.54805V12.8395C9.06287 12.8505 9.06023 12.8614 9.05487 12.8712L8.02931 12.8724C8.15586 13.2745 8.13646 13.7073 7.97441 14.097H9.07181C9.29108 14.0948 9.50578 14.0353 9.6937 13.9245C9.88162 13.8137 10.0359 13.6556 10.1407 13.4667L10.3194 13.5338C10.5467 13.6151 11.1978 13.9461 11.25 14.3945V22.9841Z" fill="black"/>
<path d="M6.23713 6.43536C5.81131 6.43076 5.39653 6.56815 5.06077 6.82502C4.72502 7.08188 4.4882 7.44297 4.38913 7.84912C4.35411 8.00791 4.3848 8.17385 4.47446 8.31046C4.56413 8.44708 4.70543 8.5432 4.86732 8.5777C5.02922 8.61221 5.19846 8.58227 5.33786 8.49448C5.47726 8.40668 5.57541 8.26821 5.61076 8.10948C5.64817 7.97635 5.73045 7.85957 5.84419 7.77817C5.95793 7.69676 6.09644 7.65552 6.23713 7.66117C6.39635 7.65236 6.55269 7.70555 6.67213 7.80917C6.79157 7.9128 6.86446 8.05848 6.87494 8.21453C6.87339 8.30574 6.84801 8.39504 6.80123 8.47389C6.75445 8.55274 6.68784 8.61851 6.60776 8.66492C6.36148 8.81815 5.61213 9.2853 5.61213 10.0733V10.7257C5.61213 10.8882 5.67798 11.0441 5.79519 11.1591C5.9124 11.274 6.07137 11.3386 6.23713 11.3386C6.40289 11.3386 6.56186 11.274 6.67907 11.1591C6.79628 11.0441 6.86213 10.8882 6.86213 10.7257V10.0733C6.86229 10.0721 6.88838 9.94221 7.27885 9.69889C7.53628 9.54172 7.7489 9.32315 7.89685 9.06358C8.04481 8.804 8.12328 8.5119 8.12494 8.21453C8.11444 7.73335 7.90984 7.27587 7.55597 6.94237C7.20211 6.60887 6.72784 6.42655 6.23713 6.43536Z" fill="black"/>
<path d="M6.25 14.0969C6.59518 14.0969 6.875 13.8225 6.875 13.484C6.875 13.1455 6.59518 12.8711 6.25 12.8711C5.90482 12.8711 5.625 13.1455 5.625 13.484C5.625 13.8225 5.90482 14.0969 6.25 14.0969Z" fill="black"/>
<path d="M39.9982 14.3193C39.9139 13.2414 38.8533 12.5929 38.2547 12.3849L37.8125 12.2188V5.54805C37.8175 5.22009 37.6898 4.90354 37.4572 4.66782C37.2246 4.43209 36.9062 4.29641 36.5718 4.29053H30.9282C30.5938 4.29642 30.2754 4.4321 30.0428 4.66782C29.8102 4.90355 29.6825 5.22009 29.6875 5.54805V12.2179L29.258 12.3801C28.6456 12.5955 27.5867 13.2473 27.5018 14.3238C27.5006 14.3397 27.5 14.3553 27.5 14.3711V22.9841C27.5005 23.4716 27.6983 23.9389 28.0498 24.2837C28.4013 24.6284 28.8779 24.8223 29.375 24.8228H30V33.097C30.0005 33.5845 30.1983 34.0518 30.5498 34.3966C30.9013 34.7413 31.3779 34.9352 31.875 34.9357H35.625C36.1221 34.9352 36.5987 34.7413 36.9502 34.3966C37.3017 34.0518 37.4995 33.5845 37.5 33.097V24.8228H38.125C38.6221 24.8223 39.0987 24.6284 39.4502 24.2837C39.8017 23.9389 39.9995 23.4716 40 22.9841V14.3663C40 14.3508 39.9994 14.3352 39.9982 14.3193ZM38.75 22.9841C38.7498 23.1466 38.6839 23.3024 38.5667 23.4173C38.4496 23.5322 38.2907 23.5968 38.125 23.597H37.5V21.4518C37.5 21.2893 37.4342 21.1334 37.3169 21.0184C37.1997 20.9035 37.0408 20.8389 36.875 20.8389C36.7092 20.8389 36.5503 20.9035 36.4331 21.0184C36.3158 21.1334 36.25 21.2893 36.25 21.4518V33.097C36.2498 33.2595 36.1839 33.4153 36.0667 33.5302C35.9496 33.6451 35.7907 33.7097 35.625 33.7099H34.375V26.0486C34.375 25.886 34.3092 25.7301 34.1919 25.6152C34.0747 25.5003 33.9158 25.4357 33.75 25.4357C33.5842 25.4357 33.4253 25.5003 33.3081 25.6152C33.1908 25.7301 33.125 25.886 33.125 26.0486V33.7099H31.875C31.7093 33.7097 31.5504 33.6451 31.4333 33.5302C31.3161 33.4153 31.2502 33.2595 31.25 33.097V21.4518C31.25 21.2893 31.1842 21.1334 31.0669 21.0184C30.9497 20.9035 30.7908 20.8389 30.625 20.8389C30.4592 20.8389 30.3003 20.9035 30.1831 21.0184C30.0658 21.1334 30 21.2893 30 21.4518V23.597H29.375C29.2093 23.5968 29.0504 23.5322 28.9333 23.4173C28.8161 23.3024 28.7502 23.1466 28.75 22.9841V14.3992C28.8027 13.9495 29.4551 13.6155 29.6937 13.529L29.8592 13.4664C29.9639 13.6554 30.1182 13.8135 30.3061 13.9244C30.4941 14.0353 30.7089 14.0948 30.9282 14.097H32.0254C31.864 13.7084 31.8443 13.2771 31.9696 12.876L30.9497 12.8771C30.9452 12.872 30.9418 12.866 30.9397 12.8595C30.9376 12.853 30.9369 12.8462 30.9375 12.8395V5.54805C30.9375 5.53071 30.9425 5.51992 30.9404 5.51633L36.5503 5.51036C36.5548 5.51553 36.5582 5.52153 36.5603 5.528C36.5623 5.53447 36.5631 5.54129 36.5625 5.54805V12.8395C36.5629 12.8505 36.5602 12.8614 36.5549 12.8712L35.5293 12.8724C35.6559 13.2745 35.6365 13.7073 35.4744 14.097H36.5718C36.7911 14.0948 37.0058 14.0353 37.1937 13.9245C37.3816 13.8137 37.5359 13.6556 37.6407 13.4667L37.8194 13.5338C38.0467 13.6151 38.6978 13.9461 38.75 14.3945V22.9841Z" fill="black"/>
<path d="M33.7371 6.43536C33.3113 6.43076 32.8965 6.56815 32.5608 6.82502C32.225 7.08188 31.9882 7.44297 31.8891 7.84912C31.8541 8.00791 31.8848 8.17385 31.9745 8.31046C32.0641 8.44708 32.2054 8.5432 32.3673 8.5777C32.5292 8.61221 32.6985 8.58227 32.8379 8.49448C32.9773 8.40668 33.0754 8.26821 33.1108 8.10948C33.1482 7.97635 33.2305 7.85957 33.3442 7.77817C33.4579 7.69676 33.5964 7.65552 33.7371 7.66117C33.8964 7.65236 34.0527 7.70555 34.1721 7.80917C34.2916 7.9128 34.3645 8.05848 34.3749 8.21453C34.3734 8.30574 34.348 8.39504 34.3012 8.47389C34.2545 8.55274 34.1878 8.61851 34.1078 8.66492C33.8615 8.81815 33.1121 9.2853 33.1121 10.0733V10.7257C33.1121 10.8882 33.178 11.0441 33.2952 11.1591C33.4124 11.274 33.5714 11.3386 33.7371 11.3386C33.9029 11.3386 34.0619 11.274 34.1791 11.1591C34.2963 11.0441 34.3621 10.8882 34.3621 10.7257V10.0733C34.3623 10.0721 34.3884 9.94221 34.7789 9.69889C35.0363 9.54172 35.2489 9.32315 35.3969 9.06358C35.5448 8.80401 35.6233 8.5119 35.6249 8.21453C35.6144 7.73335 35.4098 7.27587 35.056 6.94237C34.7021 6.60887 34.2278 6.42655 33.7371 6.43536Z" fill="black"/>
<path d="M33.75 14.0969C34.0952 14.0969 34.375 13.8225 34.375 13.484C34.375 13.1455 34.0952 12.8711 33.75 12.8711C33.4048 12.8711 33.125 13.1455 33.125 13.484C33.125 13.8225 33.4048 14.0969 33.75 14.0969Z" fill="black"/>
</g>
<defs>
<clipPath id="clip0_533_3633">
<rect width="40" height="38" fill="white"/>
</clipPath>
</defs>
</svg>
