<svg width="42" height="48" viewBox="0 0 42 48" fill="none" xmlns="http://www.w3.org/2000/svg">
<path d="M36.4519 25.0903C36.2369 25.2478 36.1943 25.5488 36.3527 25.7627C40.4607 31.2693 42.023 35.5534 40.4299 36.9378C40.0281 37.2858 39.4254 37.4598 38.6478 37.4598C36.5796 37.4598 33.2729 36.2372 29.2526 33.8859C30.0326 31.958 31.1435 30.5848 32.304 29.1576C33.5426 27.6341 34.8213 26.0587 35.684 23.7474C36.646 21.1681 36.9556 18.516 36.6011 15.8636C36.5325 15.3557 36.4332 14.8549 36.3174 14.3565C36.8563 13.6676 37.3763 12.9834 37.8538 12.3109C39.7636 9.62111 42.0327 5.84038 41.9996 3.11552C41.9878 2.13038 41.6735 1.36384 41.066 0.837167C40.1654 0.051852 38.7047 -0.122161 36.7263 0.315194C35.2845 0.63496 33.5992 1.27211 31.7036 2.20556L32.5427 0.745442C32.6751 0.515024 32.5947 0.221122 32.3631 0.0894773C32.1314 -0.042191 31.836 0.0377506 31.7036 0.268173L30.0491 3.14134C30.042 3.1531 30.0443 3.16956 30.0373 3.18131C30.016 3.22834 30.0018 3.27536 29.9971 3.32474C29.9947 3.34825 29.99 3.36706 29.99 3.39057C29.9923 3.44935 30.0042 3.50578 30.0278 3.55986C30.0325 3.57162 30.0302 3.58337 30.0349 3.59513C30.0349 3.59748 30.0373 3.59748 30.0396 3.59983C30.042 3.60218 30.0396 3.60453 30.042 3.60924C30.0774 3.67272 30.1247 3.72209 30.1814 3.76442C30.1956 3.77382 30.2122 3.77852 30.2287 3.78793C30.276 3.81614 30.3256 3.83495 30.38 3.84436C30.3918 3.84671 30.3989 3.85376 30.4107 3.85611L33.8923 4.26523C33.9112 4.26758 33.9302 4.26758 33.9491 4.26758C34.1902 4.26758 34.3982 4.08888 34.4265 3.84436C34.4572 3.58102 34.2682 3.34355 34.0034 3.31063L32.0818 3.08492C36.1448 1.08404 39.2152 0.505602 40.4254 1.5566C40.8177 1.89753 41.021 2.4242 41.0281 3.12488C41.0517 5.05052 39.643 8.11419 37.0595 11.7539C36.7215 12.2288 36.367 12.7108 35.9983 13.1952C35.5114 11.6551 34.7952 10.1927 33.8687 8.87363C30.9 4.65085 26.1441 2.23152 20.8096 2.23152H20.7245C15.0424 2.25974 9.93941 4.98244 7.07007 9.51767C6.45318 10.4934 5.95683 11.5397 5.58101 12.6237C5.36591 12.3321 5.14373 12.0406 4.94046 11.7514C2.35703 8.11166 0.948256 5.04787 0.971915 3.12235C0.981369 2.42167 1.18464 1.895 1.57464 1.55407C2.77774 0.505421 5.82915 1.07677 9.86619 3.05651L7.94926 3.28222C7.68453 3.31279 7.49544 3.55261 7.52617 3.81595C7.55453 4.06048 7.76253 4.23917 8.00362 4.23917C8.02253 4.23917 8.04144 4.23917 8.06035 4.23682L11.542 3.8277C11.5538 3.82535 11.5609 3.8183 11.5727 3.81595C11.6271 3.80654 11.6767 3.78538 11.724 3.75952C11.7405 3.75011 11.7571 3.74541 11.7712 3.73601C11.8256 3.69603 11.8752 3.64666 11.9107 3.58083C11.9131 3.57847 11.9107 3.57612 11.9131 3.57377C11.9131 3.57142 11.9154 3.57142 11.9178 3.56907C11.9225 3.55731 11.9202 3.54556 11.9249 3.5338C11.9485 3.47737 11.9627 3.42094 11.9627 3.36451C11.9627 3.341 11.958 3.32219 11.9556 3.29868C11.9485 3.24695 11.9367 3.19993 11.9154 3.15525C11.9107 3.1435 11.9107 3.12704 11.9036 3.11528L10.2491 0.242115C10.1167 0.0116968 9.82124 -0.0682435 9.58963 0.0634187C9.35802 0.195081 9.27763 0.488989 9.40999 0.719383L10.2514 2.18185C8.3676 1.25779 6.68944 0.625364 5.25708 0.310263C3.28817 -0.122361 1.83215 0.0539807 0.934012 0.836936C0.326562 1.36596 0.0122175 2.13243 0.000357731 3.11529C-0.0327334 5.84033 2.23635 9.61895 4.14619 12.3107C4.48892 12.7951 4.84822 13.2818 5.22398 13.7755C4.98525 14.6948 4.83398 15.6353 4.77489 16.5829C4.60707 19.2468 5.13888 21.8896 6.35145 24.436C7.252 26.3241 8.40778 27.7278 9.52817 29.0821C10.7336 30.5422 11.8918 31.9482 12.7167 33.9044C8.71269 36.2439 5.4181 37.4594 3.35413 37.4594C2.57647 37.4594 1.9738 37.2878 1.57196 36.9375C0.0261413 35.5926 1.47742 31.4615 5.35849 26.1548C5.51449 25.9409 5.46722 25.6399 5.25213 25.4847C5.03704 25.3295 4.7345 25.3765 4.57849 25.5905C2.56469 28.3414 1.14412 30.8572 0.47047 32.8628C-0.285892 35.1176 -0.129893 36.7306 0.936106 37.6593C1.55535 38.2001 2.39449 38.4235 3.36118 38.4235C5.67045 38.4235 8.70298 37.1444 11.1802 35.8489C11.7947 35.5268 12.4211 35.1811 13.0593 34.8096C13.2034 35.2352 13.3311 35.689 13.4445 36.171C13.0545 36.613 12.8087 37.1867 12.8087 37.8215C12.8087 39.0301 13.6714 40.0411 14.8154 40.2832C14.4443 40.7206 14.2127 41.2801 14.2127 41.8962C14.2127 43.1212 15.0967 44.1416 16.2643 44.365C16.5621 46.7679 18.8194 48 21.0601 48C21.105 48 21.1476 48 21.1925 47.9977C23.2867 47.953 25.5108 46.7938 25.7142 44.365C26.8912 44.1487 27.7871 43.1259 27.7871 41.8938C27.7871 41.2778 27.5554 40.7206 27.1843 40.2809C28.3283 40.0411 29.1911 39.0301 29.1911 37.8192C29.1911 37.1867 28.9476 36.6154 28.56 36.1733C28.664 35.6843 28.7845 35.2258 28.9216 34.7955C29.5645 35.1693 30.198 35.5196 30.8196 35.8441C33.2967 37.1396 36.3292 38.4187 38.6386 38.4187C39.6053 38.4187 40.4444 38.1953 41.0636 37.6546C43.1318 35.8559 41.6971 31.311 37.1258 25.1836C36.9675 24.9696 36.6649 24.9273 36.4498 25.0848L36.4519 25.0903ZM34.7785 23.4138C33.9725 25.577 32.7954 27.0229 31.5522 28.5536C30.4176 29.9502 29.2571 31.3845 28.418 33.3806C26.3545 32.1251 24.1209 30.5851 21.7808 28.7723C23.4826 27.418 25.1915 25.9626 26.872 24.4249C30.1693 21.4106 33.1099 18.3233 35.5303 15.3492C35.9959 17.9943 35.7595 20.7805 34.7763 23.4118L34.7785 23.4138ZM7.88953 10.0333C10.5817 5.77761 15.3824 3.22207 20.7313 3.19619H20.8117C25.8274 3.19619 30.2947 5.4651 33.0811 9.42718C34.0951 10.8685 34.8208 12.4673 35.2604 14.139C32.7809 17.2614 29.7059 20.5271 26.2173 23.7178C24.4446 25.3402 22.6979 26.8214 21.0008 28.1663C19.3037 26.8214 17.557 25.3402 15.7843 23.7178C12.0781 20.3297 8.83783 16.8548 6.28496 13.5582C6.64895 12.3356 7.17843 11.1505 7.88748 10.0313L7.88953 10.0333ZM10.2791 28.4741C9.19658 27.1645 8.07862 25.8078 7.23004 24.0256C5.78115 20.9831 5.37931 17.7687 5.99384 14.7429C8.504 17.9029 11.6122 21.2038 15.1337 24.4253C16.8142 25.963 18.5232 27.4184 20.225 28.7727C17.8708 30.5949 15.6277 32.142 13.5551 33.4022C12.6735 31.3731 11.4633 29.9036 10.2814 28.4741H10.2791ZM21.1732 47.0371C19.4454 47.077 17.5805 46.2611 17.2495 44.4107H24.7375C24.5106 46.1695 22.8443 47.0018 21.1732 47.0371ZM25.2575 43.4515H16.7463C15.8836 43.4515 15.1816 42.7531 15.1816 41.895C15.1816 41.0368 15.8837 40.3385 16.7463 40.3385H25.2575C26.1203 40.3385 26.8222 41.0368 26.8222 41.895C26.8222 42.7531 26.1202 43.4515 25.2575 43.4515ZM26.6615 39.3792H15.3445C14.4818 39.3792 13.7798 38.6808 13.7798 37.8227C13.7798 36.9645 14.4819 36.2662 15.3445 36.2662H26.6615C27.5243 36.2662 28.2262 36.9645 28.2262 37.8227C28.2262 38.6809 27.5242 39.3792 26.6615 39.3792ZM27.711 35.5396C27.3895 35.3939 27.0374 35.3045 26.6615 35.3045H15.3445C14.9687 35.3045 14.6142 35.3915 14.2903 35.5396C14.1769 35.107 14.0516 34.6956 13.9122 34.3052C16.1907 32.9274 18.5851 31.2628 21.0032 29.3841C23.4118 31.2581 25.799 32.918 28.0731 34.2934C27.9407 34.6861 27.8202 35.0999 27.7138 35.5372L27.711 35.5396ZM13.8793 16.8924C14.0282 17.412 14.2362 17.9105 14.4985 18.3807L14.1061 18.771C13.9005 18.9756 13.787 19.2484 13.787 19.5399C13.787 19.8314 13.9005 20.1042 14.1061 20.3087L15.3116 21.5078C15.5172 21.7124 15.7914 21.8252 16.0845 21.8252C16.3775 21.8252 16.6517 21.7124 16.8574 21.5078L17.2497 21.1175C17.7224 21.3809 18.2236 21.5854 18.7459 21.7335V22.2861C18.7459 22.8856 19.2376 23.3747 19.8403 23.3747H21.5445C22.1472 23.3747 22.6388 22.8856 22.6388 22.2861V21.7335C23.1612 21.5854 23.6623 21.3785 24.135 21.1175L24.5274 21.5078C24.7401 21.7194 25.0214 21.8252 25.3003 21.8252C25.5816 21.8252 25.8605 21.7194 26.0732 21.5078L27.2786 20.3087C27.7041 19.8855 27.7041 19.1942 27.2786 18.771L26.8863 18.3807C27.151 17.9104 27.3566 17.412 27.5055 16.8923H28.061C28.6637 16.8923 29.1553 16.4033 29.1553 15.8037V14.1085C29.1553 13.5089 28.6637 13.0199 28.061 13.0199H27.5055C27.3566 12.5003 27.1486 12.0018 26.8863 11.5315L27.2786 11.1412C27.7041 10.718 27.7041 10.0267 27.2786 9.60352L26.0732 8.40439C25.6477 7.98117 24.9528 7.98117 24.525 8.40439L24.1326 8.79469C23.6599 8.53136 23.1588 8.3268 22.6364 8.1787V7.62616C22.6364 7.0266 22.1448 6.53754 21.542 6.53754H19.8379C19.2351 6.53754 18.7435 7.02659 18.7435 7.62616V8.1787C18.2211 8.32682 17.7201 8.53373 17.2473 8.79469L16.8549 8.40439C16.6493 8.19984 16.3751 8.08698 16.0821 8.08698C15.789 8.08698 15.5148 8.19984 15.3092 8.40439L14.1037 9.60352C13.8981 9.80807 13.7846 10.0808 13.7846 10.3723C13.7846 10.6639 13.8981 10.9366 14.1037 11.1412L14.4961 11.5315C14.2314 12.0017 14.0257 12.5002 13.8768 13.0198H13.3214C12.7187 13.0198 12.227 13.5089 12.227 14.1084V15.8037C12.227 16.4032 12.7186 16.8923 13.3214 16.8923L13.8793 16.8924ZM13.1962 15.8061V14.1109C13.1962 14.0404 13.2553 13.9816 13.3262 13.9816H14.2503C14.3118 13.9816 14.3685 13.9675 14.4252 13.9463C14.4441 13.9393 14.4583 13.9275 14.4772 13.9181C14.5103 13.8993 14.5434 13.8805 14.5718 13.8546C14.5883 13.8405 14.6025 13.8217 14.6167 13.8052C14.6403 13.7794 14.6592 13.7488 14.6758 13.7183C14.6876 13.6971 14.6947 13.6759 14.7041 13.6524C14.7089 13.636 14.7183 13.6242 14.723 13.6077C14.8767 12.9329 15.1414 12.2934 15.5125 11.708C15.5196 11.6962 15.522 11.6821 15.5267 11.668C15.5409 11.6374 15.5527 11.6092 15.5621 11.5787C15.5692 11.5481 15.5763 11.5199 15.5787 11.4917C15.581 11.4611 15.5787 11.4305 15.5763 11.4C15.574 11.3694 15.5692 11.3412 15.5598 11.3106C15.5503 11.2824 15.5385 11.2565 15.5243 11.2283C15.5078 11.2001 15.4912 11.1719 15.47 11.1484C15.4605 11.1366 15.4558 11.1225 15.4463 11.1131L14.794 10.4642C14.7609 10.4313 14.7562 10.3937 14.7562 10.3725C14.7562 10.3514 14.7609 10.3137 14.794 10.2808L15.9994 9.08169C16.0325 9.04877 16.0703 9.04407 16.0916 9.04407C16.1129 9.04407 16.1507 9.04877 16.1838 9.08169L16.8361 9.73061C16.8598 9.75412 16.8881 9.76587 16.9141 9.78233C16.9331 9.79409 16.9496 9.81055 16.9709 9.81995C17.0371 9.85052 17.1056 9.87168 17.1789 9.87168C17.2332 9.87168 17.2876 9.85992 17.3396 9.84111C17.3538 9.83641 17.368 9.82936 17.3845 9.8223C17.401 9.8129 17.42 9.81055 17.4365 9.79879C18.0227 9.42965 18.6656 9.1663 19.3463 9.01348C19.3605 9.01113 19.3723 8.99937 19.3865 8.99702C19.4172 8.98761 19.4456 8.97351 19.4763 8.95705C19.5023 8.94294 19.5283 8.92648 19.5519 8.90767C19.5756 8.88651 19.5945 8.86535 19.6134 8.84184C19.6323 8.81832 19.6488 8.79481 19.6654 8.7666C19.6796 8.74073 19.689 8.71252 19.6985 8.6843C19.7079 8.65374 19.715 8.62317 19.7174 8.59025C19.7197 8.57615 19.7268 8.56439 19.7268 8.54793V7.62863C19.7268 7.55809 19.7859 7.50166 19.8568 7.50166H21.561C21.6319 7.50166 21.691 7.56044 21.691 7.62863V8.54793C21.691 8.56204 21.6981 8.57615 21.7005 8.59025C21.7028 8.62317 21.7099 8.65374 21.7194 8.6843C21.7288 8.71252 21.7383 8.74073 21.7525 8.7666C21.7666 8.79481 21.7832 8.81832 21.8045 8.84184C21.8234 8.86535 21.8423 8.88886 21.8659 8.90767C21.8895 8.92648 21.9132 8.94294 21.9415 8.95705C21.9699 8.97351 21.9983 8.98526 22.029 8.99702C22.0432 9.00172 22.0526 9.01113 22.0692 9.01348C22.7499 9.16631 23.3905 9.42965 23.979 9.79879C23.9955 9.8082 24.0144 9.8129 24.031 9.8223C24.0451 9.82936 24.0593 9.83641 24.0759 9.84111C24.1279 9.85992 24.1822 9.87168 24.2366 9.87168C24.3075 9.87168 24.3784 9.85052 24.4446 9.81995C24.4659 9.81055 24.4824 9.79644 24.5013 9.78233C24.5273 9.76587 24.5557 9.75412 24.5793 9.73061L25.2317 9.08169C25.2813 9.03231 25.364 9.03231 25.4137 9.08169L26.6191 10.2808C26.6688 10.3302 26.6688 10.4125 26.6191 10.4619L25.9668 11.1108C25.9573 11.1202 25.9526 11.1343 25.9431 11.146C25.9219 11.1719 25.9053 11.1978 25.8888 11.226C25.8746 11.2519 25.8604 11.2801 25.8533 11.3083C25.8439 11.3388 25.8391 11.3671 25.8368 11.3976C25.8344 11.4282 25.8321 11.4564 25.8344 11.4893C25.8368 11.5199 25.8439 11.5481 25.851 11.5763C25.8604 11.6069 25.8699 11.6374 25.8864 11.668C25.8935 11.6798 25.8935 11.6962 25.9006 11.708C26.2717 12.2911 26.5364 12.9306 26.6901 13.6077C26.6948 13.6242 26.7042 13.636 26.709 13.6524C26.7161 13.6759 26.7255 13.6971 26.7373 13.7182C26.7539 13.7512 26.7728 13.7794 26.7964 13.8052C26.8106 13.8217 26.8248 13.8382 26.8413 13.8546C26.8697 13.8805 26.9028 13.8993 26.9359 13.9181C26.9524 13.9275 26.969 13.9393 26.9879 13.9463C27.0422 13.9675 27.1013 13.9816 27.1628 13.9816H28.0869C28.1579 13.9816 28.2169 14.0404 28.2169 14.1109V15.8061C28.2169 15.8767 28.1578 15.9354 28.0869 15.9354H27.1628C27.1486 15.9354 27.1368 15.9425 27.1202 15.9448C27.0871 15.9472 27.0564 15.9543 27.0233 15.9637C26.995 15.9731 26.9666 15.9825 26.9406 15.9966C26.9122 16.0107 26.8886 16.0295 26.8626 16.0483C26.839 16.0671 26.8177 16.0859 26.7964 16.1094C26.7775 16.1329 26.761 16.1565 26.7468 16.1847C26.7302 16.2129 26.7184 16.2411 26.7066 16.2717C26.7019 16.2858 26.6924 16.2952 26.6901 16.3116C26.5364 16.9864 26.2717 17.626 25.9006 18.2114C25.8935 18.2231 25.8911 18.2373 25.8864 18.2514C25.8722 18.2819 25.8604 18.3101 25.851 18.3431C25.8439 18.3736 25.8368 18.4018 25.8344 18.43C25.832 18.4606 25.8344 18.4912 25.8368 18.5217C25.8391 18.5523 25.8439 18.5805 25.8533 18.6111C25.8628 18.6393 25.8746 18.6652 25.8888 18.6934C25.9053 18.7216 25.9219 18.7475 25.9431 18.7733C25.9526 18.7851 25.9573 18.7992 25.9668 18.8086L26.6191 19.4575C26.6688 19.5069 26.6688 19.5892 26.6191 19.6386L25.4137 20.8377C25.364 20.8871 25.2813 20.8871 25.2317 20.8377L24.5793 20.1888C24.5699 20.1794 24.5557 20.1747 24.5439 20.1653C24.5179 20.1441 24.4919 20.1276 24.4635 20.1112C24.4375 20.0971 24.4115 20.0853 24.3831 20.0759C24.3524 20.0665 24.324 20.0618 24.2933 20.0595C24.2626 20.0571 24.2342 20.0548 24.2035 20.0571C24.1728 20.0595 24.1444 20.0665 24.1137 20.0736C24.0829 20.083 24.0522 20.0924 24.0239 20.1088C24.0097 20.1159 23.9955 20.1159 23.9837 20.1229C23.3975 20.4921 22.7546 20.7554 22.0739 20.9082C22.0597 20.9106 22.0479 20.9224 22.0361 20.9247C22.0053 20.9341 21.9746 20.9482 21.9463 20.9647C21.9203 20.9788 21.8943 20.9952 21.8706 21.0141C21.847 21.0329 21.8281 21.0564 21.8092 21.0799C21.7903 21.1034 21.7713 21.1269 21.7572 21.1551C21.743 21.181 21.7335 21.2092 21.7241 21.2374C21.7146 21.268 21.7075 21.2986 21.7052 21.3315C21.7028 21.3456 21.6957 21.3573 21.6957 21.3738V22.2931C21.6957 22.3636 21.6366 22.4224 21.5657 22.4224H19.8615C19.7906 22.4224 19.7315 22.3636 19.7315 22.2931V21.3738C19.7315 21.3597 19.7244 21.3456 19.7221 21.3315C19.7197 21.2986 19.7126 21.268 19.7032 21.2374C19.6937 21.2092 19.6843 21.181 19.6701 21.1551C19.6559 21.1269 19.6394 21.1034 19.6181 21.0799C19.5992 21.0564 19.5803 21.0329 19.5543 21.0141C19.5306 20.9952 19.507 20.9788 19.481 20.9647C19.4526 20.9482 19.4243 20.9341 19.3912 20.9247C19.377 20.92 19.3675 20.9106 19.3534 20.9082C18.675 20.7554 18.0321 20.4921 17.4436 20.1229C17.4318 20.1159 17.4176 20.1135 17.4034 20.1088C17.3727 20.0947 17.3443 20.083 17.3136 20.0736C17.2828 20.0665 17.2545 20.0595 17.2261 20.0571C17.1954 20.0548 17.1647 20.0571 17.1339 20.0595C17.1032 20.0618 17.0748 20.0665 17.0441 20.0759C17.0158 20.0853 16.9898 20.0971 16.9614 20.1112C16.933 20.1276 16.9047 20.1441 16.881 20.1653C16.8692 20.1747 16.855 20.1794 16.8456 20.1888L16.1932 20.8377C16.1601 20.8706 16.1223 20.8753 16.101 20.8753C16.0798 20.8753 16.042 20.8706 16.0089 20.8377L14.8034 19.6386C14.7703 19.6056 14.7656 19.568 14.7656 19.5469C14.7656 19.5257 14.7703 19.4881 14.8034 19.4552L15.4558 18.8062C15.4652 18.7968 15.4699 18.7827 15.4794 18.771C15.5007 18.7451 15.5172 18.7193 15.5338 18.691C15.5479 18.6652 15.5598 18.637 15.5692 18.6087C15.5787 18.5782 15.5834 18.55 15.5858 18.5194C15.5881 18.4888 15.5905 18.4583 15.5881 18.4277C15.5858 18.3971 15.5787 18.3689 15.5716 18.3407C15.5621 18.3101 15.5527 18.2796 15.5361 18.249C15.529 18.2373 15.529 18.2208 15.5219 18.209C15.1508 17.6236 14.8861 16.9864 14.7325 16.3093C14.7301 16.2952 14.7183 16.2834 14.7159 16.2717C14.7065 16.2411 14.6923 16.2129 14.6758 16.1847C14.6616 16.1588 14.645 16.1329 14.6261 16.1094C14.6072 16.0859 14.5836 16.0671 14.5599 16.0483C14.5363 16.0295 14.5103 16.0107 14.4843 15.9966C14.4583 15.9825 14.4299 15.9731 14.4016 15.9637C14.3708 15.9543 14.3401 15.9472 14.3047 15.9449C14.2905 15.9425 14.2787 15.9354 14.2621 15.9354H13.338C13.267 15.9354 13.208 15.8767 13.208 15.8061L13.1962 15.8061ZM20.6963 19.0767C21.7575 19.0767 22.8188 18.6746 23.6248 17.8729C25.2391 16.267 25.2391 13.6524 23.6248 12.0465C22.8424 11.2683 21.8024 10.8404 20.6963 10.8404C19.5901 10.8404 18.5501 11.2683 17.7677 12.0465C16.9854 12.8248 16.5552 13.8593 16.5552 14.9597C16.5552 16.06 16.9854 17.0946 17.7677 17.8728C18.5761 18.6769 19.635 19.0767 20.6963 19.0767ZM18.4485 12.7235C19.0488 12.1263 19.8454 11.7971 20.6939 11.7971C21.5424 11.7971 22.3414 12.1263 22.9393 12.7235C24.1779 13.9555 24.1779 15.9611 22.9393 17.1932C21.7008 18.4252 19.6846 18.4252 18.446 17.1932C17.8457 16.596 17.5148 15.8036 17.5148 14.9595C17.5148 14.1155 17.8457 13.3207 18.446 12.7259L18.4485 12.7235Z" fill="black"/>
</svg>
