<svg width="35" height="36" viewBox="0 0 35 36" fill="none" xmlns="http://www.w3.org/2000/svg">
<path d="M33.7305 6.16208L28.788 1.26063C27.8328 0.313325 26.5141 -0.134443 25.1726 0.0353112C23.831 0.205049 22.6688 0.963209 21.9809 2.11905L19.3142 6.60335C18.491 6.21053 17.4706 6.35116 16.7892 7.02686C16.3719 7.4407 16.1421 7.99192 16.1421 8.57713C16.1421 9.16233 16.3719 9.71355 16.7892 10.1274L19.1397 12.4584L0.571824 30.8724C-0.575735 32.0104 0.351768 33.9664 0.392516 34.0489C0.449569 34.1685 0.54737 34.2655 0.667997 34.3221C0.720159 34.3463 1.49933 34.7117 2.35837 34.7117C2.88162 34.7117 3.43583 34.5759 3.86944 34.1442L5.6348 32.3935C5.72608 34.3964 7.39691 36 9.43935 36C11.5405 36 13.2488 34.3058 13.2488 32.2222C13.2488 30.3906 11.9676 28.3748 10.9798 27.0927L22.4374 15.7301L24.7879 18.0611C25.2199 18.4895 25.7855 18.7029 26.3512 18.7029C26.9168 18.7029 27.484 18.4895 27.9144 18.0611C28.5957 17.3854 28.7376 16.3734 28.3414 15.5571L32.8632 12.9124C34.0271 12.2319 34.7932 11.0777 34.9644 9.74727C35.1356 8.41688 34.684 7.11069 33.7288 6.16177L33.7305 6.16208ZM8.54594 24.6166L10.7384 25.6819L10.2331 26.183C10.0277 25.9502 9.89075 25.8079 9.86467 25.7805C9.75382 25.6657 9.6006 25.601 9.43923 25.601H9.4376C9.27623 25.601 9.123 25.6673 9.01217 25.7821C8.97305 25.8225 8.68942 26.1199 8.30311 26.5919L7.12784 26.0213L8.54434 24.6166L8.54594 24.6166ZM3.03807 33.3182C2.64686 33.7062 1.81878 33.5122 1.37378 33.349C1.20914 32.906 1.01354 32.0864 1.40475 31.6985L2.1888 30.9209L3.82214 32.5407L3.03807 33.3182ZM5.9966 30.3907L5.99498 30.3891L4.65671 31.7163L3.02338 30.0965L3.95578 29.1718L6.06996 30.1999C6.04551 30.263 6.02105 30.3277 5.9966 30.3907ZM6.5655 29.1395L4.8344 28.2973L6.2509 26.8925L7.57777 27.5375C7.23546 28.0128 6.87847 28.5575 6.56713 29.1395H6.5655ZM12.0734 32.2222C12.0734 33.661 10.8932 34.833 9.44083 34.833C7.99006 34.833 6.80828 33.6626 6.80828 32.2222C6.80828 30.3632 8.60135 28.0483 9.44083 27.0655C10.2819 28.0435 12.0717 30.3438 12.0717 32.2222H12.0734ZM11.6186 24.8105L9.42618 23.7452L10.8427 22.3404L13.0351 23.4057L11.6186 24.8105ZM13.9153 22.5328L11.7229 21.4675L13.0286 20.1727L14.6619 21.7924L13.9153 22.5328ZM15.4949 20.9664L13.8616 19.3466L19.9741 13.2847L21.6074 14.9045L15.4949 20.9664ZM27.0844 17.2354C26.6818 17.6347 26.0248 17.6347 25.6222 17.2354L17.6235 9.30303C17.4279 9.10905 17.3204 8.85204 17.3204 8.57721C17.3204 8.3024 17.4279 8.04535 17.6235 7.85139C17.8257 7.65094 18.0897 7.55071 18.3554 7.55071C18.6195 7.55071 18.8852 7.65094 19.0873 7.84977L27.086 15.7821C27.4886 16.1814 27.4886 16.8329 27.086 17.2322L27.0844 17.2354ZM33.7987 9.60058C33.6748 10.5689 33.1173 11.4095 32.268 11.9058L27.5947 14.6393L20.2416 7.34717L22.998 2.71265C23.4985 1.87041 24.3461 1.31757 25.3225 1.19471C26.3006 1.07185 27.2606 1.39677 27.9567 2.08867L32.8991 6.99012C33.5951 7.68039 33.9244 8.63254 33.8005 9.60244L33.7987 9.60058ZM26.9571 4.95157C25.2749 4.95157 23.9057 6.30944 23.9057 7.97773C23.9057 9.64602 25.2749 11.0039 26.9571 11.0039C28.6394 11.0039 30.0086 9.64602 30.0086 7.97773C30.0086 6.30944 28.6394 4.95157 26.9571 4.95157ZM26.9571 9.83688C25.9237 9.83688 25.0826 9.00275 25.0826 7.97785C25.0826 6.95295 25.9237 6.11883 26.9571 6.11883C27.9906 6.11883 28.8317 6.95295 28.8317 7.97785C28.8317 9.00275 27.9906 9.83688 26.9571 9.83688Z" fill="black"/>
</svg>
