<svg width="25" height="41" viewBox="0 0 25 41" fill="none" xmlns="http://www.w3.org/2000/svg">
<path d="M12.5001 37.1712C12.3195 37.1712 12.1505 37.0819 12.0476 36.9323C12.0185 36.8877 9.01428 32.4736 6.04916 27.3103C2.03518 20.3175 0 15.3343 0 12.5011C0 8.0346 2.38277 3.90806 6.24901 1.67493C10.1173 -0.558309 14.8828 -0.558309 18.751 1.67493C22.6174 3.90816 25 8.0348 25 12.5011C25 15.3344 22.9648 20.3195 18.9508 27.3103C15.9855 32.474 12.9812 36.8881 12.9524 36.9323C12.8495 37.0819 12.6807 37.1712 12.5001 37.1712ZM12.5001 1.09401C6.21031 1.09401 1.09328 6.21103 1.09328 12.5008C1.09328 18.1403 10.3291 32.3748 12.5001 35.645C14.6712 32.3787 23.9069 18.1443 23.9069 12.5028C23.9069 6.21103 18.7899 1.09401 12.5001 1.09401Z" fill="black"/>
<path d="M12.4995 21.166C7.80002 21.166 3.97461 17.3423 3.97461 12.6411C3.97461 7.9416 7.80022 4.11768 12.4995 4.11768C17.1988 4.11768 21.0244 7.94135 21.0244 12.6411C21.0244 17.3425 17.1988 21.166 12.4995 21.166ZM12.4995 5.21088C8.40201 5.21088 5.0698 8.5413 5.0698 12.6406C5.0698 16.742 8.40216 20.0723 12.4995 20.0723C16.5969 20.0723 19.9292 16.7419 19.9292 12.6426C19.9292 8.54314 16.5969 5.21287 12.4995 5.21287V5.21088Z" fill="black"/>
<path d="M12.4997 16.6917C10.8607 16.6917 9.38488 15.7052 8.75764 14.1924C8.1304 12.6796 8.478 10.9358 9.63538 9.77839C10.7947 8.61907 12.5366 8.27341 14.0494 8.90064C15.5622 9.52788 16.5506 11.0038 16.5506 12.6427C16.5467 14.8779 14.7349 16.6897 12.4997 16.6917ZM12.4997 9.68697C11.3035 9.68697 10.2257 10.4074 9.76742 11.5105C9.31107 12.6155 9.56352 13.8874 10.4102 14.7341C11.255 15.5788 12.5269 15.8313 13.6319 15.373C14.7369 14.9167 15.4573 13.8389 15.4554 12.6426C15.4535 11.0094 14.1309 9.68697 12.4997 9.68697Z" fill="black"/>
<path d="M12.5011 40.8647C9.44261 40.8647 6.56086 40.2181 4.38389 39.0413C2.10015 37.8081 0.841797 36.1303 0.841797 34.3185C0.841797 31.7473 3.38768 29.4791 7.48901 28.3976L7.48707 28.3956C7.62883 28.3568 7.77836 28.3762 7.90653 28.448C8.03275 28.5218 8.12597 28.6422 8.16286 28.784C8.2017 28.9258 8.18034 29.0753 8.10461 29.2015C8.03081 29.3277 7.90847 29.419 7.76671 29.454C4.22461 30.388 1.93529 32.2989 1.93529 34.3186C1.93529 35.7109 2.98977 37.047 4.90454 38.0801C6.92416 39.1715 9.62346 39.7696 12.5033 39.7696C15.3832 39.7696 18.0826 39.1695 20.102 38.0801C22.0168 37.047 23.0713 35.7109 23.0713 34.3186C23.0713 32.2989 20.7836 30.392 17.2398 29.454H17.236C17.0942 29.419 16.9719 29.3277 16.8981 29.2015C16.8223 29.0753 16.801 28.9258 16.8398 28.784C16.8767 28.6422 16.9699 28.5218 17.0961 28.448C17.2243 28.3762 17.3738 28.3568 17.5156 28.3956C21.615 29.4773 24.1628 31.7455 24.1628 34.3165C24.1628 36.1303 22.9045 37.8081 20.6207 39.0393C18.4419 40.2181 15.5595 40.8647 12.5011 40.8647Z" fill="black"/>
</svg>
