<svg width="25" height="25" viewBox="0 0 25 25" fill="none" xmlns="http://www.w3.org/2000/svg">
<path d="M15.4782 7.87766C14.3411 7.78634 13.1538 8.296 12.4998 9.05902C11.8458 8.29305 10.6585 7.78634 9.52136 7.87472C7.96586 7.99845 6.93181 9.17686 6.75799 11.0299C6.43393 14.4827 11.1034 17.8942 12.3731 18.2418C12.4144 18.2536 12.4556 18.2595 12.4969 18.2595C12.5381 18.2595 12.5793 18.2536 12.6206 18.2418C13.8903 17.8942 18.5627 14.4827 18.2357 11.0299C18.0648 9.17981 17.0337 7.99845 15.4782 7.87766ZM12.4998 17.2932C11.2301 16.81 7.44736 13.7491 7.69483 11.1183C7.8274 9.71893 8.50204 8.89994 9.59501 8.81155C9.65394 8.80566 9.7158 8.80566 9.77472 8.80566C10.7734 8.80566 11.8605 9.42728 12.0432 10.1343C12.0962 10.3405 12.2847 10.4878 12.4969 10.4878C12.709 10.4878 12.8975 10.3435 12.9505 10.1343C13.142 9.38603 14.3529 8.72907 15.3987 8.81155C16.4917 8.89699 17.1693 9.71599 17.2989 11.1183C17.5522 13.752 13.7695 16.813 12.4998 17.2932Z" fill="black"/>
<path d="M0.939783 12.5C0.939783 6.12479 6.12479 0.939783 12.5 0.939783C15.7524 0.939783 18.8575 2.33031 21.0346 4.7107L18.1151 4.0449C17.8618 3.98598 17.6114 4.14506 17.5524 4.39842C17.4935 4.65178 17.6526 4.90219 17.906 4.96111L22.3368 5.9716C22.3721 5.98044 22.4075 5.98338 22.4399 5.98338C22.5695 5.98338 22.6933 5.93036 22.7846 5.83314C22.8995 5.7094 22.9378 5.53559 22.8877 5.3765L21.5473 1.03406C21.4707 0.78659 21.2085 0.648126 20.961 0.724723C20.7135 0.80132 20.5751 1.06352 20.6517 1.31098L21.4029 3.73851C19.0696 1.37285 15.8585 0 12.5 0C5.60924 0 0 5.60924 0 12.5C0 14.0909 0.294603 15.6405 0.87497 17.1046C0.948621 17.2873 1.12538 17.4022 1.31098 17.4022C1.3699 17.4022 1.42588 17.3904 1.4848 17.3698C1.72637 17.2755 1.84421 17.0015 1.74699 16.76C1.21376 15.4048 0.939783 13.9701 0.939783 12.5Z" fill="black"/>
<path d="M24.1223 7.89534C24.0251 7.65376 23.7541 7.53592 23.5125 7.63314C23.2709 7.72742 23.1531 8.0014 23.2503 8.24297C23.7865 9.59814 24.0605 11.0299 24.0605 12.5C24.0605 18.8752 18.8755 24.0602 12.5002 24.0602C9.24783 24.0602 6.14272 22.6697 3.9656 20.2893L6.88512 20.9551C7.13848 21.014 7.38889 20.8549 7.44781 20.6016C7.50673 20.3482 7.34764 20.0978 7.09429 20.0389L2.66346 19.0284C2.49848 18.9901 2.32761 19.0431 2.21566 19.1668C2.10077 19.2906 2.06247 19.4644 2.11255 19.6235L3.45299 23.9659C3.51486 24.1663 3.70046 24.2959 3.90079 24.2959C3.94793 24.2959 3.99212 24.29 4.03925 24.2753C4.28672 24.1987 4.42518 23.9365 4.34859 23.689L3.59735 21.2615C5.9306 23.6242 9.14178 25 12.5002 25C19.391 25 25.0002 19.3937 25.0002 12.5C25.0002 10.9091 24.7027 9.36246 24.1223 7.89534Z" fill="black"/>
</svg>
