<svg width="251" height="271" viewBox="0 0 251 271" fill="none" xmlns="http://www.w3.org/2000/svg">
<path fill-rule="evenodd" clip-rule="evenodd" d="M126.437 5.42131L111.047 20.8075L126.437 36.1907C126.745 36.4824 126.991 36.8327 127.162 37.2211C127.332 37.6095 127.423 38.028 127.428 38.452C127.434 38.876 127.355 39.2969 127.196 39.6899C127.036 40.0828 126.8 40.4399 126.5 40.7401C126.201 41.0402 125.844 41.2773 125.451 41.4375C125.059 41.5976 124.638 41.6775 124.214 41.6725C123.79 41.6675 123.371 41.5776 122.982 41.4082C122.593 41.2388 122.242 40.9932 121.95 40.6861L106.56 25.2939L91.1702 40.677C90.8776 40.9837 90.5266 41.2287 90.1378 41.3977C89.7491 41.5668 89.3305 41.6564 88.9066 41.6614C88.4827 41.6663 88.0621 41.5865 87.6695 41.4266C87.2769 41.2667 86.9202 41.03 86.6205 40.7303C86.3207 40.4306 86.0839 40.074 85.924 39.6815C85.7641 39.289 85.6842 38.8685 85.6892 38.4447C85.6942 38.021 85.7838 37.6024 85.9529 37.2138C86.122 36.8251 86.3671 36.4742 86.6738 36.1816L102.067 20.8075L86.6738 5.42131C86.3789 5.12613 86.1451 4.77579 85.9857 4.39028C85.8263 4.00477 85.7444 3.59164 85.7446 3.17448C85.7449 2.75732 85.8274 2.3443 85.9873 1.95901C86.1472 1.57371 86.3815 1.22368 86.6768 0.928903C86.972 0.634125 87.3224 0.400372 87.708 0.240991C88.0936 0.0816093 88.5069 -0.000278889 88.9241 7.13603e-07C89.3414 0.000280316 89.7545 0.0827223 90.1399 0.24262C90.5253 0.402518 90.8754 0.63674 91.1702 0.931913L106.56 16.3181L121.95 0.931913C122.547 0.347198 123.352 0.0218206 124.188 0.0264588C125.024 0.031097 125.824 0.365376 126.415 0.956685C127.007 1.54799 127.34 2.34857 127.344 3.18452C127.348 4.02046 127.022 4.82426 126.437 5.42131ZM189.189 184.232L204.576 168.843L189.189 153.46C188.894 153.165 188.66 152.815 188.5 152.43C188.34 152.045 188.258 151.633 188.258 151.216C188.257 150.799 188.339 150.386 188.498 150.001C188.658 149.616 188.891 149.265 189.186 148.97C189.481 148.675 189.831 148.441 190.216 148.282C190.601 148.122 191.014 148.039 191.431 148.039C191.848 148.039 192.261 148.121 192.646 148.28C193.031 148.439 193.381 148.673 193.676 148.967L209.066 164.351L224.456 148.967C225.054 148.383 225.858 148.058 226.695 148.063C227.531 148.069 228.331 148.403 228.922 148.995C229.512 149.587 229.846 150.388 229.849 151.224C229.853 152.06 229.526 152.863 228.941 153.46L213.557 168.843L228.941 184.232C229.536 184.827 229.87 185.633 229.87 186.474C229.871 187.315 229.537 188.122 228.942 188.717C228.347 189.312 227.541 189.646 226.699 189.647C225.858 189.647 225.051 189.313 224.456 188.719L209.066 173.332L193.676 188.719C193.385 189.027 193.035 189.273 192.646 189.444C192.257 189.614 191.839 189.705 191.414 189.711C190.99 189.717 190.569 189.638 190.176 189.478C189.783 189.319 189.426 189.082 189.126 188.782C188.825 188.482 188.589 188.125 188.429 187.732C188.269 187.339 188.19 186.918 188.196 186.494C188.202 186.07 188.293 185.651 188.463 185.262C188.634 184.874 188.881 184.524 189.189 184.232ZM134.039 189.483C134.038 187.21 134.712 184.987 135.975 183.096C137.238 181.205 139.033 179.731 141.134 178.861C143.235 177.99 145.547 177.762 147.778 178.205C150.008 178.648 152.058 179.742 153.666 181.349C155.275 182.957 156.37 185.005 156.815 187.235C157.259 189.465 157.032 191.776 156.162 193.877C155.292 195.978 153.819 197.774 151.928 199.037C150.038 200.301 147.815 200.976 145.54 200.976C142.492 200.972 139.57 199.76 137.414 197.606C135.258 195.452 134.044 192.531 134.039 189.483ZM163.391 189.483C163.391 185.953 162.345 182.501 160.383 179.566C158.422 176.63 155.633 174.342 152.371 172.99C149.109 171.639 145.519 171.285 142.055 171.974C138.592 172.663 135.41 174.363 132.913 176.859C130.416 179.355 128.716 182.536 128.027 185.999C127.338 189.462 127.692 193.051 129.044 196.312C130.395 199.574 132.684 202.362 135.621 204.323C138.557 206.284 142.009 207.33 145.54 207.33C150.273 207.323 154.809 205.441 158.156 202.095C161.502 198.75 163.384 194.214 163.391 189.483ZM79.9577 265.571L95.3444 250.185L79.9577 234.799C79.6628 234.504 79.429 234.153 79.2696 233.768C79.1102 233.382 79.0283 232.969 79.0285 232.552C79.0288 232.135 79.1113 231.722 79.2712 231.337C79.4311 230.951 79.6654 230.601 79.9607 230.306C80.2559 230.012 80.6063 229.778 80.9919 229.618C81.3775 229.459 81.7908 229.377 82.208 229.378C82.6253 229.378 83.0384 229.46 83.4238 229.62C83.8092 229.78 84.1593 230.014 84.4541 230.309L99.8409 245.699L115.231 230.318C115.526 230.024 115.876 229.79 116.261 229.63C116.646 229.471 117.059 229.389 117.476 229.389C117.893 229.389 118.306 229.471 118.691 229.63C119.076 229.79 119.426 230.024 119.721 230.318C120.016 230.613 120.25 230.963 120.409 231.348C120.569 231.733 120.651 232.146 120.651 232.563C120.651 232.98 120.569 233.393 120.409 233.778C120.25 234.163 120.016 234.513 119.721 234.808L104.331 250.194L119.721 265.58C120.164 266.024 120.466 266.59 120.588 267.205C120.71 267.821 120.647 268.458 120.407 269.038C120.167 269.618 119.761 270.114 119.24 270.463C118.718 270.812 118.105 270.999 117.477 271C117.06 271.002 116.646 270.92 116.26 270.76C115.874 270.6 115.524 270.364 115.231 270.067L99.8409 254.68L84.4541 270.067C83.854 270.638 83.0544 270.952 82.226 270.942C81.3975 270.932 80.6057 270.599 80.0192 270.014C79.4328 269.429 79.0981 268.638 79.0866 267.81C79.0751 266.981 79.3877 266.181 79.9577 265.58V265.571ZM72.058 69.0165L56.6682 84.4057L72.058 99.7889C72.3532 100.084 72.5875 100.434 72.7474 100.819C72.9074 101.204 72.9898 101.617 72.9901 102.034C72.9904 102.452 72.9085 102.865 72.7491 103.25C72.5896 103.636 72.3558 103.986 72.061 104.281C71.7661 104.576 71.416 104.811 71.0306 104.971C70.6452 105.13 70.2321 105.213 69.8149 105.213C69.3976 105.213 68.9844 105.132 68.5988 104.972C68.2132 104.813 67.8628 104.579 67.5675 104.284L52.1777 88.8981L36.7909 104.284C36.4983 104.591 36.1473 104.836 35.7585 105.005C35.3698 105.174 34.9512 105.264 34.5273 105.269C34.1034 105.274 33.6828 105.194 33.2902 105.034C32.8976 104.874 32.541 104.637 32.2412 104.338C31.9414 104.038 31.7046 103.681 31.5447 103.289C31.3848 102.896 31.3049 102.476 31.3099 102.052C31.3149 101.628 31.4045 101.21 31.5736 100.821C31.7427 100.432 31.9878 100.081 32.2945 99.7889L47.6843 84.4057L32.2945 69.0225C31.9994 68.7274 31.7654 68.377 31.6058 67.9914C31.4462 67.6058 31.3642 67.1926 31.3643 66.7753C31.3644 66.358 31.4468 65.9448 31.6066 65.5593C31.7665 65.1738 32.0007 64.8236 32.296 64.5286C32.5912 64.2336 32.9417 63.9997 33.3274 63.8401C33.713 63.6806 34.1264 63.5985 34.5438 63.5987C34.9612 63.5988 35.3745 63.6811 35.76 63.8409C36.1456 64.0008 36.4959 64.2349 36.7909 64.5301L52.1777 79.9163L67.5675 64.5301C68.1647 63.945 68.9687 63.6191 69.8048 63.6232C70.641 63.6272 71.4417 63.961 72.0332 64.5519C72.6246 65.1428 72.959 65.9432 72.9636 66.7791C72.9683 67.6151 72.6428 68.4191 72.058 69.0165ZM22.9341 140.172C25.21 140.171 27.4354 140.844 29.3285 142.107C31.2217 143.369 32.6977 145.165 33.5698 147.267C34.4418 149.369 34.6708 151.682 34.2277 153.914C33.7845 156.146 32.6892 158.196 31.0803 159.805C29.4714 161.415 27.4212 162.511 25.1891 162.955C22.9569 163.399 20.6432 163.172 18.5405 162.301C16.4378 161.43 14.6407 159.955 13.3765 158.063C12.1123 156.171 11.4379 153.947 11.4384 151.671C11.4408 148.623 12.6526 145.701 14.8077 143.545C16.9629 141.389 19.8855 140.176 22.9341 140.172ZM22.9341 169.523C26.4654 169.525 29.918 168.48 32.8551 166.52C35.7921 164.56 38.0819 161.773 39.4346 158.512C40.7874 155.251 41.1424 151.662 40.4548 148.199C39.7672 144.736 38.0678 141.555 35.5716 139.057C33.0755 136.56 29.8946 134.859 26.4313 134.169C22.9681 133.479 19.378 133.832 16.1151 135.182C12.8523 136.532 10.0632 138.82 8.10071 141.755C6.13819 144.69 5.09038 148.141 5.08978 151.671C5.09615 156.402 6.97793 160.937 10.3228 164.282C13.6676 167.628 18.2026 169.515 22.9341 169.523ZM189.885 24.8211C200.601 24.8196 211.083 27.9558 220.037 33.8425C228.991 39.7291 236.024 48.1084 240.269 57.946C244.514 67.7835 245.784 78.6485 243.923 89.1995C242.061 99.7505 237.15 109.525 229.795 117.318C222.441 125.11 212.964 130.578 202.536 133.047C192.108 135.516 181.186 134.878 171.116 131.212C161.047 127.545 152.272 121.011 145.875 112.415C139.478 103.819 135.739 93.5389 135.12 82.843H202.609L173.215 108.783C172.903 109.059 172.648 109.395 172.465 109.77C172.282 110.146 172.175 110.553 172.15 110.97C172.099 111.811 172.385 112.638 172.944 113.269C173.503 113.9 174.29 114.283 175.132 114.334C175.973 114.385 176.8 114.099 177.431 113.54L213.111 82.0481C213.449 81.75 213.719 81.3835 213.905 80.9728C214.09 80.5622 214.186 80.1169 214.186 79.6664C214.186 79.2159 214.09 78.7706 213.905 78.3599C213.719 77.9493 213.449 77.5828 213.111 77.2847L177.419 45.7957C176.788 45.2367 175.959 44.9516 175.117 45.0029C174.275 45.0543 173.488 45.4381 172.929 46.0697C172.37 46.7014 172.085 47.5292 172.136 48.3712C172.187 49.2131 172.571 50.0001 173.203 50.5591L202.597 76.4898H135.12C135.947 62.5234 142.075 49.3993 152.253 39.7969C162.431 30.1946 175.891 24.8381 189.885 24.8211ZM5.70722e-06 206.381C-0.000785965 206.799 0.080792 207.213 0.240077 207.599C0.399362 207.985 0.633232 208.336 0.928315 208.632C1.2234 208.928 1.57391 209.163 1.95981 209.323C2.34572 209.484 2.75945 209.566 3.17735 209.567H56.1231C66.7497 209.554 76.9373 205.327 84.4507 197.814C91.964 190.301 96.1894 180.115 96.1998 169.49V116.557C96.2099 107.821 99.6087 99.4289 105.681 93.1467C111.754 86.8646 120.026 83.1818 128.759 82.8731C129.587 98.7938 136.602 113.762 148.308 124.587C160.014 135.412 175.486 141.239 191.427 140.825C207.367 140.411 222.516 133.789 233.644 122.37C244.772 110.952 251 95.6403 251 79.698C251 63.7558 244.772 48.4439 233.644 37.0255C222.516 25.6072 207.367 18.9854 191.427 18.5714C175.486 18.1573 160.014 23.9838 148.308 34.809C136.602 45.6342 129.587 60.6022 128.759 76.5229C118.342 76.8374 108.455 81.1931 101.194 88.6677C93.9318 96.1424 89.865 106.149 89.8541 116.569V169.49C89.8453 178.432 86.2887 187.004 79.9648 193.327C73.6409 199.649 65.0664 203.205 56.1231 203.213H3.17735C2.33647 203.214 1.53013 203.548 0.934693 204.142C0.339256 204.735 0.00319048 205.54 5.70722e-06 206.381Z" fill="url(#paint0_linear_644_11087)"/>
<defs>
<linearGradient id="paint0_linear_644_11087" x1="-12.5" y1="26" x2="251" y2="309" gradientUnits="userSpaceOnUse">
<stop stop-color="#C1C1C1"/>
<stop offset="1" stop-color="white"/>
</linearGradient>
</defs>
</svg>
