<svg width="40" height="40" viewBox="0 0 40 40" fill="none" xmlns="http://www.w3.org/2000/svg">
<path fill-rule="evenodd" clip-rule="evenodd" d="M24.5594 22.6112C24.1847 23.0527 23.8244 23.4781 23.8244 23.4781C24.0557 24.1662 24.2188 24.8777 24.3084 25.598L26.5186 26.5829C26.7821 26.699 26.9488 26.9636 26.9416 27.2514C26.9004 29.0656 26.4917 30.8531 25.7388 32.5063C25.6187 32.7673 25.3534 32.9335 25.0648 32.9246L22.6485 32.8566C22.2524 33.4662 21.797 34.0364 21.288 34.5565L21.8939 36.8909C21.9656 37.1716 21.8634 37.4647 21.634 37.6399C20.1856 38.7391 18.5293 39.5346 16.7638 39.9779C16.4824 40.0494 16.1884 39.9439 16.0145 39.7151C16.0145 39.7151 14.5608 37.7865 14.5626 37.7865C13.8366 37.8598 13.1052 37.8598 12.3811 37.7865L10.9273 39.7151C10.7534 39.9439 10.4595 40.0494 10.178 39.9779C8.41418 39.5346 6.75613 38.7392 5.30788 37.6399C5.07844 37.4647 4.97626 37.1716 5.04976 36.8909L5.65384 34.5565C5.14475 34.0364 4.68944 33.4662 4.29333 32.8566L1.87702 32.9246C1.58842 32.9335 1.32315 32.7673 1.20301 32.5063C0.45016 30.8529 0.0414763 29.0655 0.000222418 27.2514C-0.00694768 26.9636 0.159759 26.699 0.42505 26.5829L2.63344 25.598C2.72306 24.8777 2.88618 24.1662 3.11743 23.4781L1.55616 21.6352C1.36974 21.4154 1.33388 21.1062 1.46474 20.8487C2.2911 19.2329 3.43832 17.7975 4.83471 16.6357C5.05698 16.4498 5.3689 16.4158 5.62523 16.5499L7.77268 17.6563C8.3947 17.2774 9.05256 16.961 9.73726 16.7144L10.2087 14.3478C10.266 14.0653 10.4847 13.8437 10.768 13.7865C12.5515 13.4218 14.3906 13.4218 16.1741 13.7865C16.4573 13.8437 16.676 14.0653 16.7334 14.3478L17.2048 16.7126C17.6852 16.8877 18.1513 17.0933 18.6012 17.3328C18.655 16.7233 18.7159 16.0745 18.7787 15.4506C18.9776 13.1538 20.7289 11.293 23.0144 10.9498H23.0216C23.778 10.8426 24.5345 10.7568 25.2945 10.6889C24.1222 9.56814 23.3819 7.94512 23.3819 6.13444C23.3819 2.73469 25.99 0 29.1735 0C32.3552 0 34.9632 2.73483 34.9632 6.13444C34.9632 7.94155 34.2265 9.561 33.0578 10.6817C33.8268 10.7479 34.5994 10.8337 35.3702 10.9391H35.3809C37.652 11.2805 39.3997 13.1162 39.6274 15.3953C39.7583 16.7198 39.9017 18.1605 39.9895 19.0989C40.0827 20.0373 39.5485 20.9275 38.6756 21.2867C38.672 21.2885 38.6702 21.2903 38.6648 21.2921C34.3466 23.0027 29.3451 23.462 24.5594 22.6112ZM18.4649 18.904C17.807 18.4964 17.1008 18.1729 16.3623 17.9369C16.1131 17.8583 15.9285 17.651 15.8783 17.3953L15.4212 15.102C14.1306 14.8911 12.8113 14.8911 11.5207 15.102L11.0636 17.3953C11.0134 17.6509 10.8288 17.8583 10.5796 17.9369C9.7407 18.2051 8.94123 18.5876 8.20807 19.0756C7.99117 19.2203 7.71334 19.2364 7.48211 19.1167L5.39739 18.0424C4.42762 18.9183 3.60489 19.9442 2.96671 21.0828L4.47962 22.8685C4.64812 23.0669 4.69472 23.3422 4.60151 23.5853C4.28961 24.4057 4.09242 25.2673 4.01537 26.1431C3.99565 26.4023 3.83253 26.6293 3.59413 26.7348C3.59413 26.7348 1.45384 27.6892 1.45384 27.691C1.5345 28.9923 1.82848 30.2739 2.32141 31.4822L4.66604 31.4161C4.92775 31.4072 5.17155 31.543 5.30417 31.7664C5.7523 32.5225 6.3044 33.2125 6.94432 33.8185C7.13253 33.9972 7.2114 34.2635 7.14508 34.5155L6.55894 36.7802C7.63086 37.5292 8.81754 38.0994 10.0723 38.4676L11.483 36.5979C11.6407 36.3906 11.8953 36.2833 12.1552 36.3209C13.0281 36.4424 13.9136 36.4424 14.7866 36.3209C15.0447 36.2833 15.3028 36.3906 15.4588 36.5979L16.8695 38.4676C18.126 38.0994 19.3109 37.5292 20.3828 36.7802L19.7967 34.5155C19.7303 34.2635 19.8092 33.9972 19.9974 33.8185C20.6373 33.2125 21.1895 32.5226 21.6376 31.7664C21.772 31.543 22.0158 31.4072 22.2757 31.4161L24.6203 31.4822C25.1151 30.2721 25.4091 28.9923 25.4879 27.6892L23.3458 26.7348C23.1092 26.6293 22.9479 26.4023 22.9264 26.1431C22.8511 25.2672 22.6539 24.4057 22.3402 23.5853C22.247 23.3422 22.2936 23.0669 22.4621 22.8685C22.4621 22.8685 22.688 22.6039 22.9641 22.2768C23.405 21.7567 23.9768 21.0828 23.9768 21.0828C23.9679 21.0667 23.9589 21.0506 23.9499 21.0345C23.3136 19.9156 22.5016 18.9039 21.5444 18.0423L19.4614 19.1166C19.2302 19.2364 18.9506 19.2203 18.7337 19.0755C18.6458 19.0165 18.5545 18.9594 18.4649 18.904ZM27.4205 11.9829C26.0188 12.0419 24.6206 12.1688 23.2242 12.3637C21.5948 12.6103 20.3472 13.9402 20.2056 15.5793V15.59C20.1519 16.1227 20.0999 16.6732 20.0533 17.2005L21.3188 16.5498C21.5733 16.4158 21.8852 16.4497 22.1075 16.6356C23.5039 17.7975 24.6511 19.2328 25.4757 20.8487C25.5527 20.9988 25.5725 21.1668 25.5402 21.3241C29.8351 21.9605 34.2714 21.4922 38.1343 19.9621C38.4193 19.8405 38.595 19.5492 38.5627 19.24V19.2364C38.4749 18.2944 38.3315 16.8573 38.2006 15.5364C38.0393 13.9098 36.7917 12.5996 35.1713 12.3547C33.7552 12.1617 32.3408 12.0365 30.9319 11.9811C30.378 12.1688 29.7865 12.2707 29.1735 12.2707C28.564 12.2707 27.9744 12.1706 27.4205 11.9829ZM30.7062 10.5405C32.3607 9.8702 33.5294 8.1417 33.5294 6.1344C33.5294 3.54975 31.5917 1.42809 29.1736 1.42809C26.7537 1.42809 24.816 3.5498 24.816 6.1344C24.816 8.14349 25.9883 9.87377 27.6464 10.544C28.1196 10.7353 28.6358 10.8408 29.1736 10.8408C29.7132 10.8408 30.2295 10.7353 30.7062 10.5405ZM13.4783 20.1444C17.239 20.1444 20.2936 23.1884 20.2936 26.9405C20.2936 30.6905 17.2392 33.7366 13.4783 33.7366C9.71577 33.7366 6.6629 30.6908 6.6629 26.9405C6.6629 23.1886 9.71554 20.1444 13.4783 20.1444ZM13.4783 21.5725C10.508 21.5725 8.09554 23.9784 8.09554 26.9401C8.09554 29.9017 10.5083 32.3062 13.4783 32.3062C16.4483 32.3062 18.8596 29.9021 18.8596 26.9401C18.8596 23.978 16.4487 21.5725 13.4783 21.5725ZM10.6873 27.6036C10.4059 27.3247 10.4059 26.8707 10.6873 26.5919C10.967 26.313 11.4205 26.313 11.7001 26.5919L12.7111 27.6L15.2421 25.0779C15.5217 24.799 15.9753 24.799 16.2566 25.0779C16.5363 25.3567 16.5363 25.8108 16.2566 26.0896L13.2201 29.1175C12.9387 29.3964 12.4852 29.3964 12.2056 29.1175L10.6873 27.6036Z" fill="black"/>
</svg>
