<svg width="67" height="64" viewBox="0 0 67 64" fill="none" xmlns="http://www.w3.org/2000/svg">
<path d="M58.6152 1.22957L4.73573 18.3312C3.70501 18.6614 2.78221 19.2654 2.06484 20.0793C1.34746 20.8932 0.862166 21.8868 0.660231 22.955C0.458296 24.0232 0.547224 25.1265 0.917616 26.1481C1.28801 27.1697 1.92611 28.0718 2.76448 28.759L18.7171 41.6895C18.6658 42.078 18.6394 42.4696 18.6382 42.8615V60.3803C18.6382 61.2055 18.9644 61.997 19.545 62.5805C20.1256 63.1641 20.913 63.4919 21.7341 63.4919C22.5552 63.4919 23.3427 63.1641 23.9233 62.5805C24.5039 61.997 24.83 61.2055 24.83 60.3803V42.8866C24.8251 42.487 24.9107 42.0916 25.0804 41.7302C25.2501 41.3689 25.4994 41.0511 25.8094 40.801L46.5594 23.8454C46.6217 23.7995 46.6839 23.7453 46.7462 23.6952C47.0544 23.4252 47.3066 23.0968 47.4885 22.7287C47.6704 22.3607 47.7785 21.9603 47.8064 21.5503C47.8343 21.1403 47.7817 20.7288 47.6514 20.3393C47.5211 19.9498 47.3157 19.5899 47.0471 19.2801C46.7784 18.9703 46.4516 18.7168 46.0855 18.534C45.7193 18.3511 45.3209 18.2426 44.913 18.2145C44.5051 18.1864 44.0957 18.2394 43.7081 18.3703C43.3206 18.5013 42.9625 18.7076 42.6543 18.9777L21.9043 35.9333L21.7341 36.0793L6.97673 24.1165L60.0967 7.31941L44.2894 54.9745L34.3294 46.1526C34.0255 45.8627 33.6667 45.6372 33.2744 45.4895C32.8821 45.3418 32.4642 45.2749 32.0456 45.2928C31.627 45.3106 31.2163 45.4129 30.8379 45.5935C30.4594 45.7741 30.1209 46.0294 29.8426 46.3441C29.5643 46.6588 29.3517 47.0266 29.2177 47.4255C29.0836 47.8245 29.0307 48.2464 29.0621 48.6663C29.0935 49.0862 29.2086 49.4955 29.4005 49.8698C29.5925 50.2441 29.8573 50.5757 30.1794 50.8451L40.3759 59.8756C41.4739 60.8488 42.8876 61.3857 44.3516 61.3855C44.8857 61.3688 45.4155 61.2847 45.9286 61.1352C46.889 60.8777 47.7709 60.3847 48.4952 59.7004C49.2194 59.0161 49.7635 58.1619 50.0786 57.2144L66.135 8.90443C66.4844 7.84699 66.5365 6.71307 66.2853 5.62779C66.0342 4.54251 65.4897 3.54805 64.7118 2.75414C63.9339 1.96023 62.953 1.39773 61.8771 1.1287C60.8013 0.859674 59.6725 0.89458 58.6152 1.22957Z" fill="url(#paint0_linear_633_11059)"/>
<defs>
<linearGradient id="paint0_linear_633_11059" x1="33.4982" y1="0.949767" x2="-7.5" y2="70" gradientUnits="userSpaceOnUse">
<stop stop-color="#FF969F"/>
<stop offset="1" stop-color="white"/>
</linearGradient>
</defs>
</svg>
