<svg width="327" height="153" viewBox="0 0 327 153" fill="none" xmlns="http://www.w3.org/2000/svg">
<path d="M207.953 4.10793L321.071 149.329H225.524H87.3165H5.25715L83.1461 45.7751L138.926 98.3551C139.577 98.8658 140.378 99.1414 141.197 99.1414C141.344 99.1414 141.495 99.134 141.642 99.1156C142.612 98.998 143.494 98.4984 144.096 97.7267L207.953 4.10793ZM207.953 0C207.075 0 206.196 0.382132 205.598 1.15007L141.197 95.4633L84.8657 42.4498C84.3182 42.0199 83.6678 41.8104 83.0211 41.8104C82.1172 41.8104 81.2207 42.222 80.6328 43.0009L0.425376 149.642C-0.614465 151.023 0.37026 153 2.10088 153H87.3165H225.524H324.294C326.039 153 327.024 150.99 325.947 149.612L210.308 1.15374C209.709 0.385804 208.831 0 207.953 0Z" fill="url(#paint0_linear_665_11231)"/>
<defs>
<linearGradient id="paint0_linear_665_11231" x1="71" y1="53" x2="365" y2="218" gradientUnits="userSpaceOnUse">
<stop stop-color="#9747FF"/>
<stop offset="1" stop-color="white"/>
</linearGradient>
</defs>
</svg>
