<svg width="35" height="32" viewBox="0 0 35 32" fill="none" xmlns="http://www.w3.org/2000/svg">
<path d="M28.9764 6.69471V11.9948L27.0238 10.0422C26.7849 9.80331 26.4259 9.80331 26.187 10.0422C25.9481 10.2811 25.9481 10.6401 26.187 10.879L29.1752 13.8672C29.2954 13.9874 29.4541 14.026 29.6129 14.026C29.7716 14.026 29.9319 13.9859 30.0506 13.8672L33.0388 10.879C33.2777 10.6401 33.2777 10.2811 33.0388 10.0422C32.7999 9.80331 32.4409 9.80331 32.202 10.0422L30.2494 11.9948L30.2509 6.69471C30.2509 2.98834 27.2627 0 23.5562 0C19.8497 0 16.7814 2.98822 16.7814 6.69471V25.3053C16.7814 28.3336 14.311 30.8042 11.2825 30.8042C8.254 30.8042 5.7836 28.3338 5.7836 25.3053V20.124L7.73619 22.0766C7.8564 22.1968 8.01513 22.2353 8.17387 22.2353C8.33261 22.2353 8.49288 22.1952 8.61156 22.0766C8.85044 21.8377 8.85044 21.4786 8.61156 21.2397L5.62334 18.2515C5.38447 18.0126 5.0254 18.0126 4.78651 18.2515L1.7983 21.2397C1.55942 21.4786 1.55942 21.8377 1.7983 22.0766C2.03717 22.3154 2.39624 22.3154 2.63513 22.0766L4.58771 20.124V25.424C4.66785 29.0503 7.61602 32 11.2824 32C14.9888 32 17.9771 29.0118 17.9771 25.3053V6.69471C17.9771 3.66641 20.4475 1.19581 23.476 1.19581C26.5059 1.19581 28.9764 3.66621 28.9764 6.69471Z" fill="black"/>
<path d="M10.361 8.16948C10.361 11.0313 8.04166 13.3508 5.17973 13.3508C2.31942 13.3508 0 11.0314 0 8.16948C0 5.30916 2.31938 2.98975 5.17973 2.98975C8.04158 2.98975 10.361 5.30912 10.361 8.16948Z" fill="black"/>
<path d="M29.57 18.4116C26.7004 18.4116 24.3887 20.7233 24.3887 23.5929C24.3887 26.4625 26.7004 28.7742 29.57 28.7742C32.4395 28.7742 34.7513 26.4626 34.7513 23.5929C34.7497 20.7234 32.4396 18.4116 29.57 18.4116ZM32.3594 22.6761L28.972 25.9432C28.8518 26.0634 28.6931 26.1019 28.5729 26.1019C28.4142 26.1019 28.2539 26.0218 28.1352 25.9031L26.3413 24.0708C26.1025 23.8319 26.1025 23.4728 26.3413 23.2339C26.5802 22.9951 26.9393 22.9951 27.1782 23.2339L28.5729 24.6287L31.5226 21.7591C31.7615 21.5202 32.1206 21.5202 32.3594 21.7591C32.6384 22.0781 32.5983 22.4372 32.3594 22.6761Z" fill="black"/>
</svg>
