<svg width="56" height="56" viewBox="0 0 56 56" fill="none" xmlns="http://www.w3.org/2000/svg">
<path fill-rule="evenodd" clip-rule="evenodd" d="M28.0002 10.0534C37.9108 10.0534 45.9448 18.0877 45.9448 27.9988C45.9448 37.9098 37.9108 45.9441 28.0002 45.9441C18.0897 45.9441 10.0557 37.9098 10.0557 27.9988C10.0557 18.0877 18.0897 10.0534 28.0002 10.0534ZM28.5829 7.72527C28.5829 8.4943 27.4176 8.4943 27.4176 7.72527V2.29469L26.5357 3.44169C26.3388 3.69629 25.974 3.74353 25.7195 3.54668C25.4649 3.34982 25.4176 2.98498 25.6145 2.73041L27.5121 0.265754C27.764 -0.0885845 28.2364 -0.0885845 28.4884 0.265754L30.386 2.73041C30.5828 2.98501 30.5356 3.34985 30.281 3.54668C30.0264 3.74353 29.6616 3.69629 29.4648 3.44169L28.5829 2.29469V7.72527ZM9.59893 11.6676L9.41258 10.2345L13.2524 14.0745C13.7957 14.6178 14.6198 13.7937 14.0765 13.2503L10.2367 9.41035L11.6698 9.59671C12.4283 9.69645 12.5779 8.54157 11.8194 8.44447L8.73548 8.04288C8.30504 7.96939 7.9691 8.30535 8.04261 8.73578L8.44418 11.8198C8.54392 12.5784 9.69864 12.4262 9.59893 11.6676ZM3.44153 29.4632C3.69612 29.66 3.74336 30.0249 3.54652 30.2794C3.34967 30.534 2.98484 30.5813 2.73029 30.3844L0.265741 28.4867C-0.0885805 28.2348 -0.0885805 27.7623 0.265741 27.5104L2.73029 25.6127C2.98488 25.4158 3.3497 25.4631 3.54652 25.7177C3.74336 25.9723 3.69612 26.3371 3.44153 26.5339L2.29459 27.4159H7.72492C8.49391 27.4159 8.49391 28.5813 7.72492 28.5813H2.29459L3.44153 29.4632ZM11.6697 46.4006L10.2366 46.587L14.0764 42.747C14.6197 42.2037 13.7956 41.3795 13.2523 41.9228L9.41247 45.7628L9.59882 44.3297C9.69856 43.5711 8.54373 43.4215 8.44664 44.1801L8.04507 47.2641C7.97158 47.6946 8.30753 48.0305 8.73794 47.957L11.8218 47.5554C12.5804 47.4557 12.4282 46.3035 11.6697 46.4006ZM29.4644 52.5583C29.6612 52.3037 30.0261 52.2565 30.2806 52.4533C30.5352 52.6502 30.5824 53.015 30.3856 53.2696L28.488 55.7342C28.236 56.0886 27.7636 56.0886 27.5117 55.7342L25.6141 53.2696C25.4172 53.015 25.4645 52.6501 25.7191 52.4533C25.9736 52.2565 26.3385 52.3037 26.5353 52.5583L27.4172 53.7053V48.2721C27.4172 47.5031 28.5825 47.5031 28.5825 48.2721V53.7053L29.4644 52.5583ZM46.4011 44.3298L46.5874 45.7629L42.7476 41.9229C42.2043 41.3796 41.3802 42.2038 41.9235 42.7471L45.7633 46.5871L44.3302 46.4007C43.5717 46.301 43.4221 47.4559 44.1806 47.553L47.2645 47.9546C47.695 48.0281 48.0309 47.6921 47.9574 47.2617L47.5558 44.1776C47.4561 43.4191 46.304 43.5713 46.4011 44.3298ZM52.5585 26.5343C52.3039 26.3374 52.2566 25.9726 52.4535 25.718C52.6503 25.4634 53.0152 25.4162 53.2697 25.613L55.7343 27.5107C56.0886 27.7627 56.0886 28.2351 55.7343 28.4897L53.2697 30.3874C53.0151 30.5842 52.6503 30.537 52.4535 30.2824C52.2566 30.0278 52.3039 29.663 52.5585 29.4661L53.7054 28.5842H48.2751C47.5061 28.5842 47.5061 27.4188 48.2751 27.4188H53.7054L52.5585 26.5343ZM44.3303 9.59681L45.7634 9.41046L41.9236 13.2504C41.3803 13.7938 42.2044 14.618 42.7477 14.0746L46.5875 10.2347L46.4012 11.6678C46.3014 12.4263 47.4563 12.5759 47.5534 11.8174L47.9549 8.73332C48.0284 8.30287 47.6925 7.96691 47.2621 8.04042L44.1782 8.44201C43.4196 8.54175 43.5718 9.69391 44.3303 9.59681ZM39.6033 23.4608L40.7923 22.2954C41.3382 21.76 40.5246 20.9279 39.9761 21.466L38.7871 22.6314C38.5588 22.8571 38.5562 23.2246 38.7792 23.453C39.005 23.684 39.3724 23.6866 39.6033 23.4608ZM38.6165 31.6289L39.7818 32.8179C40.3172 33.3638 41.1493 32.5501 40.6112 32.0016L39.4459 30.8126C39.2201 30.5843 38.8527 30.5816 38.6243 30.8047C38.3933 31.0305 38.3907 31.3979 38.6165 31.6289ZM40.8001 27.7495L42.4642 27.7653C42.7844 27.7679 43.0469 27.5107 43.0495 27.1878C43.0521 26.8676 42.7949 26.6051 42.472 26.6025L40.808 26.5868C40.4878 26.5842 40.2253 26.8414 40.2227 27.1642C40.2227 27.4844 40.4799 27.7469 40.8001 27.7495ZM35.6454 23.2691L35.6979 18.1219C35.7084 17.1665 34.6454 16.6205 33.9315 17.3371C30.4854 20.7991 26.5983 22.5498 21.5826 22.3583H21.5432L18.1522 22.3241C15.9554 22.3031 14.1417 24.0775 14.1207 26.2796L14.1155 26.7862C14.0997 28.466 15.1391 29.9516 16.6614 30.5475L17.7585 37.8783C17.8635 38.5844 18.5249 39.0831 19.2335 38.9833L20.8975 38.7471C21.6272 38.65 22.1337 37.978 22.0261 37.2641L21.0629 30.8518L21.496 30.8571C26.5169 30.7705 30.3617 32.5894 33.7428 36.1249C34.4462 36.8599 35.517 36.3323 35.5249 35.3742L35.5695 30.9936C37.4749 30.7337 38.9395 29.0801 38.9395 27.1614H38.9369C38.9526 25.2113 37.5377 23.5657 35.6454 23.2691ZM35.5797 29.8047C36.8291 29.5527 37.7713 28.4399 37.7713 27.1537H37.7739C37.7923 25.8519 36.8816 24.7258 35.6348 24.4476L35.5797 29.8047ZM15.3044 25.9568L18.3647 25.9883C18.6849 25.9909 18.9447 26.2534 18.9421 26.5736C18.9395 26.8938 18.677 27.1537 18.3568 27.1511L15.2913 27.1196C15.3595 27.7679 15.6508 28.3558 16.0865 28.7994C16.6114 29.3349 17.3254 29.6446 18.076 29.6524L20.9079 29.6813L20.9709 23.5131L18.1416 23.4843C17.5773 23.479 17.0471 23.6418 16.6009 23.9252L17.6324 23.9357C17.9526 23.9384 18.2124 24.2008 18.2098 24.521C18.2072 24.8413 17.9447 25.1011 17.6245 25.0985L15.5695 25.0775C15.4356 25.3478 15.3437 25.6445 15.3044 25.9568ZM17.8791 30.8074L18.9132 37.7028C18.9237 37.7789 18.9946 37.834 19.0707 37.8235L20.7557 37.582C20.8318 37.5689 20.8817 37.5059 20.8738 37.4403L19.8791 30.8312L18.0681 30.8128C18.0051 30.8128 17.9421 30.8126 17.8791 30.8074ZM22.0733 29.684C27.0443 29.7338 30.9626 31.6184 34.3644 35.0883L34.5324 18.3767C31.06 21.7783 27.1045 23.5815 22.1337 23.5317L22.0733 29.684ZM39.8633 16.1351C33.3122 9.58371 22.6881 9.58371 16.137 16.1351C9.58592 22.6864 9.58592 33.3111 16.137 39.8624C22.6881 46.4138 33.3122 46.4138 39.8633 39.8624C46.417 33.3111 46.417 22.6864 39.8633 16.1351Z" fill="black"/>
</svg>
