<svg width="42" height="43" viewBox="0 0 42 43" fill="none" xmlns="http://www.w3.org/2000/svg">
<g clip-path="url(#clip0_542_3774)">
<path d="M15.0331 29.0348C15.0331 26.1853 13.2254 23.7619 10.7079 22.8378C11.5252 22.1779 12.0502 21.1641 12.0502 20.0363C12.0502 18.0507 10.4454 16.437 8.47066 16.437C6.49594 16.437 4.89112 18.0507 4.89112 20.0363C4.89112 21.1701 5.41612 22.1779 6.23344 22.8378C3.71581 23.7616 1.9082 26.1852 1.9082 29.0348C1.9082 29.3648 2.17667 29.6347 2.50479 29.6347H14.4366C14.7647 29.6347 15.0331 29.3648 15.0331 29.0348ZM6.08407 20.0363C6.08407 18.7106 7.15198 17.6368 8.47044 17.6368C9.78889 17.6368 10.8568 18.7106 10.8568 20.0363C10.8568 21.362 9.78889 22.4359 8.47044 22.4359C7.15198 22.4359 6.08407 21.362 6.08407 20.0363ZM3.13689 28.4347C3.43519 25.7413 5.71417 23.6356 8.47051 23.6356C11.2269 23.6356 13.5117 25.7413 13.8041 28.4347H3.13689Z" fill="black"/>
<path d="M35.7665 22.8378C36.5838 22.1779 37.1088 21.1641 37.1088 20.0363C37.1088 18.0507 35.504 16.437 33.5293 16.437C31.5545 16.437 29.9497 18.0507 29.9497 20.0363C29.9497 21.1701 30.4747 22.1779 31.292 22.8378C28.7744 23.7616 26.9668 26.1852 26.9668 29.0348C26.9668 29.3648 27.2353 29.6347 27.5634 29.6347H39.4952C39.8233 29.6347 40.0918 29.3648 40.0918 29.0348C40.0918 26.1853 38.284 23.7619 35.7665 22.8378ZM31.143 20.0363C31.143 18.7106 32.211 17.6368 33.5294 17.6368C34.8479 17.6368 35.9158 18.7106 35.9158 20.0363C35.9158 21.3621 34.8479 22.4359 33.5294 22.4359C32.211 22.4359 31.143 21.3621 31.143 20.0363ZM28.1959 28.4348C28.4942 25.7413 30.7731 23.6357 33.5295 23.6357C36.2858 23.6357 38.5706 25.7413 38.8631 28.4348H28.1901H28.1959Z" fill="black"/>
<path d="M10.2918 13.5875C10.3037 13.6235 10.3097 13.6595 10.3216 13.6895C10.3336 13.7195 10.3574 13.7495 10.3813 13.7795C10.4052 13.8155 10.429 13.8515 10.4588 13.8814C10.4648 13.8874 10.4708 13.8994 10.4767 13.9054C10.5006 13.9234 10.5245 13.9294 10.5483 13.9414C10.5841 13.9654 10.6199 13.9834 10.6557 14.0014C10.6975 14.0134 10.7333 14.0194 10.775 14.0254C10.7989 14.0254 10.8228 14.0434 10.8526 14.0434H13.239C13.5671 14.0434 13.8355 13.7735 13.8355 13.4435C13.8355 13.1136 13.5671 12.8436 13.239 12.8436H12.2069C14.5336 10.5401 17.6657 9.24431 20.9948 9.24431C24.7652 9.24431 28.2971 10.912 30.6773 13.8276C30.7966 13.9716 30.9637 14.0436 31.1367 14.0436C31.2679 14.0436 31.4051 14.0016 31.5125 13.9056C31.7691 13.6957 31.8049 13.3178 31.5961 13.0598C28.989 9.86839 25.1231 8.04492 20.9945 8.04492C17.3911 8.04492 13.9904 9.43666 11.449 11.908V11.0442C11.449 10.7142 11.1806 10.4443 10.8525 10.4443C10.5243 10.4443 10.2559 10.7142 10.2559 11.0442V13.4437V13.4737C10.2559 13.5157 10.2678 13.5517 10.2797 13.5937L10.2918 13.5875Z" fill="black"/>
<path d="M31.7085 32.4838C31.6966 32.4478 31.6906 32.4119 31.6787 32.3759C31.6668 32.3459 31.6429 32.3159 31.6191 32.2919C31.5952 32.2559 31.5713 32.2199 31.5355 32.1899C31.5296 32.1839 31.5236 32.1719 31.5176 32.1659C31.4938 32.1479 31.4699 32.1419 31.446 32.1299C31.4103 32.1059 31.3745 32.0879 31.3387 32.0699C31.2969 32.0579 31.2611 32.0519 31.2193 32.0459C31.1895 32.0459 31.1657 32.0279 31.1418 32.0279H28.7554C28.4273 32.0279 28.1588 32.2979 28.1588 32.6278C28.1588 32.9578 28.4273 33.2277 28.7554 33.2277H29.7875C27.4608 35.5313 24.3287 36.827 20.9996 36.827C17.241 36.827 13.7092 35.1593 11.3171 32.2437C11.1083 31.9917 10.7324 31.9498 10.4759 32.1657C10.2193 32.3757 10.1836 32.7536 10.3983 33.0115C13.0174 36.197 16.8831 38.0264 20.9999 38.0264C24.6033 38.0264 28.004 36.6347 30.5453 34.1633V35.0272C30.5453 35.3571 30.8138 35.6271 31.1419 35.6271C31.4701 35.6271 31.7385 35.3571 31.7385 35.0272V32.6276V32.5976C31.7385 32.5556 31.7266 32.5196 31.7147 32.4776L31.7085 32.4838Z" fill="black"/>
</g>
<defs>
<clipPath id="clip0_542_3774">
<rect width="42" height="43" fill="white"/>
</clipPath>
</defs>
</svg>
