<svg width="33" height="33" viewBox="0 0 33 33" fill="none" xmlns="http://www.w3.org/2000/svg">
<path fill-rule="evenodd" clip-rule="evenodd" d="M31.777 31.7786C32.113 31.4426 32.2817 31.0001 32.2817 30.559C32.2817 30.1179 32.113 29.6768 31.777 29.3393C31.441 29.0033 30.9985 28.8346 30.5574 28.8346C30.1163 28.8346 29.6753 29.0033 29.3378 29.3393C29.0018 29.6753 28.8331 30.1179 28.8331 30.559C28.8331 31.0001 29.0018 31.4411 29.3378 31.7786C29.6738 32.1146 30.1163 32.2833 30.5574 32.2833C31 32.2833 31.441 32.1161 31.777 31.7786ZM25.8612 4.08075C26.0018 3.94014 26.2283 3.94014 26.3689 4.08075C26.5095 4.22136 26.5095 4.44782 26.3689 4.58842L24.6949 6.26246C25.3728 6.94333 26.0595 7.62121 26.7433 8.29912L28.4113 6.63103C28.552 6.49042 28.7784 6.49042 28.919 6.63103C29.0596 6.77164 29.0596 6.9981 28.919 7.1387L27.2539 8.80383C27.4345 8.98293 27.6136 9.16203 27.7941 9.34114C27.8164 9.36334 27.846 9.37518 27.8756 9.37518C27.9066 9.37518 27.9362 9.36482 27.9584 9.34262L29.4296 7.87137C29.8559 7.44361 30.0705 6.88115 30.0705 6.31721C30.0705 5.75328 29.8574 5.19082 29.4296 4.76454L28.2382 3.57304C27.8119 3.14676 27.248 2.93215 26.6855 2.93215C26.1216 2.93215 25.5592 3.14529 25.1329 3.57304L23.6617 5.04429C23.6395 5.06649 23.6277 5.0961 23.6277 5.1257C23.6277 5.15678 23.638 5.18638 23.6602 5.2071C23.8364 5.38916 24.0155 5.57122 24.1946 5.75179L25.8612 4.08075ZM23.9608 6.52296C23.9549 6.51852 23.9489 6.5126 23.943 6.50668C23.9371 6.50076 23.9327 6.49484 23.9267 6.48892L23.1512 5.71332C22.9883 5.5505 22.9069 5.33737 22.9069 5.12422C22.9069 4.91108 22.9883 4.69647 23.1512 4.53512L24.6224 3.06388C25.1892 2.49698 25.9367 2.2128 26.6827 2.2128C27.18 2.2128 27.6773 2.33861 28.1213 2.59023C28.1184 2.53991 28.1169 2.49106 28.1169 2.44074C28.1169 1.81614 28.3552 1.1915 28.8318 0.714897C29.3083 0.238299 29.9329 0 30.5575 0C31.1821 0 31.8067 0.238303 32.2833 0.714897C32.7599 1.1915 32.9982 1.8161 32.9982 2.44074C32.9982 3.06534 32.7599 3.68998 32.2833 4.16658C31.8067 4.64318 31.1822 4.88147 30.5575 4.88147C30.5072 4.88147 30.4584 4.87999 30.4081 4.87703C30.6597 5.32108 30.7855 5.81841 30.7855 6.31573C30.7855 7.06322 30.5028 7.80918 29.9344 8.37608C29.446 8.86454 28.9413 9.35296 28.4617 9.84733C28.2989 10.0101 28.0858 10.0915 27.8741 10.0915C27.661 10.0915 27.4479 10.0101 27.2851 9.84733L26.4932 9.05547C26.4903 9.05251 26.4888 9.05103 26.4858 9.04807L23.9608 6.52296ZM31.7772 1.22271C32.1132 1.5587 32.2819 2.00127 32.2819 2.44236C32.2819 2.88345 32.1131 3.32451 31.7772 3.66201C31.4412 3.998 30.9986 4.16672 30.5576 4.16672C30.1165 4.16672 29.6754 3.99799 29.3379 3.66201C29.002 3.32602 28.8333 2.88345 28.8333 2.44236C28.8333 2.00127 29.002 1.56021 29.3379 1.22271C29.6739 0.886721 30.1165 0.717998 30.5576 0.717998C31.0001 0.717998 31.4412 0.885255 31.7772 1.22271ZM6.81843 16.1425H11.6642C11.6938 14.2198 11.9617 12.4273 12.4043 10.91C11.2557 10.685 10.2152 10.3698 9.33011 9.98347C7.84113 11.622 6.90429 13.7742 6.81843 16.1425ZM12.3822 16.1425C12.4119 14.2523 12.6768 12.5028 13.1134 11.0347C14.1761 11.2019 15.3158 11.2922 16.4999 11.2922C17.6839 11.2922 18.8236 11.2019 19.8863 11.0347C20.3229 12.5015 20.5879 14.2525 20.6175 16.1425H12.3822ZM21.3354 16.1425H26.1812C26.0953 13.7742 25.1584 11.6235 23.6694 9.9851C22.7844 10.3714 21.7439 10.6867 20.5953 10.9117C21.0378 12.4273 21.3058 14.2182 21.3354 16.1425ZM26.1812 16.8588H21.3354C21.3058 18.7815 21.0379 20.574 20.5953 22.0913C21.7439 22.3162 22.7844 22.6315 23.6695 23.0178C25.1585 21.3793 26.0953 19.227 26.1812 16.8588ZM20.6173 16.8588C20.5877 18.749 20.3228 20.4985 19.8862 21.9666C18.8235 21.7993 17.6838 21.709 16.4997 21.709C15.3156 21.709 14.176 21.7993 13.1133 21.9666C12.6767 20.4998 12.4117 18.7488 12.3821 16.8588H20.6173ZM11.6642 16.8588H6.81843C6.90427 19.227 7.84117 21.3778 9.33014 23.0162C10.2152 22.6299 11.2557 22.3146 12.4043 22.0896C11.9617 20.574 11.6938 18.7816 11.6642 16.8588ZM8.99118 23.7043C8.98674 23.7013 8.98378 23.6969 8.98082 23.6924C7.19285 21.8245 6.09463 19.2906 6.09463 16.5007C6.09463 13.7107 7.19285 11.1765 8.98082 9.30887C8.98378 9.30443 8.98822 9.30147 8.99118 9.29703C9.0415 9.24522 9.09182 9.19342 9.14215 9.1431C11.0248 7.26035 13.6268 6.09549 16.4997 6.09549C19.3725 6.09549 21.9745 7.26035 23.8572 9.1431C23.9076 9.19342 23.9579 9.24522 24.0082 9.29703C24.0127 9.29999 24.0156 9.30443 24.0186 9.30887C25.8065 11.1768 26.9048 13.7107 26.9048 16.5007C26.9048 19.2906 25.8065 21.8248 24.0186 23.6924C24.0156 23.6969 24.0112 23.6999 24.0082 23.7043C23.9579 23.7561 23.909 23.8079 23.8572 23.8582C21.9745 25.741 19.3725 26.9058 16.4997 26.9058C13.6268 26.9058 11.0249 25.741 9.14215 23.8582C9.09182 23.8079 9.0415 23.7561 8.99118 23.7043ZM23.1277 23.5666C21.8652 24.7507 20.2859 25.6003 18.5304 25.9748C19.0855 25.4346 19.5798 24.6753 19.9928 23.7502C20.129 23.4438 20.2562 23.1196 20.3746 22.7777C21.3944 22.9716 22.3225 23.2396 23.1277 23.5666ZM19.6613 22.6564C18.6711 22.5069 17.6084 22.427 16.4998 22.427C15.3912 22.427 14.3285 22.5069 13.3383 22.6564C13.439 22.9376 13.5456 23.2055 13.6595 23.4586C14.4114 25.1445 15.4179 26.188 16.4998 26.188C17.5818 26.188 18.5882 25.1445 19.3401 23.4586C19.4541 23.2055 19.5607 22.9376 19.6613 22.6564ZM12.6236 22.7777C12.742 23.1196 12.8693 23.4438 13.0054 23.7502C13.4184 24.6767 13.9127 25.4346 14.4678 25.9748C12.7124 25.6004 11.1331 24.7507 9.87054 23.5666C10.6772 23.2395 11.6067 22.9716 12.6236 22.7777ZM11.5905 5.08435C11.4084 5.1628 11.1982 5.07843 11.1198 4.89637C11.0413 4.71432 11.1257 4.50412 11.3077 4.42569C12.1114 4.07934 12.961 3.81143 13.8446 3.62936C14.706 3.45323 15.5941 3.35998 16.4999 3.35998C17.4057 3.35998 18.2938 3.45322 19.1552 3.62936C20.0388 3.81142 20.8884 4.07932 21.6921 4.42569C21.8741 4.50413 21.9585 4.71431 21.88 4.89637C21.8016 5.07844 21.5914 5.1628 21.4093 5.08435C20.6442 4.75428 19.8419 4.49969 19.0131 4.32948C18.205 4.1637 17.3657 4.07637 16.5014 4.07637C15.637 4.07637 14.7978 4.1637 13.9897 4.32948C13.1593 4.50117 12.3571 4.75428 11.5905 5.08435ZM27.9159 11.5911C27.8374 11.409 27.9218 11.1988 28.1039 11.1204C28.2859 11.0419 28.4961 11.1263 28.5745 11.3084C28.9209 12.1121 29.1888 12.9617 29.3708 13.8453C29.547 14.7067 29.6402 15.5948 29.6402 16.5006C29.6402 17.4065 29.547 18.2946 29.3708 19.156C29.1888 20.0396 28.9209 20.8892 28.5745 21.6929C28.4961 21.875 28.2859 21.9594 28.1039 21.8809C27.9218 21.8025 27.8374 21.5923 27.9159 21.4102C28.2459 20.645 28.5005 19.8428 28.6707 19.0139C28.8365 18.2058 28.9238 17.3665 28.9238 16.5021C28.9238 15.6377 28.8365 14.7985 28.6707 13.9903C28.4991 13.1585 28.2445 12.3578 27.9159 11.5911ZM21.4094 27.917C21.5914 27.8385 21.8016 27.9229 21.88 28.1049C21.9585 28.287 21.8741 28.4972 21.6921 28.5756C20.8884 28.922 20.0388 29.1899 19.1552 29.3719C18.2938 29.5481 17.4057 29.6413 16.4999 29.6413C15.5941 29.6413 14.706 29.5481 13.8446 29.3719C12.961 29.1899 12.1115 28.922 11.3078 28.5756C11.1257 28.4972 11.0413 28.287 11.1198 28.1049C11.1982 27.9229 11.4084 27.8385 11.5905 27.917C12.3557 28.247 13.1579 28.5016 13.9867 28.6718C14.7948 28.8376 15.6341 28.9249 16.4984 28.9249C17.3628 28.9249 18.202 28.8376 19.0101 28.6718C19.8405 28.5001 20.6427 28.2455 21.4094 27.917ZM5.08392 21.4102C5.16237 21.5923 5.078 21.8025 4.89595 21.8809C4.7139 21.9594 4.50371 21.875 4.42528 21.693C4.07894 20.8892 3.81104 20.0396 3.62898 19.156C3.45285 18.2946 3.3596 17.4065 3.3596 16.5007C3.3596 15.5948 3.45284 14.7067 3.62898 13.8453C3.81103 12.9617 4.07892 12.1121 4.42528 11.3084C4.50372 11.1263 4.7139 11.0419 4.89595 11.1204C5.07801 11.1988 5.16237 11.409 5.08392 11.5911C4.75387 12.3563 4.49928 13.1585 4.32907 13.9889C4.1633 14.797 4.07598 15.6363 4.07598 16.5007C4.07598 17.365 4.1633 18.2043 4.32907 19.0124C4.50076 19.8413 4.75534 20.6435 5.08392 21.4102ZM1.22252 1.22284C0.886538 1.55883 0.71782 2.00139 0.71782 2.44249C0.71782 2.88358 0.886549 3.32464 1.22252 3.66062C1.5585 3.99661 2.00105 4.16533 2.44213 4.16533C2.88321 4.16533 3.32426 3.9966 3.66175 3.66062C3.99773 3.32463 4.16645 2.88206 4.16645 2.44097C4.16645 1.99988 3.99772 1.55882 3.66175 1.22284C3.32577 0.886846 2.88321 0.718123 2.44213 0.718123C1.99957 0.718123 1.55853 0.88538 1.22252 1.22284ZM0.714864 0.715168C1.19145 0.23857 1.81603 0.000270478 2.44066 0.000270478C3.06524 0.000270478 3.68986 0.238574 4.16645 0.715168C4.64303 1.19177 4.88132 1.81637 4.88132 2.44101C4.88132 2.49133 4.87984 2.54018 4.87688 2.5905C5.32092 2.33888 5.81823 2.21307 6.31554 2.21307C7.063 2.21307 7.80895 2.49577 8.37583 3.06415L9.84704 4.53687L9.84852 4.53835C10.0113 4.70117 10.0927 4.91431 10.0927 5.12597C10.0927 5.33911 10.0113 5.55225 9.84852 5.71507L5.71316 9.85054C5.55035 10.0134 5.33722 10.0948 5.12408 10.0948C4.92279 10.0948 4.7215 10.0222 4.56164 9.8757C4.55276 9.8683 4.54388 9.85942 4.535 9.85054L3.06379 8.37929C2.49691 7.8124 2.21274 7.06492 2.21274 6.31895C2.21274 5.82162 2.33854 5.3243 2.59016 4.88025C2.53984 4.88321 2.49099 4.88469 2.44067 4.88469C1.81608 4.88469 1.19146 4.64639 0.714877 4.16979C0.238292 3.69319 0 3.06859 0 2.44395C0 1.81639 0.238283 1.19177 0.714864 0.715168ZM26.3693 28.413L24.7042 26.7479L26.7467 24.7053L28.4118 26.3705C28.5524 26.5111 28.7789 26.5111 28.9195 26.3705C29.06 26.2298 29.0601 26.0034 28.9195 25.8628L27.2544 24.1976L27.7931 23.6589C27.8153 23.6367 27.8449 23.6248 27.8745 23.6248C27.9012 23.6248 27.9263 23.6337 27.9485 23.65L29.4286 25.1301C29.8549 25.5564 30.0695 26.1203 30.0695 26.6828C30.0695 27.2467 29.8563 27.8092 29.4286 28.2369L28.2371 29.4284C27.8094 29.8547 27.247 30.0693 26.683 30.0693C26.1191 30.0693 25.5567 29.8562 25.1304 29.4284L23.6592 27.9572C23.637 27.935 23.6266 27.9054 23.6266 27.8743C23.6266 27.8447 23.637 27.8136 23.6607 27.7929L24.1994 27.2541L25.8645 28.9192C26.0051 29.0599 26.2316 29.0599 26.3722 28.9192C26.5098 28.7801 26.5099 28.5536 26.3693 28.413ZM6.63068 4.58881C6.49008 4.44819 6.49008 4.22173 6.63068 4.08114C6.77129 3.94054 6.99775 3.94053 7.13834 4.08114L8.80343 5.74628L9.34219 5.2075C9.36439 5.1853 9.37475 5.15569 9.37475 5.12609C9.37475 5.09501 9.36439 5.0654 9.34219 5.0432L7.86951 3.57196C7.44324 3.14568 6.87932 2.93106 6.31688 2.93106C5.75295 2.93106 5.19051 3.1442 4.76424 3.57196L3.57278 4.76345C3.14652 5.18973 2.9319 5.75367 2.9319 6.31613C2.9319 6.88007 3.14504 7.44253 3.57278 7.87028L5.05285 9.3504C5.07358 9.36668 5.09874 9.37408 5.12538 9.37408C5.15498 9.37408 5.18458 9.36372 5.20678 9.34003L5.74555 8.80126L4.08046 7.13612C3.93985 6.99551 3.93985 6.76905 4.08046 6.62845C4.22106 6.48784 4.44752 6.48784 4.58811 6.62845L6.2532 8.29359L8.29572 6.25101L6.63068 4.58881ZM26.492 23.946L26.4935 23.9445H26.495L27.2868 23.1527C27.4496 22.9899 27.6628 22.9085 27.8759 22.9085C28.0787 22.9085 28.28 22.9825 28.4398 23.129C28.4487 23.1364 28.4576 23.1438 28.465 23.1527L29.9362 24.6239C30.5031 25.1908 30.7873 25.9383 30.7873 26.6843C30.7873 27.1816 30.6615 27.6789 30.4098 28.123C30.4602 28.12 30.509 28.1185 30.5593 28.1185C31.1839 28.1185 31.8085 28.3568 32.2851 28.8334C32.7617 29.31 33 29.9346 33 30.5593C33 31.1839 32.7617 31.8085 32.2851 32.2851C31.8085 32.7617 31.184 33 30.5593 33C29.9347 33 29.3101 32.7617 28.8335 32.2851C28.357 31.8085 28.1187 31.1839 28.1187 30.5593C28.1187 30.5089 28.1201 30.4586 28.1231 30.4098C27.6791 30.6614 27.1818 30.7872 26.6844 30.7872C25.937 30.7872 25.191 30.5045 24.6242 29.9361C24.1357 29.4477 23.6473 28.943 23.153 28.4634C22.9901 28.3006 22.9087 28.0874 22.9087 27.8758C22.9087 27.6626 22.9901 27.448 23.153 27.2867L26.492 23.946ZM9.8722 9.43474C11.1347 8.25063 12.7125 7.40103 14.4694 7.02655C13.9144 7.56828 13.4201 8.32611 13.0071 9.25119C12.8709 9.55758 12.7436 9.88174 12.6252 10.2236C11.6069 10.0297 10.6774 9.76182 9.8722 9.43474ZM13.3386 10.345C14.3288 10.4945 15.3915 10.5744 16.5001 10.5744C17.6087 10.5744 18.6714 10.4945 19.6616 10.345C19.5609 10.0638 19.4543 9.79588 19.3404 9.54277C18.5885 7.8569 17.582 6.81341 16.5001 6.81341C15.4181 6.81341 14.4117 7.8569 13.6598 9.54277C13.5458 9.79587 13.4392 10.0638 13.3386 10.345ZM20.3763 10.2236C21.3931 10.0297 22.3226 9.76181 23.1278 9.43473C21.8653 8.25063 20.286 7.40103 18.5306 7.02655C19.0856 7.56828 19.5799 8.32611 19.9929 9.25119C20.1306 9.55757 20.2579 9.88174 20.3763 10.2236ZM4.58817 26.3703C4.44756 26.5109 4.2211 26.5109 4.08051 26.3703C3.93992 26.2297 3.9399 26.0032 4.08051 25.8626L5.7456 24.1975L5.20684 23.6587C5.18464 23.6365 5.15504 23.6247 5.12544 23.6247C5.09436 23.6247 5.06475 23.635 5.04255 23.6572L3.57135 25.1285C3.14508 25.5548 2.93047 26.1187 2.93047 26.6812C2.93047 27.2451 3.1436 27.8076 3.57135 28.2353L4.76281 29.4268C5.19055 29.8531 5.753 30.0677 6.31544 30.0677C6.87936 30.0677 7.44181 29.8546 7.86807 29.4268L9.33928 27.9556C9.36148 27.9334 9.37184 27.9038 9.37184 27.8742C9.37184 27.8431 9.36148 27.8135 9.33928 27.7913L8.80052 27.2525L7.13542 28.9176C6.99482 29.0582 6.76836 29.0582 6.62777 28.9176C6.48716 28.777 6.48716 28.5506 6.62777 28.41L8.29286 26.7448L6.25034 24.7022L4.58817 26.3703ZM6.49898 23.937L6.50638 23.9443C6.50934 23.9473 6.51082 23.9488 6.51378 23.9517L9.03883 26.4769C9.04475 26.4813 9.05067 26.4872 9.05659 26.4932C9.06251 26.4991 9.06695 26.505 9.07287 26.5109L9.84993 27.288C10.0127 27.4508 10.0941 27.6639 10.0941 27.8756C10.0941 28.0888 10.0127 28.3034 9.84993 28.4647L8.37872 29.936C7.81184 30.5028 7.06438 30.787 6.31843 30.787C5.82112 30.787 5.32381 30.6612 4.87977 30.4096C4.88273 30.4599 4.88421 30.5088 4.88421 30.5591C4.88421 31.1837 4.64592 31.8083 4.16934 32.2849C3.69275 32.7615 3.06817 32.9998 2.44354 32.9998C1.81896 32.9998 1.19434 32.7615 0.717753 32.2849C0.241169 31.8083 0.00287617 31.1837 0.00287617 30.5591C0.00287617 29.9345 0.241172 29.3099 0.717753 28.8333C1.19434 28.3567 1.81892 28.1184 2.44354 28.1184C2.49387 28.1184 2.54271 28.1198 2.59303 28.1228C2.34142 27.6788 2.21561 27.1814 2.21561 26.6841C2.21561 25.9366 2.49831 25.1906 3.06667 24.6238L4.53935 23.1525L4.54083 23.151C4.70364 22.9882 4.91677 22.9068 5.12843 22.9068C5.34157 22.9068 5.5547 22.9882 5.71752 23.151L6.49898 23.937ZM1.22237 31.7786C0.886386 31.4426 0.717668 31 0.717668 30.5589C0.717668 30.1178 0.886397 29.6768 1.22237 29.3393C1.55835 29.0033 2.0009 28.8346 2.44047 28.8346C2.88155 28.8346 3.32259 29.0033 3.66008 29.3393C3.99606 29.6753 4.16478 30.1178 4.16478 30.5589C4.16478 31 3.99605 31.4411 3.66008 31.7786C3.3241 32.1146 2.88155 32.2833 2.44047 32.2833C1.99938 32.2833 1.55834 32.116 1.22237 31.7786Z" fill="black"/>
</svg>
