<svg width="30" height="39" viewBox="0 0 30 39" fill="none" xmlns="http://www.w3.org/2000/svg">
<path d="M16.5835 30.72C16.5835 26.1512 12.8837 22.3984 8.29176 22.3984C3.69792 22.3984 0 26.1115 0 30.72C0 30.9654 0.161965 31.1279 0.406499 31.1279H16.179C16.422 31.1279 16.584 30.9638 16.584 30.72H16.5835ZM0.852427 30.312C1.05568 26.3949 4.30766 23.2539 8.29176 23.2539C12.2758 23.2539 15.5673 26.3948 15.7705 30.312H0.852427ZM8.29176 20.6833C10.772 20.6833 12.7632 18.6849 12.7632 16.2373C12.7632 13.7481 10.7307 11.7497 8.29176 11.7497C5.85277 11.7497 3.82027 13.7895 3.82027 16.2373C3.82027 18.6851 5.81147 20.6833 8.29176 20.6833ZM8.29176 12.524C10.3242 12.524 11.9502 14.1973 11.9502 16.1957C11.9502 18.1941 10.2829 19.8259 8.29176 19.8259C6.30056 19.8259 4.63327 18.1941 4.63327 16.1957C4.63327 14.1973 6.25926 12.524 8.29176 12.524ZM21.7062 30.2704C17.1538 30.2704 13.4145 33.9835 13.4145 38.592C13.4145 38.8375 13.5764 39 13.821 39H29.5935C29.838 39 30 38.8375 30 38.592C29.9984 34.0233 26.2585 30.2704 21.7062 30.2704ZM14.2258 38.1841C14.4704 34.2272 17.7224 31.0863 21.7062 31.0863C25.6901 31.0863 28.9423 34.2273 29.185 38.1841H14.2258ZM17.2746 24.0282C17.2746 26.5174 19.2658 28.5158 21.7046 28.5158C24.1849 28.5158 26.1761 26.476 26.1761 24.0282C26.1761 21.5804 24.1436 19.5822 21.7046 19.5822C19.2672 19.5822 17.2746 21.5806 17.2746 24.0282ZM25.3647 24.0282C25.3647 26.068 23.6974 27.6998 21.7062 27.6998C19.715 27.6998 18.089 26.0265 18.089 24.0282C18.089 22.0298 19.715 20.398 21.7062 20.398C23.7387 20.398 25.3647 22.0298 25.3647 24.0282ZM7.27551 10.607V7.38476C7.27551 5.59037 8.73956 4.12105 10.5275 4.12105H14.105V1.05974L12.3567 2.07965C12.2758 2.12108 12.2345 2.12108 12.1535 2.12108C12.0312 2.12108 11.8693 2.03981 11.7883 1.9171C11.666 1.71312 11.747 1.46769 11.9502 1.3466L14.3083 0H14.3495H14.3908H14.4321H14.4734H14.5147H14.556H14.5972H14.6385H14.6798H14.7211L17.1188 1.3466C17.3157 1.46772 17.357 1.71313 17.2744 1.9171C17.1934 2.03981 17.0712 2.12108 16.9092 2.12108C16.8282 2.12108 16.7869 2.12108 16.7059 2.07965L14.918 1.05974V4.11946H18.4955C20.4867 4.11946 22.1127 5.75131 22.1127 7.74968V18.1111C22.1127 18.3565 21.9507 18.5191 21.7062 18.5191C21.4617 18.5191 21.2997 18.3565 21.2997 18.1111V7.7509C21.2997 6.20032 20.0389 4.93661 18.4955 4.93661L10.5273 4.93502C9.18555 4.93502 8.08833 6.03619 8.08833 7.3828V10.605C8.08833 10.8505 7.92637 11.013 7.68184 11.013C7.4373 11.0146 7.27551 10.811 7.27551 10.607Z" fill="black"/>
</svg>
