<svg width="45" height="28" viewBox="0 0 45 28" fill="none" xmlns="http://www.w3.org/2000/svg">
<path d="M22.5001 0.421133C24.4989 0.421133 26.3095 1.21342 27.6175 2.4928C28.9275 3.77224 29.7386 5.54061 29.7386 7.4928C29.7386 9.44499 28.9274 11.2134 27.6175 12.4909C27.1338 12.9633 26.5824 13.3678 25.9782 13.6931C27.5084 14.1876 28.7919 15.0057 29.8139 16.0737C29.9683 16.2336 30.1151 16.4009 30.2562 16.5718C30.9018 15.6251 31.7563 14.8255 32.7538 14.2354C33.1095 14.024 33.484 13.8402 33.8736 13.6858C33.5028 13.4597 33.1622 13.1931 32.8554 12.8935C31.8146 11.8769 31.169 10.4707 31.169 8.92109C31.169 7.37144 31.8146 5.96706 32.8535 4.9505C33.8981 3.9321 35.336 3.3016 36.9226 3.3016C38.5111 3.3016 39.9509 3.93026 40.9917 4.94683C42.0325 5.96339 42.6762 7.3696 42.6762 8.92109C42.6762 10.4707 42.0307 11.8751 40.9917 12.8917C40.6755 13.2005 40.3236 13.4726 39.9415 13.7024C40.9296 14.0829 41.8198 14.6399 42.5651 15.3421C44.0087 16.706 44.9027 18.6049 44.9027 20.8V21.5628C44.9027 22.2963 44.5959 22.9636 44.1028 23.447C43.6097 23.9286 42.9246 24.2283 42.1737 24.2283H32.6014C32.5148 24.9764 32.1647 25.6492 31.6471 26.1566C31.0957 26.6474 30.5217 26.9673 29.8253 27.0721V25.6254C30.117 25.5427 30.3805 25.3919 30.5932 25.1915C30.9659 24.8092 31.1766 24.4048 31.1766 23.8643C31.1766 21.0923 30.3447 18.6916 28.7582 17.0314C27.2788 15.4836 25.1182 14.5608 22.3384 14.5608C19.7072 14.5608 17.6482 15.5186 16.2237 17.0626C14.6502 18.7685 13.8221 21.1987 13.8221 23.8659C13.8221 24.3696 14.0329 24.8274 14.3735 25.1601C14.7123 25.4928 15.181 25.6987 15.6985 25.6987H25.7676V27.1104H15.6985C14.7857 27.1104 13.9557 26.7446 13.3534 26.1564C12.834 25.6509 12.482 24.9781 12.3973 24.2299H2.82501C2.07405 24.2299 1.39083 23.9303 0.895862 23.4486C0.402769 22.967 0.0959473 22.2979 0.0959473 21.5644V20.8016C0.0959473 18.6931 0.980517 16.774 2.40154 15.3842C3.14499 14.658 4.0352 14.0754 5.02519 13.6838C4.6563 13.4577 4.31749 13.193 4.01072 12.8933C2.96802 11.8731 2.32248 10.4687 2.32248 8.91907C2.32248 7.36759 2.96614 5.96133 4.00696 4.94481C5.04779 3.92825 6.48755 3.29959 8.07606 3.29959C9.66269 3.29959 11.1006 3.93008 12.1414 4.94481C13.1841 5.96505 13.8296 7.36943 13.8296 8.91907C13.8296 10.4706 13.1841 11.8749 12.1433 12.8915C11.8346 13.193 11.4883 13.4613 11.1138 13.6893C11.477 13.8272 11.8271 13.9908 12.1621 14.1783C13.1879 14.7537 14.0724 15.557 14.7538 16.5735C14.8799 16.4172 15.0135 16.2646 15.149 16.1157C16.1654 15.0147 17.4452 14.1654 18.9697 13.6617C18.3844 13.3419 17.8498 12.9448 17.3793 12.4853C16.0693 11.2058 15.2582 9.43744 15.2582 7.48714C15.2582 5.53495 16.0694 3.76657 17.3793 2.48714C18.6892 1.2077 20.4998 0.415466 22.4967 0.415466L22.5001 0.421133ZM28.3797 27.1105H27.2128V25.6988H28.3797V27.1105ZM12.4176 22.8183C12.555 21.015 13.0462 19.3256 13.8706 17.879L13.8348 17.8201C13.2551 16.7687 12.4289 15.958 11.4464 15.4065C10.4301 14.8367 9.23306 14.5426 7.95137 14.5426C6.18782 14.5426 4.58428 15.2466 3.42305 16.3808C2.26182 17.515 1.54097 19.0812 1.54097 20.8036V21.5665C1.54097 21.9102 1.68589 22.2245 1.91739 22.4525C2.14889 22.6786 2.47259 22.8201 2.82456 22.8201H12.4156L12.4176 22.8183ZM11.1246 5.94673C10.3454 5.1857 9.26694 4.71511 8.07747 4.71511C6.88801 4.71511 5.80955 5.1857 5.03036 5.94673C4.25116 6.70777 3.76934 7.76109 3.76934 8.92283C3.76934 10.0865 4.25116 11.1379 5.03036 11.8989C5.80955 12.66 6.88801 13.1305 8.07747 13.1305C9.26694 13.1305 10.3435 12.6581 11.1227 11.8971C11.9019 11.1361 12.3856 10.0827 12.3856 8.92283C12.3856 7.7592 11.9038 6.70777 11.1246 5.94673ZM31.1485 17.8601C31.9691 19.2866 32.4546 20.9705 32.5883 22.8178H42.1774C42.5294 22.8178 42.8512 22.6763 43.0846 22.4501C43.3161 22.224 43.461 21.9079 43.461 21.5641V20.8013C43.461 19.009 42.7383 17.463 41.5695 16.3601C40.3612 15.2204 38.6692 14.5421 36.8021 14.5421C35.5976 14.5421 34.4664 14.8711 33.5028 15.441C32.5128 16.0237 31.698 16.862 31.1485 17.8601ZM39.9734 5.94673C39.1943 5.1857 38.1158 4.71511 36.9263 4.71511C35.7349 4.71511 34.6584 5.1857 33.8792 5.94673C33.1 6.70777 32.6182 7.76109 32.6182 8.92283C32.6182 10.0846 33.1019 11.1361 33.8811 11.8971C34.6603 12.6581 35.7388 13.1305 36.9263 13.1305C38.1177 13.1305 39.1943 12.66 39.9734 11.8989C40.7526 11.1379 41.2345 10.0846 41.2345 8.92283C41.2345 7.76109 40.7526 6.70777 39.9734 5.94673ZM26.5991 3.49083C25.5508 2.46692 24.1035 1.83276 22.5037 1.83276C20.9039 1.83276 19.4566 2.46697 18.4082 3.49083C17.3599 4.51473 16.7106 5.93017 16.7106 7.49266C16.7106 9.05516 17.3599 10.4688 18.4082 11.4927C19.4566 12.5166 20.9039 13.1507 22.5037 13.1507C24.1035 13.1507 25.5508 12.5165 26.5991 11.4927C27.6475 10.4688 28.2968 9.05332 28.2968 7.49266C28.2968 5.93017 27.6474 4.51473 26.5991 3.49083Z" fill="black"/>
</svg>
