<svg width="33" height="40" viewBox="0 0 33 40" fill="none" xmlns="http://www.w3.org/2000/svg">
<path d="M16.7901 18.3139C16.1671 18.3139 15.5377 18.246 14.9151 18.1055C10.5934 17.1325 7.43887 12.7552 7.88276 8.34791C8.25839 4.61847 11.3471 1.21574 15.2268 0.256941C18.5309 -0.562968 21.601 0.606526 23.4362 3.37717C24.9331 5.63724 25.3774 8.65883 24.655 11.667C24.1977 13.5688 23.3403 15.1581 22.1751 16.2629C20.7772 17.5894 18.8201 18.3139 16.7901 18.3139ZM9.08856 8.46944C8.71056 12.2226 11.5005 16.094 15.1814 16.9234C17.4431 17.4316 19.8034 16.8413 21.341 15.3838C22.3357 14.44 23.0739 13.0575 23.4764 11.3837C24.1207 8.70223 23.7376 6.02707 22.4253 4.04635C20.8628 1.68606 18.3427 0.735944 15.5176 1.43354C12.6026 2.15401 9.45826 4.80234 9.08856 8.46944Z" fill="black"/>
<path d="M7.13282 21.9604C7.06259 21.9604 6.99117 21.9486 6.92133 21.9225C6.60765 21.8057 6.44825 21.4562 6.56504 21.1429C7.51397 18.594 9.72315 16.532 12.33 15.7618C12.6524 15.6655 12.9882 15.8494 13.0833 16.1705C13.178 16.4917 12.9949 16.8287 12.6741 16.9234C10.4251 17.5886 8.51972 19.3673 7.7006 21.5658C7.60985 21.8097 7.37863 21.9604 7.13282 21.9604Z" fill="black"/>
<path d="M27.5365 21.8664C27.2935 21.8664 27.0642 21.7196 26.9715 21.4789C26.0648 19.1368 24.1156 17.2216 21.7577 16.3567C21.4436 16.2415 21.2823 15.8935 21.3975 15.5786C21.5127 15.2645 21.8599 15.1027 22.1752 15.2187C24.8555 16.202 27.0709 18.3792 28.1015 21.0417C28.2227 21.3535 28.0676 21.7046 27.7551 21.8254C27.6833 21.853 27.6095 21.8664 27.5365 21.8664Z" fill="black"/>
<path d="M16.1678 39.9907C16.0132 39.9907 15.8589 39.9331 15.7425 39.8163C15.5073 39.5811 15.499 39.2071 15.7326 38.9695C15.7638 38.938 15.7997 38.9032 15.8467 38.8685C17.799 36.9525 20.4761 35.7933 23.2026 35.6852C24.477 35.626 27.3337 35.6725 29.7863 36.9312C29.4091 35.8138 29.0445 34.634 28.779 33.448C28.706 33.1213 28.9115 32.7969 29.2382 32.7243C29.5637 32.6478 29.8889 32.8569 29.9619 33.1828C30.3505 34.9189 30.9716 36.6739 31.5196 38.2222C31.6111 38.4803 31.5176 38.7683 31.2919 38.9238C31.0659 39.0784 30.764 39.0626 30.5553 38.8859C28.9372 37.5081 26.208 36.7702 23.2534 36.8957C20.8028 36.9935 18.3991 38.0415 16.6559 39.7729C16.6287 39.7997 16.5991 39.8242 16.5671 39.8455C16.4527 39.9417 16.3099 39.9907 16.1678 39.9907Z" fill="black"/>
<path d="M29.0413 27.5962C29.0097 27.5962 28.9774 27.5938 28.945 27.5883C28.6144 27.5362 28.3895 27.2253 28.442 26.8946C28.758 24.9123 29.4722 23.2528 30.5296 22.0201C25.751 21.508 20.8525 22.4589 16.6117 24.73C16.3162 24.8879 15.9496 24.7766 15.7914 24.4822C15.6332 24.1871 15.7444 23.8194 16.0396 23.6615C20.8742 21.0724 26.5212 20.1207 31.9425 20.9856C32.1793 21.0227 32.3718 21.1971 32.433 21.4291C32.4942 21.6611 32.4129 21.9073 32.2255 22.0572C30.5347 23.4098 29.8857 25.5381 29.6391 27.0856C29.5913 27.3839 29.3341 27.5962 29.0413 27.5962Z" fill="black"/>
<path d="M16.281 40.0001C16.1231 40.0001 15.9657 39.9386 15.8465 39.817L16.2802 39.3933L15.8323 39.8028C14.0588 38.0415 11.6503 36.9935 9.19495 36.8957C6.23689 36.7694 3.50768 37.508 1.88996 38.8859C1.68044 39.0626 1.37899 39.0784 1.1533 38.9237C0.92761 38.7683 0.834098 38.4802 0.925637 38.2222C1.47369 36.6739 2.09474 34.9189 2.48417 33.1946C2.55796 32.8679 2.88308 32.6635 3.2086 32.7369C3.5353 32.8103 3.74008 33.1347 3.66629 33.4614C3.40075 34.6395 3.03617 35.8153 2.65897 36.9312C5.11238 35.6741 7.96864 35.6275 9.24585 35.6851C11.9979 35.794 14.6999 36.9706 16.6566 38.9127C16.6594 38.9151 16.7138 38.9703 16.7162 38.9727C16.949 39.2126 16.943 39.5953 16.7035 39.8281C16.586 39.9433 16.4333 40.0001 16.281 40.0001Z" fill="black"/>
<path d="M3.41215 27.5831C3.11939 27.5831 2.86213 27.3708 2.81439 27.0725C2.56897 25.5321 1.92069 23.4117 0.227611 22.0576C0.0401918 21.9076 -0.0410888 21.6614 0.0200689 21.4294C0.0812267 21.1974 0.273775 21.023 0.510515 20.9859C5.92751 20.1195 11.5793 21.072 16.4261 23.6619C16.7213 23.8189 16.8329 24.1867 16.6751 24.4818C16.5169 24.7777 16.1499 24.8882 15.8548 24.7304C11.6037 22.46 6.70205 21.5131 1.92424 22.0205C2.98247 23.2523 3.69664 24.9071 4.0115 26.8815C4.06398 27.2122 3.83907 27.5231 3.50843 27.5752C3.47607 27.5807 3.44372 27.5831 3.41215 27.5831Z" fill="black"/>
<path d="M28.6864 34.0036C27.7813 34.0036 26.8722 33.6982 26.1651 33.0945C24.8737 31.9921 24.4251 30.0398 25.0986 28.4529C25.4372 27.6551 26.0172 27.0032 26.7317 26.6181C27.4771 26.2173 28.3526 26.1502 29.2609 26.424C30.4044 26.7696 31.4539 27.6203 31.9992 28.6438C32.8104 30.1629 32.3295 32.2454 30.9268 33.2855C30.2781 33.7661 29.4838 34.0036 28.6864 34.0036ZM27.307 27.685C26.8339 27.9399 26.4461 28.3811 26.2145 28.9263C25.7497 30.0217 26.0669 31.4168 26.9519 32.1728C27.8499 32.9383 29.2783 32.9991 30.2047 32.3117C31.1288 31.6268 31.4606 30.2087 30.9299 29.2144C30.5365 28.4758 29.7435 27.8366 28.9101 27.5848C28.4958 27.4586 27.8823 27.3757 27.307 27.685Z" fill="black"/>
<path d="M3.70798 34.0036C2.91017 34.0036 2.11631 33.7661 1.46764 33.2855C0.0653512 32.2454 -0.416019 30.1637 0.394814 28.6438C0.940499 27.6203 1.99044 26.7696 3.13389 26.424C4.04218 26.1502 4.91694 26.2173 5.66227 26.6181C6.37683 27.0032 6.95724 27.6551 7.29577 28.4529C7.9693 30.0406 7.52068 31.9921 6.22887 33.0945C5.5222 33.6982 4.61272 34.0036 3.70798 34.0036ZM4.20948 27.472C3.93841 27.472 3.68747 27.5233 3.48466 27.5848C2.65094 27.8366 1.85786 28.4758 1.46409 29.2144C0.933791 30.2087 1.26602 31.6268 2.18969 32.3117C3.11693 32.9998 4.54525 32.9375 5.4421 32.1728C6.32751 31.4168 6.64474 30.0217 6.17994 28.9263C5.94833 28.3811 5.56047 27.9399 5.08739 27.685C4.79423 27.5272 4.4912 27.472 4.20948 27.472Z" fill="black"/>
</svg>
