<svg width="36" height="36" viewBox="0 0 36 36" fill="none" xmlns="http://www.w3.org/2000/svg">
<path fill-rule="evenodd" clip-rule="evenodd" d="M14.6276 21.4441C16.887 23.6845 19.9131 24.9297 23.0948 24.9297C29.7368 24.9297 35.1208 19.5462 35.1208 12.9039C35.1208 6.26195 29.7371 0.877985 23.0948 0.877985C16.5944 0.877985 11.2842 6.04055 11.0763 12.5086C11.3938 12.5511 11.7041 12.6199 12.0026 12.715C12.0187 11.7492 12.1621 10.7804 12.427 9.85124C12.6143 9.1942 13.3708 8.87226 13.9796 9.22346L19.5082 12.415C19.8082 12.5877 19.9969 12.8803 20.032 13.2242C20.1228 14.0978 20.5837 14.8837 21.2862 15.3929C21.5671 15.5978 21.7252 15.9051 21.7252 16.2519V22.635C21.7252 23.3154 21.0857 23.8334 20.4082 23.6652C18.4048 23.1662 16.5945 22.1184 15.1635 20.6536C15.0084 20.9316 14.8284 21.195 14.6279 21.4409L14.6276 21.4441ZM10.1997 12.4634C10.4323 5.53006 16.1276 0 23.0963 0C30.2226 0 36 5.77731 36 12.9036C36 20.0299 30.2226 25.8072 23.0963 25.8072C19.6866 25.8072 16.4468 24.4741 14.0234 22.0786C13.6663 22.3991 13.2683 22.6727 12.8366 22.8923C16.5521 23.7103 20.6991 26.3823 20.6991 30.6056C20.6991 32.1538 19.4962 33.5279 17.5529 34.5008C13.555 36.4997 7.14412 36.4997 3.14619 34.5008C1.20286 33.5291 0 32.1536 0 30.6056C0 26.3825 4.14553 23.7104 7.86249 22.8923C6.01573 21.9528 4.83775 20.0578 4.83775 17.9754C4.83775 14.9976 7.22302 12.545 10.1993 12.4645L10.1997 12.4634ZM10.3489 22.6087C7.79683 22.6087 5.71452 20.5264 5.71452 17.9744C5.71452 15.4224 7.79687 13.34 10.3489 13.34C12.901 13.34 14.9833 15.4224 14.9833 17.9744C14.9833 20.5264 12.901 22.6087 10.3489 22.6087ZM12.8791 13.0782C12.8732 12.029 12.98 11.11 13.2698 10.0915C13.3005 9.98466 13.4029 9.93783 13.4951 9.96418L19.0676 13.1747C19.1247 13.2084 19.1525 13.2494 19.1598 13.3152C19.2768 14.4391 19.868 15.4488 20.7709 16.1058C20.8236 16.1438 20.8456 16.1892 20.8456 16.2551V22.6381C20.8456 22.7713 20.7285 22.8459 20.6158 22.8181C18.6608 22.3308 16.9018 21.2728 15.551 19.7963C16.4553 17.2223 15.3286 14.3528 12.8789 13.0795L12.8791 13.0782ZM0.878158 30.6045C0.878158 26.093 6.43899 23.4868 10.3489 23.4868C14.2588 23.4868 19.8196 26.0945 19.8196 30.6045C19.8196 31.7928 18.8041 32.8961 17.1607 33.717C13.4174 35.5887 7.27862 35.5887 3.53694 33.717C1.8936 32.8961 0.878158 31.7928 0.878158 30.6045ZM23.0949 14.1728C22.394 14.1728 21.8262 13.605 21.8262 12.9041C21.8262 12.2032 22.394 11.6354 23.0949 11.6354C23.7958 11.6354 24.3636 12.2032 24.3636 12.9041C24.3636 13.605 23.7958 14.1728 23.0949 14.1728ZM23.0949 15.0508C21.9096 15.0508 20.9481 14.0894 20.9481 12.9041C20.9481 11.7188 21.9096 10.7574 23.0949 10.7574C24.2802 10.7574 25.2416 11.7188 25.2416 12.9041C25.2416 14.0894 24.2802 15.0508 23.0949 15.0508ZM25.5738 22.8166C25.4758 22.8415 25.3733 22.7859 25.3485 22.6863L25.3441 16.255C25.3441 16.1891 25.3675 16.1437 25.4187 16.1057C26.3216 15.4501 26.9128 14.439 27.0299 13.3151C27.0372 13.2507 27.065 13.2068 27.1206 13.1746L32.6492 9.98311C32.7458 9.9275 32.8834 9.96409 32.9199 10.0929C34.4945 15.6124 31.2049 21.4148 25.574 22.8181L25.5738 22.8166ZM25.7831 23.6682C25.1055 23.8365 24.4661 23.3185 24.4661 22.638V16.255C24.4661 15.9082 24.6241 15.6009 24.9051 15.396C25.6075 14.8853 26.0685 14.1009 26.1592 13.2258C26.1943 12.8805 26.3831 12.5908 26.686 12.4166L32.2146 9.22508C32.8234 8.87387 33.5784 9.19727 33.7657 9.85285C35.4779 15.8512 31.8941 22.1477 25.786 23.6683L25.7831 23.6682ZM30.4396 5.80098C30.5259 5.89025 30.5069 6.02927 30.3986 6.09073L24.876 9.2808C24.8204 9.31299 24.7662 9.31592 24.7062 9.28958C23.6804 8.83153 22.5112 8.83153 21.4854 9.28958C21.4254 9.31592 21.3727 9.31299 21.3171 9.2808L15.7915 6.09073C15.6876 6.03073 15.6627 5.90342 15.7505 5.80098C19.7923 1.62178 26.4477 1.67273 30.4382 5.80098H30.4396ZM31.0703 5.1937C31.5473 5.68684 31.4405 6.50193 30.8376 6.84874L25.3105 10.0388C25.0105 10.2129 24.6651 10.2305 24.3491 10.0886C23.5589 9.7359 22.6326 9.7359 21.8409 10.0886C21.5248 10.229 21.1766 10.2115 20.878 10.0388L15.3524 6.84874C14.8461 6.55608 14.6705 5.90782 14.9631 5.4015C15.0626 5.22882 15.2426 5.06493 15.389 4.923C19.8128 0.645649 26.8369 0.815349 31.0686 5.19225L31.0703 5.1937Z" fill="black"/>
</svg>
