<svg width="59" height="63" viewBox="0 0 59 63" fill="none" xmlns="http://www.w3.org/2000/svg">
<path fill-rule="evenodd" clip-rule="evenodd" d="M53.1917 5.75179C53.5678 6.12398 53.5678 6.73091 53.1917 7.10316L51.598 8.68064C51.2219 9.05283 50.6116 9.05283 50.2356 8.68064C49.8596 8.30845 49.8596 7.70438 50.2356 7.3322L51.8294 5.75472C52.2054 5.37967 52.8157 5.3796 53.1917 5.75179ZM59 19.6371C59 20.1639 58.569 20.5905 58.0368 20.5905H55.7835C55.2512 20.5905 54.8202 20.1639 54.8202 19.6371C54.8202 19.1074 55.2512 18.6837 55.7835 18.6837H58.0368C58.569 18.6808 59 19.1103 59 19.6371ZM38.1996 3.18655V0.953391C38.1996 0.4266 38.6306 0 39.1628 0C39.6951 0 40.1261 0.429451 40.1261 0.953391V3.18655C40.1261 3.71334 39.6951 4.13994 39.1628 4.13994C38.6335 4.1428 38.1996 3.71335 38.1996 3.18655ZM25.1366 7.10316C24.7606 6.73098 24.7606 6.1269 25.1366 5.75179C25.5126 5.3796 26.1258 5.3796 26.4989 5.75179L28.0927 7.32927C28.7001 7.9305 28.2634 8.95835 27.4101 8.95835C27.1642 8.95835 26.9183 8.86387 26.7274 8.68064L25.1366 7.10316ZM48.4043 29.3284C48.4043 29.8552 47.9733 30.2818 47.4382 30.2818H31.9027C31.3704 30.2818 30.9366 29.8553 30.9366 29.3284L30.9395 13.9487C30.9395 13.4219 31.3733 12.9953 31.9056 12.9953H36.389V18.644C36.389 19.9466 37.4593 21.006 38.7754 21.006H40.5746C41.8878 21.006 42.961 19.9467 42.961 18.644V12.9953H47.4444C47.9766 12.9953 48.4105 13.4219 48.4105 13.9487L48.4043 29.3284ZM38.3151 12.9952V18.6438C38.3151 18.8901 38.5234 19.0962 38.7721 19.0962H40.5713C40.8172 19.0962 41.0283 18.8901 41.0283 18.6438V12.9952H38.3151ZM47.438 11.0855H31.9025C30.3058 11.0855 29.007 12.371 29.007 13.9485V29.3253C29.007 30.9028 30.3057 32.1883 31.9025 32.1883H47.438C49.0346 32.1883 50.3305 30.9028 50.3305 29.3253L50.3334 13.9485C50.3334 12.371 49.0347 11.0855 47.438 11.0855ZM24.7604 61.0675V54.6114C26.7678 54.4425 28.3472 52.7734 28.3472 50.7436C28.3472 48.7108 26.7679 47.0445 24.7604 46.8757V40.4025H32.3186C32.9289 40.4025 33.3888 39.8356 33.2616 39.2458C32.9925 38.0233 33.9413 36.8524 35.2111 36.8524C36.478 36.8524 37.4268 38.0234 37.1578 39.2458C37.0276 39.8385 37.4875 40.4025 38.1007 40.4025H45.6449C45.1502 51.5737 36.0529 60.5808 24.7604 61.0675ZM23.9997 52.6703C25.2348 52.9366 26.4207 51.9947 26.4207 50.7407C26.4207 49.4867 25.2377 48.5476 23.9997 48.8139C23.4038 48.9427 22.834 48.4847 22.834 47.8806V40.3996H16.294C16.1233 42.3894 14.437 43.9526 12.3862 43.9526C10.3325 43.9526 8.64613 42.3866 8.47552 40.3996H1.95283C2.44456 51.5767 11.5415 60.5808 22.834 61.0674V53.6033C22.834 52.9963 23.401 52.5415 23.9997 52.6703ZM22.834 17.8189V24.275C20.8237 24.4439 19.2472 26.113 19.2472 28.1457C19.2472 30.1784 20.8237 31.8447 22.834 32.0136V38.4868H15.2758C14.6655 38.4868 14.2027 39.0508 14.3329 39.6434C14.6019 40.866 13.6474 42.0397 12.3862 42.0397C11.1193 42.0397 10.1676 40.8688 10.4366 39.6434C10.5668 39.0508 10.1069 38.4868 9.4937 38.4868H1.95253C2.44426 27.3126 11.5415 18.3085 22.834 17.8189ZM46.6282 38.4897H39.1189C38.9483 36.5028 37.2619 34.9395 35.2111 34.9395C33.1546 34.9395 31.4739 36.5027 31.3033 38.4897H24.7633V31.0087C24.7633 30.4017 24.1935 29.9465 23.5947 30.0754C22.3596 30.3416 21.1766 29.3997 21.1766 28.1486C21.1766 26.8946 22.3597 25.9527 23.5947 26.2189C24.1935 26.3478 24.7633 25.8925 24.7633 25.2856L24.7604 16.8452C24.7604 16.3156 24.3294 15.8918 23.7972 15.8918C10.6764 15.8918 0 26.4563 0 39.4459C0 52.4356 10.6734 63 23.7972 63C36.9209 63 47.5944 52.4356 47.5944 39.4459C47.5944 38.9163 47.1605 38.4897 46.6282 38.4897Z" fill="black"/>
</svg>
