<svg width="35" height="36" viewBox="0 0 35 36" fill="none" xmlns="http://www.w3.org/2000/svg" stroke-width="0">
<path d="M11.0547 25.9414C11.4268 25.8675 11.8126 25.9056 12.1631 26.0508C12.5135 26.196 12.8136 26.4414 13.0244 26.7568C13.2352 27.0724 13.3477 27.4438 13.3477 27.8232C13.347 28.3319 13.1438 28.819 12.7842 29.1787C12.4245 29.5384 11.9373 29.7415 11.4287 29.7422C11.0492 29.7422 10.6778 29.6298 10.3623 29.4189C10.0469 29.2082 9.8015 28.9081 9.65625 28.5576C9.51107 28.2071 9.47295 27.8213 9.54688 27.4492C9.62091 27.077 9.80294 26.7342 10.0713 26.4658C10.3396 26.1975 10.6825 26.0154 11.0547 25.9414ZM11.6426 26.748C11.4299 26.7057 11.2091 26.7276 11.0088 26.8105C10.8086 26.8936 10.637 27.0336 10.5166 27.2139C10.3962 27.3942 10.332 27.6064 10.332 27.8232C10.3321 28.114 10.4477 28.393 10.6533 28.5986C10.8589 28.8042 11.138 28.9199 11.4287 28.9199C11.6455 28.9199 11.8578 28.8548 12.0381 28.7344C12.218 28.614 12.3585 28.4432 12.4414 28.2432C12.5244 28.0429 12.5462 27.822 12.5039 27.6094C12.4616 27.3968 12.3574 27.2012 12.2041 27.0479C12.0508 26.8946 11.8552 26.7904 11.6426 26.748Z" fill="black"/>
<path d="M11.0547 25.9414C11.4268 25.8675 11.8126 25.9056 12.1631 26.0508C12.5135 26.196 12.8136 26.4414 13.0244 26.7568C13.2352 27.0724 13.3477 27.4438 13.3477 27.8232C13.347 28.3319 13.1438 28.819 12.7842 29.1787C12.4245 29.5384 11.9373 29.7415 11.4287 29.7422C11.0492 29.7422 10.6778 29.6298 10.3623 29.4189C10.0469 29.2082 9.8015 28.9081 9.65625 28.5576C9.51107 28.2071 9.47295 27.8213 9.54688 27.4492C9.62091 27.077 9.80294 26.7342 10.0713 26.4658C10.3396 26.1975 10.6825 26.0154 11.0547 25.9414ZM11.6426 26.748C11.4299 26.7057 11.2091 26.7276 11.0088 26.8105C10.8086 26.8936 10.637 27.0336 10.5166 27.2139C10.3962 27.3942 10.332 27.6064 10.332 27.8232C10.3321 28.114 10.4477 28.393 10.6533 28.5986C10.8589 28.8042 11.138 28.9199 11.4287 28.9199C11.6455 28.9199 11.8578 28.8548 12.0381 28.7344C12.218 28.614 12.3585 28.4432 12.4414 28.2432C12.5244 28.0429 12.5462 27.822 12.5039 27.6094C12.4616 27.3968 12.3574 27.2012 12.2041 27.0479C12.0508 26.8946 11.8552 26.7904 11.6426 26.748Z" stroke="black"/>
<path d="M3.55664 29.0137C4.57092 28.7321 5.65032 28.7904 6.62793 29.1807C7.60542 29.571 8.4283 30.2712 8.96973 31.1738C9.49883 30.6968 10.1548 30.3831 10.8584 30.2715C11.5622 30.1599 12.2837 30.2549 12.9346 30.5449C13.5855 30.8351 14.1389 31.3081 14.5264 31.9062C14.9139 32.5044 15.1194 33.2024 15.1182 33.915C15.1182 34.0278 15.1122 34.1395 15.1016 34.249C15.0799 34.4784 14.9734 34.6919 14.8027 34.8467C14.6322 35.0013 14.4099 35.0867 14.1797 35.0859H8.67773C8.65336 35.0854 8.62868 35.0831 8.60449 35.0801C8.58476 35.0812 8.56521 35.0859 8.54492 35.0859H1.1543C0.879945 35.0871 0.614432 34.985 0.411133 34.8008C0.208091 34.6166 0.0814429 34.3628 0.0556641 34.0898C0.0414399 33.9456 0.0341853 33.7989 0.0341797 33.6543H0.0332031C0.0319491 32.6018 0.376259 31.5775 1.0127 30.7393C1.64908 29.9012 2.54274 29.2953 3.55664 29.0137ZM11.4287 31.0479C11.0388 31.0478 10.6527 31.128 10.2949 31.2832C9.93708 31.4385 9.61408 31.6653 9.34766 31.9502C9.55627 32.4943 9.66398 33.0726 9.66504 33.6553C9.66503 33.7999 9.6578 33.9469 9.64355 34.0918C9.63714 34.1498 9.62679 34.2074 9.61133 34.2637H14.1797C14.2053 34.2635 14.23 34.2534 14.249 34.2363C14.268 34.2191 14.2804 34.1954 14.2832 34.1699C14.2911 34.0862 14.2959 34.001 14.2959 33.915C14.2951 33.1549 13.9925 32.4262 13.4551 31.8887C12.9176 31.3512 12.1888 31.0487 11.4287 31.0479ZM4.84961 29.6611C3.79099 29.6623 2.77595 30.0835 2.02734 30.832C1.27897 31.5805 0.857819 32.5949 0.856445 33.6533C0.856445 33.7711 0.862246 33.8914 0.874023 34.0098C0.880657 34.0792 0.913113 34.1436 0.964844 34.1904C1.01669 34.2373 1.08443 34.2631 1.1543 34.2627H8.54492C8.61465 34.2632 8.68255 34.2381 8.73438 34.1914C8.78614 34.1448 8.81836 34.0801 8.8252 34.0107C8.83698 33.8924 8.84277 33.7721 8.84277 33.6543C8.84161 32.5956 8.42046 31.5807 7.67188 30.832C6.92324 30.0834 5.90833 29.6623 4.84961 29.6611Z" fill="black"/>
<path d="M3.55664 29.0137C4.57092 28.7321 5.65032 28.7904 6.62793 29.1807C7.60542 29.571 8.4283 30.2712 8.96973 31.1738C9.49883 30.6968 10.1548 30.3831 10.8584 30.2715C11.5622 30.1599 12.2837 30.2549 12.9346 30.5449C13.5855 30.8351 14.1389 31.3081 14.5264 31.9062C14.9139 32.5044 15.1194 33.2024 15.1182 33.915C15.1182 34.0278 15.1122 34.1395 15.1016 34.249C15.0799 34.4784 14.9734 34.6919 14.8027 34.8467C14.6322 35.0013 14.4099 35.0867 14.1797 35.0859H8.67773C8.65336 35.0854 8.62868 35.0831 8.60449 35.0801C8.58476 35.0812 8.56521 35.0859 8.54492 35.0859H1.1543C0.879945 35.0871 0.614432 34.985 0.411133 34.8008C0.208091 34.6166 0.0814429 34.3628 0.0556641 34.0898C0.0414399 33.9456 0.0341853 33.7989 0.0341797 33.6543H0.0332031C0.0319491 32.6018 0.376259 31.5775 1.0127 30.7393C1.64908 29.9012 2.54274 29.2953 3.55664 29.0137ZM11.4287 31.0479C11.0388 31.0478 10.6527 31.128 10.2949 31.2832C9.93708 31.4385 9.61408 31.6653 9.34766 31.9502C9.55627 32.4943 9.66398 33.0726 9.66504 33.6553C9.66503 33.7999 9.6578 33.9469 9.64355 34.0918C9.63714 34.1498 9.62679 34.2074 9.61133 34.2637H14.1797C14.2053 34.2635 14.23 34.2534 14.249 34.2363C14.268 34.2191 14.2804 34.1954 14.2832 34.1699C14.2911 34.0862 14.2959 34.001 14.2959 33.915C14.2951 33.1549 13.9925 32.4262 13.4551 31.8887C12.9176 31.3512 12.1888 31.0487 11.4287 31.0479ZM4.84961 29.6611C3.79099 29.6623 2.77595 30.0835 2.02734 30.832C1.27897 31.5805 0.857819 32.5949 0.856445 33.6533C0.856445 33.7711 0.862246 33.8914 0.874023 34.0098C0.880657 34.0792 0.913113 34.1436 0.964844 34.1904C1.01669 34.2373 1.08443 34.2631 1.1543 34.2627H8.54492C8.61465 34.2632 8.68255 34.2381 8.73438 34.1914C8.78614 34.1448 8.81836 34.0801 8.8252 34.0107C8.83698 33.8924 8.84277 33.7721 8.84277 33.6543C8.84161 32.5956 8.42046 31.5807 7.67188 30.832C6.92324 30.0834 5.90833 29.6623 4.84961 29.6611Z" stroke="black"/>
<path d="M4.36816 23.3467C4.84669 23.2515 5.34318 23.2996 5.79395 23.4863C6.24473 23.6731 6.63029 23.9898 6.90137 24.3955C7.17227 24.8011 7.31636 25.2779 7.31641 25.7656C7.31568 26.4197 7.05625 27.0473 6.59375 27.5098C6.13125 27.9723 5.50368 28.2317 4.84961 28.2324C4.36188 28.2324 3.88506 28.0883 3.47949 27.8174C3.07379 27.5463 2.75703 27.1607 2.57031 26.71C2.38362 26.2592 2.33548 25.7627 2.43066 25.2842C2.52591 24.8058 2.76056 24.3664 3.10547 24.0215C3.45038 23.6766 3.88978 23.4419 4.36816 23.3467ZM5.1709 24.1523C4.85198 24.0889 4.52114 24.1217 4.2207 24.2461C3.92018 24.3706 3.66314 24.5821 3.48242 24.8525C3.30185 25.1229 3.20512 25.4405 3.20508 25.7656C3.20551 26.2017 3.37916 26.6204 3.6875 26.9287C3.99576 27.2368 4.41375 27.4097 4.84961 27.4102C5.17484 27.4102 5.49323 27.3145 5.76367 27.1338C6.03405 26.9531 6.24464 26.6959 6.36914 26.3955C6.49358 26.0951 6.52627 25.7643 6.46289 25.4453C6.39943 25.1263 6.24271 24.8326 6.0127 24.6025C5.78275 24.3727 5.48979 24.2158 5.1709 24.1523Z" fill="black"/>
<path d="M4.36816 23.3467C4.84669 23.2515 5.34318 23.2996 5.79395 23.4863C6.24473 23.6731 6.63029 23.9898 6.90137 24.3955C7.17227 24.8011 7.31636 25.2779 7.31641 25.7656C7.31568 26.4197 7.05625 27.0473 6.59375 27.5098C6.13125 27.9723 5.50368 28.2317 4.84961 28.2324C4.36188 28.2324 3.88506 28.0883 3.47949 27.8174C3.07379 27.5463 2.75703 27.1607 2.57031 26.71C2.38362 26.2592 2.33548 25.7627 2.43066 25.2842C2.52591 24.8058 2.76056 24.3664 3.10547 24.0215C3.45038 23.6766 3.88978 23.4419 4.36816 23.3467ZM5.1709 24.1523C4.85198 24.0889 4.52114 24.1217 4.2207 24.2461C3.92018 24.3706 3.66314 24.5821 3.48242 24.8525C3.30185 25.1229 3.20512 25.4405 3.20508 25.7656C3.20551 26.2017 3.37916 26.6204 3.6875 26.9287C3.99576 27.2368 4.41375 27.4097 4.84961 27.4102C5.17484 27.4102 5.49323 27.3145 5.76367 27.1338C6.03405 26.9531 6.24464 26.6959 6.36914 26.3955C6.49358 26.0951 6.52627 25.7643 6.46289 25.4453C6.39943 25.1263 6.24271 24.8326 6.0127 24.6025C5.78275 24.3727 5.48979 24.2158 5.1709 24.1523Z" stroke="black"/>
<path d="M21.0225 0C23.7978 -0.00130488 26.511 0.824423 28.8154 2.37109C31.1196 3.91779 32.9108 6.11573 33.9609 8.68457C35.0111 11.2535 35.2729 14.0769 34.7119 16.7949C34.1509 19.513 32.7931 22.0031 30.8115 23.9463L34.4023 30.1641C34.8145 30.9011 34.9194 31.7708 34.6953 32.585C34.4713 33.3991 33.9362 34.0923 33.2051 34.5146C32.4738 34.937 31.6053 35.0546 30.7881 34.8418C29.9708 34.6289 29.2702 34.1025 28.8379 33.377L25.3174 27.2812C22.4697 28.2025 19.4011 28.1842 16.5645 27.2295C13.7278 26.2747 11.2726 24.4342 9.56152 21.9785C8.20618 21.8424 6.8826 21.4831 5.64453 20.915C5.13434 21.24 4.67147 21.6339 4.26953 22.0859C3.47461 23.0527 1.77491 22.6248 1.58301 21.3809C1.32309 20.1309 1.30978 18.842 1.54395 17.5869C0.549256 16.2161 0.00956918 14.5677 0 12.874C0 7.81615 4.88047 3.70028 10.8799 3.7002C11.1011 3.7002 11.3204 3.70779 11.5381 3.71875C14.1157 1.32484 17.5047 -0.00388103 21.0225 0ZM28.541 31.2188L29.5498 32.9658C29.8669 33.515 30.3894 33.9159 31.002 34.0801C31.6144 34.2441 32.2673 34.1588 32.8164 33.8418C33.3654 33.5247 33.7655 33.002 33.9297 32.3896C34.0938 31.7772 34.0084 31.1244 33.6914 30.5752L32.6826 28.8281L28.541 31.2188ZM30.1934 24.5186C28.983 25.5744 27.5997 26.4136 26.1045 27L28.1299 30.5068L32.2715 28.1162L30.1934 24.5186ZM24.5205 1.30078C22.4867 0.74024 20.3475 0.676688 18.2842 1.11621C16.221 1.55576 14.2937 2.48551 12.665 3.82617C13.7877 3.98118 14.8838 4.29128 15.9209 4.74805C17.6235 3.80507 19.5536 3.35111 21.498 3.43652C23.4427 3.52199 25.326 4.14355 26.9395 5.23242C28.5528 6.32128 29.8338 7.8351 30.6406 9.60645C31.4474 11.3779 31.7484 13.3385 31.5107 15.2705C31.2731 17.2023 30.5059 19.0307 29.2939 20.5537C28.0819 22.0768 26.4728 23.2359 24.6436 23.9014C22.8143 24.5668 20.8361 24.7126 18.9287 24.3242C17.0214 23.9358 15.2583 23.0278 13.835 21.7002C12.7838 21.9525 11.7038 22.0668 10.623 22.04C11.8524 23.6268 13.4291 24.9115 15.2314 25.7949C17.0339 26.6784 19.0151 27.137 21.0225 27.1367C23.1319 27.1372 25.2105 26.6306 27.083 25.6592C28.9556 24.6876 30.5678 23.2797 31.7822 21.5547C32.9965 19.8297 33.7775 17.8375 34.0605 15.7471C34.3435 13.6566 34.1201 11.5287 33.4082 9.54297C32.6963 7.55718 31.5175 5.7714 29.9707 4.33691C28.4239 2.90239 26.5543 1.86132 24.5205 1.30078ZM21.9023 4.28809C20.1613 4.13152 18.41 4.44715 16.833 5.20117C19.7973 6.84146 21.7598 9.66773 21.7598 12.874C21.7596 16.7759 18.8566 20.1123 14.7773 21.4365C16.1166 22.5598 17.7339 23.3017 19.459 23.584C21.1841 23.8663 22.9535 23.6788 24.5811 23.041C26.2086 22.4033 27.634 21.3382 28.708 19.959C29.782 18.5799 30.4649 16.9372 30.6846 15.2031C30.9042 13.4689 30.6524 11.7069 29.9561 10.1035C29.2597 8.50036 28.1446 7.11404 26.7275 6.09082C25.3103 5.0675 23.6434 4.44467 21.9023 4.28809ZM10.8799 4.52246C5.33413 4.52255 0.822266 8.26926 0.822266 12.874C0.833746 14.4518 1.35583 15.9834 2.30957 17.2402C2.34909 17.2992 2.37483 17.3664 2.38574 17.4365C2.39664 17.5069 2.39197 17.5791 2.37207 17.6475C2.1359 18.8311 2.14261 20.0504 2.3916 21.2314C2.61089 21.9175 3.18882 21.9637 3.65234 21.543C4.15887 20.9745 4.74959 20.4871 5.40332 20.0967C5.46227 20.0608 5.52972 20.0404 5.59863 20.0371C5.66748 20.0339 5.73584 20.048 5.79785 20.0781C7.38348 20.8392 9.12107 21.2307 10.8799 21.2246C16.4256 21.2246 20.9373 17.4787 20.9375 12.874C20.9375 8.26921 16.4257 4.52246 10.8799 4.52246Z" fill="black"/>
<path d="M21.0225 0C23.7978 -0.00130488 26.511 0.824423 28.8154 2.37109C31.1196 3.91779 32.9108 6.11573 33.9609 8.68457C35.0111 11.2535 35.2729 14.0769 34.7119 16.7949C34.1509 19.513 32.7931 22.0031 30.8115 23.9463L34.4023 30.1641C34.8145 30.9011 34.9194 31.7708 34.6953 32.585C34.4713 33.3991 33.9362 34.0923 33.2051 34.5146C32.4738 34.937 31.6053 35.0546 30.7881 34.8418C29.9708 34.6289 29.2702 34.1025 28.8379 33.377L25.3174 27.2812C22.4697 28.2025 19.4011 28.1842 16.5645 27.2295C13.7278 26.2747 11.2726 24.4342 9.56152 21.9785C8.20618 21.8424 6.8826 21.4831 5.64453 20.915C5.13434 21.24 4.67147 21.6339 4.26953 22.0859C3.47461 23.0527 1.77491 22.6248 1.58301 21.3809C1.32309 20.1309 1.30978 18.842 1.54395 17.5869C0.549256 16.2161 0.00956918 14.5677 0 12.874C0 7.81615 4.88047 3.70028 10.8799 3.7002C11.1011 3.7002 11.3204 3.70779 11.5381 3.71875C14.1157 1.32484 17.5047 -0.00388103 21.0225 0ZM28.541 31.2188L29.5498 32.9658C29.8669 33.515 30.3894 33.9159 31.002 34.0801C31.6144 34.2441 32.2673 34.1588 32.8164 33.8418C33.3654 33.5247 33.7655 33.002 33.9297 32.3896C34.0938 31.7772 34.0084 31.1244 33.6914 30.5752L32.6826 28.8281L28.541 31.2188ZM30.1934 24.5186C28.983 25.5744 27.5997 26.4136 26.1045 27L28.1299 30.5068L32.2715 28.1162L30.1934 24.5186ZM24.5205 1.30078C22.4867 0.74024 20.3475 0.676688 18.2842 1.11621C16.221 1.55576 14.2937 2.48551 12.665 3.82617C13.7877 3.98118 14.8838 4.29128 15.9209 4.74805C17.6235 3.80507 19.5536 3.35111 21.498 3.43652C23.4427 3.52199 25.326 4.14355 26.9395 5.23242C28.5528 6.32128 29.8338 7.8351 30.6406 9.60645C31.4474 11.3779 31.7484 13.3385 31.5107 15.2705C31.2731 17.2023 30.5059 19.0307 29.2939 20.5537C28.0819 22.0768 26.4728 23.2359 24.6436 23.9014C22.8143 24.5668 20.8361 24.7126 18.9287 24.3242C17.0214 23.9358 15.2583 23.0278 13.835 21.7002C12.7838 21.9525 11.7038 22.0668 10.623 22.04C11.8524 23.6268 13.4291 24.9115 15.2314 25.7949C17.0339 26.6784 19.0151 27.137 21.0225 27.1367C23.1319 27.1372 25.2105 26.6306 27.083 25.6592C28.9556 24.6876 30.5678 23.2797 31.7822 21.5547C32.9965 19.8297 33.7775 17.8375 34.0605 15.7471C34.3435 13.6566 34.1201 11.5287 33.4082 9.54297C32.6963 7.55718 31.5175 5.7714 29.9707 4.33691C28.4239 2.90239 26.5543 1.86132 24.5205 1.30078ZM21.9023 4.28809C20.1613 4.13152 18.41 4.44715 16.833 5.20117C19.7973 6.84146 21.7598 9.66773 21.7598 12.874C21.7596 16.7759 18.8566 20.1123 14.7773 21.4365C16.1166 22.5598 17.7339 23.3017 19.459 23.584C21.1841 23.8663 22.9535 23.6788 24.5811 23.041C26.2086 22.4033 27.634 21.3382 28.708 19.959C29.782 18.5799 30.4649 16.9372 30.6846 15.2031C30.9042 13.4689 30.6524 11.7069 29.9561 10.1035C29.2597 8.50036 28.1446 7.11404 26.7275 6.09082C25.3103 5.0675 23.6434 4.44467 21.9023 4.28809ZM10.8799 4.52246C5.33413 4.52255 0.822266 8.26926 0.822266 12.874C0.833746 14.4518 1.35583 15.9834 2.30957 17.2402C2.34909 17.2992 2.37483 17.3664 2.38574 17.4365C2.39664 17.5069 2.39197 17.5791 2.37207 17.6475C2.1359 18.8311 2.14261 20.0504 2.3916 21.2314C2.61089 21.9175 3.18882 21.9637 3.65234 21.543C4.15887 20.9745 4.74959 20.4871 5.40332 20.0967C5.46227 20.0608 5.52972 20.0404 5.59863 20.0371C5.66748 20.0339 5.73584 20.048 5.79785 20.0781C7.38348 20.8392 9.12107 21.2307 10.8799 21.2246C16.4256 21.2246 20.9373 17.4787 20.9375 12.874C20.9375 8.26921 16.4257 4.52246 10.8799 4.52246Z" stroke="black"/>
<path d="M15.4023 9.86719C15.5113 9.86723 15.6163 9.91023 15.6934 9.9873C15.7704 10.0644 15.8135 10.1693 15.8135 10.2783C15.8135 10.3873 15.7704 10.4922 15.6934 10.5693C15.6163 10.6464 15.5113 10.6894 15.4023 10.6895H6.35645C6.24741 10.6894 6.14253 10.6464 6.06543 10.5693C5.98834 10.4922 5.94531 10.3874 5.94531 10.2783C5.94532 10.1693 5.98833 10.0644 6.06543 9.9873C6.14253 9.9102 6.24741 9.8672 6.35645 9.86719H15.4023Z" fill="black"/>
<path d="M15.4023 9.86719C15.5113 9.86723 15.6163 9.91023 15.6934 9.9873C15.7704 10.0644 15.8135 10.1693 15.8135 10.2783C15.8135 10.3873 15.7704 10.4922 15.6934 10.5693C15.6163 10.6464 15.5113 10.6894 15.4023 10.6895H6.35645C6.24741 10.6894 6.14253 10.6464 6.06543 10.5693C5.98834 10.4922 5.94531 10.3874 5.94531 10.2783C5.94532 10.1693 5.98833 10.0644 6.06543 9.9873C6.14253 9.9102 6.24741 9.8672 6.35645 9.86719H15.4023Z" stroke="black"/>
<path d="M15.4023 12.6094C15.5113 12.6094 15.6163 12.6524 15.6934 12.7295C15.7704 12.8066 15.8135 12.9115 15.8135 13.0205C15.8135 13.1295 15.7704 13.2344 15.6934 13.3115C15.6163 13.3886 15.5113 13.4316 15.4023 13.4316H6.35645C6.24741 13.4316 6.14253 13.3886 6.06543 13.3115C5.98834 13.2344 5.94531 13.1295 5.94531 13.0205C5.94532 12.9115 5.98833 12.8066 6.06543 12.7295C6.14253 12.6524 6.24741 12.6094 6.35645 12.6094H15.4023Z" fill="black"/>
<path d="M15.4023 12.6094C15.5113 12.6094 15.6163 12.6524 15.6934 12.7295C15.7704 12.8066 15.8135 12.9115 15.8135 13.0205C15.8135 13.1295 15.7704 13.2344 15.6934 13.3115C15.6163 13.3886 15.5113 13.4316 15.4023 13.4316H6.35645C6.24741 13.4316 6.14253 13.3886 6.06543 13.3115C5.98834 13.2344 5.94531 13.1295 5.94531 13.0205C5.94532 12.9115 5.98833 12.8066 6.06543 12.7295C6.14253 12.6524 6.24741 12.6094 6.35645 12.6094H15.4023Z" stroke="black"/>
<path d="M15.4023 15.3496C15.5113 15.3496 15.6163 15.3927 15.6934 15.4697C15.7704 15.5468 15.8135 15.6517 15.8135 15.7607C15.8135 15.8697 15.7704 15.9747 15.6934 16.0518C15.6163 16.1288 15.5113 16.1718 15.4023 16.1719H6.35645C6.24741 16.1719 6.14253 16.1289 6.06543 16.0518C5.98834 15.9747 5.94531 15.8698 5.94531 15.7607C5.94532 15.6517 5.98833 15.5468 6.06543 15.4697C6.14253 15.3926 6.24741 15.3496 6.35645 15.3496H15.4023Z" fill="black"/>
<path d="M15.4023 15.3496C15.5113 15.3496 15.6163 15.3927 15.6934 15.4697C15.7704 15.5468 15.8135 15.6517 15.8135 15.7607C15.8135 15.8697 15.7704 15.9747 15.6934 16.0518C15.6163 16.1288 15.5113 16.1718 15.4023 16.1719H6.35645C6.24741 16.1719 6.14253 16.1289 6.06543 16.0518C5.98834 15.9747 5.94531 15.8698 5.94531 15.7607C5.94532 15.6517 5.98833 15.5468 6.06543 15.4697C6.14253 15.3926 6.24741 15.3496 6.35645 15.3496H15.4023Z" stroke="black"/>
</svg>
