<svg width="54" height="54" viewBox="0 0 54 54" fill="none" xmlns="http://www.w3.org/2000/svg">
<path fill-rule="evenodd" clip-rule="evenodd" d="M49.3165 32.258C46.9553 42.291 38.1167 49.5306 27.8122 49.9088L27.8098 53.1827C27.8098 53.6343 27.444 54 26.99 54C26.5383 54 26.1726 53.6343 26.1726 53.1827L26.175 49.1063C26.175 48.6547 26.5408 48.289 26.9924 48.289C36.928 48.2792 45.4529 41.5325 47.7232 31.8828C47.8263 31.4435 48.2681 31.1711 48.7074 31.2742C49.1468 31.3772 49.422 31.8187 49.3165 32.258ZM53.9997 26.9766C53.9997 27.4282 53.634 27.7963 53.1823 27.7963L49.1127 27.8012C48.6611 27.8012 48.2954 27.4331 48.2954 26.984C48.2929 17.0936 41.5795 8.57983 31.9706 6.28285C31.5313 6.17731 31.2613 5.73556 31.3644 5.29626C31.4699 4.85696 31.9117 4.58455 32.3511 4.69007C37.2748 5.86809 41.7394 8.70759 44.9207 12.6862C48.0282 16.5712 49.7463 21.2144 49.9181 26.1646L53.1826 26.1597C53.6343 26.1597 53.9997 26.525 53.9997 26.9766ZM4.67617 21.7172C7.03741 11.6843 15.8735 4.44462 26.1804 4.07645V0.817263C26.1804 0.365689 26.5462 0 26.9978 0C27.4495 0 27.8152 0.365676 27.8152 0.817263L27.8127 4.87895C27.8127 5.33298 27.4495 5.69621 26.9856 5.69621C17.0569 5.69621 8.5351 12.4357 6.26422 22.088C6.16113 22.5297 5.71686 22.7997 5.27996 22.6966C4.8455 22.5984 4.57308 22.1565 4.67617 21.7172ZM22.7094 48.6961C22.6039 49.1403 22.1645 49.4078 21.7251 49.3047C16.7793 48.1414 12.2948 45.3068 9.09893 41.3212C6.02343 37.4877 4.25618 32.7169 4.07942 27.8082H0.817367C0.365735 27.8082 0 27.4425 0 26.991C0 26.5394 0.365723 26.1737 0.817367 26.1737L4.88454 26.1712C5.33617 26.1712 5.7019 26.5394 5.7019 26.9885C5.7019 36.9184 12.4442 45.4416 22.1008 47.7116C22.5401 47.8147 22.8149 48.2568 22.7094 48.6961ZM26.9974 30.5816C26.4133 30.5816 26.4133 29.6956 26.9974 29.6956C27.5816 29.6956 27.5816 30.5816 26.9974 30.5816ZM26.9974 28.0587C25.8512 28.0587 24.9185 28.9913 24.9185 30.1374C24.9185 31.286 25.8512 32.2186 26.9974 32.2186C28.1437 32.2186 29.0789 31.286 29.0789 30.1374C29.0764 28.9913 28.1437 28.0587 26.9974 28.0587ZM27.5816 20.4534C27.427 20.2791 27.3092 20.2202 26.9337 20.2202C26.5115 20.2202 26.1948 20.5785 26.2415 20.9933L26.7495 25.4674C26.7765 25.7005 27.1963 25.7005 27.2233 25.4674L27.751 20.9933C27.778 20.7847 27.724 20.6104 27.5816 20.4534ZM25.1909 19.3588C24.7491 19.8521 24.5404 20.5172 24.6165 21.1773L25.1246 25.6538C25.2302 26.5938 26.0156 27.276 26.9876 27.276C27.9571 27.276 28.7401 26.5962 28.8505 25.6612L29.3783 21.1871C29.4593 20.5073 29.2604 19.8766 28.8039 19.3637C28.1878 18.6691 27.4809 18.5808 26.9311 18.5808C26.2659 18.5833 25.6302 18.8655 25.1909 19.3588ZM28.6763 16.7917C27.9228 15.4517 26.0721 15.4517 25.3185 16.7917L17.4515 30.7835C16.7004 32.121 17.6012 33.8193 19.1304 33.8193H34.8613C36.3905 33.8193 37.2913 32.121 36.5402 30.7835L28.6763 16.7917ZM23.8925 15.9917L16.0254 29.9834C14.6509 32.4253 16.3691 35.4563 19.1304 35.4563H34.8613C37.6226 35.4563 39.3408 32.4253 37.9663 29.9834L30.1018 15.9917C28.7223 13.5375 25.2694 13.5375 23.8925 15.9917ZM40.7086 29.2471V16.51C35.5885 14.5613 30.9835 11.9059 26.9978 8.60501C23.0116 11.9059 18.4044 14.5614 13.287 16.51V29.2496C13.287 33.4807 15.1942 37.147 18.6551 39.5791L26.9978 45.4373L35.3405 39.5791C38.8014 37.147 40.7086 33.4779 40.7086 29.2471ZM26.465 6.91369C22.3119 10.46 17.6409 13.1621 12.1843 15.1743C11.8627 15.2921 11.6492 15.5989 11.6492 15.9425V29.2494C11.6492 34.0278 13.8018 38.1728 17.7143 40.919L26.5283 47.1086C26.8105 47.3073 27.1885 47.3073 27.4683 47.1086L36.2823 40.919C40.1924 38.1727 42.3474 34.0274 42.3474 29.2494L42.345 15.9425C42.345 15.6013 42.1314 15.2921 41.8099 15.1743C36.3535 13.1643 31.6801 10.4598 27.5292 6.91369C27.2224 6.65355 26.7708 6.65355 26.4639 6.91369H26.465Z" fill="black"/>
</svg>
