<svg width="38" height="29" viewBox="0 0 38 29" fill="none" xmlns="http://www.w3.org/2000/svg">
<path d="M37.0613 12.3958C37.0436 12.357 37.0258 12.3201 37.001 12.2848C36.376 11.2441 35.2414 10.5379 33.9328 10.5379H29.7105L29.105 9.0164C28.7375 8.09362 27.855 7.4984 26.8536 7.4984H23.5706V0.741515C23.5706 0.352332 23.2527 0.0371094 22.8603 0.0371094H7.27805C6.88565 0.0371094 6.56783 0.352332 6.56783 0.741515V4.15084H5.17401C5.0799 4.15084 4.9858 4.17021 4.90057 4.20543C4.81357 4.24065 4.73545 4.29348 4.67152 4.35864L0.697795 8.29979C0.632099 8.36495 0.580608 8.44244 0.543322 8.52697C0.507811 8.61149 0.488281 8.70483 0.488281 8.79816V27.3575C0.488281 27.7467 0.806109 28.0619 1.19851 28.0619H33.9349C35.9093 28.0619 37.5162 26.4682 37.5162 24.5099L37.5144 14.0901C37.5144 13.4738 37.3401 12.9012 37.0613 12.3958ZM35.6569 12.8131L35.2645 14.3523C34.8987 15.7928 33.702 16.9022 32.2229 17.1822L26.8911 18.1701C26.4721 17.3566 25.6287 16.793 24.6468 16.793C23.6667 16.793 22.8233 17.3566 22.4042 18.1684L17.0738 17.1822C15.5912 16.9022 14.3963 15.791 14.0305 14.3505L13.6381 12.8114C14.0323 12.2883 14.6555 11.945 15.3639 11.945H33.9362C34.6394 11.9467 35.2627 12.2901 35.6569 12.8131ZM24.6464 18.2018C25.2572 18.2018 25.7544 18.6949 25.7544 19.3007C25.7544 19.9064 25.2572 20.3978 24.6464 20.3978C24.0357 20.3978 23.5402 19.9047 23.5402 19.3007C23.5402 18.6949 24.0374 18.2018 24.6464 18.2018ZM27.7821 9.53388L28.1816 10.5377H21.1111L21.5106 9.53388C21.6633 9.1535 22.0273 8.90697 22.441 8.90697H22.8459C22.8512 8.90697 22.8547 8.91049 22.8601 8.91049C22.8654 8.91049 22.8689 8.90697 22.8743 8.90697H26.8533C27.2652 8.90697 27.6311 9.15352 27.7821 9.53388ZM7.98797 1.44573H22.1498V7.51962C21.2727 7.62352 20.5216 8.1853 20.1913 9.01648L19.5859 10.538H18.5756V4.85541C18.5756 4.46623 18.2577 4.15101 17.8653 4.15101H7.98806L7.98797 1.44573ZM4.46347 6.55622V8.09536L2.9116 8.0936L4.46347 6.55622ZM1.90665 9.50242H5.17192C5.56432 9.50242 5.88215 9.18719 5.88215 8.79801V5.5595H17.1535V10.5379H15.3602C14.0516 10.5379 12.917 11.2441 12.292 12.2848C12.2672 12.3201 12.2494 12.357 12.2316 12.3958C11.9529 12.9012 11.7789 13.4735 11.7789 14.0881V24.5097C11.7789 25.318 12.063 26.0559 12.5228 26.6529H1.90692L1.90665 9.50242ZM33.9326 26.6529H15.3621C14.1707 26.6529 13.2012 25.6914 13.2012 24.5098V16.0254C13.963 17.3285 15.2716 18.2777 16.811 18.5683L22.1446 19.5544C22.2742 20.8153 23.3396 21.8068 24.6464 21.8068C25.9514 21.8068 27.0167 20.8171 27.1482 19.5562L32.4836 18.5683C34.0212 18.2777 35.3298 17.3285 36.0916 16.0271V24.5134C36.0933 25.6932 35.124 26.6529 33.9326 26.6529Z" fill="black"/>
<path d="M8.62933 9.0655H14.2421C14.6345 9.0655 14.9523 8.75028 14.9523 8.3611C14.9523 7.97191 14.6345 7.65669 14.2421 7.65669H8.62933C8.23693 7.65669 7.9191 7.97191 7.9191 8.3611C7.9191 8.75028 8.23693 9.0655 8.62933 9.0655Z" fill="black"/>
<path d="M9.82406 13.4367H4.62179C4.22939 13.4367 3.91156 13.7519 3.91156 14.1411C3.91156 14.5303 4.22939 14.8455 4.62179 14.8455H9.82406C10.2165 14.8455 10.5343 14.5303 10.5343 14.1411C10.5343 13.7502 10.2165 13.4367 9.82406 13.4367Z" fill="black"/>
<path d="M9.82406 16.7931H4.62179C4.22939 16.7931 3.91156 17.1083 3.91156 17.4975C3.91156 17.8867 4.22939 18.2019 4.62179 18.2019H9.82406C10.2165 18.2019 10.5343 17.8867 10.5343 17.4975C10.5343 17.1083 10.2165 16.7931 9.82406 16.7931Z" fill="black"/>
</svg>
