<svg width="34" height="37" viewBox="0 0 34 37" fill="none" xmlns="http://www.w3.org/2000/svg">
<path fill-rule="evenodd" clip-rule="evenodd" d="M33.507 7.17584C34.7273 13.1128 33.642 19.3165 30.6955 24.6793C27.8173 29.9191 23.1633 34.3596 17.1488 36.9688C17.048 37.0121 16.942 37.0086 16.8498 36.9688C10.8371 34.3593 6.18301 29.9191 3.30488 24.6811C0.35662 19.3152 -0.728694 13.1097 0.495057 7.1692C0.520694 7.04807 0.599313 6.95116 0.701864 6.90098L7.20675 3.72043C7.25973 3.69447 7.31613 3.68236 7.37253 3.68236V3.68063H26.6312C26.6996 3.68063 26.7645 3.69966 26.8209 3.73254L33.3004 6.90095C33.4115 6.9546 33.4848 7.05991 33.507 7.17584ZM24.9356 0.949587C25.4364 0.949587 25.4364 1.72137 24.9356 1.72137H22.6642C22.1634 1.72137 22.1634 0.949587 22.6642 0.949587H24.9356ZM20.5314 0.949587C21.0321 0.949587 21.0321 1.72137 20.5314 1.72137H19.0154C18.5146 1.72137 18.5146 0.949587 19.0154 0.949587H20.5314ZM17.5011 0.949587C18.0018 0.949587 18.0018 1.72137 17.5011 1.72137H8.82206C8.3213 1.72137 8.3213 0.949587 8.82206 0.949587H17.5011ZM26.6876 1.72137C26.1869 1.72137 26.1869 0.949587 26.6876 0.949587H27.2499V0.380253C27.2499 -0.126751 28.0122 -0.126751 28.0122 0.380253V0.949587H28.5745C29.0753 0.949587 29.0753 1.72137 28.5745 1.72137H28.0122V2.2907C28.0122 2.79771 27.2499 2.79771 27.2499 2.2907V1.72137H26.6876ZM30.1059 2.88941H31.4817V4.28239C31.4817 4.7894 32.244 4.7894 32.244 4.28239V2.88941H33.6199C34.1206 2.88941 34.1206 2.11935 33.6199 2.11935H32.244V0.726363C32.244 0.219359 31.4817 0.219359 31.4817 0.726363V2.11935H30.1059C29.6051 2.11762 29.6051 2.88941 30.1059 2.88941ZM29.0394 21.585C29.7966 19.8944 30.3571 18.1224 30.6973 16.3125C31.1331 13.9868 31.2066 11.5986 30.8682 9.23483C30.8494 9.09812 30.7605 8.9891 30.6443 8.93719L25.9972 6.66512C25.9442 6.63917 25.8878 6.62706 25.8314 6.62706L8.16929 6.62532C8.10093 6.62532 8.03598 6.64436 7.97958 6.67551L3.3443 8.94239C3.22637 8.99949 3.15117 9.11197 3.13408 9.23483C2.79567 11.5969 2.86916 13.9868 3.30499 16.3125C3.75618 18.7144 4.58684 21.0264 5.74562 23.1736C6.82923 25.1809 8.17431 27.0065 9.73133 28.6175C9.99796 28.9134 11.02 29.8807 11.314 30.1178C12.7548 31.3689 14.3392 32.4556 16.0328 33.3554L16.8361 33.7638C16.9438 33.8157 17.0634 33.8123 17.1626 33.7638L17.9658 33.3554C19.6613 32.4539 21.244 31.3672 22.6847 30.1178L23.5615 29.3201C25.4295 27.536 27.0105 25.4785 28.2549 23.1735C28.3951 22.914 28.9625 21.8065 29.0394 21.585ZM28.2993 21.3756V15.5822H24.3615V27.3977C25.9595 25.6119 27.2978 23.5803 28.2993 21.3756ZM23.5993 28.2092V15.1981C23.5993 14.9852 23.7702 14.8122 23.9804 14.8122H28.6805C28.8907 14.8122 29.0616 14.9852 29.0616 15.1981V19.4844C29.4427 18.4029 29.7401 17.2954 29.9503 16.1706C30.3588 13.9937 30.4374 11.7597 30.1435 9.54653L25.7475 7.39731L8.253 7.39558L3.85705 9.5448C3.56307 11.758 3.6417 13.992 4.05018 16.1689C4.26041 17.2919 4.55952 18.4011 4.93891 19.4827V18.2229C4.93891 18.01 5.10982 17.837 5.32004 17.837H10.0201C10.2303 17.837 10.4012 18.01 10.4012 18.2229V28.2093L11.1601 28.9482V13.1648C11.1601 12.952 11.331 12.7789 11.5412 12.7789H16.2413C16.4515 12.7789 16.6224 12.952 16.6224 13.1648V32.8C16.7489 32.8657 16.8753 32.9298 17.0018 32.9921C17.1283 32.9298 17.2548 32.8657 17.3812 32.8L17.3795 10.5206C17.3795 10.3077 17.5504 10.1347 17.7607 10.1347H22.4607C22.6709 10.1347 22.8418 10.3077 22.8418 10.5206V28.9482L23.5993 28.2092ZM22.0799 29.6299V10.9064H18.142V32.3862C19.5435 31.5971 20.863 30.6751 22.0799 29.6299ZM15.8603 32.3882V13.5491H11.9224V29.6302C13.1376 30.6754 14.4571 31.5974 15.8603 32.3882ZM9.6389 27.3975V18.6085H5.70106V21.3755C5.92154 21.86 6.15741 22.3359 6.41035 22.8048C7.30936 24.4712 8.39638 26.008 9.6389 27.3975ZM30.0321 24.3052C32.8625 19.1536 33.9238 13.2078 32.7992 7.50779L26.5455 4.45013L7.45611 4.45186L1.20238 7.50952C0.0777723 13.2095 1.13914 19.1536 3.96946 24.3069C6.74511 29.3597 11.2212 33.6496 17.0015 36.1968C22.7801 33.6479 27.2568 29.3579 30.0321 24.3052Z" fill="black"/>
</svg>
