<svg width="42" height="37" viewBox="0 0 42 37" fill="none" xmlns="http://www.w3.org/2000/svg">
<path d="M8.75 21C9.7165 21 10.5 21.7835 10.5 22.75V23.832L11.1397 23.8326L11.2022 23.8246C11.2427 23.8142 11.2803 23.7936 11.3113 23.7644C12.9013 22.2645 14.2893 21.43 15.5247 21.2904C17.6665 21.0483 19.8418 21.3869 21.3647 22.4455L21.5882 22.6097L21.819 22.7806C22.5899 23.3239 23.4503 23.6622 24.4097 23.798L24.7332 23.8358L29.9389 23.8326L30.0763 23.8893L30.245 23.9664C31.1175 24.4063 31.5542 25.3019 31.5715 26.5219C31.5739 26.6945 31.5695 26.8594 31.5581 27.0168C33.4374 26.1119 34.8095 25.44 35.6709 25.0018L35.8265 24.9224L36.5318 24.5538C37.9027 23.8533 38.6238 23.795 39.9937 24.2403C41.7726 24.8187 42.1015 28.151 40.7059 29.1017C39.1847 30.1379 29.1302 35.3777 27.692 35.6533C26.6718 35.8488 26.0318 35.8937 25.3572 35.826L25.2737 35.8171L25.1887 35.807L24.812 35.7527C24.7686 35.7458 24.6816 35.7314 24.588 35.7158L24.4935 35.7001L23.6556 35.5512C23.2533 35.4744 22.6867 35.3627 21.955 35.2158L21.6729 35.159L13.5961 33.5H10.5V34.75C10.5 35.7165 9.7165 36.5 8.75 36.5H1.75C0.783502 36.5 0 35.7165 0 34.75V22.75C0 21.7835 0.783502 21 1.75 21H8.75ZM8.75 22.5H1.75C1.61193 22.5 1.5 22.6119 1.5 22.75V34.75C1.5 34.8881 1.61193 35 1.75 35H8.75C8.88807 35 9 34.8881 9 34.75L9.0008 32.8518L8.99395 32.75C8.99395 32.7155 8.99628 32.6815 9.0008 32.6482L9 22.75C9 22.6119 8.88807 22.5 8.75 22.5ZM15.6932 22.7809C14.8501 22.8762 13.7161 23.558 12.3406 24.8555C12.0564 25.1236 11.692 25.2878 11.3062 25.3246L11.1398 25.3326L10.5 25.332V32H13.6703L13.8225 32.0156L21.8187 33.6582C22.9502 33.8866 23.7405 34.0424 24.1877 34.1251L24.2923 34.1443L25.2966 34.3084L25.5069 34.3335C26.0228 34.3852 26.5219 34.3503 27.4097 34.1802C28.5211 33.9672 37.3712 29.3764 39.5385 28.0662L39.6628 27.9901L39.8614 27.862C40.2577 27.592 40.0856 25.8475 39.5299 25.6669C38.5511 25.3486 38.223 25.3648 37.1922 25.9003L36.9903 26.0068L36.7754 26.1203C36.36 26.3373 35.7667 26.6353 34.9949 27.0149L34.697 27.1611L30.5566 29.1586C30.4503 29.2094 30.3381 29.2329 30.2277 29.232C29.8764 29.3858 29.4531 29.4691 28.9564 29.4819C28.6185 29.4906 28.1092 29.4962 27.4279 29.4986L27.1643 29.4994L22.2231 29.4821C21.8089 29.4794 21.4754 29.1413 21.4781 28.7271C21.4809 28.3129 21.8189 27.9794 22.2331 27.9822C24.9817 28.0006 26.9417 28.0047 28.1072 27.9947L28.2761 27.993L29.0477 27.9772C29.8385 27.9332 30.0638 27.6674 30.0722 26.7093L30.0716 26.5431L30.0651 26.3638C30.0376 25.9062 29.9286 25.611 29.7438 25.4315L29.671 25.3695L29.6148 25.332L24.664 25.3326L24.3372 25.297C22.9357 25.1178 21.7267 24.6166 20.6681 23.7943C19.5033 22.8896 17.59 22.5665 15.6932 22.7809ZM5.25 29C6.49264 29 7.5 30.0074 7.5 31.25C7.5 32.4926 6.49264 33.5 5.25 33.5C4.00736 33.5 3 32.4926 3 31.25C3 30.0074 4.00736 29 5.25 29ZM5.25 30.5C4.83579 30.5 4.5 30.8358 4.5 31.25C4.5 31.6642 4.83579 32 5.25 32C5.66421 32 6 31.6642 6 31.25C6 30.8358 5.66421 30.5 5.25 30.5ZM28.25 0C33.9109 0 38.5 4.58908 38.5 10.25C38.5 15.9109 33.9109 20.5 28.25 20.5C22.5891 20.5 18 15.9109 18 10.25C18 4.58908 22.5891 0 28.25 0ZM28.25 1.5C23.4175 1.5 19.5 5.41751 19.5 10.25C19.5 15.0825 23.4175 19 28.25 19C33.0825 19 37 15.0825 37 10.25C37 5.41751 33.0825 1.5 28.25 1.5ZM33.5462 7.33756C33.8125 7.60383 33.8367 8.02049 33.6189 8.3141L33.5462 8.39822L27.7803 14.1641C27.5141 14.4304 27.0974 14.4546 26.8038 14.2368L26.7197 14.1641L23.3789 10.8234C23.086 10.5305 23.086 10.0556 23.3789 9.76273C23.6452 9.49647 24.0619 9.47226 24.3555 9.69011L24.4396 9.76273L27.25 12.573L32.4856 7.33756C32.7785 7.04467 33.2534 7.04467 33.5462 7.33756Z" fill="black"/>
</svg>
