<svg width="32" height="25" viewBox="0 0 32 25" fill="none" xmlns="http://www.w3.org/2000/svg">
<path d="M30.6874 0.376953H1.31251C0.589491 0.376953 0 0.971458 0 1.70828V23.5716C0 24.307 0.585236 24.9029 1.31251 24.9029L30.6874 24.9015C31.4104 24.9015 31.9999 24.307 31.9999 23.5702V1.70831C31.9999 0.972899 31.4147 0.376953 30.6874 0.376953ZM31.2868 23.5704C31.2868 23.9057 31.0184 24.1804 30.6874 24.1804H1.31251C0.981542 24.1804 0.713091 23.9057 0.713091 23.5704V5.78679H31.2869L31.2868 23.5704ZM31.2868 5.06548H0.713018V1.70828C0.713018 1.37298 0.981484 1.09826 1.31244 1.09826H30.6873C31.0183 1.09826 31.2868 1.37298 31.2868 1.70828L31.2868 5.06548Z" fill="black"/>
<path d="M3.21018 1.81958H2.12353C1.73433 1.81958 1.42182 2.13656 1.42182 2.52964V3.63274C1.42182 4.02578 1.73432 4.3428 2.12353 4.3428H3.21018C3.59938 4.3428 3.91189 4.02581 3.91189 3.63274V2.52964C3.91189 2.13659 3.59939 1.81958 3.21018 1.81958ZM3.19882 3.62285L2.13347 3.63413L2.12211 2.54091L3.1988 2.52964L3.19882 3.62285Z" fill="black"/>
<path d="M6.41055 1.81958H5.32389C4.93469 1.81958 4.62218 2.13656 4.62218 2.52964V3.63274C4.62218 4.02578 4.93468 4.3428 5.32389 4.3428H6.41055C6.79975 4.3428 7.11225 4.02581 7.11225 3.63274V2.52964C7.11225 2.13659 6.79975 1.81958 6.41055 1.81958ZM6.39918 3.62285L5.33384 3.63413L5.32247 2.54091L6.39916 2.52964L6.39918 3.62285Z" fill="black"/>
<path d="M28.8155 22.7375C29.3936 22.7375 29.8666 22.2586 29.8666 21.6697L29.8652 8.29728C29.8652 7.70981 29.3922 7.22941 28.814 7.22941H17.7628C17.1847 7.22941 16.7116 7.7084 16.7116 8.29728V21.6697C16.7116 22.2571 17.1847 22.7375 17.7628 22.7375H28.8155ZM17.4219 8.29724C17.4219 8.10564 17.5753 7.95067 17.7642 7.95067H28.8155C29.0044 7.95067 29.1578 8.10564 29.1578 8.29724V21.6696C29.1578 21.8612 29.0044 22.0162 28.8155 22.0162H17.7642C17.5753 22.0162 17.4219 21.8612 17.4219 21.6696V8.29724Z" fill="black"/>
<path d="M3.18607 14.4425H14.2373C14.8155 14.4425 15.2885 13.9635 15.2885 13.3746V8.29728C15.2885 7.70981 14.8155 7.22941 14.2373 7.22941H3.18607C2.60796 7.22941 2.13494 7.7084 2.13494 8.29728V13.3746C2.13494 13.9621 2.60796 14.4425 3.18607 14.4425ZM2.84374 8.29724C2.84374 8.10564 2.99715 7.95067 3.18607 7.95067H14.2373C14.4263 7.95067 14.5797 8.10564 14.5797 8.29724V13.3746C14.5797 13.5662 14.4263 13.7211 14.2373 13.7211H3.18607C2.99715 13.7211 2.84374 13.5662 2.84374 13.3746V8.29724Z" fill="black"/>
<path d="M3.18607 22.7375H14.2373C14.8155 22.7375 15.2885 22.2585 15.2885 21.6697V16.5924C15.2885 16.0049 14.8155 15.5245 14.2373 15.5245H3.18607C2.60796 15.5245 2.13494 16.0035 2.13494 16.5924V21.6697C2.13494 22.2571 2.60796 22.7375 3.18607 22.7375ZM2.84374 16.5923C2.84374 16.4007 2.99715 16.2458 3.18607 16.2458H14.2373C14.4263 16.2458 14.5797 16.4007 14.5797 16.5923V21.6696C14.5797 21.8612 14.4263 22.0162 14.2373 22.0162H3.18607C2.99715 22.0162 2.84374 21.8612 2.84374 21.6696V16.5923Z" fill="black"/>
</svg>
