<svg width="77" height="77" viewBox="0 0 77 77" fill="none" xmlns="http://www.w3.org/2000/svg">
<path d="M38.5136 17.4836C32.9015 17.4836 27.6271 19.6706 23.6677 23.6453C19.6928 27.6077 17.5058 32.8784 17.5058 38.4937C17.5058 43.2025 19.0508 47.6687 21.8922 51.3235C21.9076 51.345 21.926 51.3665 21.9445 51.3881C22.4759 52.0669 23.0472 52.7211 23.6677 53.3386C27.6303 57.3133 32.9013 59.5002 38.5168 59.5002C44.1289 59.5002 49.4033 57.3101 53.3627 53.3386C53.9832 52.7212 54.5545 52.0669 55.086 51.3881C55.1044 51.3665 55.1228 51.345 55.1382 51.3205C57.9796 47.6653 59.5216 43.1992 59.5216 38.4937C59.5216 32.8788 57.3345 27.6077 53.3627 23.6485C49.4001 19.6707 44.126 17.4836 38.5136 17.4836ZM52.2012 52.1776C48.5489 55.8421 43.6864 57.8571 38.5136 57.8571C33.3377 57.8571 28.478 55.839 24.8229 52.1745C24.3376 51.6923 23.8829 51.1855 23.4559 50.6602C24.1409 47.7176 26.838 45.5398 29.8852 45.5398H47.1366C50.1838 45.5398 52.8808 47.7176 53.5658 50.6602C53.1419 51.1885 52.6866 51.6953 52.2012 52.1776ZM54.7631 49.0261C53.519 45.979 50.5516 43.9057 47.139 43.9057H43.9935C46.7519 42.1057 48.5857 38.9942 48.5857 35.4589C48.5857 29.9115 44.061 25.3993 38.5013 25.3993C32.9537 25.3993 28.4412 29.9115 28.4412 35.4589C28.4412 38.9943 30.2689 42.1028 33.0212 43.9057H29.888C26.4753 43.9057 23.5049 45.979 22.2639 49.0261C20.2335 45.9176 19.1429 42.29 19.1429 38.4908C19.1429 33.3151 21.1611 28.4555 24.8257 24.8006C28.478 21.1362 33.3406 19.1212 38.5133 19.1212C43.6892 19.1212 48.549 21.1392 52.2041 24.8037C55.8656 28.4559 57.8838 33.3182 57.8838 38.4907C57.8838 42.2903 56.7905 45.9179 54.7631 49.0261ZM38.5009 43.9057C33.8564 43.9057 30.0781 40.1184 30.0781 35.4589C30.0781 30.8146 33.8563 27.0364 38.5009 27.0364C43.1577 27.0364 46.9481 30.8145 46.9481 35.4589C46.945 40.1155 43.1576 43.9057 38.5009 43.9057ZM19.6925 13.34C19.8583 13.34 20.0273 13.2878 20.1747 13.1834C23.9284 10.4589 28.3089 8.6036 32.8793 7.77425C33.0053 8.15513 33.1712 8.52987 33.38 8.89234C34.4398 10.7138 36.4027 11.8472 38.5068 11.8472C39.542 11.8472 40.5649 11.5708 41.4588 11.0517C42.7427 10.3237 43.6827 9.16575 44.1404 7.77425C48.7112 8.60053 53.0949 10.4558 56.8482 13.1834C56.9926 13.2878 57.1615 13.34 57.3305 13.34C57.5854 13.34 57.8342 13.2233 57.994 13.0022C58.2582 12.6366 58.1783 12.1237 57.8127 11.8565C53.8594 8.98452 49.2452 7.03402 44.435 6.16165C44.4811 5.0497 44.2169 3.94702 43.6425 2.96103C42.5827 1.13343 40.6076 0 38.4911 0C37.4621 0 36.4422 0.270303 35.5361 0.783262C33.5671 1.92589 32.5042 4.03303 32.5872 6.16165C27.7737 7.03401 23.1633 8.98758 19.2094 11.8565C18.8439 12.1237 18.761 12.6336 19.0282 13.0021C19.1879 13.2233 19.4406 13.34 19.6925 13.34ZM36.351 2.20236C37.0083 1.83069 37.7455 1.63411 38.492 1.63411C40.0248 1.63411 41.4562 2.45732 42.2273 3.7812C42.8048 4.77332 42.9584 5.93443 42.6543 7.04017C42.3563 8.14285 41.6436 9.06129 40.6422 9.62651C39.991 10.0043 39.2508 10.204 38.5043 10.204C36.9837 10.204 35.5615 9.38383 34.7967 8.06302C33.6079 6.02342 34.3082 3.39107 36.351 2.20236ZM76.2224 35.5391C75.1656 33.7023 73.1936 32.5596 71.0741 32.5596C70.9973 32.5596 70.9205 32.5719 70.8406 32.5749C69.9682 27.7586 68.0145 23.1452 65.1456 19.1891C64.8783 18.8236 64.3684 18.7438 63.9998 19.0079C63.6343 19.2751 63.5513 19.785 63.8186 20.1536C66.5463 23.9102 68.4016 28.2938 69.231 32.8702C68.844 32.9992 68.4661 33.1528 68.1129 33.3586C65.293 34.9958 64.3254 38.6326 65.9565 41.4618C66.6845 42.7366 67.8671 43.6642 69.231 44.1126C68.4016 48.6894 66.5493 53.0729 63.8186 56.8261C63.5544 57.1917 63.6343 57.7046 63.9998 57.9718C64.1442 58.0763 64.3131 58.1285 64.4821 58.1285C64.737 58.1285 64.9858 58.0118 65.1456 57.7906C68.0176 53.8374 69.9682 49.2235 70.8406 44.4071C70.9205 44.4102 70.9973 44.4225 71.0772 44.4225C72.1154 44.4225 73.1414 44.1461 74.0445 43.6208C76.8582 41.9867 77.8351 38.3616 76.2224 35.5391ZM73.2213 42.2046C72.567 42.5824 71.8267 42.7851 71.0771 42.7851C69.5474 42.7851 68.1313 41.968 67.3757 40.6472C66.1931 38.5953 66.8934 35.9599 68.9331 34.7742C69.5843 34.3964 70.3246 34.1967 71.0742 34.1967C72.6069 34.1967 74.0353 35.023 74.8002 36.353C75.9675 38.3957 75.2578 41.022 73.2213 42.2046ZM56.849 63.7981C53.1076 66.5134 48.7305 68.3749 44.1475 69.2257C44.0185 68.8356 43.8526 68.4547 43.6437 68.0892C42.584 66.2646 40.618 65.1343 38.5109 65.1343C37.4726 65.1343 36.4436 65.4107 35.5343 65.936C34.2226 66.6977 33.3165 67.8895 32.8834 69.2287C28.2972 68.3779 23.9171 66.5165 20.1724 63.7981C19.8038 63.5309 19.2939 63.6138 19.0267 63.9794C18.7625 64.3449 18.8424 64.8579 19.2079 65.1251C23.149 67.9847 27.7629 69.9475 32.592 70.8413C32.549 71.9195 32.7978 73.0191 33.3753 74.0205C34.4351 75.8573 36.401 77 38.5082 77C39.5433 77 40.5632 76.7235 41.4601 76.2014C42.8393 75.4059 43.8254 74.1281 44.237 72.6015C44.3936 72.0179 44.4581 71.425 44.4366 70.8383C49.2593 69.9445 53.8699 67.9848 57.8112 65.1251C58.1768 64.8579 58.2597 64.348 57.9925 63.9794C57.7283 63.6139 57.2184 63.531 56.8498 63.7982L56.849 63.7981ZM42.6573 72.1742C42.3594 73.2799 41.6467 74.2045 40.6423 74.782C39.9911 75.1598 39.2538 75.3595 38.5105 75.3595C36.99 75.3595 35.5647 74.5301 34.7967 73.197C33.6141 71.1606 34.3144 68.5374 36.3572 67.3517C37.0176 66.9708 37.7641 66.7712 38.5136 66.7712C40.0372 66.7712 41.4624 67.5913 42.2274 68.9091C42.8018 69.9104 42.9553 71.0685 42.6573 72.1742ZM13.0237 19.0076C12.6551 18.7404 12.1452 18.8233 11.878 19.1889C9.01816 23.1297 7.0553 27.7434 6.16143 32.5747C6.08463 32.5716 6.01091 32.5593 5.93718 32.5593C4.902 32.5593 3.88216 32.8357 2.98522 33.3579C1.60294 34.1534 0.616907 35.4312 0.205241 36.9578C-0.206377 38.4844 0.00557348 40.0848 0.801162 41.4701C1.86096 43.2915 3.82689 44.425 5.93098 44.425C6.00777 44.425 6.08457 44.4127 6.15829 44.4096C7.05216 49.2382 9.01195 53.8519 11.8748 57.7931C12.0345 58.0142 12.2864 58.1309 12.5383 58.1309C12.7042 58.1309 12.8731 58.0787 13.0206 57.9743C13.3861 57.7071 13.4691 57.1972 13.2018 56.8286C10.4833 53.0874 8.62184 48.7042 7.77098 44.1151C8.16417 43.9861 8.54814 43.8294 8.91059 43.6206C11.7335 41.9803 12.7011 38.3527 11.067 35.5394C10.3267 34.2524 9.13793 33.3186 7.77098 32.8671C8.62184 28.2781 10.4833 23.895 13.2018 20.1536C13.4691 19.7881 13.3892 19.2748 13.0237 19.0076ZM9.65087 36.3589C10.8335 38.3954 10.1331 41.0186 8.09346 42.2042C7.43304 42.5851 6.68657 42.7848 5.93401 42.7848C4.41041 42.7848 2.98818 41.9646 2.22021 40.6469C1.64579 39.6456 1.48913 38.4875 1.78709 37.3818C2.08506 36.2791 2.79774 35.3515 3.80217 34.774C4.45338 34.3962 5.19059 34.1965 5.93701 34.1965C7.46061 34.1965 8.8829 35.0259 9.65087 36.3589Z" fill="url(#paint0_linear_665_11216)"/>
<defs>
<linearGradient id="paint0_linear_665_11216" x1="-22.5" y1="8.5" x2="94" y2="87" gradientUnits="userSpaceOnUse">
<stop stop-color="#E8505E"/>
<stop offset="1" stop-color="white"/>
</linearGradient>
</defs>
</svg>
