<svg width="35" height="35" viewBox="0 0 35 35" fill="none" xmlns="http://www.w3.org/2000/svg">
<path fill-rule="evenodd" clip-rule="evenodd" d="M19.2077 20.5436H20.6396V19.099C20.6396 17.7965 21.7038 16.7324 23.0064 16.7324H28.4496C29.7522 16.7324 30.8164 17.7965 30.8164 19.099V20.5436H32.2483C33.762 20.5436 35 21.7801 35 23.2951V32.2486C35 33.7621 33.7634 35 32.2483 35L19.2077 34.9986C17.694 34.9986 16.456 33.7621 16.456 32.2471V23.2936C16.4574 21.7801 17.694 20.5436 19.2077 20.5436ZM25.3142 10.2274C25.1347 10.0479 25.1347 9.75492 25.3142 9.57545C25.4937 9.39594 25.7867 9.39594 25.9662 9.57545L27.1496 10.7588L30.5045 7.40419C30.6841 7.22468 30.9771 7.22468 31.1566 7.40419C31.3361 7.58369 31.3361 7.87666 31.1566 8.05613L27.477 11.7368C27.2975 11.9163 27.0045 11.9163 26.825 11.7368L25.3142 10.2274ZM28.2354 4.11859C25.2237 4.11859 22.7837 6.55983 22.7837 9.56971C22.7837 12.5811 25.2252 15.0208 28.2354 15.0208C31.2456 15.0208 33.687 12.5796 33.687 9.56971C33.6885 6.55979 31.247 4.11859 28.2354 4.11859ZM31.438 6.36885C29.6701 4.59966 26.8022 4.59966 25.0326 6.36885C23.2633 8.1366 23.2633 11.0042 25.0326 12.7736C26.8006 14.5413 29.6685 14.5428 31.438 12.7736C33.2076 11.0044 33.2074 8.13675 31.438 6.36885ZM5.27825 21.2576H8.80117V20.7148H5.27825V21.2576ZM8.79974 22.181H5.27681V24.9697H8.79974V22.181ZM4.81577 19.7914H9.26078C9.51499 19.7914 9.72179 19.9982 9.72179 20.2524V25.4307C9.72179 25.6849 9.51498 25.8917 9.26078 25.8917L4.81577 25.8931C4.56156 25.8931 4.35476 25.6863 4.35476 25.4322V20.2523C4.35476 19.9982 4.56157 19.7914 4.81577 19.7914ZM13.8937 2.5681e-05C11.5886 2.5681e-05 9.5005 0.934892 7.98941 2.44557C4.64745 5.78719 4.7451 11.2285 8.19479 14.4507C3.25306 16.6765 0 21.6021 0 27.1223C0 27.3765 0.206809 27.5833 0.461009 27.5833H14.8141C15.0683 27.5833 15.2751 27.3765 15.2751 27.1223C15.2751 26.8681 15.0683 26.6613 14.8141 26.6613H12.7216L13.1812 18.5924C13.6249 18.8322 14.1607 18.8322 14.6044 18.5924L14.7638 21.3898C14.7782 21.6439 14.9951 21.8378 15.2493 21.8235C15.5035 21.8091 15.6974 21.5922 15.6844 21.3381L15.4762 17.6791L16.5792 16.256C17.3791 15.9846 18.1245 15.5954 18.7937 15.1086C19.4501 15.3771 20.0676 15.6916 20.6723 16.0621C20.8891 16.1942 21.1721 16.1267 21.3056 15.9085C21.4378 15.6916 21.3703 15.4087 21.152 15.2752C20.6464 14.965 20.1337 14.6936 19.5923 14.4494C21.2281 12.9215 22.2434 10.7504 22.2434 8.34763C22.242 3.738 18.5052 2.5681e-05 13.8937 2.5681e-05ZM15.1446 16.6048L14.3547 17.623C14.1206 17.9245 13.6653 17.9245 13.4312 17.623L12.6413 16.6048C13.47 16.7283 14.3173 16.7283 15.1446 16.6048ZM11.208 16.2559L12.311 17.679L11.7997 26.6615H0.93206C1.11158 21.5277 4.30134 17.0257 8.99338 15.11C9.66407 15.5954 10.4095 15.9845 11.208 16.2559ZM19.1443 3.09754C22.044 5.99688 22.044 10.7 19.1443 13.5991C16.2447 16.4982 11.5411 16.4984 8.64175 13.5991C5.74213 10.6997 5.74213 5.99662 8.64175 3.09754C11.5428 0.198204 16.245 0.198204 19.1443 3.09754ZM21.5629 20.5439H29.8955V19.0992C29.8955 18.3065 29.2449 17.6546 28.4507 17.6546H23.0075C22.2148 17.6546 21.5627 18.3051 21.5627 19.0992L21.5629 20.5439ZM25.0786 26.1817H26.3812C27.0505 26.1817 27.6365 26.6025 27.8677 27.2099C30.0291 26.9945 32.3542 26.4072 34.0793 25.333V23.2924C34.0793 22.2872 33.2564 21.4643 32.251 21.4643L19.2075 21.4658C18.2036 21.4658 17.3793 22.2886 17.3793 23.2939V25.3345C19.1041 26.4086 21.4309 26.9945 23.5909 27.2114C23.8221 26.6025 24.4094 26.1817 25.0786 26.1817ZM27.928 28.1319C27.7628 28.8413 27.1252 29.3597 26.3798 29.3597H25.0772C24.3332 29.3597 23.6956 28.8398 23.529 28.1319C21.3877 27.9208 19.1616 27.3736 17.378 26.4V32.2474C17.378 33.2512 18.201 34.0755 19.2063 34.0755H32.2498C33.2551 34.0755 34.0781 33.2527 34.0781 32.2474L34.0795 26.4C32.2957 27.3736 30.0698 27.9208 27.9285 28.1319H27.928ZM26.3812 27.1051H25.0786C24.497 27.1051 24.1839 27.8174 24.609 28.241C24.7296 28.3616 24.8962 28.4363 25.0786 28.4363H26.3812C26.9629 28.4363 27.276 27.724 26.8508 27.3004C26.7302 27.1798 26.5636 27.1051 26.3812 27.1051Z" fill="black"/>
</svg>
