<svg width="18" height="17" viewBox="0 0 18 17" fill="none" xmlns="http://www.w3.org/2000/svg">
<path fill-rule="evenodd" clip-rule="evenodd" d="M13.8042 2.87219H15.0478L15.0471 5.13819C14.6352 4.78881 14.2176 4.4338 13.8035 4.07595V2.87212L13.8042 2.87219ZM15.5436 16.8723H15.5429C15.9512 16.8716 16.2822 16.5434 16.2829 16.1383V9.56627L8.99946 3.11594L2.45764 8.9097V16.139V16.1383C2.45836 16.5441 2.78932 16.8723 3.19841 16.8723H6.42004V13.2679C6.42004 12.312 6.93424 11.4288 7.76877 10.9511C8.60328 10.4735 9.63168 10.4735 10.4655 10.9511C11.3 11.4287 11.8142 12.312 11.8142 13.2679V16.8723L15.5436 16.8723ZM17.7134 9.11821H17.7127C17.9328 8.87377 17.9116 8.49833 17.6651 8.27997C16.9577 7.65445 16.1346 6.95781 15.2624 6.21955C14.604 5.66237 13.9172 5.08193 13.2404 4.49657L13.2368 4.49375H13.2361C11.9208 3.38995 10.6708 2.21152 9.4932 0.964012C9.37175 0.830175 9.19703 0.75833 9.01593 0.767491H8.98255C8.80144 0.75763 8.62602 0.830184 8.50527 0.964012C7.07629 2.55104 4.77091 4.50006 2.73673 6.22021C1.86385 6.95771 1.04 7.65508 0.332545 8.28064C0.0860908 8.49899 0.0647816 8.87446 0.28496 9.11887C0.505833 9.36401 0.884396 9.38444 1.13083 9.16607L8.76865 2.40089C8.90004 2.28536 9.0982 2.28536 9.22887 2.40089L16.8674 9.16607C17.1139 9.38443 17.4924 9.36331 17.7126 9.11887L17.7134 9.11821Z" fill="#E8505E"/>
</svg>
