<svg width="213" height="25" viewBox="0 0 213 25" fill="none" xmlns="http://www.w3.org/2000/svg">
<path d="M185.82 5.21221C186.871 5.21221 187.723 4.37257 187.723 3.33682C187.723 2.30107 186.871 1.46143 185.82 1.46143C184.77 1.46143 183.918 2.30107 183.918 3.33682C183.918 4.37257 184.77 5.21221 185.82 5.21221Z" fill="#3851A2"/>
<path d="M47.1337 0.0117188V2.50502H42.0618V18.744H39.5328V2.50502H34.4609V0.0117188H47.1337Z" fill="#E8505E"/>
<path d="M61.1962 18.7435H58.6671V12.5021C58.6671 11.4316 58.3043 10.5373 57.5813 9.82453C56.8583 9.11177 55.9539 8.75404 54.8653 8.75404C53.7767 8.75404 52.8613 9.10906 52.1383 9.81911C51.4154 10.5292 51.0525 11.4235 51.0525 12.5021V18.7435H48.5234V0.0112305H51.0525V7.50468C52.1796 6.66997 53.4496 6.25261 54.8653 6.25261C56.6631 6.25261 58.1668 6.85155 59.3791 8.04942C60.5886 9.24728 61.1962 10.7324 61.1962 12.5048V18.7462V18.7435Z" fill="#E8505E"/>
<path d="M73.4416 7.955C74.6511 9.15287 75.2587 10.638 75.2587 12.4104C75.2587 14.1828 74.6511 15.6571 73.4361 16.855C72.2211 18.0529 70.7174 18.6518 68.9278 18.6518C67.1382 18.6518 65.6318 18.0529 64.414 16.855C63.1962 15.6571 62.5859 14.1774 62.5859 12.4104C62.5859 10.6434 63.1935 9.15287 64.4085 7.955C65.6235 6.75714 67.13 6.1582 68.9278 6.1582C70.7256 6.1582 72.2293 6.75714 73.4416 7.955ZM66.2008 9.73283C65.4778 10.4456 65.115 11.3399 65.115 12.4186C65.115 13.4972 65.4779 14.378 66.2063 15.0907C66.9348 15.8035 67.8392 16.1585 68.9278 16.1585C70.0164 16.1585 70.9208 15.8035 71.6438 15.0907C72.3668 14.378 72.7296 13.4891 72.7296 12.4186C72.7296 11.3481 72.3668 10.4564 71.6438 9.74097C70.9208 9.0255 70.0164 8.66776 68.9278 8.66776C67.8392 8.66776 66.9238 9.02279 66.2008 9.73555V9.73283Z" fill="#E8505E"/>
<path d="M89.3173 6.25391V12.5061C89.3173 14.2704 88.7097 15.7528 87.4947 16.9507C86.2797 18.1486 84.776 18.7475 82.9864 18.7475C81.1968 18.7475 79.6821 18.1513 78.4671 16.9561C77.2521 15.761 76.6445 14.2785 76.6445 12.5061V6.25391H79.1736V12.5061C79.1736 13.5766 79.5364 14.4709 80.2649 15.1837C80.9934 15.8965 81.8978 16.2542 82.9864 16.2542C84.075 16.2542 84.9794 15.8965 85.7024 15.1837C86.4253 14.4709 86.7882 13.5793 86.7882 12.5061V6.25391H89.3173Z" fill="#E8505E"/>
<path d="M101.568 8.05071C102.777 9.24857 103.385 10.7337 103.385 12.5061V18.7475C103.385 20.5118 102.777 21.9969 101.562 23.1975C100.347 24.3981 98.8435 24.9997 97.054 24.9997C95.7345 24.9997 94.5496 24.6501 93.494 23.9482C92.4384 23.2463 91.6632 22.2923 91.1684 21.089L93.6013 20.3221C94.272 21.772 95.4238 22.4956 97.054 22.4956C98.1398 22.4956 99.047 22.1378 99.7699 21.4251C100.493 20.7123 100.856 19.8207 100.856 18.7475V17.5063C99.7287 18.3328 98.4614 18.7475 97.0567 18.7475C95.2589 18.7475 93.7525 18.1513 92.5374 16.9561C91.3224 15.761 90.7148 14.2785 90.7148 12.5061C90.7148 10.7337 91.3224 9.24857 92.5374 8.05071C93.7525 6.85284 95.2589 6.25391 97.0567 6.25391C98.8545 6.25391 100.358 6.85284 101.571 8.05071H101.568ZM94.3325 9.82854C93.604 10.5413 93.2411 11.4329 93.2411 12.5061C93.2411 13.5793 93.604 14.4709 94.3325 15.1837C95.061 15.8965 95.9654 16.2542 97.054 16.2542C98.1425 16.2542 99.047 15.8965 99.7699 15.1837C100.493 14.4709 100.856 13.5793 100.856 12.5061C100.856 11.4329 100.493 10.5413 99.7699 9.82854C99.047 9.11578 98.1425 8.75804 97.054 8.75804C95.9654 8.75804 95.061 9.11578 94.3325 9.82854Z" fill="#E8505E"/>
<path d="M117.446 18.7435H114.917V12.5021C114.917 11.4316 114.554 10.5373 113.831 9.82453C113.108 9.11177 112.204 8.75404 111.115 8.75404C110.027 8.75404 109.111 9.10906 108.388 9.81911C107.665 10.5292 107.302 11.4235 107.302 12.5021V18.7435H104.773V0.0112305H107.302V7.50468C108.43 6.66997 109.7 6.25261 111.115 6.25261C112.913 6.25261 114.417 6.85155 115.629 8.04942C116.839 9.24728 117.446 10.7324 117.446 12.5048V18.7462V18.7435Z" fill="#E8505E"/>
<path d="M125.174 5.62582V8.13267H121.361V18.7454H118.832V0.0131836H121.361V5.62582H125.174Z" fill="#E8505E"/>
<path d="M152.248 0.0112305V18.7435H149.705V4.20648L144.18 13.1282H142.742V13.1173L141.783 13.1065L136.4 4.38535V18.7462H133.871V0.0139432H136.675L143.006 10.2961L149.348 0.0139432H152.248V0.0112305Z" fill="#3851A2"/>
<path d="M157.786 15.5713C158.44 16.0266 159.172 16.2542 159.98 16.2542H165.673V18.7827H159.944V18.7475C158.154 18.7394 156.656 18.1377 155.449 16.9453C154.243 15.7528 153.641 14.2731 153.641 12.5061C153.641 10.7391 154.248 9.24858 155.463 8.05071C156.678 6.85284 158.185 6.25391 159.982 6.25391C161.525 6.25391 162.869 6.71462 164.01 7.63877C165.153 8.56291 165.876 9.76891 166.179 11.2622L164.595 13.7717H156.395C156.667 14.517 157.129 15.116 157.786 15.5713ZM157.786 9.44098C157.132 9.89628 156.667 10.4952 156.395 11.2405H163.553C163.281 10.4871 162.822 9.88545 162.176 9.43557C161.53 8.98569 160.799 8.75804 159.982 8.75804C159.166 8.75804 158.443 8.98568 157.789 9.44098H157.786Z" fill="#3851A2"/>
<path d="M173.912 5.62582V8.13267H170.099V18.7454H167.57V0.0131836H170.099V5.62582H173.912Z" fill="#3851A2"/>
<path d="M184.078 6.73817C184.078 6.94414 183.893 7.29374 183.525 7.78969C183.157 8.28564 182.901 8.62982 182.758 8.81682C182.406 8.7057 182.03 8.6515 181.631 8.6515C180.537 8.6515 179.627 9.00924 178.904 9.722C178.181 10.4348 177.818 11.3318 177.818 12.4104V18.6518H175.289V12.4104C175.289 10.638 175.897 9.15287 177.112 7.955C178.327 6.75714 179.833 6.1582 181.631 6.1582C182.461 6.1582 183.242 6.29643 183.968 6.57286C184.039 6.59725 184.075 6.65145 184.075 6.73817H184.078Z" fill="#3851A2"/>
<path d="M187.088 6.1582V18.6518H184.559V6.1582C185.356 6.54033 186.29 6.54033 187.088 6.1582Z" fill="#3851A2"/>
<path d="M197.753 14.8795L199.551 16.6519C198.289 18.0476 196.709 18.7441 194.815 18.7441C192.92 18.7441 191.51 18.1479 190.295 16.9527C189.08 15.7575 188.473 14.2751 188.473 12.5027C188.473 10.7303 189.08 9.24516 190.295 8.04729C191.51 6.84942 193.017 6.25049 194.815 6.25049C196.772 6.25049 198.388 6.99577 199.658 8.48361L197.847 10.256C197.088 9.25599 196.076 8.75462 194.815 8.75462C193.729 8.75462 192.822 9.11236 192.093 9.82512C191.365 10.5379 191.002 11.4295 191.002 12.5027C191.002 13.5759 191.365 14.4675 192.093 15.1803C192.819 15.8931 193.729 16.2508 194.815 16.2508C196.013 16.2508 196.992 15.7928 197.753 14.8795Z" fill="#3851A2"/>
<path d="M210.425 12.1135C211.774 12.8235 212.451 13.7829 212.451 14.9889C212.451 16.1949 211.774 17.1543 210.425 17.8643C209.314 18.447 208.091 18.7397 206.758 18.7397C205.424 18.7397 204.201 18.447 203.088 17.8643C201.73 17.1543 201.051 16.1976 201.051 14.9916H203.58C203.58 15.4334 204.022 15.7721 204.91 16.0079C205.501 16.1651 206.117 16.2437 206.758 16.2437C208.443 16.2437 209.287 15.829 209.287 14.997C209.287 14.165 208.443 13.7612 206.758 13.7612C205.422 13.7612 204.201 13.4685 203.088 12.8859C201.73 12.1677 201.051 11.2056 201.051 9.99689C201.051 8.78818 201.73 7.8315 203.088 7.12145C204.207 6.53878 205.43 6.24609 206.758 6.24609C208.085 6.24609 209.314 6.53878 210.425 7.12145C211.774 7.8315 212.451 8.78818 212.451 9.99418H209.922C209.922 9.56056 209.479 9.22721 208.591 8.98872C208 8.83153 207.387 8.75294 206.758 8.75294C205.064 8.75294 204.215 9.16488 204.215 9.98875C204.215 10.8126 205.062 11.2354 206.758 11.2354C208.091 11.2354 209.314 11.5281 210.425 12.1108V12.1135Z" fill="#3851A2"/>
<path d="M20.9509 0H1.85938V4.09226H20.9509V0Z" fill="#415AA4"/>
<path d="M19.5408 4.90186H0.449219V8.99412H19.5408V4.90186Z" fill="#E8505E"/>
<path d="M19.5408 14.6558H0.449219V18.748H19.5408V14.6558Z" fill="#E8505E"/>
<path d="M20.9587 9.76025H1.86719V13.8525H20.9587V9.76025Z" fill="#415AA4"/>
</svg>
