<svg width="240" height="40" viewBox="0 0 160 20" fill="none" xmlns="http://www.w3.org/2000/svg">
<path d="M139.899 3.98953C140.691 3.98953 141.334 3.34675 141.334 2.55385C141.334 1.76094 140.691 1.11816 139.899 1.11816C139.106 1.11816 138.463 1.76094 138.463 2.55385C138.463 3.34675 139.106 3.98953 139.899 3.98953Z" fill="white"/>
<path d="M35.2284 0.00976562V1.91848H31.4006V14.35H29.4919V1.91848H25.6641V0.00976562H35.2284Z" fill="white"/>
<path d="M45.8397 14.35H43.931V9.572C43.931 8.7525 43.6571 8.06785 43.1115 7.52221C42.5658 6.97656 41.8833 6.7027 41.0617 6.7027C40.2401 6.7027 39.5492 6.97449 39.0036 7.51805C38.458 8.06162 38.1841 8.74627 38.1841 9.572V14.35H36.2754V0.00976562H38.1841V5.74628C39.0347 5.10727 39.9932 4.78777 41.0617 4.78777C42.4185 4.78777 43.5534 5.24628 44.4683 6.16329C45.3812 7.0803 45.8397 8.21723 45.8397 9.57407V14.3521V14.35Z" fill="white"/>
<path d="M55.0836 6.09134C55.9964 7.00835 56.4549 8.14528 56.4549 9.50212C56.4549 10.859 55.9964 11.9876 55.0794 12.9046C54.1624 13.8216 53.0275 14.2801 51.6769 14.2801C50.3263 14.2801 49.1894 13.8216 48.2703 12.9046C47.3512 11.9876 46.8906 10.8548 46.8906 9.50212C46.8906 8.14943 47.3491 7.00835 48.2661 6.09134C49.1832 5.17433 50.3201 4.71582 51.6769 4.71582C53.0338 4.71582 54.1686 5.17433 55.0836 6.09134ZM49.6188 7.45233C49.0732 7.99797 48.7993 8.68263 48.7993 9.50835C48.7993 10.3341 49.0732 11.0083 49.623 11.554C50.1728 12.0996 50.8554 12.3714 51.6769 12.3714C52.4985 12.3714 53.1811 12.0996 53.7267 11.554C54.2724 11.0083 54.5462 10.3279 54.5462 9.50835C54.5462 8.68885 54.2724 8.00628 53.7267 7.45856C53.1811 6.91084 52.4985 6.63698 51.6769 6.63698C50.8554 6.63698 50.1645 6.90877 49.6188 7.45441V7.45233Z" fill="white"/>
<path d="M67.0663 4.78809V9.57439C67.0663 10.925 66.6077 12.0599 65.6907 12.9769C64.7737 13.8939 63.6389 14.3524 62.2883 14.3524C60.9376 14.3524 59.7945 13.896 58.8775 12.981C57.9605 12.0661 57.502 10.9312 57.502 9.57439V4.78809H59.4107V9.57439C59.4107 10.3939 59.6845 11.0785 60.2343 11.6242C60.7841 12.1698 61.4667 12.4437 62.2883 12.4437C63.1098 12.4437 63.7924 12.1698 64.338 11.6242C64.8837 11.0785 65.1575 10.396 65.1575 9.57439V4.78809H67.0663Z" fill="white"/>
<path d="M76.31 6.1636C77.2229 7.08062 77.6814 8.21754 77.6814 9.57439V14.3524C77.6814 15.703 77.2229 16.8399 76.3059 17.759C75.3888 18.6781 74.254 19.1387 72.9034 19.1387C71.9075 19.1387 71.0133 18.871 70.2166 18.3337C69.42 17.7964 68.8349 17.0661 68.4615 16.1449L70.2976 15.5578C70.8038 16.6677 71.6731 17.2217 72.9034 17.2217C73.7229 17.2217 74.4075 16.9478 74.9532 16.4022C75.4988 15.8565 75.7727 15.174 75.7727 14.3524V13.4022C74.922 14.035 73.9656 14.3524 72.9054 14.3524C71.5486 14.3524 70.4117 13.896 69.4947 12.981C68.5776 12.0661 68.1191 10.9312 68.1191 9.57439C68.1191 8.21754 68.5776 7.08062 69.4947 6.1636C70.4117 5.24659 71.5486 4.78809 72.9054 4.78809C74.2623 4.78809 75.3971 5.24659 76.3121 6.1636H76.31ZM70.8494 7.5246C70.2996 8.07024 70.0258 8.75281 70.0258 9.57439C70.0258 10.396 70.2996 11.0785 70.8494 11.6242C71.3992 12.1698 72.0818 12.4437 72.9034 12.4437C73.7249 12.4437 74.4075 12.1698 74.9532 11.6242C75.4988 11.0785 75.7727 10.396 75.7727 9.57439C75.7727 8.75281 75.4988 8.07024 74.9532 7.5246C74.4075 6.97895 73.7249 6.70509 72.9034 6.70509C72.0818 6.70509 71.3992 6.97895 70.8494 7.5246Z" fill="white"/>
<path d="M88.2928 14.35H86.3841V9.572C86.3841 8.7525 86.1103 8.06785 85.5646 7.52221C85.019 6.97656 84.3364 6.7027 83.5148 6.7027C82.6932 6.7027 82.0024 6.97449 81.4567 7.51805C80.9111 8.06162 80.6372 8.74627 80.6372 9.572V14.35H78.7285V0.00976562H80.6372V5.74628C81.4879 5.10727 82.4464 4.78777 83.5148 4.78777C84.8717 4.78777 86.0065 5.24628 86.9214 6.16329C87.8343 7.0803 88.2928 8.21723 88.2928 9.57407V14.3521V14.35Z" fill="white"/>
<path d="M94.1261 4.3084V6.22748H91.2486V14.3519H89.3398V0.0117188H91.2486V4.3084H94.1261Z" fill="white"/>
<path d="M114.559 0.00976562V14.35H112.64V3.22138L108.47 10.0512H107.384V10.0429L106.66 10.0346L102.598 3.35831V14.3521H100.689V0.0118423H102.806L107.584 7.8832L112.37 0.0118423H114.559V0.00976562Z" fill="white"/>
<path d="M118.742 11.9209C119.236 12.2694 119.788 12.4437 120.398 12.4437H124.694V14.3794H120.371V14.3524C119.02 14.3462 117.889 13.8856 116.978 12.9727C116.068 12.0598 115.613 10.9271 115.613 9.57439C115.613 8.22169 116.072 7.08061 116.989 6.1636C117.906 5.24659 119.043 4.78809 120.4 4.78809C121.563 4.78809 122.578 5.14078 123.439 5.84825C124.302 6.55572 124.848 7.47895 125.076 8.6221L123.881 10.5433H117.692C117.898 11.1138 118.246 11.5723 118.742 11.9209ZM118.742 7.22791C118.248 7.57645 117.898 8.03496 117.692 8.6055H123.095C122.889 8.02874 122.543 7.56816 122.055 7.22377C121.568 6.87937 121.016 6.70509 120.4 6.70509C119.783 6.70509 119.238 6.87936 118.744 7.22791H118.742Z" fill="white"/>
<path d="M130.909 4.3084V6.22748H128.032V14.3519H126.123V0.0117188H128.032V4.3084H130.909Z" fill="white"/>
<path d="M138.582 5.15981C138.582 5.31748 138.443 5.58512 138.165 5.96479C137.887 6.34445 137.694 6.60793 137.586 6.75109C137.321 6.66602 137.036 6.62453 136.736 6.62453C135.91 6.62453 135.223 6.89839 134.677 7.44404C134.132 7.98968 133.858 8.6764 133.858 9.50212V14.2801H131.949V9.50212C131.949 8.14528 132.408 7.00835 133.325 6.09134C134.242 5.17433 135.379 4.71582 136.736 4.71582C137.362 4.71582 137.951 4.82164 138.499 5.03325C138.553 5.05193 138.58 5.09342 138.58 5.15981H138.582Z" fill="white"/>
<path d="M140.854 4.71582V14.2801H138.945V4.71582C139.547 5.00835 140.252 5.00835 140.854 4.71582Z" fill="white"/>
<path d="M148.905 11.3909L150.261 12.7478C149.309 13.8163 148.116 14.3495 146.687 14.3495C145.257 14.3495 144.193 13.893 143.276 12.9781C142.359 12.0632 141.9 10.9283 141.9 9.57146C141.9 8.21461 142.359 7.07769 143.276 6.16067C144.193 5.24366 145.33 4.78516 146.687 4.78516C148.164 4.78516 149.384 5.35569 150.342 6.4947L148.975 7.85154C148.402 7.08598 147.639 6.70216 146.687 6.70216C145.867 6.70216 145.183 6.97602 144.633 7.52167C144.083 8.06731 143.809 8.74988 143.809 9.57146C143.809 10.393 144.083 11.0756 144.633 11.6212C145.18 12.1669 145.867 12.4407 146.687 12.4407C147.591 12.4407 148.33 12.0901 148.905 11.3909Z" fill="white"/>
<path d="M158.467 9.27588C159.486 9.81945 159.996 10.5539 159.996 11.4771C159.996 12.4004 159.486 13.1348 158.467 13.6784C157.629 14.1244 156.706 14.3485 155.7 14.3485C154.693 14.3485 153.77 14.1244 152.93 13.6784C151.905 13.1348 151.393 12.4024 151.393 11.4792H153.301C153.301 11.8174 153.635 12.0767 154.305 12.2572C154.751 12.3775 155.216 12.4377 155.7 12.4377C156.971 12.4377 157.608 12.1203 157.608 11.4833C157.608 10.8464 156.971 10.5373 155.7 10.5373C154.691 10.5373 153.77 10.3132 152.93 9.86716C151.905 9.31737 151.393 8.58086 151.393 7.65555C151.393 6.73024 151.905 5.99787 152.93 5.4543C153.774 5.00824 154.698 4.78418 155.7 4.78418C156.702 4.78418 157.629 5.00824 158.467 5.4543C159.486 5.99787 159.996 6.73024 159.996 7.65347H158.088C158.088 7.32152 157.754 7.06633 157.083 6.88376C156.637 6.76343 156.175 6.70326 155.7 6.70326C154.422 6.70326 153.781 7.01862 153.781 7.64932C153.781 8.28002 154.42 8.60367 155.7 8.60367C156.706 8.60367 157.629 8.82775 158.467 9.2738V9.27588Z" fill="white"/>
<path d="M15.4692 0H1.06055V3.13278H15.4692V0Z" fill="white"/>
<path d="M14.4048 3.75293H-0.00390625V6.88571H14.4048V3.75293Z" fill="white"/>
<path d="M14.4048 11.2197H-0.00390625V14.3525H14.4048V11.2197Z" fill="white"/>
<path d="M15.4751 7.47168H1.06641V10.6044H15.4751V7.47168Z" fill="white"/>
</svg>
